<svg width="24" height="24" viewBox="0 0 24 24" fill="none" xmlns="http://www.w3.org/2000/svg">
<path d="M2 5C2 3.34315 3.34315 2 5 2H19C20.6569 2 22 3.34315 22 5V19C22 20.6569 20.6569 22 19 22H5C3.34315 22 2 20.6569 2 19V5Z" fill="url(#paint0_linear_41743_62445)"/>
<path d="M2 5C2 3.34315 3.34315 2 5 2H19C20.6569 2 22 3.34315 22 5V19C22 20.6569 20.6569 22 19 22H5C3.34315 22 2 20.6569 2 19V5Z" fill="url(#paint1_radial_41743_62445)" fill-opacity="0.2"/>
<path fill-rule="evenodd" clip-rule="evenodd" d="M19 3H5C3.89543 3 3 3.89543 3 5V19C3 20.1046 3.89543 21 5 21H19C20.1046 21 21 20.1046 21 19V5C21 3.89543 20.1046 3 19 3ZM5 2C3.34315 2 2 3.34315 2 5V19C2 20.6569 3.34315 22 5 22H19C20.6569 22 22 20.6569 22 19V5C22 3.34315 20.6569 2 19 2H5Z" fill="url(#paint2_linear_41743_62445)"/>
<path fill-rule="evenodd" clip-rule="evenodd" d="M10.499 9H8.49902C8.22288 9 7.99902 9.22386 7.99902 9.5V12H10.999V9.5C10.999 9.22386 10.7752 9 10.499 9ZM11.999 12L11.999 9.5C11.999 8.67157 11.3275 8 10.499 8H8.49902C7.6706 8 6.99902 8.67157 6.99902 9.5V12V13V15.5C6.99902 16.3284 7.6706 17 8.49902 17H10.999H11.999H14.499C15.3275 17 15.999 16.3284 15.999 15.5V13.5C15.999 12.6716 15.3275 12 14.499 12H11.999ZM11.999 16H14.499C14.7752 16 14.999 15.7761 14.999 15.5V13.5C14.999 13.2239 14.7752 13 14.499 13H11.999V16ZM10.999 16L10.999 13L7.99902 13L7.99902 15.5C7.99902 15.7761 8.22288 16 8.49902 16L10.999 16Z" fill="url(#paint3_linear_41743_62445)"/>
<path d="M13.1026 7.43934C13.6884 6.85355 14.6381 6.85355 15.2239 7.43934L16.6381 8.85355C17.2239 9.43934 17.2239 10.3891 16.6381 10.9749L15.2239 12.3891C14.6381 12.9749 13.6884 12.9749 13.1026 12.3891L11.6884 10.9749C11.1026 10.3891 11.1026 9.43934 11.6884 8.85355L13.1026 7.43934Z" fill="url(#paint4_linear_41743_62445)"/>
<defs>
<linearGradient id="paint0_linear_41743_62445" x1="7.55556" y1="2" x2="10.0855" y2="22.2393" gradientUnits="userSpaceOnUse">
<stop stop-color="white"/>
<stop offset="1" stop-color="#EBEBEB"/>
</linearGradient>
<radialGradient id="paint1_radial_41743_62445" cx="0" cy="0" r="1" gradientUnits="userSpaceOnUse" gradientTransform="translate(8.38889 7.20833) rotate(56.3099) scale(19.0293 16.4677)">
<stop offset="0.177083" stop-color="white"/>
<stop offset="1" stop-color="#B8B8B8"/>
</radialGradient>
<linearGradient id="paint2_linear_41743_62445" x1="8.45833" y1="2" x2="11.1512" y2="22.1965" gradientUnits="userSpaceOnUse">
<stop stop-color="#BBBBBB"/>
<stop offset="1" stop-color="#888888"/>
</linearGradient>
<linearGradient id="paint3_linear_41743_62445" x1="6.99902" y1="8" x2="15.999" y2="17" gradientUnits="userSpaceOnUse">
<stop stop-color="#EB6D00"/>
<stop offset="1" stop-color="#B85500"/>
</linearGradient>
<linearGradient id="paint4_linear_41743_62445" x1="11.249" y1="7" x2="17.0775" y2="12.8284" gradientUnits="userSpaceOnUse">
<stop stop-color="#EB6D00"/>
<stop offset="1" stop-color="#B85500"/>
</linearGradient>
</defs>
</svg>
