<svg width="20" height="20" viewBox="0 0 20 20" fill="none" xmlns="http://www.w3.org/2000/svg">
<path d="M2 4.5C2 3.11929 3.11929 2 4.5 2H15.5C16.8807 2 18 3.11929 18 4.5V15.5C18 16.8807 16.8807 18 15.5 18H4.5C3.11929 18 2 16.8807 2 15.5V4.5Z" fill="url(#paint0_linear_41743_62453)"/>
<path d="M2 4.5C2 3.11929 3.11929 2 4.5 2H15.5C16.8807 2 18 3.11929 18 4.5V15.5C18 16.8807 16.8807 18 15.5 18H4.5C3.11929 18 2 16.8807 2 15.5V4.5Z" fill="url(#paint1_radial_41743_62453)" fill-opacity="0.2"/>
<path fill-rule="evenodd" clip-rule="evenodd" d="M15.5 3H4.5C3.67157 3 3 3.67157 3 4.5V15.5C3 16.3284 3.67157 17 4.5 17H15.5C16.3284 17 17 16.3284 17 15.5V4.5C17 3.67157 16.3284 3 15.5 3ZM4.5 2C3.11929 2 2 3.11929 2 4.5V15.5C2 16.8807 3.11929 18 4.5 18H15.5C16.8807 18 18 16.8807 18 15.5V4.5C18 3.11929 16.8807 2 15.5 2H4.5Z" fill="url(#paint2_linear_41743_62453)"/>
<path fill-rule="evenodd" clip-rule="evenodd" d="M12.8878 6.43255C12.302 5.84676 11.3523 5.84676 10.7665 6.43255L10.0594 7.13966C9.91181 7.28723 9.80141 7.45791 9.72819 7.64004C9.45692 7.25303 9.00752 7 8.49902 7H7.49902C6.6706 7 5.99902 7.67158 5.99902 8.5V12.5C5.99902 13.3284 6.6706 14 7.49902 14H11.499C12.3275 14 12.999 13.3284 12.999 12.5V11.5C12.999 11.0072 12.7614 10.5699 12.3944 10.2964C12.5739 10.2232 12.7421 10.1138 12.8878 9.96808L13.5949 9.26098C14.1807 8.67519 14.1807 7.72544 13.5949 7.13966L12.8878 6.43255ZM10.7994 10C10.7883 9.98956 10.7773 9.97892 10.7665 9.96808L10.0594 9.26098C10.0385 9.24011 10.0184 9.21879 9.99902 9.19704L9.99902 10H10.7994ZM7.49902 8H8.49902C8.77517 8 8.99902 8.22386 8.99902 8.5V10H6.99902V8.5C6.99902 8.22386 7.22288 8 7.49902 8ZM11.499 13H9.99902L9.99902 11H11.499C11.7752 11 11.999 11.2239 11.999 11.5V12.5C11.999 12.7761 11.7752 13 11.499 13ZM8.99902 11L8.99902 13H7.49902C7.22288 13 6.99902 12.7761 6.99902 12.5L6.99902 11L8.99902 11Z" fill="url(#paint3_linear_41743_62453)"/>
<defs>
<linearGradient id="paint0_linear_41743_62453" x1="6.44444" y1="2" x2="8.46838" y2="18.1915" gradientUnits="userSpaceOnUse">
<stop stop-color="white"/>
<stop offset="1" stop-color="#EBEBEB"/>
</linearGradient>
<radialGradient id="paint1_radial_41743_62453" cx="0" cy="0" r="1" gradientUnits="userSpaceOnUse" gradientTransform="translate(7.11111 6.16667) rotate(56.3099) scale(15.2234 13.1741)">
<stop offset="0.177083" stop-color="white"/>
<stop offset="1" stop-color="#B8B8B8"/>
</radialGradient>
<linearGradient id="paint2_linear_41743_62453" x1="7.16667" y1="2" x2="9.32096" y2="18.1572" gradientUnits="userSpaceOnUse">
<stop stop-color="#BBBBBB"/>
<stop offset="1" stop-color="#888888"/>
</linearGradient>
<linearGradient id="paint3_linear_41743_62453" x1="5.99902" y1="5.99321" x2="14.0058" y2="14.0284" gradientUnits="userSpaceOnUse">
<stop stop-color="#EB6D00"/>
<stop offset="1" stop-color="#B85500"/>
</linearGradient>
</defs>
</svg>
