<svg width="40" height="40" viewBox="0 0 40 40" fill="none" xmlns="http://www.w3.org/2000/svg">
<rect x="4.5" y="4.5" width="31" height="31" rx="3.5" fill="url(#paint0_linear_41743_63571)"/>
<rect x="4.5" y="4.5" width="31" height="31" rx="3.5" fill="url(#paint1_radial_41743_63571)" fill-opacity="0.2"/>
<rect x="4.5" y="4.5" width="31" height="31" rx="3.5" stroke="url(#paint2_linear_41743_63571)"/>
<path d="M20 15.4586C15.858 15.4586 12.5 14.2821 12.5 12.7291V27.2705C12.5 28.7646 15.7995 29.9764 19.8947 30H20C24.142 30 27.5 28.8235 27.5 27.2705V12.7291C27.5 14.2468 24.142 15.4586 20 15.4586Z" fill="url(#paint3_linear_41743_63571)"/>
<path d="M27.5 12.7295C27.5 14.2471 24.142 15.4589 20 15.4589C15.858 15.4589 12.5 14.2824 12.5 12.7295C12.5 11.1765 15.858 10 20 10C24.142 10 27.5 11.1765 27.5 12.7295Z" fill="#E8E8E8"/>
<path d="M25.7566 12.5058C25.7566 13.4705 23.1708 14.247 20 14.247C16.8291 14.247 14.2433 13.4705 14.2433 12.5058C14.2433 11.5411 16.8291 10.7764 20 10.7764C23.1708 10.7764 25.7566 11.5528 25.7566 12.5058Z" fill="#50E6FF"/>
<path d="M19.9997 12.941C18.4556 12.9013 16.9161 13.1281 15.4482 13.6116C16.9175 14.086 18.4575 14.301 19.9997 14.2469C21.5451 14.2924 23.0862 14.0613 24.5512 13.5645C23.0791 13.1034 21.5408 12.8927 19.9997 12.941Z" fill="#198AB3"/>
<path d="M24.6225 22.8445V18.8149H23.5558V23.7097H26.4713V22.8445H24.6225ZM16.1602 20.8652C15.94 20.7767 15.7358 20.6526 15.5558 20.4978C15.508 20.4473 15.4708 20.3877 15.4463 20.3226C15.4219 20.2575 15.4108 20.1881 15.4136 20.1186C15.4099 20.049 15.4244 19.9797 15.4556 19.9174C15.4867 19.855 15.5335 19.8019 15.5913 19.763C15.7371 19.6622 15.9121 19.6122 16.0891 19.6208C16.5112 19.6018 16.9278 19.7226 17.2743 19.9645V18.9452C16.8956 18.8044 16.4928 18.7399 16.0891 18.7556C15.6241 18.7309 15.1657 18.8739 14.7973 19.1586C14.6367 19.2824 14.5078 19.4426 14.4213 19.626C14.3347 19.8094 14.293 20.0107 14.2995 20.2134C14.2995 20.8178 14.6787 21.2919 15.4847 21.6475C15.7464 21.7585 15.9933 21.9019 16.2195 22.0741C16.2749 22.1206 16.3195 22.1787 16.3502 22.2442C16.3809 22.3097 16.397 22.3811 16.3973 22.4534C16.3973 22.5253 16.3801 22.5962 16.3471 22.6601C16.3141 22.7241 16.2663 22.7792 16.2076 22.8208C16.0463 22.9153 15.861 22.9606 15.6743 22.9512C15.1976 22.9472 14.7385 22.7704 14.3825 22.4534V23.5556C14.7738 23.7574 15.2105 23.8554 15.6506 23.8401C16.1474 23.8695 16.6397 23.7318 17.0491 23.449C17.1937 23.312 17.3044 23.1432 17.3723 22.956C17.4402 22.7687 17.4634 22.5682 17.4402 22.3704C17.4459 22.067 17.3406 21.772 17.1439 21.5408C16.867 21.2491 16.5319 21.019 16.1602 20.8652ZM22.3706 22.7497C22.6397 22.299 22.7753 21.7811 22.7617 21.2564C22.7349 20.8121 22.6007 20.381 22.3706 20.0001C22.1856 19.63 21.8975 19.3213 21.541 19.1112C21.1797 18.9064 20.771 18.8002 20.3558 18.803C19.9082 18.7932 19.4661 18.9037 19.0758 19.123C18.7099 19.3272 18.4098 19.6314 18.2106 20.0001C18.0008 20.4191 17.8951 20.8826 17.9025 21.3512C17.9049 21.7628 18.0023 22.1684 18.1869 22.5364C18.3678 22.9024 18.6521 23.2074 19.0047 23.4134C19.3627 23.6317 19.7708 23.7542 20.1899 23.769L21.2091 24.9541H22.6432L21.1854 23.6504C21.6763 23.5032 22.0973 23.1832 22.3706 22.7497ZM21.1854 22.4534C21.0775 22.5874 20.94 22.6946 20.7837 22.7666C20.6275 22.8385 20.4567 22.8733 20.2847 22.8682C20.1114 22.8738 19.9394 22.838 19.7827 22.7638C19.6261 22.6896 19.4894 22.5791 19.3839 22.4415C19.1334 22.0993 19.0117 21.6796 19.0402 21.2564C19.0127 20.8333 19.1343 20.4139 19.3839 20.0712C19.4955 19.9337 19.6364 19.8229 19.7964 19.747C19.9564 19.6711 20.1313 19.6321 20.3084 19.6327C20.4815 19.6252 20.6536 19.6615 20.809 19.7381C20.9643 19.8147 21.0979 19.9293 21.1973 20.0712C21.4308 20.4206 21.5432 20.8369 21.5173 21.2564C21.5586 21.6827 21.4404 22.1092 21.1854 22.4534Z" fill="url(#paint4_radial_41743_63571)"/>
<path d="M38 33C38 35.7614 35.7614 38 33 38C30.2386 38 28 35.7614 28 33C28 30.2386 30.2386 28 33 28C35.7614 28 38 30.2386 38 33Z" fill="#B8B8B8"/>
<path fill-rule="evenodd" clip-rule="evenodd" d="M39 33C39 36.3137 36.3137 39 33 39C29.6863 39 27 36.3137 27 33C27 29.6863 29.6863 27 33 27C36.3137 27 39 29.6863 39 33ZM33 38C35.7614 38 38 35.7614 38 33C38 30.2386 35.7614 28 33 28C30.2386 28 28 30.2386 28 33C28 35.7614 30.2386 38 33 38Z" fill="#F5F5F5"/>
<defs>
<linearGradient id="paint0_linear_41743_63571" x1="12.8889" y1="4" x2="16.9368" y2="36.3829" gradientUnits="userSpaceOnUse">
<stop stop-color="white"/>
<stop offset="1" stop-color="#EBEBEB"/>
</linearGradient>
<radialGradient id="paint1_radial_41743_63571" cx="0" cy="0" r="1" gradientUnits="userSpaceOnUse" gradientTransform="translate(14.2222 12.3333) rotate(56.3099) scale(30.4469 26.3483)">
<stop offset="0.177083" stop-color="white"/>
<stop offset="1" stop-color="#B8B8B8"/>
</radialGradient>
<linearGradient id="paint2_linear_41743_63571" x1="14.3333" y1="4" x2="18.6419" y2="36.3144" gradientUnits="userSpaceOnUse">
<stop stop-color="#BBBBBB"/>
<stop offset="1" stop-color="#888888"/>
</linearGradient>
<linearGradient id="paint3_linear_41743_63571" x1="12.5" y1="21.3645" x2="27.5" y2="21.3645" gradientUnits="userSpaceOnUse">
<stop stop-color="#005BA1"/>
<stop offset="0.07" stop-color="#0060A9"/>
<stop offset="0.36" stop-color="#0071C8"/>
<stop offset="0.52" stop-color="#0078D4"/>
<stop offset="0.64" stop-color="#0074CD"/>
<stop offset="0.82" stop-color="#006ABB"/>
<stop offset="1" stop-color="#005BA1"/>
</linearGradient>
<radialGradient id="paint4_radial_41743_63571" cx="0" cy="0" r="1" gradientUnits="userSpaceOnUse" gradientTransform="translate(20.4269 21.8608) scale(8.37926)">
<stop stop-color="#F2F2F2"/>
<stop offset="0.58" stop-color="#EEEEEE"/>
<stop offset="1" stop-color="#E6E6E6"/>
</radialGradient>
</defs>
</svg>
