<svg width="48" height="48" viewBox="0 0 48 48" fill="none" xmlns="http://www.w3.org/2000/svg">
<rect x="5.5" y="5.5" width="37" height="37" rx="4.5" fill="url(#paint0_linear_41743_63597)"/>
<rect x="5.5" y="5.5" width="37" height="37" rx="4.5" fill="url(#paint1_radial_41743_63597)" fill-opacity="0.2"/>
<rect x="5.5" y="5.5" width="37" height="37" rx="4.5" stroke="url(#paint2_linear_41743_63597)"/>
<g clip-path="url(#clip0_41743_63597)">
<path d="M15.939 19.0216C15.9081 19.0218 15.8776 19.0158 15.849 19.0041C15.8205 18.9924 15.7945 18.9751 15.7727 18.9533C15.7509 18.9314 15.7336 18.9055 15.7219 18.8769C15.7101 18.8484 15.7042 18.8178 15.7043 18.7869C15.7033 18.0768 15.4207 17.3961 14.9186 16.894C14.4165 16.3919 13.7358 16.1093 13.0257 16.1083C12.9637 16.1083 12.9042 16.0837 12.8602 16.04C12.8162 15.9963 12.7914 15.9369 12.791 15.8749C12.791 15.8127 12.8157 15.753 12.8597 15.709C12.9038 15.665 12.9634 15.6403 13.0257 15.6403C13.736 15.6392 14.4169 15.3565 14.9191 14.8541C15.4212 14.3516 15.7036 13.6706 15.7043 12.9603C15.7042 12.9294 15.7101 12.8988 15.7219 12.8702C15.7336 12.8417 15.7509 12.8158 15.7727 12.7939C15.7945 12.7721 15.8205 12.7548 15.849 12.7431C15.8776 12.7314 15.9081 12.7254 15.939 12.7256C15.9699 12.7254 16.0005 12.7314 16.029 12.7431C16.0576 12.7548 16.0835 12.7721 16.1053 12.7939C16.1272 12.8158 16.1444 12.8417 16.1562 12.8702C16.1679 12.8988 16.1739 12.9294 16.1737 12.9603C16.1747 13.6704 16.4573 14.3511 16.9594 14.8532C17.4615 15.3553 18.1422 15.6379 18.8523 15.6389C18.8832 15.6387 18.9138 15.6447 18.9424 15.6564C18.9709 15.6682 18.9969 15.6854 19.0187 15.7073C19.0405 15.7291 19.0578 15.755 19.0695 15.7836C19.0812 15.8121 19.0872 15.8427 19.087 15.8736C19.0872 15.9045 19.0812 15.9351 19.0695 15.9636C19.0578 15.9922 19.0405 16.0181 19.0187 16.0399C18.9969 16.0617 18.9709 16.079 18.9424 16.0908C18.9138 16.1025 18.8832 16.1084 18.8523 16.1083C18.1421 16.109 17.4612 16.3914 16.959 16.8936C16.4568 17.3958 16.1744 18.0767 16.1737 18.7869C16.1733 18.8491 16.1485 18.9085 16.1046 18.9525C16.0606 18.9964 16.0011 19.0212 15.939 19.0216Z" fill="#50E6FF"/>
<path d="M32.8146 35.2743C32.7647 35.2743 32.7169 35.2545 32.6816 35.2192C32.6464 35.184 32.6266 35.1361 32.6266 35.0863C32.6259 34.5182 32.3999 33.9736 31.9982 33.572C31.5965 33.1703 31.052 32.9443 30.4839 32.9436C30.4343 32.9436 30.3867 32.924 30.3514 32.889C30.3162 32.8541 30.2963 32.8066 30.2959 32.7569C30.2959 32.7071 30.3157 32.6593 30.351 32.624C30.3862 32.5888 30.434 32.5689 30.4839 32.5689C31.0521 32.5686 31.5969 32.3427 31.9986 31.941C32.4004 31.5392 32.6262 30.9944 32.6266 30.4263C32.6266 30.3764 32.6464 30.3286 32.6816 30.2933C32.7169 30.2581 32.7647 30.2383 32.8146 30.2383C32.8644 30.2383 32.9122 30.2581 32.9475 30.2933C32.9828 30.3286 33.0026 30.3764 33.0026 30.4263C33.0029 30.9944 33.2288 31.5392 33.6305 31.941C34.0323 32.3427 34.5771 32.5686 35.1452 32.5689C35.1951 32.5689 35.2429 32.5888 35.2782 32.624C35.3134 32.6593 35.3332 32.7071 35.3332 32.7569C35.3332 32.8068 35.3134 32.8546 35.2782 32.8899C35.2429 32.9251 35.1951 32.9449 35.1452 32.9449C34.5772 32.9457 34.0326 33.1716 33.6309 33.5733C33.2292 33.975 33.0033 34.5196 33.0026 35.0876C33.0022 35.1372 32.9823 35.1847 32.947 35.2197C32.9118 35.2547 32.8642 35.2743 32.8146 35.2743Z" fill="#50E6FF"/>
<path d="M31.9587 22.04C32.3347 23.6141 32.2356 25.2643 31.6737 26.7821C31.1119 28.2998 30.1126 29.6168 28.8023 30.5666C27.4919 31.5164 25.9293 32.0564 24.3121 32.1181C22.6949 32.1798 21.0957 31.7606 19.7168 30.9135C18.3378 30.0663 17.241 28.8293 16.5651 27.3588C15.8892 25.8884 15.6645 24.2505 15.9195 22.6523C16.1744 21.0541 16.8976 19.5675 17.9975 18.3803C19.0974 17.1931 20.5246 16.3587 22.0987 15.9827C24.2094 15.4784 26.4341 15.8333 28.2832 16.9693C30.1323 18.1052 31.4544 19.9292 31.9587 22.04Z" fill="url(#paint3_radial_41743_63597)"/>
<mask id="mask0_41743_63597" style="mask-type:luminance" maskUnits="userSpaceOnUse" x="15" y="15" width="18" height="18">
<path d="M31.9587 22.04C32.3347 23.6141 32.2356 25.2643 31.6737 26.7821C31.1119 28.2998 30.1126 29.6168 28.8023 30.5666C27.4919 31.5164 25.9293 32.0564 24.3121 32.1181C22.6949 32.1798 21.0957 31.7606 19.7168 30.9135C18.3378 30.0663 17.241 28.8293 16.5651 27.3588C15.8892 25.8884 15.6645 24.2505 15.9195 22.6523C16.1744 21.0541 16.8976 19.5675 17.9975 18.3803C19.0974 17.1931 20.5246 16.3587 22.0987 15.9827C24.2094 15.4784 26.4341 15.8333 28.2832 16.9693C30.1323 18.1052 31.4544 19.9292 31.9587 22.04Z" fill="white"/>
</mask>
<g mask="url(#mask0_41743_63597)">
<path d="M19.6121 29.4866C19.9034 29.4942 20.1932 29.4435 20.4645 29.3374C20.7359 29.2313 20.9833 29.072 21.1921 28.8689C21.4009 28.6657 21.567 28.4229 21.6806 28.1546C21.7941 27.8863 21.8529 27.598 21.8533 27.3066C21.8538 27.0153 21.7959 26.7268 21.6832 26.4582C21.5704 26.1895 21.4051 25.9462 21.1969 25.7424C20.9886 25.5386 20.7418 25.3786 20.4707 25.2717C20.1997 25.1648 19.9101 25.1131 19.6188 25.1199C19.6252 25.0579 19.6284 24.9956 19.6281 24.9332C19.6228 24.3505 19.3868 23.7937 18.9716 23.3848C18.5565 22.976 17.9962 22.7483 17.4135 22.7519H15.7761C15.616 23.9617 15.7234 25.1919 16.0909 26.3556C16.4584 27.5193 17.0769 28.5881 17.9028 29.4866H19.6121Z" fill="#F2F2F2"/>
<path d="M32.0604 22.4196C32.0604 22.3996 32.0604 22.3796 32.051 22.3609C31.7873 20.9341 31.1391 19.6064 30.1764 18.5209C30.0515 18.4703 29.9226 18.4302 29.791 18.4009C29.4407 18.3009 29.0722 18.2818 28.7134 18.3449C28.3545 18.408 28.0147 18.5517 27.7195 18.7651C27.4242 18.9786 27.1813 19.2563 27.0089 19.5773C26.8365 19.8983 26.7392 20.2542 26.7244 20.6182C26.6358 20.608 26.5468 20.6022 26.4577 20.6009C25.9116 20.6008 25.383 20.7938 24.9654 21.1457C24.5477 21.4975 24.2678 21.9857 24.1751 22.5239C24.0824 23.0621 24.1829 23.6157 24.4589 24.087C24.7348 24.5583 25.1684 24.9169 25.683 25.0996C25.9128 25.1896 26.1576 25.2349 26.4044 25.2329H29.111C30.1979 24.4102 31.1874 23.4664 32.0604 22.4196Z" fill="#F2F2F2"/>
</g>
<path d="M34.9216 17.1095C34.083 15.7135 32.1216 15.1695 29.3816 15.5775C28.4429 15.7105 27.5151 15.9119 26.6056 16.1801C27.3271 16.4292 28.0122 16.7731 28.643 17.2028C28.9643 17.1321 29.287 17.0481 29.5963 17.0015C30.0829 16.9257 30.5745 16.886 31.067 16.8828C31.5484 16.8134 32.0396 16.8655 32.4958 17.0343C32.952 17.2031 33.3587 17.4833 33.679 17.8495C34.1896 18.7001 33.759 20.1548 32.4976 21.8495C30.7447 24.0314 28.5966 25.8637 26.1656 27.2508C23.7891 28.734 21.1549 29.7571 18.4003 30.2668C16.315 30.5788 14.8243 30.2668 14.3136 29.4188C13.803 28.5708 14.2336 27.1121 15.495 25.4255C15.651 25.2161 15.6896 25.1135 15.867 24.9028C15.7836 24.1799 15.7953 23.4493 15.9016 22.7295C15.3348 23.2977 14.8132 23.9093 14.3416 24.5588C12.6896 26.7681 12.2416 28.7548 13.079 30.1508C13.5213 30.7426 14.1112 31.2078 14.7898 31.5001C15.4683 31.7923 16.2117 31.9013 16.9456 31.8161C17.5042 31.8132 18.0617 31.7686 18.6136 31.6828C21.554 31.1461 24.367 30.0605 26.9056 28.4828C29.4983 26.9991 31.7877 25.0395 33.6536 22.7068C35.311 20.4921 35.759 18.5068 34.9216 17.1095Z" fill="#50E6FF"/>
</g>
<path d="M46 40C46 43.3137 43.3137 46 40 46C36.6863 46 34 43.3137 34 40C34 36.6863 36.6863 34 40 34C43.3137 34 46 36.6863 46 40Z" fill="#B8B8B8"/>
<path fill-rule="evenodd" clip-rule="evenodd" d="M47 40C47 43.866 43.866 47 40 47C36.134 47 33 43.866 33 40C33 36.134 36.134 33 40 33C43.866 33 47 36.134 47 40ZM40 46C43.3137 46 46 43.3137 46 40C46 36.6863 43.3137 34 40 34C36.6863 34 34 36.6863 34 40C34 43.3137 36.6863 46 40 46Z" fill="#F5F5F5"/>
<defs>
<linearGradient id="paint0_linear_41743_63597" x1="15.5556" y1="5" x2="20.3624" y2="43.4547" gradientUnits="userSpaceOnUse">
<stop stop-color="white"/>
<stop offset="1" stop-color="#EBEBEB"/>
</linearGradient>
<radialGradient id="paint1_radial_41743_63597" cx="0" cy="0" r="1" gradientUnits="userSpaceOnUse" gradientTransform="translate(17.1389 14.8958) rotate(56.3099) scale(36.1557 31.2886)">
<stop offset="0.177083" stop-color="white"/>
<stop offset="1" stop-color="#B8B8B8"/>
</radialGradient>
<linearGradient id="paint2_linear_41743_63597" x1="17.2708" y1="5" x2="22.3873" y2="43.3734" gradientUnits="userSpaceOnUse">
<stop stop-color="#BBBBBB"/>
<stop offset="1" stop-color="#888888"/>
</linearGradient>
<radialGradient id="paint3_radial_41743_63597" cx="0" cy="0" r="1" gradientUnits="userSpaceOnUse" gradientTransform="translate(23.9371 23.9386) scale(8.22446 8.15301)">
<stop offset="0.183" stop-color="#5EA0EF"/>
<stop offset="1" stop-color="#0078D4"/>
</radialGradient>
<clipPath id="clip0_41743_63597">
<rect width="24" height="24" fill="white" transform="translate(12 12)"/>
</clipPath>
</defs>
</svg>
