<svg width="64" height="64" viewBox="0 0 64 64" fill="none" xmlns="http://www.w3.org/2000/svg">
<rect x="6.5" y="6.5" width="51" height="51" rx="6.5" fill="url(#paint0_linear_41743_63491)"/>
<rect x="6.5" y="6.5" width="51" height="51" rx="6.5" fill="url(#paint1_radial_41743_63491)" fill-opacity="0.2"/>
<rect x="6.5" y="6.5" width="51" height="51" rx="6.5" stroke="url(#paint2_linear_41743_63491)"/>
<path d="M41.2532 29.4056C41.1822 27.1218 40.2131 24.9583 38.5563 23.3848C36.8995 21.8113 34.6889 20.955 32.4044 21.0018C30.5568 20.9799 28.7482 21.5346 27.2305 22.5886C25.7128 23.6426 24.5614 25.1435 23.9366 26.8825C21.9909 27.1455 20.2039 28.0975 18.9001 29.5655C17.5963 31.0335 16.8621 32.9203 16.8306 34.8835C16.8888 37.0917 17.8211 39.1865 19.4228 40.7078C21.0244 42.2292 23.1643 43.0526 25.3726 42.9974H40.124C41.9514 42.9517 43.6937 42.216 45.0007 40.938C46.3078 39.6601 47.0825 37.9347 47.1693 36.1088C47.1355 34.4722 46.5225 32.9007 45.4393 31.6734C44.3562 30.4461 42.8729 29.6426 41.2532 29.4056Z" fill="url(#paint3_linear_41743_63491)"/>
<path d="M38.5733 36.5689V30.8383H37.0563V37.7993H41.2026V36.5689H38.5733ZM26.5389 33.7542C26.2257 33.6284 25.9352 33.4518 25.6793 33.2317C25.6114 33.1598 25.5585 33.075 25.5238 32.9824C25.4891 32.8898 25.4732 32.7912 25.4771 32.6923C25.4722 32.5934 25.4929 32.4949 25.5372 32.4064C25.5815 32.3178 25.6479 32.2421 25.7299 32.1867C25.9373 32.0436 26.186 31.9725 26.4378 31.9844C27.0381 31.9574 27.6305 32.1293 28.1233 32.4732V31.0237C27.5848 30.8233 27.0119 30.7317 26.4378 30.754C25.7765 30.719 25.1247 30.9223 24.6006 31.3271C24.3722 31.5032 24.1889 31.731 24.0659 31.9918C23.9428 32.2526 23.8834 32.5389 23.8927 32.8272C23.8927 33.6868 24.4321 34.361 25.5782 34.8666C25.9502 35.025 26.3012 35.2288 26.6232 35.4734C26.7021 35.5394 26.7656 35.6219 26.8092 35.7151C26.8529 35.8083 26.8757 35.9098 26.876 36.0127C26.8759 36.115 26.8514 36.2158 26.8045 36.3067C26.7576 36.3975 26.6896 36.4759 26.6063 36.5352C26.3771 36.6699 26.1134 36.7344 25.8479 36.7206C25.1699 36.715 24.5171 36.4635 24.0107 36.0127V37.5802C24.5674 37.867 25.1883 38.0063 25.8142 37.9847C26.5207 38.027 27.221 37.8312 27.803 37.4285C28.0087 37.2338 28.166 36.9937 28.2626 36.7274C28.3592 36.4612 28.3922 36.176 28.3592 35.8947C28.3677 35.4632 28.2178 35.0435 27.9379 34.7149C27.5439 34.3003 27.0673 33.973 26.5389 33.7542ZM35.3709 36.4341C35.7369 35.8476 35.9309 35.1702 35.9309 34.4789C35.9309 33.7876 35.7369 33.1102 35.3709 32.5238C35.1079 31.9973 34.6981 31.5583 34.191 31.2597C33.6773 30.9685 33.096 30.8174 32.5055 30.8214C31.869 30.8076 31.2404 30.9648 30.6852 31.2765C30.1646 31.5666 29.7378 31.9993 29.4548 32.5238C29.1567 33.1198 29.0064 33.7789 29.0166 34.4452C29.0199 35.0307 29.1583 35.6075 29.4211 36.1307C29.6788 36.651 30.0831 37.0845 30.5841 37.378C31.093 37.6887 31.6736 37.8629 32.2696 37.8836L33.7191 39.5691H35.7585L33.6854 37.7151C34.3835 37.5057 34.9822 37.0507 35.3709 36.4341ZM33.6854 36.0127C33.5318 36.2032 33.3363 36.3556 33.1141 36.4579C32.8918 36.5602 32.649 36.6098 32.4044 36.6026C32.1579 36.6112 31.913 36.5605 31.6902 36.4549C31.4673 36.3494 31.273 36.192 31.1234 35.9959C30.7676 35.5089 30.5945 34.9122 30.6346 34.3104C30.5954 33.7087 30.7683 33.1122 31.1234 32.6249C31.2821 32.4294 31.4825 32.2718 31.71 32.1639C31.9375 32.056 32.1863 32.0004 32.4381 32.0013C32.6843 31.9905 32.9292 32.042 33.1501 32.151C33.3711 32.26 33.561 32.423 33.7022 32.6249C34.0344 33.1217 34.1943 33.7139 34.1573 34.3104C34.2163 34.9167 34.0481 35.5233 33.6854 36.0127Z" fill="#F2F2F2"/>
<defs>
<linearGradient id="paint0_linear_41743_63491" x1="20.4444" y1="6" x2="27.0222" y2="58.6222" gradientUnits="userSpaceOnUse">
<stop stop-color="white"/>
<stop offset="1" stop-color="#EBEBEB"/>
</linearGradient>
<radialGradient id="paint1_radial_41743_63491" cx="0" cy="0" r="1" gradientUnits="userSpaceOnUse" gradientTransform="translate(22.6111 19.5417) rotate(56.3099) scale(49.4762 42.8159)">
<stop offset="0.177083" stop-color="white"/>
<stop offset="1" stop-color="#B8B8B8"/>
</radialGradient>
<linearGradient id="paint2_linear_41743_63491" x1="22.7917" y1="6" x2="29.7931" y2="58.5109" gradientUnits="userSpaceOnUse">
<stop stop-color="#BBBBBB"/>
<stop offset="1" stop-color="#888888"/>
</linearGradient>
<linearGradient id="paint3_linear_41743_63491" x1="33.5303" y1="44.2261" x2="29.4987" y2="21.3709" gradientUnits="userSpaceOnUse">
<stop offset="0.15" stop-color="#0078D4"/>
<stop offset="0.8" stop-color="#5EA0EF"/>
<stop offset="1" stop-color="#83B9F9"/>
</linearGradient>
</defs>
</svg>
