<svg width="24" height="24" viewBox="0 0 24 24" fill="none" xmlns="http://www.w3.org/2000/svg">
<rect x="2.5" y="2.5" width="19" height="19" rx="2.5" fill="url(#paint0_linear_41743_63506)"/>
<rect x="2.5" y="2.5" width="19" height="19" rx="2.5" fill="url(#paint1_radial_41743_63506)" fill-opacity="0.2"/>
<rect x="2.5" y="2.5" width="19" height="19" rx="2.5" stroke="url(#paint2_linear_41743_63506)"/>
<path d="M16.2062 10.8207C16.1739 9.78266 15.7334 8.79921 14.9803 8.08399C14.2272 7.36878 13.2224 6.97954 12.184 7.00083C11.3442 6.99087 10.5221 7.24298 9.83221 7.72207C9.14234 8.20117 8.61898 8.88341 8.33498 9.67385C7.45057 9.79343 6.63834 10.2261 6.0457 10.8934C5.45306 11.5607 5.1193 12.4183 5.10498 13.3107C5.13146 14.3144 5.55524 15.2666 6.28325 15.9581C7.01125 16.6496 7.98395 17.0239 8.98772 16.9988H15.6929C16.5235 16.9781 17.3155 16.6436 17.9096 16.0627C18.5037 15.4819 18.8559 14.6976 18.8953 13.8676C18.8799 13.1237 18.6013 12.4094 18.109 11.8515C17.6166 11.2937 16.9424 10.9284 16.2062 10.8207Z" fill="url(#paint3_linear_41743_63506)"/>
<path d="M14.9877 14.0768V11.472H14.2982V14.6361H16.1829V14.0768H14.9877ZM9.51758 12.7974C9.37519 12.7402 9.24318 12.66 9.12686 12.5599C9.09599 12.5272 9.07196 12.4887 9.05617 12.4466C9.04039 12.4045 9.03316 12.3597 9.03492 12.3147C9.03272 12.2698 9.04214 12.225 9.06227 12.1848C9.0824 12.1445 9.11256 12.1101 9.14984 12.0849C9.24414 12.0199 9.35718 11.9876 9.47161 11.993C9.74448 11.9807 10.0138 12.0588 10.2377 12.2151V11.5563C9.99297 11.4652 9.73258 11.4235 9.47161 11.4337C9.17105 11.4178 8.87474 11.5102 8.63653 11.6942C8.53272 11.7742 8.44941 11.8778 8.39347 11.9963C8.33752 12.1149 8.31055 12.245 8.31476 12.376C8.31476 12.7668 8.55992 13.0732 9.08089 13.3031C9.24999 13.375 9.40954 13.4677 9.55589 13.5789C9.59175 13.6089 9.62061 13.6464 9.64046 13.6887C9.66031 13.7311 9.67067 13.7772 9.67081 13.824C9.67076 13.8705 9.65962 13.9163 9.6383 13.9576C9.61697 13.9989 9.58609 14.0346 9.54823 14.0615C9.44403 14.1227 9.32416 14.152 9.20347 14.1458C8.89532 14.1432 8.59857 14.0289 8.36839 13.824V14.5365C8.62143 14.6669 8.90367 14.7302 9.18815 14.7204C9.50929 14.7396 9.8276 14.6506 10.0922 14.4676C10.1857 14.379 10.2572 14.2699 10.3011 14.1489C10.345 14.0279 10.36 13.8983 10.345 13.7704C10.3488 13.5742 10.2807 13.3835 10.1535 13.2341C9.97439 13.0456 9.75776 12.8969 9.51758 12.7974ZM13.5321 14.0155C13.6985 13.749 13.7867 13.4411 13.7867 13.1268C13.7867 12.8126 13.6985 12.5047 13.5321 12.2381C13.4126 11.9988 13.2263 11.7993 12.9958 11.6635C12.7623 11.5312 12.4981 11.4625 12.2297 11.4643C11.9403 11.4581 11.6546 11.5295 11.4023 11.6712C11.1656 11.803 10.9716 11.9997 10.843 12.2381C10.7075 12.5091 10.6392 12.8086 10.6438 13.1115C10.6453 13.3776 10.7082 13.6398 10.8277 13.8776C10.9448 14.1141 11.1286 14.3112 11.3563 14.4446C11.5876 14.5858 11.8515 14.665 12.1224 14.6744L12.7813 15.4406H13.7083L12.766 14.5978C13.0833 14.5026 13.3554 14.2958 13.5321 14.0155ZM12.766 13.824C12.6962 13.9106 12.6073 13.9798 12.5063 14.0264C12.4053 14.0729 12.2949 14.0954 12.1837 14.0922C12.0717 14.096 11.9604 14.073 11.8591 14.025C11.7578 13.977 11.6694 13.9055 11.6015 13.8164C11.4397 13.595 11.361 13.3238 11.3793 13.0502C11.3614 12.7767 11.44 12.5056 11.6015 12.2841C11.6736 12.1952 11.7647 12.1236 11.8681 12.0746C11.9715 12.0255 12.0846 12.0002 12.199 12.0006C12.3109 11.9957 12.4222 12.0191 12.5227 12.0687C12.6231 12.1182 12.7094 12.1923 12.7736 12.2841C12.9246 12.5099 12.9973 12.7791 12.9805 13.0502C13.0073 13.3258 12.9308 13.6016 12.766 13.824Z" fill="#F2F2F2"/>
<defs>
<linearGradient id="paint0_linear_41743_63506" x1="7.55556" y1="2" x2="10.0855" y2="22.2393" gradientUnits="userSpaceOnUse">
<stop stop-color="white"/>
<stop offset="1" stop-color="#EBEBEB"/>
</linearGradient>
<radialGradient id="paint1_radial_41743_63506" cx="0" cy="0" r="1" gradientUnits="userSpaceOnUse" gradientTransform="translate(8.38889 7.20833) rotate(56.3099) scale(19.0293 16.4677)">
<stop offset="0.177083" stop-color="white"/>
<stop offset="1" stop-color="#B8B8B8"/>
</radialGradient>
<linearGradient id="paint2_linear_41743_63506" x1="8.45833" y1="2" x2="11.1512" y2="22.1965" gradientUnits="userSpaceOnUse">
<stop stop-color="#BBBBBB"/>
<stop offset="1" stop-color="#888888"/>
</linearGradient>
<linearGradient id="paint3_linear_41743_63506" x1="12.6958" y1="17.5573" x2="10.8632" y2="7.16861" gradientUnits="userSpaceOnUse">
<stop offset="0.15" stop-color="#0078D4"/>
<stop offset="0.8" stop-color="#5EA0EF"/>
<stop offset="1" stop-color="#83B9F9"/>
</linearGradient>
</defs>
</svg>
