<svg width="64" height="64" viewBox="0 0 64 64" fill="none" xmlns="http://www.w3.org/2000/svg">
<rect x="6.5" y="6.5" width="51" height="51" rx="6.5" fill="url(#paint0_linear_41743_63581)"/>
<rect x="6.5" y="6.5" width="51" height="51" rx="6.5" fill="url(#paint1_radial_41743_63581)" fill-opacity="0.2"/>
<rect x="6.5" y="6.5" width="51" height="51" rx="6.5" stroke="url(#paint2_linear_41743_63581)"/>
<g clip-path="url(#clip0_41743_63581)">
<path d="M22.5955 26.192C22.5595 26.1922 22.5238 26.1853 22.4905 26.1716C22.4572 26.1579 22.4269 26.1378 22.4015 26.1123C22.376 26.0868 22.3558 26.0566 22.3422 26.0233C22.3285 25.9899 22.3215 25.9543 22.3217 25.9182C22.3205 25.0898 21.9909 24.2956 21.4051 23.7098C20.8192 23.124 20.0251 22.7944 19.1966 22.7931C19.1243 22.7931 19.0549 22.7645 19.0036 22.7135C18.9523 22.6625 18.9233 22.5932 18.9229 22.5209C18.9229 22.4483 18.9517 22.3787 19.003 22.3273C19.0544 22.276 19.124 22.2471 19.1966 22.2471C20.0254 22.2459 20.8198 21.916 21.4056 21.3299C21.9915 20.7437 22.3209 19.9492 22.3217 19.1205C22.3215 19.0845 22.3285 19.0488 22.3422 19.0154C22.3558 18.9821 22.376 18.9519 22.4015 18.9264C22.4269 18.9009 22.4572 18.8808 22.4905 18.8671C22.5238 18.8534 22.5595 18.8465 22.5955 18.8467C22.6315 18.8465 22.6672 18.8534 22.7005 18.8671C22.7338 18.8808 22.7641 18.9009 22.7896 18.9264C22.815 18.9519 22.8352 18.9821 22.8489 19.0154C22.8626 19.0488 22.8695 19.0845 22.8693 19.1205C22.8705 19.9489 23.2002 20.7431 23.786 21.3289C24.3718 21.9147 25.166 22.2443 25.9944 22.2456C26.0304 22.2454 26.0661 22.2523 26.0994 22.266C26.1327 22.2797 26.163 22.2998 26.1885 22.3253C26.2139 22.3508 26.2341 22.381 26.2478 22.4143C26.2615 22.4476 26.2684 22.4833 26.2682 22.5194C26.2684 22.5554 26.2615 22.5911 26.2478 22.6244C26.2341 22.6577 26.2139 22.6879 26.1885 22.7134C26.163 22.7389 26.1327 22.759 26.0994 22.7727C26.0661 22.7864 26.0304 22.7933 25.9944 22.7931C25.1658 22.794 24.3714 23.1235 23.7855 23.7094C23.1996 24.2953 22.8701 25.0897 22.8693 25.9182C22.8689 25.9907 22.8399 26.0601 22.7887 26.1114C22.7374 26.1626 22.668 26.1916 22.5955 26.192Z" fill="#50E6FF"/>
<path d="M42.2841 45.1537C42.226 45.1537 42.1702 45.1305 42.1291 45.0894C42.0879 45.0483 42.0648 44.9925 42.0648 44.9343C42.064 44.2716 41.8004 43.6362 41.3317 43.1676C40.8631 42.699 40.2278 42.4354 39.565 42.4345C39.5071 42.4345 39.4516 42.4116 39.4105 42.3709C39.3694 42.3301 39.3461 42.2747 39.3457 42.2168C39.3457 42.1586 39.3688 42.1028 39.4099 42.0617C39.4511 42.0205 39.5069 41.9974 39.565 41.9974C40.2279 41.997 40.8635 41.7335 41.3322 41.2648C41.8009 40.7961 42.0644 40.1605 42.0648 39.4977C42.0648 39.4395 42.0879 39.3837 42.1291 39.3426C42.1702 39.3014 42.226 39.2783 42.2841 39.2783C42.3423 39.2783 42.3981 39.3014 42.4392 39.3426C42.4804 39.3837 42.5035 39.4395 42.5035 39.4977C42.5039 40.1605 42.7674 40.7961 43.2361 41.2648C43.7048 41.7335 44.3404 41.997 45.0033 41.9974C45.0614 41.9974 45.1172 42.0205 45.1584 42.0617C45.1995 42.1028 45.2226 42.1586 45.2226 42.2168C45.2226 42.2749 45.1995 42.3307 45.1584 42.3719C45.1172 42.413 45.0614 42.4361 45.0033 42.4361C44.3405 42.4369 43.7052 42.7006 43.2366 43.1692C42.7679 43.6378 42.5043 44.2731 42.5035 44.9359C42.5031 44.9938 42.4798 45.0492 42.4387 45.09C42.3976 45.1308 42.342 45.1537 42.2841 45.1537Z" fill="#50E6FF"/>
<path d="M41.2847 29.713C41.7235 31.5494 41.6078 33.4747 40.9523 35.2454C40.2968 37.0161 39.131 38.5526 37.6022 39.6607C36.0735 40.7688 34.2505 41.3987 32.3638 41.4707C30.477 41.5428 28.6113 41.0537 27.0025 40.0654C25.3937 39.077 24.1142 37.6338 23.3256 35.9183C22.537 34.2027 22.2749 32.2919 22.5723 30.4273C22.8698 28.5628 23.7135 26.8283 24.9967 25.4433C26.2799 24.0582 27.9449 23.0848 29.7814 22.6461C32.2439 22.0578 34.8394 22.4718 36.9966 23.7971C39.1539 25.1224 40.6964 27.2504 41.2847 29.713Z" fill="url(#paint3_radial_41743_63581)"/>
<mask id="mask0_41743_63581" style="mask-type:luminance" maskUnits="userSpaceOnUse" x="22" y="22" width="20" height="20">
<path d="M41.2847 29.713C41.7235 31.5494 41.6078 33.4747 40.9523 35.2454C40.2968 37.0161 39.131 38.5526 37.6022 39.6607C36.0735 40.7688 34.2505 41.3987 32.3638 41.4707C30.477 41.5428 28.6113 41.0537 27.0025 40.0654C25.3937 39.077 24.1142 37.6338 23.3256 35.9183C22.537 34.2027 22.2749 32.2919 22.5723 30.4273C22.8698 28.5628 23.7135 26.8283 24.9967 25.4433C26.2799 24.0582 27.9449 23.0848 29.7814 22.6461C32.2439 22.0578 34.8394 22.4718 36.9966 23.7971C39.1539 25.1224 40.6964 27.2504 41.2847 29.713Z" fill="white"/>
</mask>
<g mask="url(#mask0_41743_63581)">
<path d="M26.8807 38.401C27.2205 38.4099 27.5587 38.3508 27.8752 38.227C28.1918 38.1033 28.4804 37.9174 28.724 37.6804C28.9677 37.4434 29.1615 37.1601 29.2939 36.8471C29.4264 36.5341 29.4949 36.1977 29.4955 35.8578C29.496 35.5179 29.4285 35.1813 29.297 34.8679C29.1654 34.5545 28.9725 34.2706 28.7296 34.0329C28.4867 33.7951 28.1986 33.6084 27.8825 33.4837C27.5663 33.3589 27.2283 33.2987 26.8885 33.3066C26.896 33.2343 26.8997 33.1616 26.8994 33.0888C26.8933 32.409 26.6178 31.7594 26.1335 31.2824C25.6492 30.8053 24.9954 30.5398 24.3156 30.5439H22.4054C22.2185 31.9554 22.3439 33.3906 22.7726 34.7483C23.2013 36.1059 23.923 37.3529 24.8865 38.401H26.8807Z" fill="#F2F2F2"/>
<path d="M41.4037 30.1566C41.4037 30.1333 41.4037 30.1099 41.3928 30.0882C41.0851 28.4236 40.3289 26.8746 39.2057 25.6082C39.06 25.5491 38.9096 25.5023 38.7561 25.4682C38.3474 25.3515 37.9175 25.3292 37.4989 25.4028C37.0802 25.4764 36.6838 25.644 36.3393 25.8931C35.9948 26.1422 35.7114 26.4661 35.5103 26.8406C35.3092 27.2151 35.1957 27.6303 35.1784 28.055C35.0751 28.0431 34.9712 28.0364 34.8673 28.0348C34.2301 28.0348 33.6134 28.2599 33.1262 28.6704C32.6389 29.0809 32.3124 29.6504 32.2042 30.2783C32.0961 30.9062 32.2134 31.5521 32.5353 32.102C32.8572 32.6518 33.363 33.0702 33.9635 33.2833C34.2315 33.3883 34.5172 33.4411 34.805 33.4388H37.9628C39.2308 32.479 40.3852 31.3779 41.4037 30.1566Z" fill="#F2F2F2"/>
</g>
<path d="M44.7411 23.961C43.7626 22.3324 41.4744 21.6977 38.2778 22.1737C37.1825 22.3289 36.1001 22.5639 35.0391 22.8768C35.8808 23.1674 36.6801 23.5686 37.416 24.0699C37.7909 23.9875 38.1673 23.8895 38.5282 23.835C39.0959 23.7466 39.6694 23.7004 40.244 23.6966C40.8057 23.6156 41.3787 23.6764 41.9109 23.8733C42.4431 24.0703 42.9177 24.3972 43.2913 24.8244C43.8871 25.8168 43.3846 27.5139 41.9131 29.491C39.868 32.0366 37.3619 34.1743 34.5257 35.7926C31.7532 37.523 28.6799 38.7167 25.4662 39.3113C23.0333 39.6753 21.2942 39.3113 20.6984 38.3219C20.1026 37.3326 20.6051 35.6308 22.0766 33.663C22.2586 33.4188 22.3038 33.299 22.5106 33.0533C22.4134 32.2099 22.427 31.3575 22.5511 30.5177C21.8897 31.1806 21.2812 31.8942 20.7311 32.6519C18.8037 35.2295 18.2811 37.5473 19.258 39.1759C19.774 39.8663 20.4623 40.4091 21.2539 40.7501C22.0456 41.0911 22.9129 41.2182 23.7691 41.1188C24.4207 41.1154 25.0712 41.0634 25.7151 40.9633C29.1455 40.3371 32.4274 39.0706 35.3891 37.2299C38.4138 35.4989 41.0848 33.2127 43.2617 30.4913C45.1953 27.9075 45.718 25.5913 44.7411 23.961Z" fill="#50E6FF"/>
</g>
<path d="M61 54C61 57.866 57.866 61 54 61C50.134 61 47 57.866 47 54C47 50.134 50.134 47 54 47C57.866 47 61 50.134 61 54Z" fill="#B8B8B8"/>
<path fill-rule="evenodd" clip-rule="evenodd" d="M62 54C62 58.4183 58.4183 62 54 62C49.5817 62 46 58.4183 46 54C46 49.5817 49.5817 46 54 46C58.4183 46 62 49.5817 62 54ZM54 61C57.866 61 61 57.866 61 54C61 50.134 57.866 47 54 47C50.134 47 47 50.134 47 54C47 57.866 50.134 61 54 61Z" fill="#F5F5F5"/>
<defs>
<linearGradient id="paint0_linear_41743_63581" x1="20.4444" y1="6" x2="27.0222" y2="58.6222" gradientUnits="userSpaceOnUse">
<stop stop-color="white"/>
<stop offset="1" stop-color="#EBEBEB"/>
</linearGradient>
<radialGradient id="paint1_radial_41743_63581" cx="0" cy="0" r="1" gradientUnits="userSpaceOnUse" gradientTransform="translate(22.6111 19.5417) rotate(56.3099) scale(49.4762 42.8159)">
<stop offset="0.177083" stop-color="white"/>
<stop offset="1" stop-color="#B8B8B8"/>
</radialGradient>
<linearGradient id="paint2_linear_41743_63581" x1="22.7917" y1="6" x2="29.7931" y2="58.5109" gradientUnits="userSpaceOnUse">
<stop stop-color="#BBBBBB"/>
<stop offset="1" stop-color="#888888"/>
</linearGradient>
<radialGradient id="paint3_radial_41743_63581" cx="0" cy="0" r="1" gradientUnits="userSpaceOnUse" gradientTransform="translate(31.9262 31.928) scale(9.5952 9.51185)">
<stop offset="0.183" stop-color="#5EA0EF"/>
<stop offset="1" stop-color="#0078D4"/>
</radialGradient>
<clipPath id="clip0_41743_63581">
<rect width="28" height="28" fill="white" transform="translate(18 18)"/>
</clipPath>
</defs>
</svg>
