<svg width="48" height="48" viewBox="0 0 48 48" fill="none" xmlns="http://www.w3.org/2000/svg">
<rect x="5.5" y="5.5" width="37" height="37" rx="4.5" fill="url(#paint0_linear_41743_63531)"/>
<rect x="5.5" y="5.5" width="37" height="37" rx="4.5" fill="url(#paint1_radial_41743_63531)" fill-opacity="0.2"/>
<rect x="5.5" y="5.5" width="37" height="37" rx="4.5" stroke="url(#paint2_linear_41743_63531)"/>
<path d="M24 18.8909C19.3058 18.8909 15.5 17.5674 15.5 15.8203V32.1794C15.5 33.8603 19.2395 35.2235 23.8807 35.25H24C28.6942 35.25 32.5 33.9264 32.5 32.1794V15.8203C32.5 17.5277 28.6942 18.8909 24 18.8909Z" fill="url(#paint3_linear_41743_63531)"/>
<path d="M32.5 15.8206C32.5 17.528 28.6942 18.8913 24 18.8913C19.3058 18.8913 15.5 17.5677 15.5 15.8206C15.5 14.0735 19.3058 12.75 24 12.75C28.6942 12.75 32.5 14.0735 32.5 15.8206Z" fill="#E8E8E8"/>
<path d="M30.5248 15.569C30.5248 16.6543 27.5942 17.5279 24.0006 17.5279C20.407 17.5279 17.4764 16.6543 17.4764 15.569C17.4764 14.4837 20.407 13.6234 24.0006 13.6234C27.5942 13.6234 30.5248 14.497 30.5248 15.569Z" fill="#50E6FF"/>
<path d="M24.0001 16.0584C22.2501 16.0138 20.5054 16.2689 18.8418 16.8128C20.507 17.3466 22.2522 17.5884 24.0001 17.5275C25.7516 17.5787 27.4982 17.3188 29.1585 16.7599C27.4901 16.2412 25.7467 16.0041 24.0001 16.0584Z" fill="#198AB3"/>
<path d="M29.2 27.2V22.6667H28V28.1733H31.28V27.2H29.2ZM19.68 24.9733C19.4322 24.8737 19.2025 24.7341 19 24.56C18.9462 24.5031 18.9044 24.4361 18.8769 24.3628C18.8494 24.2896 18.8369 24.2115 18.84 24.1333C18.8359 24.0551 18.8522 23.9771 18.8872 23.907C18.9223 23.8368 18.9749 23.777 19.04 23.7333C19.204 23.6199 19.4008 23.5636 19.6 23.5733C20.0749 23.552 20.5435 23.6879 20.9333 23.96V22.8133C20.5073 22.6548 20.0542 22.5823 19.6 22.6C19.0769 22.5721 18.5612 22.733 18.1467 23.0533C17.966 23.1926 17.821 23.3729 17.7236 23.5792C17.6263 23.7855 17.5793 24.012 17.5867 24.24C17.5867 24.92 18.0133 25.4533 18.92 25.8533C19.2145 25.9783 19.4922 26.1395 19.7467 26.3333C19.809 26.3856 19.8592 26.4509 19.8937 26.5246C19.9283 26.5983 19.9463 26.6786 19.9467 26.76C19.9467 26.8409 19.9273 26.9207 19.8902 26.9926C19.8531 27.0645 19.7993 27.1265 19.7333 27.1733C19.5519 27.2796 19.3433 27.3306 19.1333 27.32C18.597 27.3156 18.0806 27.1166 17.68 26.76V28C18.1203 28.227 18.6116 28.3372 19.1067 28.32C19.6655 28.3531 20.2194 28.1982 20.68 27.88C20.8427 27.7259 20.9672 27.536 21.0435 27.3254C21.1199 27.1148 21.1461 26.8892 21.12 26.6667C21.1264 26.3253 21.0079 25.9934 20.7867 25.7333C20.4751 25.4052 20.0981 25.1463 19.68 24.9733ZM26.6667 27.0933C26.9694 26.5863 27.122 26.0037 27.1067 25.4133C27.0765 24.9136 26.9256 24.4286 26.6667 24C26.4585 23.5836 26.1344 23.2363 25.7333 23C25.3269 22.7697 24.8671 22.6501 24.4 22.6533C23.8964 22.6423 23.3991 22.7666 22.96 23.0133C22.5484 23.243 22.2107 23.5853 21.9867 24C21.7506 24.4714 21.6317 24.9928 21.64 25.52C21.6428 25.9831 21.7523 26.4394 21.96 26.8533C22.1635 27.2652 22.4834 27.6082 22.88 27.84C23.2827 28.0856 23.7419 28.2234 24.2133 28.24L25.36 29.5733H26.9733L25.3333 28.1067C25.8856 27.941 26.3592 27.5811 26.6667 27.0933ZM25.3333 26.76C25.2119 26.9107 25.0573 27.0313 24.8815 27.1123C24.7056 27.1933 24.5135 27.2324 24.32 27.2267C24.1251 27.233 23.9315 27.1927 23.7553 27.1092C23.5791 27.0257 23.4253 26.9015 23.3067 26.7467C23.0248 26.3616 22.8879 25.8894 22.92 25.4133C22.889 24.9374 23.0259 24.4656 23.3067 24.08C23.4322 23.9253 23.5907 23.8007 23.7707 23.7153C23.9507 23.63 24.1475 23.586 24.3467 23.5867C24.5414 23.5783 24.7351 23.6191 24.9098 23.7053C25.0846 23.7915 25.2348 23.9204 25.3467 24.08C25.6093 24.4731 25.7358 24.9415 25.7067 25.4133C25.7532 25.893 25.6202 26.3728 25.3333 26.76Z" fill="url(#paint4_radial_41743_63531)"/>
<path d="M46 40C46 43.3137 43.3137 46 40 46C36.6863 46 34 43.3137 34 40C34 36.6863 36.6863 34 40 34C43.3137 34 46 36.6863 46 40Z" fill="#B8B8B8"/>
<path fill-rule="evenodd" clip-rule="evenodd" d="M47 40C47 43.866 43.866 47 40 47C36.134 47 33 43.866 33 40C33 36.134 36.134 33 40 33C43.866 33 47 36.134 47 40ZM40 46C43.3137 46 46 43.3137 46 40C46 36.6863 43.3137 34 40 34C36.6863 34 34 36.6863 34 40C34 43.3137 36.6863 46 40 46Z" fill="#F5F5F5"/>
<defs>
<linearGradient id="paint0_linear_41743_63531" x1="15.5556" y1="5" x2="20.3624" y2="43.4547" gradientUnits="userSpaceOnUse">
<stop stop-color="white"/>
<stop offset="1" stop-color="#EBEBEB"/>
</linearGradient>
<radialGradient id="paint1_radial_41743_63531" cx="0" cy="0" r="1" gradientUnits="userSpaceOnUse" gradientTransform="translate(17.1389 14.8958) rotate(56.3099) scale(36.1557 31.2886)">
<stop offset="0.177083" stop-color="white"/>
<stop offset="1" stop-color="#B8B8B8"/>
</radialGradient>
<linearGradient id="paint2_linear_41743_63531" x1="17.2708" y1="5" x2="22.3873" y2="43.3734" gradientUnits="userSpaceOnUse">
<stop stop-color="#BBBBBB"/>
<stop offset="1" stop-color="#888888"/>
</linearGradient>
<linearGradient id="paint3_linear_41743_63531" x1="15.5" y1="25.5352" x2="32.5" y2="25.5352" gradientUnits="userSpaceOnUse">
<stop stop-color="#005BA1"/>
<stop offset="0.07" stop-color="#0060A9"/>
<stop offset="0.36" stop-color="#0071C8"/>
<stop offset="0.52" stop-color="#0078D4"/>
<stop offset="0.64" stop-color="#0074CD"/>
<stop offset="0.82" stop-color="#006ABB"/>
<stop offset="1" stop-color="#005BA1"/>
</linearGradient>
<radialGradient id="paint4_radial_41743_63531" cx="0" cy="0" r="1" gradientUnits="userSpaceOnUse" gradientTransform="translate(24.48 26.0933) scale(9.42667 9.42667)">
<stop stop-color="#F2F2F2"/>
<stop offset="0.58" stop-color="#EEEEEE"/>
<stop offset="1" stop-color="#E6E6E6"/>
</radialGradient>
</defs>
</svg>
