<svg width="24" height="24" viewBox="0 0 24 24" fill="none" xmlns="http://www.w3.org/2000/svg">
<rect x="2.5" y="2.5" width="19" height="19" rx="2.5" fill="url(#paint0_linear_41743_63551)"/>
<rect x="2.5" y="2.5" width="19" height="19" rx="2.5" fill="url(#paint1_radial_41743_63551)" fill-opacity="0.2"/>
<rect x="2.5" y="2.5" width="19" height="19" rx="2.5" stroke="url(#paint2_linear_41743_63551)"/>
<path d="M12 8.99778C9.24666 8.99778 7.01443 8.22 7.01443 7.19334V16.8067C7.01443 17.7944 9.20777 18.5956 11.93 18.6111H12C14.7533 18.6111 16.9855 17.8333 16.9855 16.8067V7.19334C16.9855 8.19667 14.7533 8.99778 12 8.99778Z" fill="url(#paint3_linear_41743_63551)"/>
<path d="M16.9855 7.19333C16.9855 8.19666 14.7533 8.99777 12 8.99777C9.24666 8.99777 7.01443 8.22 7.01443 7.19333C7.01443 6.16666 9.24666 5.38889 12 5.38889C14.7533 5.38889 16.9855 6.16666 16.9855 7.19333Z" fill="#E8E8E8"/>
<path d="M15.8262 7.04568C15.8262 7.68345 14.1073 8.19679 11.9995 8.19679C9.89174 8.19679 8.17285 7.68345 8.17285 7.04568C8.17285 6.4079 9.89174 5.90234 11.9995 5.90234C14.1073 5.90234 15.8262 6.41568 15.8262 7.04568Z" fill="#50E6FF"/>
<path d="M12 7.33333C10.9736 7.30712 9.95023 7.45707 8.97446 7.77667C9.95116 8.09033 10.9748 8.23243 12 8.19667C13.0273 8.22676 14.0517 8.07401 15.0256 7.74555C14.047 7.44074 13.0244 7.30141 12 7.33333Z" fill="#198AB3"/>
<path d="M15.0337 13.8668V11.2223H14.3337V14.4346H16.247V13.8668H15.0337ZM9.48033 12.5679C9.33581 12.5098 9.2018 12.4283 9.08367 12.3268C9.0523 12.2936 9.02788 12.2545 9.01185 12.2118C8.99582 12.169 8.9885 12.1235 8.99033 12.0779C8.98795 12.0322 8.99744 11.9867 9.01789 11.9458C9.03834 11.9049 9.06904 11.87 9.107 11.8446C9.20266 11.7784 9.31748 11.7456 9.43367 11.7512C9.71068 11.7388 9.98407 11.8181 10.2114 11.9768V11.3079C9.96295 11.2154 9.6986 11.1731 9.43367 11.1834C9.12852 11.1672 8.82768 11.261 8.58589 11.4479C8.4805 11.5291 8.39592 11.6343 8.33913 11.7546C8.28233 11.875 8.25495 12.0071 8.25922 12.1401C8.25922 12.5368 8.50811 12.8479 9.037 13.0812C9.20878 13.1541 9.37077 13.2482 9.51922 13.3612C9.55559 13.3917 9.58486 13.4298 9.60501 13.4728C9.62516 13.5158 9.6357 13.5626 9.63589 13.6101C9.63591 13.6573 9.62462 13.7038 9.60297 13.7458C9.58132 13.7877 9.54994 13.8239 9.51145 13.8512C9.4056 13.9132 9.28395 13.9429 9.16144 13.9368C8.84861 13.9342 8.54735 13.8181 8.31367 13.6101V14.3334C8.57052 14.4659 8.85708 14.5302 9.14589 14.5201C9.47189 14.5394 9.79499 14.4491 10.0637 14.2634C10.1586 14.1736 10.2312 14.0628 10.2757 13.9399C10.3203 13.8171 10.3356 13.6855 10.3203 13.5557C10.3241 13.3565 10.2549 13.1629 10.1259 13.0112C9.94417 12.8198 9.72422 12.6688 9.48033 12.5679ZM13.5559 13.8046C13.7325 13.5088 13.8215 13.1689 13.8126 12.8246C13.795 12.533 13.7069 12.2501 13.5559 12.0001C13.4345 11.7572 13.2454 11.5546 13.0114 11.4168C12.7744 11.2824 12.5062 11.2127 12.2337 11.2146C11.9399 11.2081 11.6498 11.2806 11.3937 11.4246C11.1536 11.5586 10.9566 11.7582 10.8259 12.0001C10.6882 12.2751 10.6188 12.5793 10.6237 12.8868C10.6253 13.1569 10.6892 13.4231 10.8103 13.6646C10.929 13.9048 11.1156 14.1049 11.347 14.2401C11.5819 14.3834 11.8498 14.4637 12.1248 14.4734L12.7937 15.2512H13.7348L12.7781 14.3957C13.1003 14.299 13.3765 14.0891 13.5559 13.8046ZM12.7781 13.6101C12.7073 13.698 12.6171 13.7684 12.5145 13.8156C12.412 13.8628 12.2999 13.8857 12.187 13.8823C12.0733 13.886 11.9604 13.8625 11.8576 13.8138C11.7548 13.7651 11.6651 13.6926 11.5959 13.6023C11.4315 13.3777 11.3516 13.1023 11.3703 12.8246C11.3523 12.5469 11.4321 12.2717 11.5959 12.0468C11.6691 11.9565 11.7616 11.8839 11.8666 11.8341C11.9716 11.7843 12.0864 11.7586 12.2026 11.759C12.3161 11.7541 12.4291 11.7779 12.5311 11.8282C12.633 11.8785 12.7207 11.9537 12.7859 12.0468C12.9391 12.2761 13.0129 12.5493 12.9959 12.8246C13.023 13.1043 12.9454 13.3842 12.7781 13.6101Z" fill="url(#paint4_radial_41743_63551)"/>
<path d="M23 19.5C23 21.433 21.433 23 19.5 23C17.567 23 16 21.433 16 19.5C16 17.567 17.567 16 19.5 16C21.433 16 23 17.567 23 19.5Z" fill="#B8B8B8"/>
<path fill-rule="evenodd" clip-rule="evenodd" d="M24 19.5C24 21.9853 21.9853 24 19.5 24C17.0147 24 15 21.9853 15 19.5C15 17.0147 17.0147 15 19.5 15C21.9853 15 24 17.0147 24 19.5ZM19.5 23C21.433 23 23 21.433 23 19.5C23 17.567 21.433 16 19.5 16C17.567 16 16 17.567 16 19.5C16 21.433 17.567 23 19.5 23Z" fill="#F5F5F5"/>
<defs>
<linearGradient id="paint0_linear_41743_63551" x1="7.55556" y1="2" x2="10.0855" y2="22.2393" gradientUnits="userSpaceOnUse">
<stop stop-color="white"/>
<stop offset="1" stop-color="#EBEBEB"/>
</linearGradient>
<radialGradient id="paint1_radial_41743_63551" cx="0" cy="0" r="1" gradientUnits="userSpaceOnUse" gradientTransform="translate(8.38889 7.20833) rotate(56.3099) scale(19.0293 16.4677)">
<stop offset="0.177083" stop-color="white"/>
<stop offset="1" stop-color="#B8B8B8"/>
</radialGradient>
<linearGradient id="paint2_linear_41743_63551" x1="8.45833" y1="2" x2="11.1512" y2="22.1965" gradientUnits="userSpaceOnUse">
<stop stop-color="#BBBBBB"/>
<stop offset="1" stop-color="#888888"/>
</linearGradient>
<linearGradient id="paint3_linear_41743_63551" x1="7.01443" y1="12.9022" x2="16.9855" y2="12.9022" gradientUnits="userSpaceOnUse">
<stop stop-color="#005BA1"/>
<stop offset="0.07" stop-color="#0060A9"/>
<stop offset="0.36" stop-color="#0071C8"/>
<stop offset="0.52" stop-color="#0078D4"/>
<stop offset="0.64" stop-color="#0074CD"/>
<stop offset="0.82" stop-color="#006ABB"/>
<stop offset="1" stop-color="#005BA1"/>
</linearGradient>
<radialGradient id="paint4_radial_41743_63551" cx="0" cy="0" r="1" gradientUnits="userSpaceOnUse" gradientTransform="translate(12.2803 13.2212) scale(5.49889)">
<stop stop-color="#F2F2F2"/>
<stop offset="0.58" stop-color="#EEEEEE"/>
<stop offset="1" stop-color="#E6E6E6"/>
</radialGradient>
</defs>
</svg>
