<svg width="32" height="32" viewBox="0 0 32 32" fill="none" xmlns="http://www.w3.org/2000/svg">
<rect x="3.5" y="3.5" width="25" height="25" rx="3" fill="url(#paint0_linear_41743_63613)"/>
<rect x="3.5" y="3.5" width="25" height="25" rx="3" fill="url(#paint1_radial_41743_63613)" fill-opacity="0.2"/>
<rect x="3.5" y="3.5" width="25" height="25" rx="3" stroke="url(#paint2_linear_41743_63613)"/>
<g clip-path="url(#clip0_41743_63613)">
<path d="M10.6258 12.6809C10.6052 12.681 10.5848 12.677 10.5658 12.6692C10.5467 12.6614 10.5294 12.6499 10.5149 12.6353C10.5003 12.6208 10.4888 12.6035 10.481 12.5845C10.4732 12.5654 10.4692 12.545 10.4693 12.5244C10.4686 12.051 10.2802 11.5972 9.9455 11.2625C9.61076 10.9277 9.15695 10.7394 8.68354 10.7387C8.64221 10.7387 8.60255 10.7223 8.57323 10.6932C8.54392 10.664 8.52733 10.6245 8.5271 10.5831C8.5271 10.5416 8.54358 10.5018 8.57292 10.4725C8.60226 10.4432 8.64205 10.4267 8.68354 10.4267C9.1571 10.426 9.61104 10.2375 9.94581 9.90253C10.2806 9.56759 10.4689 9.11356 10.4693 8.64C10.4692 8.61942 10.4732 8.59903 10.481 8.57999C10.4888 8.56096 10.5003 8.54367 10.5149 8.52912C10.5294 8.51457 10.5467 8.50305 10.5658 8.49523C10.5848 8.48741 10.6052 8.48344 10.6258 8.48356C10.6463 8.48344 10.6667 8.48741 10.6858 8.49523C10.7048 8.50305 10.7221 8.51457 10.7367 8.52912C10.7512 8.54367 10.7627 8.56096 10.7705 8.57999C10.7784 8.59903 10.7823 8.61942 10.7822 8.64C10.7829 9.1134 10.9713 9.56721 11.306 9.90196C11.6408 10.2367 12.0946 10.4251 12.568 10.4258C12.5886 10.4257 12.609 10.4296 12.628 10.4374C12.647 10.4453 12.6643 10.4568 12.6789 10.4713C12.6934 10.4859 12.7049 10.5032 12.7128 10.5222C12.7206 10.5413 12.7246 10.5616 12.7244 10.5822C12.7246 10.6028 12.7206 10.6232 12.7128 10.6422C12.7049 10.6613 12.6934 10.6786 12.6789 10.6931C12.6643 10.7077 12.647 10.7192 12.628 10.727C12.609 10.7348 12.5886 10.7388 12.568 10.7387C12.0945 10.7391 11.6406 10.9274 11.3058 11.2622C10.971 11.597 10.7827 12.051 10.7822 12.5244C10.782 12.5659 10.7654 12.6055 10.7361 12.6348C10.7068 12.6641 10.6672 12.6807 10.6258 12.6809Z" fill="#50E6FF"/>
<path d="M21.8764 23.5164C21.8432 23.5164 21.8113 23.5032 21.7878 23.4797C21.7643 23.4562 21.7511 23.4244 21.7511 23.3911C21.7506 23.0124 21.6 22.6494 21.3322 22.3816C21.0644 22.1138 20.7014 21.9631 20.3227 21.9627C20.2896 21.9627 20.2578 21.9496 20.2343 21.9263C20.2109 21.903 20.1976 21.8713 20.1973 21.8382C20.1973 21.805 20.2105 21.7731 20.234 21.7496C20.2575 21.7261 20.2894 21.7129 20.3227 21.7129C20.7014 21.7127 21.0646 21.5621 21.3325 21.2942C21.6003 21.0264 21.7509 20.6632 21.7511 20.2844C21.7511 20.2512 21.7643 20.2193 21.7878 20.1958C21.8113 20.1723 21.8432 20.1591 21.8764 20.1591C21.9097 20.1591 21.9416 20.1723 21.9651 20.1958C21.9886 20.2193 22.0018 20.2512 22.0018 20.2844C22.002 20.6632 22.1526 21.0264 22.4204 21.2942C22.6882 21.5621 23.0514 21.7127 23.4302 21.7129C23.4635 21.7129 23.4953 21.7261 23.5188 21.7496C23.5423 21.7731 23.5555 21.805 23.5555 21.8382C23.5555 21.8715 23.5423 21.9033 23.5188 21.9268C23.4953 21.9504 23.4635 21.9636 23.4302 21.9636C23.0515 21.964 22.6885 22.1147 22.4207 22.3825C22.1529 22.6502 22.0022 23.0133 22.0018 23.392C22.0015 23.4251 21.9882 23.4567 21.9647 23.4801C21.9413 23.5034 21.9095 23.5164 21.8764 23.5164Z" fill="#50E6FF"/>
<path d="M21.3058 14.6933C21.5565 15.7427 21.4904 16.8429 21.1158 17.8547C20.7413 18.8665 20.0751 19.7446 19.2015 20.3778C18.3279 21.011 17.2862 21.3709 16.2081 21.4121C15.1299 21.4532 14.0638 21.1737 13.1445 20.609C12.2252 20.0442 11.494 19.2195 11.0434 18.2392C10.5928 17.2589 10.443 16.167 10.613 15.1015C10.783 14.0361 11.265 13.045 11.9983 12.2535C12.7316 11.4621 13.683 10.9058 14.7324 10.6551C16.1396 10.3189 17.6227 10.5555 18.8554 11.3129C20.0882 12.0702 20.9696 13.2862 21.3058 14.6933Z" fill="url(#paint3_radial_41743_63613)"/>
<mask id="mask0_41743_63613" style="mask-type:luminance" maskUnits="userSpaceOnUse" x="10" y="10" width="12" height="12">
<path d="M21.3058 14.6933C21.5565 15.7427 21.4904 16.8429 21.1158 17.8547C20.7413 18.8665 20.0751 19.7446 19.2015 20.3778C18.3279 21.011 17.2862 21.3709 16.2081 21.4121C15.1299 21.4532 14.0638 21.1737 13.1445 20.609C12.2252 20.0442 11.494 19.2195 11.0434 18.2392C10.5928 17.2589 10.443 16.167 10.613 15.1015C10.783 14.0361 11.265 13.045 11.9983 12.2535C12.7316 11.4621 13.683 10.9058 14.7324 10.6551C16.1396 10.3189 17.6227 10.5555 18.8554 11.3129C20.0882 12.0702 20.9696 13.2862 21.3058 14.6933Z" fill="white"/>
</mask>
<g mask="url(#mask0_41743_63613)">
<path d="M13.0751 19.6578C13.2692 19.6629 13.4624 19.6291 13.6433 19.5584C13.8242 19.4876 13.9891 19.3814 14.1284 19.246C14.2676 19.1106 14.3783 18.9487 14.454 18.7698C14.5297 18.591 14.5689 18.3988 14.5692 18.2045C14.5695 18.0103 14.5309 17.818 14.4558 17.6389C14.3806 17.4598 14.2704 17.2975 14.1316 17.1617C13.9927 17.0259 13.8282 16.9192 13.6475 16.8479C13.4668 16.7766 13.2737 16.7422 13.0795 16.7467C13.0838 16.7054 13.0859 16.6638 13.0857 16.6223C13.0822 16.2338 12.9248 15.8626 12.6481 15.59C12.3713 15.3174 11.9978 15.1657 11.6093 15.168H10.5177C10.411 15.9746 10.4826 16.7947 10.7276 17.5705C10.9725 18.3463 11.3849 19.0589 11.9355 19.6578H13.0751Z" fill="#F2F2F2"/>
<path d="M21.3738 14.9467C21.3738 14.9334 21.3738 14.92 21.3675 14.9076C21.1917 13.9564 20.7596 13.0713 20.1178 12.3476C20.0345 12.3139 19.9486 12.2871 19.8609 12.2676C19.6273 12.2009 19.3816 12.1882 19.1424 12.2302C18.9032 12.2723 18.6766 12.3681 18.4798 12.5104C18.283 12.6527 18.121 12.8379 18.0061 13.0519C17.8912 13.2658 17.8263 13.5031 17.8164 13.7458C17.7574 13.739 17.6981 13.7351 17.6386 13.7343C17.2746 13.7342 16.9222 13.8629 16.6437 14.0974C16.3653 14.332 16.1787 14.6574 16.1169 15.0162C16.0551 15.375 16.1221 15.7441 16.3061 16.0583C16.49 16.3725 16.7791 16.6116 17.1222 16.7334C17.2754 16.7934 17.4386 16.8236 17.6031 16.8223H19.4075C20.1321 16.2738 20.7917 15.6446 21.3738 14.9467Z" fill="#F2F2F2"/>
</g>
<path d="M23.2809 11.4062C22.7218 10.4756 21.4142 10.1129 19.5875 10.3849C18.9617 10.4736 18.3432 10.6079 17.7369 10.7867C18.2178 10.9527 18.6746 11.182 19.0951 11.4684C19.3093 11.4213 19.5244 11.3653 19.7307 11.3342C20.0551 11.2837 20.3828 11.2573 20.7111 11.2551C21.0321 11.2088 21.3595 11.2436 21.6636 11.3561C21.9678 11.4687 22.2389 11.6555 22.4524 11.8996C22.7929 12.4667 22.5058 13.4364 21.6649 14.5662C20.4962 16.0208 19.0642 17.2424 17.4435 18.1671C15.8592 19.1559 14.1031 19.838 12.2667 20.1778C10.8764 20.3858 9.88266 20.1778 9.54221 19.6124C9.20177 19.0471 9.48888 18.0747 10.3298 16.9502C10.4338 16.8107 10.4595 16.7422 10.5778 16.6018C10.5222 16.1199 10.53 15.6328 10.6009 15.1529C10.223 15.5317 9.87524 15.9394 9.56088 16.3724C8.45955 17.8453 8.16088 19.1698 8.7191 20.1004C9.01399 20.495 9.40728 20.8051 9.85966 21C10.312 21.1948 10.8076 21.2675 11.2969 21.2107C11.6692 21.2087 12.0409 21.179 12.4089 21.1218C14.3691 20.764 16.2445 20.0403 17.9369 18.9884C19.6653 17.9993 21.1916 16.6929 22.4355 15.1378C23.5404 13.6613 23.8391 12.3378 23.2809 11.4062Z" fill="#50E6FF"/>
</g>
<path d="M30 26C30 28.2091 28.2091 30 26 30C23.7909 30 22 28.2091 22 26C22 23.7909 23.7909 22 26 22C28.2091 22 30 23.7909 30 26Z" fill="#B8B8B8"/>
<path fill-rule="evenodd" clip-rule="evenodd" d="M31 26C31 28.7614 28.7614 31 26 31C23.2386 31 21 28.7614 21 26C21 23.2386 23.2386 21 26 21C28.7614 21 31 23.2386 31 26ZM26 30C28.2091 30 30 28.2091 30 26C30 23.7909 28.2091 22 26 22C23.7909 22 22 23.7909 22 26C22 28.2091 23.7909 30 26 30Z" fill="#F5F5F5"/>
<defs>
<linearGradient id="paint0_linear_41743_63613" x1="10.2222" y1="3" x2="13.5111" y2="29.3111" gradientUnits="userSpaceOnUse">
<stop stop-color="white"/>
<stop offset="1" stop-color="#EBEBEB"/>
</linearGradient>
<radialGradient id="paint1_radial_41743_63613" cx="0" cy="0" r="1" gradientUnits="userSpaceOnUse" gradientTransform="translate(11.3056 9.77083) rotate(56.3099) scale(24.7381 21.408)">
<stop offset="0.177083" stop-color="white"/>
<stop offset="1" stop-color="#B8B8B8"/>
</radialGradient>
<linearGradient id="paint2_linear_41743_63613" x1="11.3958" y1="3" x2="14.8966" y2="29.2555" gradientUnits="userSpaceOnUse">
<stop stop-color="#BBBBBB"/>
<stop offset="1" stop-color="#888888"/>
</linearGradient>
<radialGradient id="paint3_radial_41743_63613" cx="0" cy="0" r="1" gradientUnits="userSpaceOnUse" gradientTransform="translate(15.958 15.9591) scale(5.48297 5.43534)">
<stop offset="0.183" stop-color="#5EA0EF"/>
<stop offset="1" stop-color="#0078D4"/>
</radialGradient>
<clipPath id="clip0_41743_63613">
<rect width="16" height="16" fill="white" transform="translate(8 8)"/>
</clipPath>
</defs>
</svg>
