<svg width="32" height="32" viewBox="0 0 32 32" fill="none" xmlns="http://www.w3.org/2000/svg">
<rect x="3.5" y="3.5" width="25" height="25" rx="3" fill="url(#paint0_linear_41743_63541)"/>
<rect x="3.5" y="3.5" width="25" height="25" rx="3" fill="url(#paint1_radial_41743_63541)" fill-opacity="0.2"/>
<rect x="3.5" y="3.5" width="25" height="25" rx="3" stroke="url(#paint2_linear_41743_63541)"/>
<path d="M16 12.3673C12.6864 12.3673 10 11.4261 10 10.1838V21.8165C10 23.0118 12.6396 23.9812 15.9158 24H16C19.3136 24 22 23.0588 22 21.8165V10.1838C22 11.3979 19.3136 12.3673 16 12.3673Z" fill="url(#paint3_linear_41743_63541)"/>
<path d="M22 10.1835C22 11.3976 19.3136 12.367 16 12.367C12.6864 12.367 10 11.4258 10 10.1835C10 8.94116 12.6864 8 16 8C19.3136 8 22 8.94116 22 10.1835Z" fill="#E8E8E8"/>
<path d="M20.6063 10.0049C20.6063 10.7767 18.5377 11.3978 16.001 11.3978C13.4643 11.3978 11.3957 10.7767 11.3957 10.0049C11.3957 9.23315 13.4643 8.6214 16.001 8.6214C18.5377 8.6214 20.6063 9.24256 20.6063 10.0049Z" fill="#50E6FF"/>
<path d="M16.0003 10.3525C14.765 10.3208 13.5335 10.5022 12.3592 10.889C13.5346 11.2685 14.7665 11.4405 16.0003 11.3972C17.2367 11.4336 18.4696 11.2488 19.6415 10.8513C18.4639 10.4825 17.2332 10.3139 16.0003 10.3525Z" fill="#198AB3"/>
<path d="M19.6697 18.2586V15.0586H18.8227V18.9456H21.1379V18.2586H19.6697ZM12.9498 16.6868C12.7749 16.6165 12.6128 16.518 12.4698 16.3951C12.4319 16.355 12.4023 16.3076 12.3829 16.2559C12.3635 16.2042 12.3547 16.1491 12.3569 16.0939C12.354 16.0387 12.3655 15.9836 12.3902 15.9341C12.415 15.8846 12.4521 15.8424 12.4981 15.8116C12.6138 15.7315 12.7528 15.6918 12.8934 15.6986C13.2286 15.6836 13.5594 15.7795 13.8345 15.9716V15.1622C13.5338 15.0503 13.2139 14.9991 12.8934 15.0116C12.5241 14.9919 12.1601 15.1055 11.8675 15.3316C11.74 15.4299 11.6376 15.5571 11.5689 15.7028C11.5002 15.8484 11.467 16.0083 11.4722 16.1692C11.4722 16.6492 11.7734 17.0257 12.4134 17.308C12.6212 17.3962 12.8172 17.51 12.9969 17.6468C13.0409 17.6838 13.0763 17.7298 13.1007 17.7818C13.1251 17.8339 13.1378 17.8906 13.1381 17.948C13.1381 18.0051 13.1244 18.0614 13.0982 18.1122C13.072 18.1629 13.034 18.2067 12.9875 18.2398C12.8594 18.3148 12.7122 18.3507 12.5639 18.3433C12.1854 18.3402 11.8209 18.1997 11.5381 17.948V18.8233C11.8489 18.9835 12.1956 19.0613 12.5451 19.0492C12.9396 19.0726 13.3306 18.9632 13.6557 18.7386C13.7705 18.6298 13.8584 18.4958 13.9123 18.3471C13.9662 18.1984 13.9847 18.0392 13.9663 17.8821C13.9708 17.6412 13.8871 17.4069 13.731 17.2233C13.5111 16.9917 13.2449 16.8089 12.9498 16.6868ZM17.8815 18.1833C18.0952 17.8254 18.2029 17.4141 18.1921 16.9974C18.1708 16.6447 18.0642 16.3023 17.8815 15.9998C17.7346 15.7059 17.5058 15.4608 17.2227 15.2939C16.9358 15.1313 16.6113 15.047 16.2815 15.0492C15.9261 15.0414 15.575 15.1292 15.2651 15.3033C14.9745 15.4655 14.7362 15.7071 14.578 15.9998C14.4114 16.3326 14.3275 16.7006 14.3333 17.0727C14.3353 17.3996 14.4126 17.7217 14.5592 18.0139C14.7028 18.3046 14.9286 18.5468 15.2086 18.7103C15.4929 18.8837 15.817 18.9809 16.1498 18.9927L16.9592 19.9338H18.098L16.9403 18.8986C17.3302 18.7817 17.6645 18.5276 17.8815 18.1833ZM16.9403 17.948C16.8546 18.0544 16.7455 18.1395 16.6214 18.1967C16.4973 18.2538 16.3616 18.2815 16.2251 18.2774C16.0875 18.2818 15.9508 18.2534 15.8264 18.1945C15.702 18.1356 15.5935 18.0479 15.5098 17.9386C15.3108 17.6668 15.2142 17.3335 15.2368 16.9974C15.215 16.6614 15.3116 16.3284 15.5098 16.0563C15.5984 15.9471 15.7103 15.8591 15.8373 15.7989C15.9644 15.7386 16.1033 15.7076 16.2439 15.708C16.3813 15.7021 16.518 15.7309 16.6414 15.7918C16.7648 15.8526 16.8708 15.9436 16.9498 16.0563C17.1352 16.3337 17.2244 16.6644 17.2039 16.9974C17.2367 17.336 17.1428 17.6747 16.9403 17.948Z" fill="url(#paint4_radial_41743_63541)"/>
<path d="M30 26C30 28.2091 28.2091 30 26 30C23.7909 30 22 28.2091 22 26C22 23.7909 23.7909 22 26 22C28.2091 22 30 23.7909 30 26Z" fill="#B8B8B8"/>
<path fill-rule="evenodd" clip-rule="evenodd" d="M31 26C31 28.7614 28.7614 31 26 31C23.2386 31 21 28.7614 21 26C21 23.2386 23.2386 21 26 21C28.7614 21 31 23.2386 31 26ZM26 30C28.2091 30 30 28.2091 30 26C30 23.7909 28.2091 22 26 22C23.7909 22 22 23.7909 22 26C22 28.2091 23.7909 30 26 30Z" fill="#F5F5F5"/>
<defs>
<linearGradient id="paint0_linear_41743_63541" x1="10.2222" y1="3" x2="13.5111" y2="29.3111" gradientUnits="userSpaceOnUse">
<stop stop-color="white"/>
<stop offset="1" stop-color="#EBEBEB"/>
</linearGradient>
<radialGradient id="paint1_radial_41743_63541" cx="0" cy="0" r="1" gradientUnits="userSpaceOnUse" gradientTransform="translate(11.3056 9.77083) rotate(56.3099) scale(24.7381 21.408)">
<stop offset="0.177083" stop-color="white"/>
<stop offset="1" stop-color="#B8B8B8"/>
</radialGradient>
<linearGradient id="paint2_linear_41743_63541" x1="11.3958" y1="3" x2="14.8966" y2="29.2555" gradientUnits="userSpaceOnUse">
<stop stop-color="#BBBBBB"/>
<stop offset="1" stop-color="#888888"/>
</linearGradient>
<linearGradient id="paint3_linear_41743_63541" x1="10" y1="17.0919" x2="22" y2="17.0919" gradientUnits="userSpaceOnUse">
<stop stop-color="#005BA1"/>
<stop offset="0.07" stop-color="#0060A9"/>
<stop offset="0.36" stop-color="#0071C8"/>
<stop offset="0.52" stop-color="#0078D4"/>
<stop offset="0.64" stop-color="#0074CD"/>
<stop offset="0.82" stop-color="#006ABB"/>
<stop offset="1" stop-color="#005BA1"/>
</linearGradient>
<radialGradient id="paint4_radial_41743_63541" cx="0" cy="0" r="1" gradientUnits="userSpaceOnUse" gradientTransform="translate(16.338 17.4774) scale(6.654)">
<stop stop-color="#F2F2F2"/>
<stop offset="0.58" stop-color="#EEEEEE"/>
<stop offset="1" stop-color="#E6E6E6"/>
</radialGradient>
</defs>
</svg>
