<svg width="40" height="40" viewBox="0 0 40 40" fill="none" xmlns="http://www.w3.org/2000/svg">
<rect x="4.5" y="4.5" width="31" height="31" rx="3.5" fill="url(#paint0_linear_41743_63516)"/>
<rect x="4.5" y="4.5" width="31" height="31" rx="3.5" fill="url(#paint1_radial_41743_63516)" fill-opacity="0.2"/>
<rect x="4.5" y="4.5" width="31" height="31" rx="3.5" stroke="url(#paint2_linear_41743_63516)"/>
<path d="M25.8884 18.349C25.8432 16.8957 25.2265 15.5189 24.1722 14.5176C23.1178 13.5163 21.7111 12.9713 20.2573 13.0011C19.0815 12.9872 17.9306 13.3402 16.9648 14.0109C15.999 14.6816 15.2663 15.6368 14.8687 16.7434C13.6305 16.9108 12.4934 17.5166 11.6637 18.4508C10.834 19.3849 10.3667 20.5856 10.3467 21.8349C10.3838 23.2401 10.977 24.5732 11.9963 25.5413C13.0155 26.5095 14.3772 27.0335 15.7825 26.9983H25.1697C26.3326 26.9693 27.4414 26.5011 28.2732 25.6878C29.1049 24.8746 29.5979 23.7766 29.6531 22.6147C29.6316 21.5732 29.2416 20.5731 28.5523 19.7921C27.863 19.0111 26.9191 18.4998 25.8884 18.349Z" fill="url(#paint3_linear_41743_63516)"/>
<path d="M24.1829 22.9075V19.2607H23.2176V23.6905H25.8562V22.9075H24.1829ZM16.5247 21.1163C16.3254 21.0362 16.1406 20.9239 15.9777 20.7838C15.9345 20.738 15.9008 20.6841 15.8787 20.6251C15.8566 20.5662 15.8465 20.5035 15.849 20.4406C15.8459 20.3776 15.8591 20.315 15.8873 20.2586C15.9155 20.2022 15.9577 20.1541 16.0099 20.1188C16.1419 20.0277 16.3002 19.9825 16.4604 19.9901C16.8424 19.9729 17.2194 20.0822 17.5329 20.3011V19.3787C17.1903 19.2512 16.8257 19.1929 16.4604 19.2071C16.0396 19.1848 15.6247 19.3142 15.2912 19.5718C15.1459 19.6838 15.0293 19.8288 14.951 19.9948C14.8726 20.1607 14.8349 20.3429 14.8408 20.5264C14.8408 21.0734 15.184 21.5024 15.9133 21.8242C16.1501 21.925 16.3735 22.0547 16.5783 22.2103C16.6285 22.2524 16.669 22.3049 16.6967 22.3641C16.7245 22.4234 16.739 22.4881 16.7392 22.5535C16.7392 22.6186 16.7236 22.6828 16.6937 22.7406C16.6639 22.7984 16.6206 22.8483 16.5676 22.886C16.4217 22.9718 16.2539 23.0128 16.085 23.004C15.6535 23.0005 15.2381 22.8404 14.9158 22.5535V23.551C15.2701 23.7336 15.6652 23.8222 16.0635 23.8085C16.5131 23.8354 16.9587 23.7108 17.3291 23.4545C17.46 23.3306 17.5602 23.1778 17.6216 23.0084C17.683 22.8389 17.7041 22.6575 17.6831 22.4785C17.6885 22.2038 17.5931 21.9368 17.415 21.7277C17.1643 21.4638 16.861 21.2555 16.5247 21.1163ZM22.145 22.8217C22.3779 22.4485 22.5014 22.0174 22.5014 21.5775C22.5014 21.1376 22.3779 20.7065 22.145 20.3333C21.9777 19.9983 21.7169 19.7189 21.3942 19.5289C21.0673 19.3436 20.6974 19.2474 20.3216 19.25C19.9166 19.2412 19.5165 19.3412 19.1633 19.5396C18.832 19.7242 18.5603 19.9996 18.3803 20.3333C18.1906 20.7126 18.095 21.132 18.1014 21.556C18.1035 21.9286 18.1916 22.2957 18.3588 22.6286C18.5228 22.9597 18.7801 23.2356 19.0989 23.4223C19.4228 23.6201 19.7922 23.7309 20.1715 23.7441L21.0939 24.8167H22.3917L21.0725 23.6369C21.5167 23.5036 21.8977 23.214 22.145 22.8217ZM21.0725 22.5535C20.9747 22.6748 20.8503 22.7717 20.7089 22.8368C20.5675 22.902 20.4129 22.9335 20.2573 22.9289C20.1005 22.9344 19.9446 22.9021 19.8028 22.835C19.661 22.7678 19.5373 22.6676 19.4421 22.5428C19.2157 22.2329 19.1055 21.8532 19.1311 21.4702C19.1061 21.0873 19.2162 20.7078 19.4421 20.3977C19.5431 20.2732 19.6706 20.173 19.8154 20.1043C19.9602 20.0356 20.1185 20.0003 20.2787 20.0008C20.4354 19.994 20.5912 20.0267 20.7318 20.0961C20.8725 20.1655 20.9933 20.2692 21.0832 20.3977C21.2946 20.7138 21.3963 21.0906 21.3728 21.4702C21.4103 21.8561 21.3033 22.2421 21.0725 22.5535Z" fill="#F2F2F2"/>
<defs>
<linearGradient id="paint0_linear_41743_63516" x1="12.8889" y1="4" x2="16.9368" y2="36.3829" gradientUnits="userSpaceOnUse">
<stop stop-color="white"/>
<stop offset="1" stop-color="#EBEBEB"/>
</linearGradient>
<radialGradient id="paint1_radial_41743_63516" cx="0" cy="0" r="1" gradientUnits="userSpaceOnUse" gradientTransform="translate(14.2222 12.3333) rotate(56.3099) scale(30.4469 26.3483)">
<stop offset="0.177083" stop-color="white"/>
<stop offset="1" stop-color="#B8B8B8"/>
</radialGradient>
<linearGradient id="paint2_linear_41743_63516" x1="14.3333" y1="4" x2="18.6419" y2="36.3144" gradientUnits="userSpaceOnUse">
<stop stop-color="#BBBBBB"/>
<stop offset="1" stop-color="#888888"/>
</linearGradient>
<linearGradient id="paint3_linear_41743_63516" x1="20.9738" y1="27.7802" x2="18.4082" y2="13.236" gradientUnits="userSpaceOnUse">
<stop offset="0.15" stop-color="#0078D4"/>
<stop offset="0.8" stop-color="#5EA0EF"/>
<stop offset="1" stop-color="#83B9F9"/>
</linearGradient>
</defs>
</svg>
