<svg width="48" height="48" viewBox="0 0 48 48" fill="none" xmlns="http://www.w3.org/2000/svg">
<path d="M5 10C5 7.23858 7.23858 5 10 5H38C40.7614 5 43 7.23858 43 10V38C43 40.7614 40.7614 43 38 43H10C7.23858 43 5 40.7614 5 38V10Z" fill="url(#paint0_linear_41743_62485)"/>
<path d="M5 10C5 7.23858 7.23858 5 10 5H38C40.7614 5 43 7.23858 43 10V38C43 40.7614 40.7614 43 38 43H10C7.23858 43 5 40.7614 5 38V10Z" fill="url(#paint1_radial_41743_62485)" fill-opacity="0.2"/>
<path fill-rule="evenodd" clip-rule="evenodd" d="M38 6H10C7.79086 6 6 7.79086 6 10V38C6 40.2091 7.79086 42 10 42H38C40.2091 42 42 40.2091 42 38V10C42 7.79086 40.2091 6 38 6ZM10 5C7.23858 5 5 7.23858 5 10V38C5 40.7614 7.23858 43 10 43H38C40.7614 43 43 40.7614 43 38V10C43 7.23858 40.7614 5 38 5H10Z" fill="url(#paint2_linear_41743_62485)"/>
<circle cx="24" cy="24" r="12" fill="url(#paint3_linear_41743_62485)"/>
<path d="M30.1282 17.7289C29.8555 17.496 29.4561 17.4887 29.1751 17.7116L28.9105 17.9218C28.742 18.0559 28.5008 18.248 28.2096 18.4806C27.6273 18.9456 26.8451 19.5724 26.0457 20.2191C25.2469 20.8654 24.4285 21.5337 23.7749 22.0808C23.4485 22.3541 23.16 22.5999 22.9343 22.799C22.7245 22.9841 22.5279 23.1642 22.4199 23.2906C21.6129 24.2356 21.7248 25.6558 22.6698 26.4628C23.6148 27.2697 25.035 27.1579 25.8419 26.2129C25.9499 26.0864 26.097 25.8641 26.247 25.6278C26.4083 25.3738 26.6058 25.0503 26.8246 24.6851C27.2627 23.954 27.7946 23.0411 28.3078 22.1509C28.8215 21.2601 29.3181 20.3894 29.6862 19.7415C29.8702 19.4175 30.0223 19.1492 30.1283 18.9617L30.2945 18.6675C30.4706 18.3551 30.4009 17.9617 30.1282 17.7289Z" fill="#F4D58A"/>
<path fill-rule="evenodd" clip-rule="evenodd" d="M24 16.5C19.8579 16.5 16.5 19.8579 16.5 24C16.5 25.6179 17.0117 27.1147 17.8821 28.3395C18.0421 28.5646 17.9893 28.8768 17.7642 29.0367C17.5391 29.1967 17.227 29.1439 17.067 28.9188C16.0803 27.5304 15.5 25.8322 15.5 24C15.5 19.3056 19.3056 15.5 24 15.5C25.2225 15.5 26.386 15.7584 27.4378 16.224C27.6903 16.3358 27.8043 16.6311 27.6926 16.8836C27.5808 17.1361 27.2855 17.2502 27.033 17.1384C26.1062 16.7281 25.0804 16.5 24 16.5Z" fill="#F4D58A"/>
<defs>
<linearGradient id="paint0_linear_41743_62485" x1="15.5556" y1="5" x2="20.3624" y2="43.4547" gradientUnits="userSpaceOnUse">
<stop stop-color="white"/>
<stop offset="1" stop-color="#EBEBEB"/>
</linearGradient>
<radialGradient id="paint1_radial_41743_62485" cx="0" cy="0" r="1" gradientUnits="userSpaceOnUse" gradientTransform="translate(17.1389 14.8958) rotate(56.3099) scale(36.1557 31.2886)">
<stop offset="0.177083" stop-color="white"/>
<stop offset="1" stop-color="#B8B8B8"/>
</radialGradient>
<linearGradient id="paint2_linear_41743_62485" x1="17.2708" y1="5" x2="22.3873" y2="43.3734" gradientUnits="userSpaceOnUse">
<stop stop-color="#BBBBBB"/>
<stop offset="1" stop-color="#888888"/>
</linearGradient>
<linearGradient id="paint3_linear_41743_62485" x1="12" y1="12" x2="36" y2="36" gradientUnits="userSpaceOnUse">
<stop stop-color="#C28400"/>
<stop offset="1" stop-color="#A86500"/>
</linearGradient>
</defs>
</svg>
