<svg width="32" height="32" viewBox="0 0 32 32" fill="none" xmlns="http://www.w3.org/2000/svg">
<rect x="3.5" y="3.5" width="25" height="25" rx="3" fill="url(#paint0_linear_41743_62470)"/>
<rect x="3.5" y="3.5" width="25" height="25" rx="3" fill="url(#paint1_radial_41743_62470)" fill-opacity="0.2"/>
<rect x="3.5" y="3.5" width="25" height="25" rx="3" stroke="url(#paint2_linear_41743_62470)"/>
<circle cx="15.9062" cy="16" r="8" fill="url(#paint3_linear_41743_62470)"/>
<path d="M20.0852 11.8192C19.9034 11.664 19.6371 11.6591 19.4498 11.8077L19.2734 11.9479C19.1611 12.0372 19.0002 12.1653 18.8061 12.3204C18.418 12.6304 17.8965 13.0482 17.3635 13.4794C16.831 13.9103 16.2854 14.3558 15.8497 14.7205C15.6321 14.9027 15.4397 15.0666 15.2893 15.1993C15.1494 15.3227 15.0183 15.4428 14.9463 15.5271C14.4083 16.1571 14.4829 17.1039 15.1129 17.6418C15.7429 18.1798 16.6897 18.1052 17.2277 17.4752C17.2997 17.3909 17.3977 17.2427 17.4977 17.0852C17.6052 16.9158 17.7369 16.7002 17.8828 16.4567C18.1749 15.9693 18.5294 15.3607 18.8716 14.7673C19.2141 14.1734 19.5451 13.5929 19.7905 13.161C19.9132 12.945 20.0146 12.7661 20.0852 12.6411L20.1961 12.445C20.3135 12.2367 20.267 11.9745 20.0852 11.8192Z" fill="#F4D58A"/>
<path d="M12.4645 12.4645C13.9113 11.0177 16.0251 10.6422 17.8185 11.341C18.0758 11.4412 18.3656 11.3139 18.4659 11.0566C18.5661 10.7993 18.4388 10.5094 18.1815 10.4092C16.0318 9.57154 13.4948 10.02 11.7574 11.7575C9.41422 14.1006 9.41422 17.8995 11.7574 20.2427C11.9526 20.438 12.2692 20.438 12.4645 20.2427C12.6597 20.0474 12.6597 19.7308 12.4645 19.5355C10.5118 17.583 10.5118 14.4171 12.4645 12.4645Z" fill="#F4D58A"/>
<defs>
<linearGradient id="paint0_linear_41743_62470" x1="10.2222" y1="3" x2="13.5111" y2="29.3111" gradientUnits="userSpaceOnUse">
<stop stop-color="white"/>
<stop offset="1" stop-color="#EBEBEB"/>
</linearGradient>
<radialGradient id="paint1_radial_41743_62470" cx="0" cy="0" r="1" gradientUnits="userSpaceOnUse" gradientTransform="translate(11.3056 9.77083) rotate(56.3099) scale(24.7381 21.408)">
<stop offset="0.177083" stop-color="white"/>
<stop offset="1" stop-color="#B8B8B8"/>
</radialGradient>
<linearGradient id="paint2_linear_41743_62470" x1="11.3958" y1="3" x2="14.8966" y2="29.2555" gradientUnits="userSpaceOnUse">
<stop stop-color="#BBBBBB"/>
<stop offset="1" stop-color="#888888"/>
</linearGradient>
<linearGradient id="paint3_linear_41743_62470" x1="7.90625" y1="8" x2="23.9062" y2="24" gradientUnits="userSpaceOnUse">
<stop stop-color="#C28400"/>
<stop offset="1" stop-color="#A86500"/>
</linearGradient>
</defs>
</svg>
