<svg width="40" height="40" viewBox="0 0 40 40" fill="none" xmlns="http://www.w3.org/2000/svg">
<path d="M4 8C4 5.79086 5.79086 4 8 4H32C34.2091 4 36 5.79086 36 8V32C36 34.2091 34.2091 36 32 36H8C5.79086 36 4 34.2091 4 32V8Z" fill="url(#paint0_linear_41743_62575)"/>
<path d="M4 8C4 5.79086 5.79086 4 8 4H32C34.2091 4 36 5.79086 36 8V32C36 34.2091 34.2091 36 32 36H8C5.79086 36 4 34.2091 4 32V8Z" fill="url(#paint1_radial_41743_62575)" fill-opacity="0.2"/>
<path fill-rule="evenodd" clip-rule="evenodd" d="M32 5H8C6.34315 5 5 6.34315 5 8V32C5 33.6569 6.34315 35 8 35H32C33.6569 35 35 33.6569 35 32V8C35 6.34315 33.6569 5 32 5ZM8 4C5.79086 4 4 5.79086 4 8V32C4 34.2091 5.79086 36 8 36H32C34.2091 36 36 34.2091 36 32V8C36 5.79086 34.2091 4 32 4H8Z" fill="url(#paint2_linear_41743_62575)"/>
<path d="M19 15C19 16.4865 17.9189 17.7205 16.5 17.9585V20H22C22.8284 20 23.5 19.3284 23.5 18.5V17.9585C22.0811 17.7205 21 16.4865 21 15C21 13.3431 22.3431 12 24 12C25.6569 12 27 13.3431 27 15C27 16.4865 25.9189 17.7205 24.5 17.9585V18.5C24.5 19.8807 23.3807 21 22 21H16.5V22.0415C17.9189 22.2795 19 23.5135 19 25C19 26.6569 17.6569 28 16 28C14.3431 28 13 26.6569 13 25C13 23.5135 14.0811 22.2795 15.5 22.0415V17.9585C14.0811 17.7205 13 16.4865 13 15C13 13.3431 14.3431 12 16 12C17.6569 12 19 13.3431 19 15Z" fill="url(#paint3_linear_41743_62575)"/>
<defs>
<linearGradient id="paint0_linear_41743_62575" x1="12.8889" y1="4" x2="16.9368" y2="36.3829" gradientUnits="userSpaceOnUse">
<stop stop-color="white"/>
<stop offset="1" stop-color="#EBEBEB"/>
</linearGradient>
<radialGradient id="paint1_radial_41743_62575" cx="0" cy="0" r="1" gradientUnits="userSpaceOnUse" gradientTransform="translate(14.2222 12.3333) rotate(56.3099) scale(30.4469 26.3483)">
<stop offset="0.177083" stop-color="white"/>
<stop offset="1" stop-color="#B8B8B8"/>
</radialGradient>
<linearGradient id="paint2_linear_41743_62575" x1="14.3333" y1="4" x2="18.6419" y2="36.3144" gradientUnits="userSpaceOnUse">
<stop stop-color="#BBBBBB"/>
<stop offset="1" stop-color="#888888"/>
</linearGradient>
<linearGradient id="paint3_linear_41743_62575" x1="13" y1="12" x2="28.8584" y2="25.8761" gradientUnits="userSpaceOnUse">
<stop stop-color="#4BA446"/>
<stop offset="1" stop-color="#3F7D35"/>
</linearGradient>
</defs>
</svg>
