<svg width="24" height="24" viewBox="0 0 24 24" fill="none" xmlns="http://www.w3.org/2000/svg">
<path d="M1 6C1 4.34315 2.34315 3 4 3H20C21.6569 3 23 4.34315 23 6V18C23 19.6569 21.6569 21 20 21H4C2.34315 21 1 19.6569 1 18V6Z" fill="url(#paint0_linear_41743_62587)"/>
<path d="M1 6C1 4.34315 2.34315 3 4 3H20C21.6569 3 23 4.34315 23 6V18C23 19.6569 21.6569 21 20 21H4C2.34315 21 1 19.6569 1 18V6Z" fill="url(#paint1_radial_41743_62587)" fill-opacity="0.2"/>
<path fill-rule="evenodd" clip-rule="evenodd" d="M20 4H4C2.89543 4 2 4.89543 2 6V18C2 19.1046 2.89543 20 4 20H20C21.1046 20 22 19.1046 22 18V6C22 4.89543 21.1046 4 20 4ZM4 3C2.34315 3 1 4.34315 1 6V18C1 19.6569 2.34315 21 4 21H20C21.6569 21 23 19.6569 23 18V6C23 4.34315 21.6569 3 20 3H4Z" fill="url(#paint2_linear_41743_62587)"/>
<path d="M10 14C10 14.5523 9.55228 15 9 15C8.44772 15 8 14.5523 8 14C8 13.4477 8.44772 13 9 13C9.55228 13 10 13.4477 10 14Z" fill="url(#paint3_linear_41743_62587)"/>
<path d="M13 14C13 14.5523 12.5523 15 12 15C11.4477 15 11 14.5523 11 14C11 13.4477 11.4477 13 12 13C12.5523 13 13 13.4477 13 14Z" fill="url(#paint4_linear_41743_62587)"/>
<path d="M16 14C16 14.5523 15.5523 15 15 15C14.4477 15 14 14.5523 14 14C14 13.4477 14.4477 13 15 13C15.5523 13 16 13.4477 16 14Z" fill="url(#paint5_linear_41743_62587)"/>
<path fill-rule="evenodd" clip-rule="evenodd" d="M7.80486 6C7.5135 6 7.23582 6.12032 7.04091 6.33104L4.26586 9.33104C3.67059 9.97456 4.13998 11 5.02981 11H6V16C6 17.1046 6.89543 18 8 18H16C17.1046 18 18 17.1046 18 16V11H18.9702C19.86 11 20.3294 9.97456 19.7341 9.33103L16.9591 6.33104C16.7642 6.12032 16.4865 6 16.1951 6H7.80486ZM7 11H17V16C17 16.5523 16.5523 17 16 17H8C7.44772 17 7 16.5523 7 16V11Z" fill="url(#paint6_linear_41743_62587)"/>
<defs>
<linearGradient id="paint0_linear_41743_62587" x1="7.11111" y1="3" x2="8.98357" y2="21.3085" gradientUnits="userSpaceOnUse">
<stop stop-color="white"/>
<stop offset="1" stop-color="#EBEBEB"/>
</linearGradient>
<radialGradient id="paint1_radial_41743_62587" cx="0" cy="0" r="1" gradientUnits="userSpaceOnUse" gradientTransform="translate(8.02778 7.6875) rotate(50.8263) scale(18.3815 16.8775)">
<stop offset="0.177083" stop-color="white"/>
<stop offset="1" stop-color="#B8B8B8"/>
</radialGradient>
<linearGradient id="paint2_linear_41743_62587" x1="8.10417" y1="3" x2="10.0986" y2="21.2824" gradientUnits="userSpaceOnUse">
<stop stop-color="#BBBBBB"/>
<stop offset="1" stop-color="#888888"/>
</linearGradient>
<linearGradient id="paint3_linear_41743_62587" x1="4" y1="6" x2="15.52" y2="21.36" gradientUnits="userSpaceOnUse">
<stop stop-color="#7751B8"/>
<stop offset="1" stop-color="#5A409C"/>
</linearGradient>
<linearGradient id="paint4_linear_41743_62587" x1="4" y1="6" x2="15.52" y2="21.36" gradientUnits="userSpaceOnUse">
<stop stop-color="#7751B8"/>
<stop offset="1" stop-color="#5A409C"/>
</linearGradient>
<linearGradient id="paint5_linear_41743_62587" x1="4" y1="6" x2="15.52" y2="21.36" gradientUnits="userSpaceOnUse">
<stop stop-color="#7751B8"/>
<stop offset="1" stop-color="#5A409C"/>
</linearGradient>
<linearGradient id="paint6_linear_41743_62587" x1="4" y1="6" x2="15.52" y2="21.36" gradientUnits="userSpaceOnUse">
<stop stop-color="#7751B8"/>
<stop offset="1" stop-color="#5A409C"/>
</linearGradient>
</defs>
</svg>
