<svg width="40" height="40" viewBox="0 0 40 40" fill="none" xmlns="http://www.w3.org/2000/svg">
<path d="M6 6C6 3.79086 7.79086 2 10 2H30C32.2091 2 34 3.79086 34 6V34C34 36.2091 32.2091 38 30 38H10C7.79086 38 6 36.2091 6 34V6Z" fill="url(#paint0_linear_41743_62528)"/>
<path d="M6 6C6 3.79086 7.79086 2 10 2H30C32.2091 2 34 3.79086 34 6V34C34 36.2091 32.2091 38 30 38H10C7.79086 38 6 36.2091 6 34V6Z" fill="url(#paint1_radial_41743_62528)" fill-opacity="0.2"/>
<path fill-rule="evenodd" clip-rule="evenodd" d="M30 3H10C8.34315 3 7 4.34315 7 6V34C7 35.6569 8.34315 37 10 37H30C31.6569 37 33 35.6569 33 34V6C33 4.34315 31.6569 3 30 3ZM10 2C7.79086 2 6 3.79086 6 6V34C6 36.2091 7.79086 38 10 38H30C32.2091 38 34 36.2091 34 34V6C34 3.79086 32.2091 2 30 2H10Z" fill="url(#paint2_linear_41743_62528)"/>
<path d="M20.2534 29H26.5C27.6046 29 28.5 28.1046 28.5 27V19.1728C28.5 18.5872 28.2434 18.0311 27.798 17.6511L21.2986 12.1071C20.5509 11.4693 19.4506 11.4692 18.7028 12.107L12.2022 17.6511C11.7566 18.0311 11.5 18.5873 11.5 19.1729V27C11.5 28.1046 12.3954 29 13.5 29H20.8091" fill="url(#paint3_linear_41743_62528)"/>
<path d="M17 20.5C17 21.0523 16.5523 21.5 16 21.5C15.4477 21.5 15 21.0523 15 20.5C15 19.9477 15.4477 19.5 16 19.5C16.5523 19.5 17 19.9477 17 20.5Z" fill="#B4CDF8"/>
<path d="M21 20.5C21 21.0523 20.5523 21.5 20 21.5C19.4477 21.5 19 21.0523 19 20.5C19 19.9477 19.4477 19.5 20 19.5C20.5523 19.5 21 19.9477 21 20.5Z" fill="#B4CDF8"/>
<path d="M24 21.5C24.5523 21.5 25 21.0523 25 20.5C25 19.9477 24.5523 19.5 24 19.5C23.4477 19.5 23 19.9477 23 20.5C23 21.0523 23.4477 21.5 24 21.5Z" fill="#B4CDF8"/>
<path d="M21 24.5C21 25.0523 20.5523 25.5 20 25.5C19.4477 25.5 19 25.0523 19 24.5C19 23.9477 19.4477 23.5 20 23.5C20.5523 23.5 21 23.9477 21 24.5Z" fill="#B4CDF8"/>
<path d="M16 25.5C16.5523 25.5 17 25.0523 17 24.5C17 23.9477 16.5523 23.5 16 23.5C15.4477 23.5 15 23.9477 15 24.5C15 25.0523 15.4477 25.5 16 25.5Z" fill="#B4CDF8"/>
<path d="M25 24.5C25 25.0523 24.5523 25.5 24 25.5C23.4477 25.5 23 25.0523 23 24.5C23 23.9477 23.4477 23.5 24 23.5C24.5523 23.5 25 23.9477 25 24.5Z" fill="#B4CDF8"/>
<defs>
<linearGradient id="paint0_linear_41743_62528" x1="13.7778" y1="2" x2="19.5745" y2="38.0684" gradientUnits="userSpaceOnUse">
<stop stop-color="white"/>
<stop offset="1" stop-color="#EBEBEB"/>
</linearGradient>
<radialGradient id="paint1_radial_41743_62528" cx="0" cy="0" r="1" gradientUnits="userSpaceOnUse" gradientTransform="translate(14.9444 11.375) rotate(62.5924) scale(32.1035 24.5982)">
<stop offset="0.177083" stop-color="white"/>
<stop offset="1" stop-color="#B8B8B8"/>
</radialGradient>
<linearGradient id="paint2_linear_41743_62528" x1="15.0417" y1="2" x2="21.2034" y2="37.9437" gradientUnits="userSpaceOnUse">
<stop stop-color="#BBBBBB"/>
<stop offset="1" stop-color="#888888"/>
</linearGradient>
<linearGradient id="paint3_linear_41743_62528" x1="11.5" y1="11" x2="29.4706" y2="27.9723" gradientUnits="userSpaceOnUse">
<stop stop-color="#3477EA"/>
<stop offset="1" stop-color="#1D53A4"/>
</linearGradient>
</defs>
</svg>
