<svg width="48" height="48" viewBox="0 0 48 48" fill="none" xmlns="http://www.w3.org/2000/svg">
<path d="M8 8C8 5.23858 10.2386 3 13 3H35C37.7614 3 40 5.23858 40 8V40C40 42.7614 37.7614 45 35 45H13C10.2386 45 8 42.7614 8 40V8Z" fill="url(#paint0_linear_41743_62503)"/>
<path d="M8 8C8 5.23858 10.2386 3 13 3H35C37.7614 3 40 5.23858 40 8V40C40 42.7614 37.7614 45 35 45H13C10.2386 45 8 42.7614 8 40V8Z" fill="url(#paint1_radial_41743_62503)" fill-opacity="0.2"/>
<path fill-rule="evenodd" clip-rule="evenodd" d="M35 4H13C10.7909 4 9 5.79086 9 8V40C9 42.2091 10.7909 44 13 44H35C37.2091 44 39 42.2091 39 40V8C39 5.79086 37.2091 4 35 4ZM13 3C10.2386 3 8 5.23858 8 8V40C8 42.7614 10.2386 45 13 45H35C37.7614 45 40 42.7614 40 40V8C40 5.23858 37.7614 3 35 3H13Z" fill="url(#paint2_linear_41743_62503)"/>
<path d="M23.1538 34H32C33.1046 34 34 33.1046 34 32V22.8907C34 22.3237 33.7594 21.7834 33.338 21.4041L25.3387 14.2042C24.5781 13.5196 23.4234 13.5196 22.6628 14.2041L14.6621 21.4041C14.2407 21.7834 14 22.3238 14 22.8908V32C14 33.1046 14.8954 34 16 34H24.8462" fill="url(#paint3_linear_41743_62503)"/>
<path d="M19.75 24.5C19.75 25.1904 19.1904 25.75 18.5 25.75C17.8096 25.75 17.25 25.1904 17.25 24.5C17.25 23.8096 17.8096 23.25 18.5 23.25C19.1904 23.25 19.75 23.8096 19.75 24.5Z" fill="#B4CDF8"/>
<path d="M25.25 24.5C25.25 25.1904 24.6904 25.75 24 25.75C23.3096 25.75 22.75 25.1904 22.75 24.5C22.75 23.8096 23.3096 23.25 24 23.25C24.6904 23.25 25.25 23.8096 25.25 24.5Z" fill="#B4CDF8"/>
<path d="M24 30.75C24.6904 30.75 25.25 30.1904 25.25 29.5C25.25 28.8096 24.6904 28.25 24 28.25C23.3096 28.25 22.75 28.8096 22.75 29.5C22.75 30.1904 23.3096 30.75 24 30.75Z" fill="#B4CDF8"/>
<path d="M19.75 29.5C19.75 30.1904 19.1904 30.75 18.5 30.75C17.8096 30.75 17.25 30.1904 17.25 29.5C17.25 28.8096 17.8096 28.25 18.5 28.25C19.1904 28.25 19.75 28.8096 19.75 29.5Z" fill="#B4CDF8"/>
<path d="M29.5 25.75C30.1904 25.75 30.75 25.1904 30.75 24.5C30.75 23.8096 30.1904 23.25 29.5 23.25C28.8096 23.25 28.25 23.8096 28.25 24.5C28.25 25.1904 28.8096 25.75 29.5 25.75Z" fill="#B4CDF8"/>
<path d="M30.75 29.5C30.75 30.1904 30.1904 30.75 29.5 30.75C28.8096 30.75 28.25 30.1904 28.25 29.5C28.25 28.8096 28.8096 28.25 29.5 28.25C30.1904 28.25 30.75 28.8096 30.75 29.5Z" fill="#B4CDF8"/>
<defs>
<linearGradient id="paint0_linear_41743_62503" x1="16.8889" y1="3" x2="23.7853" y2="45.0352" gradientUnits="userSpaceOnUse">
<stop stop-color="white"/>
<stop offset="1" stop-color="#EBEBEB"/>
</linearGradient>
<radialGradient id="paint1_radial_41743_62503" cx="0" cy="0" r="1" gradientUnits="userSpaceOnUse" gradientTransform="translate(18.2222 13.9375) rotate(63.0723) scale(37.2934 28.2333)">
<stop offset="0.177083" stop-color="white"/>
<stop offset="1" stop-color="#B8B8B8"/>
</radialGradient>
<linearGradient id="paint2_linear_41743_62503" x1="18.3333" y1="3" x2="25.663" y2="44.884" gradientUnits="userSpaceOnUse">
<stop stop-color="#BBBBBB"/>
<stop offset="1" stop-color="#888888"/>
</linearGradient>
<linearGradient id="paint3_linear_41743_62503" x1="14" y1="13" x2="34.975" y2="32.9762" gradientUnits="userSpaceOnUse">
<stop stop-color="#3477EA"/>
<stop offset="1" stop-color="#1D53A4"/>
</linearGradient>
</defs>
</svg>
