<svg width="48" height="48" viewBox="0 0 48 48" fill="none" xmlns="http://www.w3.org/2000/svg">
<path d="M3.00098 13C3.00098 10.2386 5.23955 8 8.00098 8H40.001C42.7624 8 45.001 10.2386 45.001 13V35C45.001 37.7614 42.7624 40 40.001 40H8.00098C5.23955 40 3.00098 37.7614 3.00098 35V13Z" fill="url(#paint0_linear_41743_62579)"/>
<path d="M3.00098 13C3.00098 10.2386 5.23955 8 8.00098 8H40.001C42.7624 8 45.001 10.2386 45.001 13V35C45.001 37.7614 42.7624 40 40.001 40H8.00098C5.23955 40 3.00098 37.7614 3.00098 35V13Z" fill="url(#paint1_radial_41743_62579)" fill-opacity="0.2"/>
<path fill-rule="evenodd" clip-rule="evenodd" d="M40.001 9H8.00098C5.79184 9 4.00098 10.7909 4.00098 13V35C4.00098 37.2091 5.79184 39 8.00098 39H40.001C42.2101 39 44.001 37.2091 44.001 35V13C44.001 10.7909 42.2101 9 40.001 9ZM8.00098 8C5.23955 8 3.00098 10.2386 3.00098 13V35C3.00098 37.7614 5.23955 40 8.00098 40H40.001C42.7624 40 45.001 37.7614 45.001 35V13C45.001 10.2386 42.7624 8 40.001 8H8.00098Z" fill="url(#paint2_linear_41743_62579)"/>
<path d="M20.75 26.5C20.75 27.1904 20.1904 27.75 19.5 27.75C18.8096 27.75 18.25 27.1904 18.25 26.5C18.25 25.8096 18.8096 25.25 19.5 25.25C20.1904 25.25 20.75 25.8096 20.75 26.5Z" fill="url(#paint3_linear_41743_62579)"/>
<path d="M25.25 26.5C25.25 27.1904 24.6904 27.75 24 27.75C23.3096 27.75 22.75 27.1904 22.75 26.5C22.75 25.8096 23.3096 25.25 24 25.25C24.6904 25.25 25.25 25.8096 25.25 26.5Z" fill="url(#paint4_linear_41743_62579)"/>
<path d="M29.75 26.5C29.75 27.1904 29.1904 27.75 28.5 27.75C27.8096 27.75 27.25 27.1904 27.25 26.5C27.25 25.8096 27.8096 25.25 28.5 25.25C29.1904 25.25 29.75 25.8096 29.75 26.5Z" fill="url(#paint5_linear_41743_62579)"/>
<path fill-rule="evenodd" clip-rule="evenodd" d="M16.9411 16C16.6608 16 16.3934 16.1176 16.2039 16.3243L12.5373 20.3243C11.9493 20.9657 12.4043 22 13.2744 22H15.001V30C15.001 31.1046 15.8964 32 17.001 32H31.001C32.1055 32 33.001 31.1046 33.001 30V22H34.728C35.5981 22 36.0531 20.9657 35.4651 20.3243L31.7985 16.3243C31.609 16.1176 31.3416 16 31.0613 16H16.9411ZM32.001 22H16.001V30C16.001 30.5523 16.4487 31 17.001 31H31.001C31.5533 31 32.001 30.5523 32.001 30V22Z" fill="url(#paint6_linear_41743_62579)"/>
<defs>
<linearGradient id="paint0_linear_41743_62579" x1="14.6676" y1="8" x2="17.7718" y2="40.5933" gradientUnits="userSpaceOnUse">
<stop stop-color="white"/>
<stop offset="1" stop-color="#EBEBEB"/>
</linearGradient>
<radialGradient id="paint1_radial_41743_62579" cx="0" cy="0" r="1" gradientUnits="userSpaceOnUse" gradientTransform="translate(16.4176 16.3333) rotate(48.8141) scale(33.6621 31.279)">
<stop offset="0.177083" stop-color="white"/>
<stop offset="1" stop-color="#B8B8B8"/>
</radialGradient>
<linearGradient id="paint2_linear_41743_62579" x1="16.5635" y1="8" x2="19.8704" y2="40.5529" gradientUnits="userSpaceOnUse">
<stop stop-color="#BBBBBB"/>
<stop offset="1" stop-color="#888888"/>
</linearGradient>
<linearGradient id="paint3_linear_41743_62579" x1="12.2725" y1="16" x2="27.1688" y2="37.8394" gradientUnits="userSpaceOnUse">
<stop stop-color="#7751B8"/>
<stop offset="1" stop-color="#5A409C"/>
</linearGradient>
<linearGradient id="paint4_linear_41743_62579" x1="12.2725" y1="16" x2="27.1688" y2="37.8394" gradientUnits="userSpaceOnUse">
<stop stop-color="#7751B8"/>
<stop offset="1" stop-color="#5A409C"/>
</linearGradient>
<linearGradient id="paint5_linear_41743_62579" x1="12.2725" y1="16" x2="27.1688" y2="37.8394" gradientUnits="userSpaceOnUse">
<stop stop-color="#7751B8"/>
<stop offset="1" stop-color="#5A409C"/>
</linearGradient>
<linearGradient id="paint6_linear_41743_62579" x1="12.2725" y1="16" x2="27.1688" y2="37.8394" gradientUnits="userSpaceOnUse">
<stop stop-color="#7751B8"/>
<stop offset="1" stop-color="#5A409C"/>
</linearGradient>
</defs>
</svg>
