<svg width="24" height="24" viewBox="0 0 24 24" fill="none" xmlns="http://www.w3.org/2000/svg">
<path d="M22 12C22 17.5228 17.5228 22 12 22C6.47715 22 2 17.5228 2 12C2 6.47715 6.47715 2 12 2C17.5228 2 22 6.47715 22 12Z" fill="url(#paint0_linear_41743_63458)"/>
<path d="M22 12C22 17.5228 17.5228 22 12 22C6.47715 22 2 17.5228 2 12C2 6.47715 6.47715 2 12 2C17.5228 2 22 6.47715 22 12Z" fill="url(#paint1_radial_41743_63458)" fill-opacity="0.2"/>
<path fill-rule="evenodd" clip-rule="evenodd" d="M12 21C16.9706 21 21 16.9706 21 12C21 7.02944 16.9706 3 12 3C7.02944 3 3 7.02944 3 12C3 16.9706 7.02944 21 12 21ZM12 22C17.5228 22 22 17.5228 22 12C22 6.47715 17.5228 2 12 2C6.47715 2 2 6.47715 2 12C2 17.5228 6.47715 22 12 22Z" fill="url(#paint2_linear_41743_63458)"/>
<path d="M14.2237 8.0159C14.3633 7.62594 14.1604 7.19659 13.7705 7.05693C13.3805 6.91727 12.9512 7.12017 12.8115 7.51013L9.77636 15.9847C9.6367 16.3747 9.8396 16.804 10.2296 16.9437C10.6195 17.0834 11.0489 16.8805 11.1885 16.4905L14.2237 8.0159Z" fill="url(#paint3_linear_41743_63458)"/>
<path d="M8.52992 9.21991C8.82282 9.51281 8.82282 9.98768 8.52992 10.2806L6.81025 12.0002L8.52992 13.7199C8.82282 14.0128 8.82282 14.4877 8.52992 14.7806C8.23703 15.0735 7.76216 15.0735 7.46926 14.7806L5.28997 12.6013C4.95803 12.2693 4.95803 11.7311 5.28997 11.3992L7.46926 9.21991C7.76216 8.92702 8.23703 8.92702 8.52992 9.21991Z" fill="url(#paint4_linear_41743_63458)"/>
<path d="M15.5336 14.7806C15.2407 14.4877 15.2407 14.0128 15.5336 13.7199L17.2532 12.0002L15.5336 10.2806C15.2407 9.98768 15.2407 9.51281 15.5336 9.21991C15.8264 8.92702 16.3013 8.92702 16.5942 9.21991L18.7735 11.3992C19.1054 11.7311 19.1054 12.2693 18.7735 12.6013L16.5942 14.7806C16.3013 15.0735 15.8264 15.0735 15.5336 14.7806Z" fill="url(#paint5_linear_41743_63458)"/>
<defs>
<linearGradient id="paint0_linear_41743_63458" x1="7.55556" y1="2" x2="10.0855" y2="22.2393" gradientUnits="userSpaceOnUse">
<stop stop-color="white"/>
<stop offset="1" stop-color="#EBEBEB"/>
</linearGradient>
<radialGradient id="paint1_radial_41743_63458" cx="0" cy="0" r="1" gradientUnits="userSpaceOnUse" gradientTransform="translate(8.38889 7.20833) rotate(56.3099) scale(19.0293 16.4677)">
<stop offset="0.177083" stop-color="white"/>
<stop offset="1" stop-color="#B8B8B8"/>
</radialGradient>
<linearGradient id="paint2_linear_41743_63458" x1="8.45833" y1="2" x2="11.1512" y2="22.1965" gradientUnits="userSpaceOnUse">
<stop stop-color="#BBBBBB"/>
<stop offset="1" stop-color="#888888"/>
</linearGradient>
<linearGradient id="paint3_linear_41743_63458" x1="5.04102" y1="7.01281" x2="14.4732" y2="20.2335" gradientUnits="userSpaceOnUse">
<stop stop-color="#4BA446"/>
<stop offset="1" stop-color="#3F7D35"/>
</linearGradient>
<linearGradient id="paint4_linear_41743_63458" x1="5.04102" y1="7.01281" x2="14.4732" y2="20.2335" gradientUnits="userSpaceOnUse">
<stop stop-color="#4BA446"/>
<stop offset="1" stop-color="#3F7D35"/>
</linearGradient>
<linearGradient id="paint5_linear_41743_63458" x1="5.04102" y1="7.01281" x2="14.4732" y2="20.2335" gradientUnits="userSpaceOnUse">
<stop stop-color="#4BA446"/>
<stop offset="1" stop-color="#3F7D35"/>
</linearGradient>
</defs>
</svg>
