<svg width="48" height="48" viewBox="0 0 48 48" fill="none" xmlns="http://www.w3.org/2000/svg">
<path d="M43 24C43 34.4934 34.4934 43 24 43C13.5066 43 5 34.4934 5 24C5 13.5066 13.5066 5 24 5C34.4934 5 43 13.5066 43 24Z" fill="url(#paint0_linear_41743_63473)"/>
<path d="M43 24C43 34.4934 34.4934 43 24 43C13.5066 43 5 34.4934 5 24C5 13.5066 13.5066 5 24 5C34.4934 5 43 13.5066 43 24Z" fill="url(#paint1_radial_41743_63473)" fill-opacity="0.2"/>
<path fill-rule="evenodd" clip-rule="evenodd" d="M24 42C33.9411 42 42 33.9411 42 24C42 14.0589 33.9411 6 24 6C14.0589 6 6 14.0589 6 24C6 33.9411 14.0589 42 24 42ZM24 43C34.4934 43 43 34.4934 43 24C43 13.5066 34.4934 5 24 5C13.5066 5 5 13.5066 5 24C5 34.4934 13.5066 43 24 43Z" fill="url(#paint2_linear_41743_63473)"/>
<path fill-rule="evenodd" clip-rule="evenodd" d="M28.3302 14.9554C28.4806 14.5694 28.2897 14.1346 27.9038 13.9842C27.5178 13.8338 27.083 14.0247 26.9326 14.4106L19.6689 33.0449C19.5184 33.4309 19.7093 33.8657 20.0953 34.0161C20.4812 34.1666 20.916 33.9756 21.0664 33.5897L28.3302 14.9554ZM17.5303 18.2197C17.8232 18.5126 17.8232 18.9874 17.5303 19.2803L12.8107 24L17.5303 28.7197C17.8232 29.0126 17.8232 29.4874 17.5303 29.7803C17.2374 30.0732 16.7626 30.0732 16.4697 29.7803L11.2197 24.5303C10.9268 24.2374 10.9268 23.7626 11.2197 23.4697L16.4697 18.2197C16.7626 17.9268 17.2374 17.9268 17.5303 18.2197ZM30.4697 29.7803C30.1768 29.4874 30.1768 29.0126 30.4697 28.7197L35.1893 24L30.4697 19.2803C30.1768 18.9874 30.1768 18.5126 30.4697 18.2197C30.7626 17.9268 31.2374 17.9268 31.5303 18.2197L36.7803 23.4697C37.0732 23.7626 37.0732 24.2374 36.7803 24.5303L31.5303 29.7803C31.2374 30.0732 30.7626 30.0732 30.4697 29.7803Z" fill="url(#paint3_linear_41743_63473)"/>
<defs>
<linearGradient id="paint0_linear_41743_63473" x1="15.5556" y1="5" x2="20.3624" y2="43.4547" gradientUnits="userSpaceOnUse">
<stop stop-color="white"/>
<stop offset="1" stop-color="#EBEBEB"/>
</linearGradient>
<radialGradient id="paint1_radial_41743_63473" cx="0" cy="0" r="1" gradientUnits="userSpaceOnUse" gradientTransform="translate(17.1389 14.8958) rotate(56.3099) scale(36.1557 31.2886)">
<stop offset="0.177083" stop-color="white"/>
<stop offset="1" stop-color="#B8B8B8"/>
</radialGradient>
<linearGradient id="paint2_linear_41743_63473" x1="17.2708" y1="5" x2="22.3873" y2="43.3734" gradientUnits="userSpaceOnUse">
<stop stop-color="#BBBBBB"/>
<stop offset="1" stop-color="#888888"/>
</linearGradient>
<linearGradient id="paint3_linear_41743_63473" x1="11" y1="13.9328" x2="30.4942" y2="39.1057" gradientUnits="userSpaceOnUse">
<stop stop-color="#4BA446"/>
<stop offset="1" stop-color="#3F7D35"/>
</linearGradient>
</defs>
</svg>
