<svg width="32" height="32" viewBox="0 0 32 32" fill="none" xmlns="http://www.w3.org/2000/svg">
<path d="M29 16C29 23.1797 23.1797 29 16 29C8.8203 29 3 23.1797 3 16C3 8.8203 8.8203 3 16 3C23.1797 3 29 8.8203 29 16Z" fill="url(#paint0_linear_41743_63462)"/>
<path d="M29 16C29 23.1797 23.1797 29 16 29C8.8203 29 3 23.1797 3 16C3 8.8203 8.8203 3 16 3C23.1797 3 29 8.8203 29 16Z" fill="url(#paint1_radial_41743_63462)" fill-opacity="0.2"/>
<path fill-rule="evenodd" clip-rule="evenodd" d="M16 28C22.6274 28 28 22.6274 28 16C28 9.37258 22.6274 4 16 4C9.37258 4 4 9.37258 4 16C4 22.6274 9.37258 28 16 28ZM16 29C23.1797 29 29 23.1797 29 16C29 8.8203 23.1797 3 16 3C8.8203 3 3 8.8203 3 16C3 23.1797 8.8203 29 16 29Z" fill="url(#paint2_linear_41743_63462)"/>
<path d="M19.23 10.0259C19.3856 9.64201 19.2005 9.20469 18.8166 9.04911C18.4327 8.89353 17.9954 9.07861 17.8398 9.46249L12.7692 21.974C12.6136 22.3579 12.7987 22.7952 13.1826 22.9508C13.5665 23.1064 14.0038 22.9213 14.1594 22.5374L19.23 10.0259Z" fill="url(#paint3_linear_41743_63462)"/>
<path d="M11.5303 12.2197C11.8232 12.5126 11.8232 12.9874 11.5303 13.2803L8.81066 16L11.5303 18.7197C11.8232 19.0126 11.8232 19.4874 11.5303 19.7803C11.2374 20.0732 10.7626 20.0732 10.4697 19.7803L7.21967 16.5303C6.92678 16.2374 6.92678 15.7626 7.21967 15.4697L10.4697 12.2197C10.7626 11.9268 11.2374 11.9268 11.5303 12.2197Z" fill="url(#paint4_linear_41743_63462)"/>
<path d="M20.5009 19.7803C20.208 19.4874 20.208 19.0126 20.5009 18.7197L23.2206 16L20.5009 13.2803C20.208 12.9874 20.208 12.5126 20.5009 12.2197C20.7938 11.9268 21.2687 11.9268 21.5616 12.2197L24.8116 15.4697C25.1045 15.7626 25.1045 16.2374 24.8116 16.5303L21.5616 19.7803C21.2687 20.0732 20.7938 20.0732 20.5009 19.7803Z" fill="url(#paint5_linear_41743_63462)"/>
<defs>
<linearGradient id="paint0_linear_41743_63462" x1="10.2222" y1="3" x2="13.5111" y2="29.3111" gradientUnits="userSpaceOnUse">
<stop stop-color="white"/>
<stop offset="1" stop-color="#EBEBEB"/>
</linearGradient>
<radialGradient id="paint1_radial_41743_63462" cx="0" cy="0" r="1" gradientUnits="userSpaceOnUse" gradientTransform="translate(11.3056 9.77083) rotate(56.3099) scale(24.7381 21.408)">
<stop offset="0.177083" stop-color="white"/>
<stop offset="1" stop-color="#B8B8B8"/>
</radialGradient>
<linearGradient id="paint2_linear_41743_63462" x1="11.3958" y1="3" x2="14.8966" y2="29.2555" gradientUnits="userSpaceOnUse">
<stop stop-color="#BBBBBB"/>
<stop offset="1" stop-color="#888888"/>
</linearGradient>
<linearGradient id="paint3_linear_41743_63462" x1="7" y1="8.994" x2="20.5779" y2="26.4666" gradientUnits="userSpaceOnUse">
<stop stop-color="#4BA446"/>
<stop offset="1" stop-color="#3F7D35"/>
</linearGradient>
<linearGradient id="paint4_linear_41743_63462" x1="7" y1="8.994" x2="20.5779" y2="26.4666" gradientUnits="userSpaceOnUse">
<stop stop-color="#4BA446"/>
<stop offset="1" stop-color="#3F7D35"/>
</linearGradient>
<linearGradient id="paint5_linear_41743_63462" x1="7" y1="8.994" x2="20.5779" y2="26.4666" gradientUnits="userSpaceOnUse">
<stop stop-color="#4BA446"/>
<stop offset="1" stop-color="#3F7D35"/>
</linearGradient>
</defs>
</svg>
