<svg width="40" height="40" viewBox="0 0 40 40" fill="none" xmlns="http://www.w3.org/2000/svg">
<path d="M36 20C36 28.8366 28.8366 36 20 36C11.1634 36 4 28.8366 4 20C4 11.1634 11.1634 4 20 4C28.8366 4 36 11.1634 36 20Z" fill="url(#paint0_linear_41743_63487)"/>
<path d="M36 20C36 28.8366 28.8366 36 20 36C11.1634 36 4 28.8366 4 20C4 11.1634 11.1634 4 20 4C28.8366 4 36 11.1634 36 20Z" fill="url(#paint1_radial_41743_63487)" fill-opacity="0.2"/>
<path fill-rule="evenodd" clip-rule="evenodd" d="M37 20C37 29.3888 29.3888 37 20 37C10.6112 37 3 29.3888 3 20C3 10.6112 10.6112 3 20 3C29.3888 3 37 10.6112 37 20ZM20 36C28.8366 36 36 28.8366 36 20C36 11.1634 28.8366 4 20 4C11.1634 4 4 11.1634 4 20C4 28.8366 11.1634 36 20 36Z" fill="url(#paint2_linear_41743_63487)"/>
<path d="M16.4342 28.0544C16.2876 28.4418 16.4828 28.8747 16.8702 29.0213C17.2576 29.1679 17.6905 28.9726 17.8371 28.5852L24.1186 11.9836C24.2652 11.5962 24.07 11.1633 23.6826 11.0167C23.2952 10.8702 22.8623 11.0654 22.7157 11.4528L16.4342 28.0544Z" fill="url(#paint3_linear_41743_63487)"/>
<path d="M13.7803 14.9697C14.0732 15.2625 14.0732 15.7374 13.7803 16.0303L9.81068 20L13.7803 23.9696C14.0732 24.2625 14.0732 24.7374 13.7803 25.0303C13.4875 25.3232 13.0126 25.3232 12.7197 25.0303L8.21969 20.5303C7.92679 20.2374 7.92679 19.7625 8.21969 19.4696L12.7197 14.9697C13.0126 14.6768 13.4875 14.6768 13.7803 14.9697Z" fill="url(#paint4_linear_41743_63487)"/>
<path d="M26.2197 25.5304C25.9268 25.2375 25.9268 24.7626 26.2197 24.4697L30.1894 20.5L26.2197 16.5304C25.9268 16.2375 25.9268 15.7626 26.2197 15.4697C26.5126 15.1768 26.9875 15.1768 27.2803 15.4697L31.7803 19.9697C32.0732 20.2626 32.0732 20.7375 31.7803 21.0304L27.2803 25.5304C26.9875 25.8233 26.5126 25.8233 26.2197 25.5304Z" fill="url(#paint5_linear_41743_63487)"/>
<defs>
<linearGradient id="paint0_linear_41743_63487" x1="12.8889" y1="4" x2="16.9368" y2="36.3829" gradientUnits="userSpaceOnUse">
<stop stop-color="white"/>
<stop offset="1" stop-color="#EBEBEB"/>
</linearGradient>
<radialGradient id="paint1_radial_41743_63487" cx="0" cy="0" r="1" gradientUnits="userSpaceOnUse" gradientTransform="translate(14.2222 12.3333) rotate(56.3099) scale(30.4469 26.3483)">
<stop offset="0.177083" stop-color="white"/>
<stop offset="1" stop-color="#B8B8B8"/>
</radialGradient>
<linearGradient id="paint2_linear_41743_63487" x1="13.9792" y1="3" x2="18.557" y2="37.3341" gradientUnits="userSpaceOnUse">
<stop stop-color="#BBBBBB"/>
<stop offset="1" stop-color="#888888"/>
</linearGradient>
<linearGradient id="paint3_linear_41743_63487" x1="8.00002" y1="10.968" x2="25.4052" y2="34.0441" gradientUnits="userSpaceOnUse">
<stop stop-color="#4BA446"/>
<stop offset="1" stop-color="#3F7D35"/>
</linearGradient>
<linearGradient id="paint4_linear_41743_63487" x1="8.00002" y1="10.968" x2="25.4052" y2="34.0441" gradientUnits="userSpaceOnUse">
<stop stop-color="#4BA446"/>
<stop offset="1" stop-color="#3F7D35"/>
</linearGradient>
<linearGradient id="paint5_linear_41743_63487" x1="8.00002" y1="10.968" x2="25.4052" y2="34.0441" gradientUnits="userSpaceOnUse">
<stop stop-color="#4BA446"/>
<stop offset="1" stop-color="#3F7D35"/>
</linearGradient>
</defs>
</svg>
