<svg width="48" height="48" viewBox="0 0 48 48" fill="none" xmlns="http://www.w3.org/2000/svg">
<path d="M8 8C8 5.23858 10.2386 3 13 3H35C37.7614 3 40 5.23858 40 8V40C40 42.7614 37.7614 45 35 45H13C10.2386 45 8 42.7614 8 40V8Z" fill="url(#paint0_linear_41743_62630)"/>
<path d="M8 8C8 5.23858 10.2386 3 13 3H35C37.7614 3 40 5.23858 40 8V40C40 42.7614 37.7614 45 35 45H13C10.2386 45 8 42.7614 8 40V8Z" fill="url(#paint1_radial_41743_62630)" fill-opacity="0.2"/>
<path fill-rule="evenodd" clip-rule="evenodd" d="M35 4H13C10.7909 4 9 5.79086 9 8V40C9 42.2091 10.7909 44 13 44H35C37.2091 44 39 42.2091 39 40V8C39 5.79086 37.2091 4 35 4ZM13 3C10.2386 3 8 5.23858 8 8V40C8 42.7614 10.2386 45 13 45H35C37.7614 45 40 42.7614 40 40V8C40 5.23858 37.7614 3 35 3H13Z" fill="url(#paint2_linear_41743_62630)"/>
<path d="M20 21.1562C20 21.1426 20.0005 21.1291 20.0016 21.1157C20.0898 16.6185 23.763 13 28.2812 13H30.5C30.7761 13 31 13.2239 31 13.5C31 13.7761 30.7761 14 30.5 14H28.2812C24.2599 14 21 17.2599 21 21.2812V22C21 24.2091 19.2091 26 17 26H14.5C14.2239 26 14 25.7761 14 25.5C14 25.2239 14.2239 25 14.5 25H17C18.6569 25 20 23.6569 20 22V21.1562Z" fill="url(#paint3_linear_41743_62630)"/>
<path d="M23.5 23C23.5 19.6863 26.1863 17 29.5 17H34.5C34.7761 17 35 17.2239 35 17.5C35 17.7761 34.7761 18 34.5 18H29.5C26.7386 18 24.5 20.2386 24.5 23V23.6562C24.5 23.69 24.4966 23.723 24.4903 23.755C24.4663 24.198 24.3988 24.6294 24.2918 25.0449C23.2778 25.9071 22.5318 27.0752 22.1965 28.4064C21.0404 29.3997 19.5369 30 17.8931 30H14.5C14.2239 30 14 29.7761 14 29.5C14 29.2239 14.2239 29 14.5 29H17.8931C20.9897 29 23.5 26.4897 23.5 23.3931V23Z" fill="url(#paint4_linear_41743_62630)"/>
<path d="M22.3599 32.1374C21.2457 32.6896 19.9904 33 18.6626 33L17.5 33C17.2239 33 17 33.2239 17 33.5C17 33.7761 17.2239 34 17.5 34L18.6626 34C20.133 34 21.5241 33.6601 22.7615 33.0546C22.6051 32.7615 22.4706 32.4551 22.3599 32.1374Z" fill="url(#paint5_linear_41743_62630)"/>
<path d="M28.2056 23.5056C28.5901 22.6196 29.4727 22 30.5 22H34.5C34.7761 22 35 21.7761 35 21.5C35 21.2239 34.7761 21 34.5 21L30.5 21C28.8604 21 27.4841 22.1274 27.1041 23.6493C27.4612 23.5711 27.8292 23.5224 28.2056 23.5056Z" fill="url(#paint6_linear_41743_62630)"/>
<path fill-rule="evenodd" clip-rule="evenodd" d="M23.837 28.9709C24.9386 28.6983 25.593 27.5649 25.2782 26.4746L25.0801 25.7885C25.5194 25.4061 26.0193 25.0959 26.5629 24.8757L27.0617 25.4006C27.85 26.2301 29.1722 26.2303 29.9608 25.4011L30.4539 24.8826C30.9985 25.1054 31.499 25.4186 31.9381 25.8043L31.7519 26.4352C31.4281 27.5327 32.0894 28.6778 33.2019 28.9457L33.7409 29.0755C33.7899 29.3758 33.8155 29.6843 33.8155 29.9991C33.8155 30.2999 33.7922 30.5951 33.7472 30.8828L33.1635 31.0272C32.062 31.2998 31.4076 32.4332 31.7223 33.5235L31.9204 34.2094C31.4811 34.5918 30.9811 34.902 30.4375 35.1223L29.9388 34.5975C29.1506 33.768 27.8283 33.7677 27.0397 34.597L26.5465 35.1157C26.0019 34.893 25.5014 34.5798 25.0623 34.1941L25.2486 33.5629C25.5725 32.4653 24.9111 31.3203 23.7986 31.0524L23.2592 30.9225C23.2101 30.6223 23.1846 30.3138 23.1846 29.9991C23.1846 29.6983 23.2079 29.4031 23.2528 29.1154L23.837 28.9709ZM29.9497 29.9991C29.9497 30.8275 29.3007 31.4991 28.5 31.4991C27.6994 31.4991 27.0504 30.8275 27.0504 29.9991C27.0504 29.1707 27.6994 28.4991 28.5 28.4991C29.3007 28.4991 29.9497 29.1707 29.9497 29.9991Z" fill="url(#paint7_linear_41743_62630)"/>
<defs>
<linearGradient id="paint0_linear_41743_62630" x1="16.8889" y1="3" x2="23.7853" y2="45.0352" gradientUnits="userSpaceOnUse">
<stop stop-color="white"/>
<stop offset="1" stop-color="#EBEBEB"/>
</linearGradient>
<radialGradient id="paint1_radial_41743_62630" cx="0" cy="0" r="1" gradientUnits="userSpaceOnUse" gradientTransform="translate(18.2222 13.9375) rotate(63.0723) scale(37.2934 28.2333)">
<stop offset="0.177083" stop-color="white"/>
<stop offset="1" stop-color="#B8B8B8"/>
</radialGradient>
<linearGradient id="paint2_linear_41743_62630" x1="18.3333" y1="3" x2="25.663" y2="44.884" gradientUnits="userSpaceOnUse">
<stop stop-color="#BBBBBB"/>
<stop offset="1" stop-color="#888888"/>
</linearGradient>
<linearGradient id="paint3_linear_41743_62630" x1="14" y1="13" x2="35" y2="34" gradientUnits="userSpaceOnUse">
<stop stop-color="#E03F8F"/>
<stop offset="1" stop-color="#BD1E7B"/>
</linearGradient>
<linearGradient id="paint4_linear_41743_62630" x1="14" y1="13" x2="35" y2="34" gradientUnits="userSpaceOnUse">
<stop stop-color="#E03F8F"/>
<stop offset="1" stop-color="#BD1E7B"/>
</linearGradient>
<linearGradient id="paint5_linear_41743_62630" x1="14" y1="13" x2="35" y2="34" gradientUnits="userSpaceOnUse">
<stop stop-color="#E03F8F"/>
<stop offset="1" stop-color="#BD1E7B"/>
</linearGradient>
<linearGradient id="paint6_linear_41743_62630" x1="14" y1="13" x2="35" y2="34" gradientUnits="userSpaceOnUse">
<stop stop-color="#E03F8F"/>
<stop offset="1" stop-color="#BD1E7B"/>
</linearGradient>
<linearGradient id="paint7_linear_41743_62630" x1="23.1846" y1="24.8757" x2="33.4242" y2="35.4995" gradientUnits="userSpaceOnUse">
<stop stop-color="#E03F8F"/>
<stop offset="1" stop-color="#BD1E7B"/>
</linearGradient>
</defs>
</svg>
