<svg width="32" height="32" viewBox="0 0 32 32" fill="none" xmlns="http://www.w3.org/2000/svg">
<path d="M3 6.5C3 4.567 4.567 3 6.5 3H25.5C27.433 3 29 4.567 29 6.5V25.5C29 27.433 27.433 29 25.5 29H6.5C4.567 29 3 27.433 3 25.5V6.5Z" fill="url(#paint0_linear_41743_62663)"/>
<path d="M3 6.5C3 4.567 4.567 3 6.5 3H25.5C27.433 3 29 4.567 29 6.5V25.5C29 27.433 27.433 29 25.5 29H6.5C4.567 29 3 27.433 3 25.5V6.5Z" fill="url(#paint1_radial_41743_62663)" fill-opacity="0.2"/>
<path fill-rule="evenodd" clip-rule="evenodd" d="M25.5 4H6.5C5.11929 4 4 5.11929 4 6.5V25.5C4 26.8807 5.11929 28 6.5 28H25.5C26.8807 28 28 26.8807 28 25.5V6.5C28 5.11929 26.8807 4 25.5 4ZM6.5 3C4.567 3 3 4.567 3 6.5V25.5C3 27.433 4.567 29 6.5 29H25.5C27.433 29 29 27.433 29 25.5V6.5C29 4.567 27.433 3 25.5 3H6.5Z" fill="url(#paint2_linear_41743_62663)"/>
<path fill-rule="evenodd" clip-rule="evenodd" d="M13.2499 10H12.4999C12.2237 10 11.9999 9.77614 11.9999 9.5C11.9999 9.22386 12.2237 9 12.4999 9H19.4999C19.776 9 19.9999 9.22386 19.9999 9.5C19.9999 9.77614 19.776 10 19.4999 10H18.7499V14.747C18.7499 15.159 18.8517 15.5645 19.0462 15.9276L21.6519 20.7916C22.1872 21.7909 21.4633 22.9999 20.3297 22.9999H11.6701C10.5364 22.9999 9.81252 21.7909 10.3478 20.7916L12.9536 15.9276C13.1481 15.5645 13.2499 15.159 13.2499 14.747V10ZM13.25 17.5V17.4919L13.2457 17.5H13.25ZM19.2898 18.5H12.7099L11.2293 21.2638C11.0509 21.5969 11.2922 21.9999 11.6701 21.9999H20.3297C20.7076 21.9999 20.9489 21.5969 20.7704 21.2638L19.2898 18.5Z" fill="url(#paint3_linear_41743_62663)"/>
<defs>
<linearGradient id="paint0_linear_41743_62663" x1="10.2222" y1="3" x2="13.5111" y2="29.3111" gradientUnits="userSpaceOnUse">
<stop stop-color="white"/>
<stop offset="1" stop-color="#EBEBEB"/>
</linearGradient>
<radialGradient id="paint1_radial_41743_62663" cx="0" cy="0" r="1" gradientUnits="userSpaceOnUse" gradientTransform="translate(11.3056 9.77083) rotate(56.3099) scale(24.7381 21.408)">
<stop offset="0.177083" stop-color="white"/>
<stop offset="1" stop-color="#B8B8B8"/>
</radialGradient>
<linearGradient id="paint2_linear_41743_62663" x1="11.3958" y1="3" x2="14.8966" y2="29.2555" gradientUnits="userSpaceOnUse">
<stop stop-color="#BBBBBB"/>
<stop offset="1" stop-color="#888888"/>
</linearGradient>
<linearGradient id="paint3_linear_41743_62663" x1="10.168" y1="9" x2="23.9378" y2="20.4721" gradientUnits="userSpaceOnUse">
<stop stop-color="#4BA446"/>
<stop offset="1" stop-color="#3F7D35"/>
</linearGradient>
</defs>
</svg>
