<svg width="24" height="24" viewBox="0 0 24 24" fill="none" xmlns="http://www.w3.org/2000/svg">
<path d="M2 5C2 3.34315 3.34315 2 5 2H19C20.6569 2 22 3.34315 22 5V19C22 20.6569 20.6569 22 19 22H5C3.34315 22 2 20.6569 2 19V5Z" fill="url(#paint0_linear_41743_62843)"/>
<path d="M2 5C2 3.34315 3.34315 2 5 2H19C20.6569 2 22 3.34315 22 5V19C22 20.6569 20.6569 22 19 22H5C3.34315 22 2 20.6569 2 19V5Z" fill="url(#paint1_radial_41743_62843)" fill-opacity="0.2"/>
<path fill-rule="evenodd" clip-rule="evenodd" d="M19 3H5C3.89543 3 3 3.89543 3 5V19C3 20.1046 3.89543 21 5 21H19C20.1046 21 21 20.1046 21 19V5C21 3.89543 20.1046 3 19 3ZM5 2C3.34315 2 2 3.34315 2 5V19C2 20.6569 3.34315 22 5 22H19C20.6569 22 22 20.6569 22 19V5C22 3.34315 20.6569 2 19 2H5Z" fill="url(#paint2_linear_41743_62843)"/>
<path fill-rule="evenodd" clip-rule="evenodd" d="M8.5 17C9.88071 17 11 15.8807 11 14.5V11.998H13V14.5C13 15.8807 14.1193 17 15.5 17C16.8807 17 18 15.8807 18 14.5C18 14.2888 17.9738 14.0837 17.9245 13.8878L17.9247 13.8877L16.7137 8.63163C16.5821 7.7452 15.8191 7 14.8612 7C13.8214 7 13 7.84404 13 8.87283V9.99805H11V8.87283C11 7.84404 10.1786 7 9.13876 7C8.1809 7 7.41793 7.7452 7.2863 8.63163L6.07527 13.8877L6.0755 13.8878C6.02619 14.0837 6 14.2888 6 14.5C6 15.8807 7.11929 17 8.5 17ZM14 14.5C14 15.3284 14.6716 16 15.5 16C16.3284 16 17 15.3284 17 14.5C17 13.6716 16.3284 13 15.5 13C14.6716 13 14 13.6716 14 14.5ZM8.5 16C9.32843 16 10 15.3284 10 14.5C10 13.6716 9.32843 13 8.5 13C7.67157 13 7 13.6716 7 14.5C7 15.3284 7.67157 16 8.5 16Z" fill="url(#paint3_linear_41743_62843)"/>
<defs>
<linearGradient id="paint0_linear_41743_62843" x1="7.55556" y1="2" x2="10.0855" y2="22.2393" gradientUnits="userSpaceOnUse">
<stop stop-color="white"/>
<stop offset="1" stop-color="#EBEBEB"/>
</linearGradient>
<radialGradient id="paint1_radial_41743_62843" cx="0" cy="0" r="1" gradientUnits="userSpaceOnUse" gradientTransform="translate(8.38889 7.20833) rotate(56.3099) scale(19.0293 16.4677)">
<stop offset="0.177083" stop-color="white"/>
<stop offset="1" stop-color="#B8B8B8"/>
</radialGradient>
<linearGradient id="paint2_linear_41743_62843" x1="8.45833" y1="2" x2="11.1512" y2="22.1965" gradientUnits="userSpaceOnUse">
<stop stop-color="#BBBBBB"/>
<stop offset="1" stop-color="#888888"/>
</linearGradient>
<linearGradient id="paint3_linear_41743_62843" x1="6" y1="7" x2="15.8361" y2="18.8033" gradientUnits="userSpaceOnUse">
<stop stop-color="#C28400"/>
<stop offset="1" stop-color="#A86500"/>
</linearGradient>
</defs>
</svg>
