<svg width="40" height="40" viewBox="0 0 40 40" fill="none" xmlns="http://www.w3.org/2000/svg">
<path d="M4 8C4 5.79086 5.79086 4 8 4H32C34.2091 4 36 5.79086 36 8V32C36 34.2091 34.2091 36 32 36H8C5.79086 36 4 34.2091 4 32V8Z" fill="url(#paint0_linear_41743_62865)"/>
<path d="M4 8C4 5.79086 5.79086 4 8 4H32C34.2091 4 36 5.79086 36 8V32C36 34.2091 34.2091 36 32 36H8C5.79086 36 4 34.2091 4 32V8Z" fill="url(#paint1_radial_41743_62865)" fill-opacity="0.2"/>
<path fill-rule="evenodd" clip-rule="evenodd" d="M32 5H8C6.34315 5 5 6.34315 5 8V32C5 33.6569 6.34315 35 8 35H32C33.6569 35 35 33.6569 35 32V8C35 6.34315 33.6569 5 32 5ZM8 4C5.79086 4 4 5.79086 4 8V32C4 34.2091 5.79086 36 8 36H32C34.2091 36 36 34.2091 36 32V8C36 5.79086 34.2091 4 32 4H8Z" fill="url(#paint2_linear_41743_62865)"/>
<path fill-rule="evenodd" clip-rule="evenodd" d="M19 23.5004C19 23.481 18.9998 23.4618 18.9995 23.4425L18.9728 19.9999H21.0272L21 23.4425C20.9997 23.4616 21 23.4807 21 23.4999C21 25.4329 22.567 26.9999 24.5 26.9999C26.433 26.9999 28 25.4329 28 23.4999C28 23.119 27.9391 22.7523 27.8266 22.409L25.9875 15.1632C25.8139 13.9848 24.7999 12.9999 23.5385 12.9999C22.172 12.9999 21.0641 14.1071 21.063 15.4734L21.0509 16.9999H18.9491L18.937 15.4734C18.9359 14.1071 17.828 12.9999 16.4615 12.9999C15.2001 12.9999 14.1861 13.9848 14.0125 15.1632L12.1728 22.411C12.0607 22.7539 12 23.1201 12 23.5004C12 25.4334 13.567 27.0004 15.5 27.0004C17.433 27.0004 19 25.4334 19 23.5004ZM15.5 26.0004C16.8807 26.0004 18 24.8811 18 23.5004C18 22.1197 16.8807 21.0004 15.5 21.0004C14.1193 21.0004 13 22.1197 13 23.5004C13 24.8811 14.1193 26.0004 15.5 26.0004ZM22 23.4999C22 24.8806 23.1193 25.9999 24.5 25.9999C25.8807 25.9999 27 24.8806 27 23.4999C27 22.1192 25.8807 20.9999 24.5 20.9999C23.1193 20.9999 22 22.1192 22 23.4999Z" fill="url(#paint3_linear_41743_62865)"/>
<defs>
<linearGradient id="paint0_linear_41743_62865" x1="12.8889" y1="4" x2="16.9368" y2="36.3829" gradientUnits="userSpaceOnUse">
<stop stop-color="white"/>
<stop offset="1" stop-color="#EBEBEB"/>
</linearGradient>
<radialGradient id="paint1_radial_41743_62865" cx="0" cy="0" r="1" gradientUnits="userSpaceOnUse" gradientTransform="translate(14.2222 12.3333) rotate(56.3099) scale(30.4469 26.3483)">
<stop offset="0.177083" stop-color="white"/>
<stop offset="1" stop-color="#B8B8B8"/>
</radialGradient>
<linearGradient id="paint2_linear_41743_62865" x1="14.3333" y1="4" x2="18.6419" y2="36.3144" gradientUnits="userSpaceOnUse">
<stop stop-color="#BBBBBB"/>
<stop offset="1" stop-color="#888888"/>
</linearGradient>
<linearGradient id="paint3_linear_41743_62865" x1="12" y1="12.9999" x2="25.8766" y2="28.8584" gradientUnits="userSpaceOnUse">
<stop stop-color="#C28400"/>
<stop offset="1" stop-color="#A86500"/>
</linearGradient>
</defs>
</svg>
