<svg width="40" height="40" viewBox="0 0 40 40" fill="none" xmlns="http://www.w3.org/2000/svg">
<path d="M4 8C4 5.79086 5.79086 4 8 4H32C34.2091 4 36 5.79086 36 8V32C36 34.2091 34.2091 36 32 36H8C5.79086 36 4 34.2091 4 32V8Z" fill="url(#paint0_linear_41743_62705)"/>
<path d="M4 8C4 5.79086 5.79086 4 8 4H32C34.2091 4 36 5.79086 36 8V32C36 34.2091 34.2091 36 32 36H8C5.79086 36 4 34.2091 4 32V8Z" fill="url(#paint1_radial_41743_62705)" fill-opacity="0.2"/>
<path fill-rule="evenodd" clip-rule="evenodd" d="M32 5H8C6.34315 5 5 6.34315 5 8V32C5 33.6569 6.34315 35 8 35H32C33.6569 35 35 33.6569 35 32V8C35 6.34315 33.6569 5 32 5ZM8 4C5.79086 4 4 5.79086 4 8V32C4 34.2091 5.79086 36 8 36H32C34.2091 36 36 34.2091 36 32V8C36 5.79086 34.2091 4 32 4H8Z" fill="url(#paint2_linear_41743_62705)"/>
<path d="M19 15C19 16.4865 17.9189 17.7205 16.5 17.9585V20H22C22.8284 20 23.5 19.3284 23.5 18.5V17.9585C22.0811 17.7205 21 16.4865 21 15C21 13.3431 22.3431 12 24 12C25.6569 12 27 13.3431 27 15C27 16.4865 25.9189 17.7205 24.5 17.9585V18.5C24.5 19.8807 23.3807 21 22 21H16.5V22.0415C17.9189 22.2795 19 23.5135 19 25C19 26.6569 17.6569 28 16 28C14.3431 28 13 26.6569 13 25C13 23.5135 14.0811 22.2795 15.5 22.0415V17.9585C14.0811 17.7205 13 16.4865 13 15C13 13.3431 14.3431 12 16 12C17.6569 12 19 13.3431 19 15Z" fill="url(#paint3_linear_41743_62705)"/>
<rect x="24" y="29" width="16" height="10" rx="5" fill="#F5F5F5"/>
<path d="M29 31C27.3431 31 26 32.3431 26 34C26 35.6569 27.3431 37 29 37H30.5C30.7761 37 31 37.2239 31 37.5C31 37.7761 30.7761 38 30.5 38H29C26.7909 38 25 36.2091 25 34C25 31.7909 26.7909 30 29 30H30.5C30.7761 30 31 30.2239 31 30.5C31 30.7761 30.7761 31 30.5 31H29Z" fill="url(#paint4_linear_41743_62705)"/>
<path d="M35 37C36.6569 37 38 35.6569 38 34C38 32.3431 36.6569 31 35 31L33.5 31C33.2239 31 33 30.7761 33 30.5C33 30.2239 33.2239 30 33.5 30H35C37.2091 30 39 31.7909 39 34C39 36.2091 37.2091 38 35 38L33.5 38C33.2239 38 33 37.7761 33 37.5C33 37.2239 33.2239 37 33.5 37H35Z" fill="url(#paint5_linear_41743_62705)"/>
<path d="M29.5 33.5C29.2239 33.5 29 33.7239 29 34C29 34.2761 29.2239 34.5 29.5 34.5L34.5 34.5C34.7761 34.5 35 34.2761 35 34C35 33.7239 34.7761 33.5 34.5 33.5L29.5 33.5Z" fill="url(#paint6_linear_41743_62705)"/>
<defs>
<linearGradient id="paint0_linear_41743_62705" x1="12.8889" y1="4" x2="16.9368" y2="36.3829" gradientUnits="userSpaceOnUse">
<stop stop-color="white"/>
<stop offset="1" stop-color="#EBEBEB"/>
</linearGradient>
<radialGradient id="paint1_radial_41743_62705" cx="0" cy="0" r="1" gradientUnits="userSpaceOnUse" gradientTransform="translate(14.2222 12.3333) rotate(56.3099) scale(30.4469 26.3483)">
<stop offset="0.177083" stop-color="white"/>
<stop offset="1" stop-color="#B8B8B8"/>
</radialGradient>
<linearGradient id="paint2_linear_41743_62705" x1="14.3333" y1="4" x2="18.6419" y2="36.3144" gradientUnits="userSpaceOnUse">
<stop stop-color="#BBBBBB"/>
<stop offset="1" stop-color="#888888"/>
</linearGradient>
<linearGradient id="paint3_linear_41743_62705" x1="13" y1="12" x2="28.8584" y2="25.8761" gradientUnits="userSpaceOnUse">
<stop stop-color="#7751B8"/>
<stop offset="1" stop-color="#5A409C"/>
</linearGradient>
<linearGradient id="paint4_linear_41743_62705" x1="25" y1="30" x2="31.8923" y2="42.0615" gradientUnits="userSpaceOnUse">
<stop stop-color="#7751B8"/>
<stop offset="1" stop-color="#5A409C"/>
</linearGradient>
<linearGradient id="paint5_linear_41743_62705" x1="25" y1="30" x2="31.8923" y2="42.0615" gradientUnits="userSpaceOnUse">
<stop stop-color="#7751B8"/>
<stop offset="1" stop-color="#5A409C"/>
</linearGradient>
<linearGradient id="paint6_linear_41743_62705" x1="25" y1="30" x2="31.8923" y2="42.0615" gradientUnits="userSpaceOnUse">
<stop stop-color="#7751B8"/>
<stop offset="1" stop-color="#5A409C"/>
</linearGradient>
</defs>
</svg>
