<svg width="32" height="32" viewBox="0 0 32 32" fill="none" xmlns="http://www.w3.org/2000/svg">
<path d="M3 6.5C3 4.567 4.567 3 6.5 3H25.5C27.433 3 29 4.567 29 6.5V25.5C29 27.433 27.433 29 25.5 29H6.5C4.567 29 3 27.433 3 25.5V6.5Z" fill="url(#paint0_linear_41743_62753)"/>
<path d="M3 6.5C3 4.567 4.567 3 6.5 3H25.5C27.433 3 29 4.567 29 6.5V25.5C29 27.433 27.433 29 25.5 29H6.5C4.567 29 3 27.433 3 25.5V6.5Z" fill="url(#paint1_radial_41743_62753)" fill-opacity="0.2"/>
<path fill-rule="evenodd" clip-rule="evenodd" d="M25.5 4H6.5C5.11929 4 4 5.11929 4 6.5V25.5C4 26.8807 5.11929 28 6.5 28H25.5C26.8807 28 28 26.8807 28 25.5V6.5C28 5.11929 26.8807 4 25.5 4ZM6.5 3C4.567 3 3 4.567 3 6.5V25.5C3 27.433 4.567 29 6.5 29H25.5C27.433 29 29 27.433 29 25.5V6.5C29 4.567 27.433 3 25.5 3H6.5Z" fill="url(#paint2_linear_41743_62753)"/>
<path d="M9.75 14.5C10.7165 14.5 11.5 13.7165 11.5 12.75C11.5 11.7835 10.7165 11 9.75 11C8.7835 11 8 11.7835 8 12.75C8 13.7165 8.7835 14.5 9.75 14.5Z" fill="url(#paint3_linear_41743_62753)"/>
<path d="M16 14.5C16.9665 14.5 17.75 13.7165 17.75 12.75C17.75 11.7835 16.9665 11 16 11C15.0335 11 14.25 11.7835 14.25 12.75C14.25 13.7165 15.0335 14.5 16 14.5Z" fill="url(#paint4_linear_41743_62753)"/>
<path d="M11.5 19.25C11.5 20.2165 10.7165 21 9.75 21C8.7835 21 8 20.2165 8 19.25C8 18.2835 8.7835 17.5 9.75 17.5C10.7165 17.5 11.5 18.2835 11.5 19.25Z" fill="url(#paint5_linear_41743_62753)"/>
<path d="M16 21C16.9665 21 17.75 20.2165 17.75 19.25C17.75 18.2835 16.9665 17.5 16 17.5C15.0335 17.5 14.25 18.2835 14.25 19.25C14.25 20.2165 15.0335 21 16 21Z" fill="url(#paint6_linear_41743_62753)"/>
<path d="M24 12.75C24 13.7165 23.2165 14.5 22.25 14.5C21.2835 14.5 20.5 13.7165 20.5 12.75C20.5 11.7835 21.2835 11 22.25 11C23.2165 11 24 11.7835 24 12.75Z" fill="url(#paint7_linear_41743_62753)"/>
<rect x="16" y="22" width="16" height="10" rx="5" fill="#F5F5F5"/>
<path d="M21 24C19.3431 24 18 25.3431 18 27C18 28.6569 19.3431 30 21 30H22.5C22.7761 30 23 30.2239 23 30.5C23 30.7761 22.7761 31 22.5 31H21C18.7909 31 17 29.2091 17 27C17 24.7909 18.7909 23 21 23H22.5C22.7761 23 23 23.2239 23 23.5C23 23.7761 22.7761 24 22.5 24H21Z" fill="url(#paint8_linear_41743_62753)"/>
<path d="M27 30C28.6569 30 30 28.6569 30 27C30 25.3431 28.6569 24 27 24L25.5 24C25.2239 24 25 23.7761 25 23.5C25 23.2239 25.2239 23 25.5 23H27C29.2091 23 31 24.7909 31 27C31 29.2091 29.2091 31 27 31L25.5 31C25.2239 31 25 30.7761 25 30.5C25 30.2239 25.2239 30 25.5 30H27Z" fill="url(#paint9_linear_41743_62753)"/>
<path d="M21.5 26.5C21.2239 26.5 21 26.7239 21 27C21 27.2761 21.2239 27.5 21.5 27.5L26.5 27.5C26.7761 27.5 27 27.2761 27 27C27 26.7239 26.7761 26.5 26.5 26.5L21.5 26.5Z" fill="url(#paint10_linear_41743_62753)"/>
<defs>
<linearGradient id="paint0_linear_41743_62753" x1="10.2222" y1="3" x2="13.5111" y2="29.3111" gradientUnits="userSpaceOnUse">
<stop stop-color="white"/>
<stop offset="1" stop-color="#EBEBEB"/>
</linearGradient>
<radialGradient id="paint1_radial_41743_62753" cx="0" cy="0" r="1" gradientUnits="userSpaceOnUse" gradientTransform="translate(11.3056 9.77083) rotate(56.3099) scale(24.7381 21.408)">
<stop offset="0.177083" stop-color="white"/>
<stop offset="1" stop-color="#B8B8B8"/>
</radialGradient>
<linearGradient id="paint2_linear_41743_62753" x1="11.3958" y1="3" x2="14.8966" y2="29.2555" gradientUnits="userSpaceOnUse">
<stop stop-color="#BBBBBB"/>
<stop offset="1" stop-color="#888888"/>
</linearGradient>
<linearGradient id="paint3_linear_41743_62753" x1="8" y1="11" x2="16.9888" y2="25.382" gradientUnits="userSpaceOnUse">
<stop stop-color="#7751B8"/>
<stop offset="1" stop-color="#5A409C"/>
</linearGradient>
<linearGradient id="paint4_linear_41743_62753" x1="8" y1="11" x2="16.9888" y2="25.382" gradientUnits="userSpaceOnUse">
<stop stop-color="#7751B8"/>
<stop offset="1" stop-color="#5A409C"/>
</linearGradient>
<linearGradient id="paint5_linear_41743_62753" x1="8" y1="11" x2="16.9888" y2="25.382" gradientUnits="userSpaceOnUse">
<stop stop-color="#7751B8"/>
<stop offset="1" stop-color="#5A409C"/>
</linearGradient>
<linearGradient id="paint6_linear_41743_62753" x1="8" y1="11" x2="16.9888" y2="25.382" gradientUnits="userSpaceOnUse">
<stop stop-color="#7751B8"/>
<stop offset="1" stop-color="#5A409C"/>
</linearGradient>
<linearGradient id="paint7_linear_41743_62753" x1="8" y1="11" x2="16.9888" y2="25.382" gradientUnits="userSpaceOnUse">
<stop stop-color="#7751B8"/>
<stop offset="1" stop-color="#5A409C"/>
</linearGradient>
<linearGradient id="paint8_linear_41743_62753" x1="17" y1="23" x2="23.8923" y2="35.0615" gradientUnits="userSpaceOnUse">
<stop stop-color="#7751B8"/>
<stop offset="1" stop-color="#5A409C"/>
</linearGradient>
<linearGradient id="paint9_linear_41743_62753" x1="17" y1="23" x2="23.8923" y2="35.0615" gradientUnits="userSpaceOnUse">
<stop stop-color="#7751B8"/>
<stop offset="1" stop-color="#5A409C"/>
</linearGradient>
<linearGradient id="paint10_linear_41743_62753" x1="17" y1="23" x2="23.8923" y2="35.0615" gradientUnits="userSpaceOnUse">
<stop stop-color="#7751B8"/>
<stop offset="1" stop-color="#5A409C"/>
</linearGradient>
</defs>
</svg>
