<svg width="32" height="32" viewBox="0 0 32 32" fill="none" xmlns="http://www.w3.org/2000/svg">
<path d="M3 6.5C3 4.567 4.567 3 6.5 3H25.5C27.433 3 29 4.567 29 6.5V25.5C29 27.433 27.433 29 25.5 29H6.5C4.567 29 3 27.433 3 25.5V6.5Z" fill="url(#paint0_linear_41743_62681)"/>
<path d="M3 6.5C3 4.567 4.567 3 6.5 3H25.5C27.433 3 29 4.567 29 6.5V25.5C29 27.433 27.433 29 25.5 29H6.5C4.567 29 3 27.433 3 25.5V6.5Z" fill="url(#paint1_radial_41743_62681)" fill-opacity="0.2"/>
<path fill-rule="evenodd" clip-rule="evenodd" d="M25.5 4H6.5C5.11929 4 4 5.11929 4 6.5V25.5C4 26.8807 5.11929 28 6.5 28H25.5C26.8807 28 28 26.8807 28 25.5V6.5C28 5.11929 26.8807 4 25.5 4ZM6.5 3C4.567 3 3 4.567 3 6.5V25.5C3 27.433 4.567 29 6.5 29H25.5C27.433 29 29 27.433 29 25.5V6.5C29 4.567 27.433 3 25.5 3H6.5Z" fill="url(#paint2_linear_41743_62681)"/>
<path d="M15 11.5C15 12.7095 14.1411 13.7184 13 13.95V16H17.5C18.3284 16 19 15.3284 19 14.5V13.95C17.8589 13.7184 17 12.7095 17 11.5C17 10.1193 18.1193 9 19.5 9C20.8807 9 22 10.1193 22 11.5C22 12.7095 21.1411 13.7184 20 13.95V14.5C20 15.8807 18.8807 17 17.5 17H13V18.05C14.1411 18.2816 15 19.2905 15 20.5C15 21.8807 13.8807 23 12.5 23C11.1193 23 10 21.8807 10 20.5C10 19.8231 10.2691 19.209 10.7061 18.7588V18.7031H10.7618C11.0977 18.3782 11.5243 18.1466 12 18.05V13.95C10.8589 13.7184 10 12.7095 10 11.5C10 10.8231 10.2691 10.209 10.7061 9.7588V9.73633H10.7281C11.1809 9.28151 11.8076 9 12.5 9C13.8807 9 15 10.1193 15 11.5Z" fill="url(#paint3_linear_41743_62681)"/>
<rect x="16" y="22" width="16" height="10" rx="5" fill="#F5F5F5"/>
<path d="M21 24C19.3431 24 18 25.3431 18 27C18 28.6569 19.3431 30 21 30H22.5C22.7761 30 23 30.2239 23 30.5C23 30.7761 22.7761 31 22.5 31H21C18.7909 31 17 29.2091 17 27C17 24.7909 18.7909 23 21 23H22.5C22.7761 23 23 23.2239 23 23.5C23 23.7761 22.7761 24 22.5 24H21Z" fill="url(#paint4_linear_41743_62681)"/>
<path d="M27 30C28.6569 30 30 28.6569 30 27C30 25.3431 28.6569 24 27 24L25.5 24C25.2239 24 25 23.7761 25 23.5C25 23.2239 25.2239 23 25.5 23H27C29.2091 23 31 24.7909 31 27C31 29.2091 29.2091 31 27 31L25.5 31C25.2239 31 25 30.7761 25 30.5C25 30.2239 25.2239 30 25.5 30H27Z" fill="url(#paint5_linear_41743_62681)"/>
<path d="M21.5 26.5C21.2239 26.5 21 26.7239 21 27C21 27.2761 21.2239 27.5 21.5 27.5L26.5 27.5C26.7761 27.5 27 27.2761 27 27C27 26.7239 26.7761 26.5 26.5 26.5L21.5 26.5Z" fill="url(#paint6_linear_41743_62681)"/>
<defs>
<linearGradient id="paint0_linear_41743_62681" x1="10.2222" y1="3" x2="13.5111" y2="29.3111" gradientUnits="userSpaceOnUse">
<stop stop-color="white"/>
<stop offset="1" stop-color="#EBEBEB"/>
</linearGradient>
<radialGradient id="paint1_radial_41743_62681" cx="0" cy="0" r="1" gradientUnits="userSpaceOnUse" gradientTransform="translate(11.3056 9.77083) rotate(56.3099) scale(24.7381 21.408)">
<stop offset="0.177083" stop-color="white"/>
<stop offset="1" stop-color="#B8B8B8"/>
</radialGradient>
<linearGradient id="paint2_linear_41743_62681" x1="11.3958" y1="3" x2="14.8966" y2="29.2555" gradientUnits="userSpaceOnUse">
<stop stop-color="#BBBBBB"/>
<stop offset="1" stop-color="#888888"/>
</linearGradient>
<linearGradient id="paint3_linear_41743_62681" x1="10" y1="9" x2="23.8353" y2="20.8588" gradientUnits="userSpaceOnUse">
<stop stop-color="#7751B8"/>
<stop offset="1" stop-color="#5A409C"/>
</linearGradient>
<linearGradient id="paint4_linear_41743_62681" x1="17" y1="23" x2="23.8923" y2="35.0615" gradientUnits="userSpaceOnUse">
<stop stop-color="#7751B8"/>
<stop offset="1" stop-color="#5A409C"/>
</linearGradient>
<linearGradient id="paint5_linear_41743_62681" x1="17" y1="23" x2="23.8923" y2="35.0615" gradientUnits="userSpaceOnUse">
<stop stop-color="#7751B8"/>
<stop offset="1" stop-color="#5A409C"/>
</linearGradient>
<linearGradient id="paint6_linear_41743_62681" x1="17" y1="23" x2="23.8923" y2="35.0615" gradientUnits="userSpaceOnUse">
<stop stop-color="#7751B8"/>
<stop offset="1" stop-color="#5A409C"/>
</linearGradient>
</defs>
</svg>
