<svg width="20" height="20" viewBox="0 0 20 20" fill="none" xmlns="http://www.w3.org/2000/svg">
<g clip-path="url(#clip0_41743_63432)">
<path d="M5 5.5C5 4.11929 6.11929 3 7.5 3H15.5C16.8807 3 18 4.11929 18 5.5V14C18 16.7614 15.7614 19 13 19H7.5C6.11929 19 5 17.8807 5 16.5V5.5Z" fill="url(#paint0_linear_41743_63432)"/>
<path d="M5 5.5C5 4.11929 6.11929 3 7.5 3H15.5C16.8807 3 18 4.11929 18 5.5V14C18 16.7614 15.7614 19 13 19H7.5C6.11929 19 5 17.8807 5 16.5V5.5Z" fill="url(#paint1_radial_41743_63432)" fill-opacity="0.2"/>
<path fill-rule="evenodd" clip-rule="evenodd" d="M15.5 4H7.5C6.67157 4 6 4.67157 6 5.5V16.5C6 17.3284 6.67157 18 7.5 18H13C15.2091 18 17 16.2091 17 14V5.5C17 4.67157 16.3284 4 15.5 4ZM7.5 3C6.11929 3 5 4.11929 5 5.5V16.5C5 17.8807 6.11929 19 7.5 19H13C15.7614 19 18 16.7614 18 14V5.5C18 4.11929 16.8807 3 15.5 3H7.5Z" fill="url(#paint2_linear_41743_63432)"/>
<path d="M2 3.5C2 2.11929 3.11929 1 4.5 1H13.5C14.8807 1 16 2.11929 16 3.5V14.5C16 15.8807 14.8807 17 13.5 17H4.5C3.11929 17 2 15.8807 2 14.5V3.5Z" fill="url(#paint3_linear_41743_63432)"/>
<path d="M2 3.5C2 2.11929 3.11929 1 4.5 1H13.5C14.8807 1 16 2.11929 16 3.5V14.5C16 15.8807 14.8807 17 13.5 17H4.5C3.11929 17 2 15.8807 2 14.5V3.5Z" fill="url(#paint4_radial_41743_63432)" fill-opacity="0.2"/>
<path fill-rule="evenodd" clip-rule="evenodd" d="M13.5 2H4.5C3.67157 2 3 2.67157 3 3.5V14.5C3 15.3284 3.67157 16 4.5 16H13.5C14.3284 16 15 15.3284 15 14.5V3.5C15 2.67157 14.3284 2 13.5 2ZM4.5 1C3.11929 1 2 2.11929 2 3.5V14.5C2 15.8807 3.11929 17 4.5 17H13.5C14.8807 17 16 15.8807 16 14.5V3.5C16 2.11929 14.8807 1 13.5 1H4.5Z" fill="url(#paint5_linear_41743_63432)"/>
<path d="M19.5605 11.44C19.2805 11.16 18.9005 11 18.5005 11H13.5005C13.3105 11 13.1205 11.04 12.9505 11.11L12.8105 11.18L12.6805 11.26C12.5305 11.36 12.4005 11.49 12.2405 11.72L12.2005 11.79L12.1205 11.93C12.0905 12 12.0705 12.06 12.0505 12.13L12.0205 12.25V12.31C11.9905 12.47 12.0005 12.63 12.0205 12.8C12.0805 13.09 12.2205 13.36 12.4305 13.56L12.5305 13.66C12.3805 13.73 12.2505 13.82 12.1305 13.94L11.4205 14.65C11.1405 14.93 10.9805 15.31 10.9805 15.71C10.9805 16.11 11.1405 16.49 11.4205 16.77C11.5405 16.89 11.6905 16.99 11.8405 17.06L11.4205 17.48C11.1405 17.76 10.9805 18.14 10.9805 18.54C10.9805 18.94 11.1405 19.32 11.4205 19.6C11.7005 19.88 12.0805 20.04 12.4805 20.04C12.8805 20.04 13.2605 19.88 13.5405 19.6L13.9605 19.18C14.0305 19.33 14.1305 19.48 14.2505 19.6C14.5305 19.88 14.9105 20.04 15.3105 20.04C15.7105 20.04 16.0905 19.88 16.3705 19.6L17.0805 18.89C17.2005 18.77 17.2805 18.63 17.3505 18.48L17.4305 18.56C17.6405 18.77 17.9105 18.92 18.1905 18.97L18.3905 19H18.4905C18.6905 19 18.8805 18.96 19.0805 18.88C19.1905 18.83 19.2805 18.78 19.3305 18.74L19.4605 18.64L19.5205 18.58L19.6705 18.41L19.7205 18.33C19.8905 18.08 19.9805 17.79 19.9805 17.49V12.5C19.9805 12.1 19.8205 11.72 19.5405 11.44H19.5605Z" fill="#F5F5F5"/>
<path d="M13.5044 12H18.5044C18.637 12 18.7642 12.0527 18.8579 12.1465C18.9517 12.2402 19.0044 12.3674 19.0044 12.5V17.5C19.0044 17.5988 18.9751 17.6954 18.9202 17.7776L18.9041 17.8004C18.8923 17.8159 18.8796 17.8308 18.8662 17.8448C18.8582 17.8532 18.8499 17.8613 18.8413 17.8692C18.8254 17.8837 18.8086 17.8971 18.791 17.9095C18.7615 17.9302 18.7297 17.9477 18.696 17.9617C18.6047 17.9996 18.5044 18.0096 18.4072 17.9904C18.3103 17.9712 18.2214 17.9238 18.1514 17.854L13.1514 12.854C13.0813 12.7841 13.0334 12.695 13.0142 12.598C13.0034 12.5437 13.0017 12.4883 13.009 12.434C13.0117 12.4144 13.0154 12.395 13.0203 12.3758C13.0261 12.3531 13.0334 12.3308 13.0425 12.309C13.0476 12.2966 13.0532 12.2844 13.0593 12.2725C13.064 12.2632 13.0691 12.2541 13.0742 12.2451L13.0837 12.23L13.0984 12.2083C13.1331 12.1599 13.1765 12.1179 13.2266 12.0844C13.2368 12.0775 13.2473 12.071 13.2581 12.0649C13.2678 12.0594 13.2776 12.0543 13.2876 12.0494C13.2979 12.0445 13.3081 12.04 13.3186 12.0358C13.3772 12.0123 13.4404 12 13.5044 12Z" fill="url(#paint6_linear_41743_63432)"/>
<path d="M13.5608 14.6534C13.7559 14.8486 13.7559 15.1652 13.5608 15.3605L12.8535 16.0676C12.6582 16.2628 12.3418 16.2628 12.1465 16.0676C11.9512 15.8723 11.9512 15.5557 12.1465 15.3605L12.8535 14.6534C13.0488 14.4581 13.3655 14.4581 13.5608 14.6534Z" fill="url(#paint7_linear_41743_63432)"/>
<path d="M16.3892 17.4818C16.5845 17.6771 16.5845 17.9937 16.3892 18.1889L15.6819 18.896C15.4868 19.0913 15.1702 19.0913 14.9749 18.896C14.7795 18.7007 14.7795 18.3842 14.9749 18.1889L15.6819 17.4818C15.8772 17.2865 16.1938 17.2865 16.3892 17.4818Z" fill="url(#paint8_linear_41743_63432)"/>
<path d="M14.9749 16.0676C15.1702 16.2628 15.1702 16.5794 14.9749 16.7747L12.8535 18.896C12.6582 19.0913 12.3418 19.0913 12.1465 18.896C11.9512 18.7007 11.9512 18.3842 12.1465 18.1889L14.2678 16.0676C14.4631 15.8723 14.7795 15.8723 14.9749 16.0676Z" fill="url(#paint9_linear_41743_63432)"/>
</g>
<defs>
<linearGradient id="paint0_linear_41743_63432" x1="8.61111" y1="3" x2="11.0825" y2="19.0642" gradientUnits="userSpaceOnUse">
<stop stop-color="white"/>
<stop offset="1" stop-color="#EBEBEB"/>
</linearGradient>
<radialGradient id="paint1_radial_41743_63432" cx="0" cy="0" r="1" gradientUnits="userSpaceOnUse" gradientTransform="translate(9.15278 7.16667) rotate(61.5571) scale(14.4055 11.3117)">
<stop offset="0.177083" stop-color="white"/>
<stop offset="1" stop-color="#B8B8B8"/>
</radialGradient>
<linearGradient id="paint2_linear_41743_63432" x1="9.19792" y1="3" x2="11.8257" y2="19.0132" gradientUnits="userSpaceOnUse">
<stop stop-color="#BBBBBB"/>
<stop offset="1" stop-color="#888888"/>
</linearGradient>
<linearGradient id="paint3_linear_41743_63432" x1="5.88889" y1="1" x2="8.19111" y2="17.1156" gradientUnits="userSpaceOnUse">
<stop stop-color="white"/>
<stop offset="1" stop-color="#EBEBEB"/>
</linearGradient>
<radialGradient id="paint4_radial_41743_63432" cx="0" cy="0" r="1" gradientUnits="userSpaceOnUse" gradientTransform="translate(6.47222 5.16667) rotate(59.7436) scale(14.6642 11.9669)">
<stop offset="0.177083" stop-color="white"/>
<stop offset="1" stop-color="#B8B8B8"/>
</radialGradient>
<linearGradient id="paint5_linear_41743_63432" x1="6.52083" y1="1" x2="8.96979" y2="17.0713" gradientUnits="userSpaceOnUse">
<stop stop-color="#BBBBBB"/>
<stop offset="1" stop-color="#888888"/>
</linearGradient>
<linearGradient id="paint6_linear_41743_63432" x1="12" y1="12" x2="19.0424" y2="19.0043" gradientUnits="userSpaceOnUse">
<stop stop-color="#4BA446"/>
<stop offset="1" stop-color="#3F7D35"/>
</linearGradient>
<linearGradient id="paint7_linear_41743_63432" x1="12" y1="12" x2="19.0424" y2="19.0043" gradientUnits="userSpaceOnUse">
<stop stop-color="#4BA446"/>
<stop offset="1" stop-color="#3F7D35"/>
</linearGradient>
<linearGradient id="paint8_linear_41743_63432" x1="12" y1="12" x2="19.0424" y2="19.0043" gradientUnits="userSpaceOnUse">
<stop stop-color="#4BA446"/>
<stop offset="1" stop-color="#3F7D35"/>
</linearGradient>
<linearGradient id="paint9_linear_41743_63432" x1="12" y1="12" x2="19.0424" y2="19.0043" gradientUnits="userSpaceOnUse">
<stop stop-color="#4BA446"/>
<stop offset="1" stop-color="#3F7D35"/>
</linearGradient>
<clipPath id="clip0_41743_63432">
<rect width="20" height="20" fill="white"/>
</clipPath>
</defs>
</svg>
