<svg width="48" height="48" viewBox="0 0 48 48" fill="none" xmlns="http://www.w3.org/2000/svg">
<path d="M5 10C5 7.23858 7.23858 5 10 5H38C40.7614 5 43 7.23858 43 10V38C43 40.7614 40.7614 43 38 43H10C7.23858 43 5 40.7614 5 38V10Z" fill="url(#paint0_linear_41743_62783)"/>
<path d="M5 10C5 7.23858 7.23858 5 10 5H38C40.7614 5 43 7.23858 43 10V38C43 40.7614 40.7614 43 38 43H10C7.23858 43 5 40.7614 5 38V10Z" fill="url(#paint1_radial_41743_62783)" fill-opacity="0.2"/>
<path fill-rule="evenodd" clip-rule="evenodd" d="M38 6H10C7.79086 6 6 7.79086 6 10V38C6 40.2091 7.79086 42 10 42H38C40.2091 42 42 40.2091 42 38V10C42 7.79086 40.2091 6 38 6ZM10 5C7.23858 5 5 7.23858 5 10V38C5 40.7614 7.23858 43 10 43H38C40.7614 43 43 40.7614 43 38V10C43 7.23858 40.7614 5 38 5H10Z" fill="url(#paint2_linear_41743_62783)"/>
<path d="M32.3671 15.1553C32.7454 15.5315 32.9958 15.9791 32.9999 16.4873C33 16.4915 33 16.4958 33 16.5" fill="url(#paint3_linear_41743_62783)"/>
<path d="M32.9999 16.5127C32.9952 17.1033 32.6578 17.612 32.1737 18.022C31.685 18.4358 31.004 18.7885 30.2013 19.076C28.5925 19.6523 26.3999 20 24 20C21.6001 20 19.4075 19.6523 17.7987 19.076C16.996 18.7885 16.315 18.4358 15.8263 18.022C15.3387 17.609 15 17.096 15 16.5C15 16.4837 15.0003 16.4675 15.0008 16.4513C15.0013 16.4338 15.0021 16.4164 15.0033 16.399C15.0035 16.3958 15.0037 16.3925 15.0039 16.3892C15.0429 15.8403 15.3692 15.3652 15.8263 14.978C16.315 14.5642 16.996 14.2115 17.7987 13.924C19.4075 13.3477 21.6001 13 24 13C26.3999 13 28.5925 13.3477 30.2013 13.924C31.004 14.2115 31.685 14.5642 32.1737 14.978C32.2412 15.0352 32.3058 15.0943 32.3671 15.1553" fill="url(#paint4_linear_41743_62783)"/>
<path d="M32.8199 18.7851C32.8804 18.7338 32.9406 18.6801 33 18.6238L33 31.1044H32.9985C32.974 31.7266 32.6563 32.2773 32.1854 32.735C31.6966 33.21 31.015 33.6147 30.2124 33.9441C28.6049 34.6037 26.4159 35 24.0156 35C21.6153 35 19.419 34.6037 17.8041 33.9444C16.9979 33.6153 16.3124 33.2108 15.8208 32.7362C15.351 32.2828 15.0316 31.7371 15.0022 31.1199H15V18.6237C15.0593 18.68 15.1195 18.7338 15.1801 18.7851C15.7936 19.3046 16.5961 19.7075 17.4615 20.0175C19.2043 20.6417 21.5162 21 24 21C26.4838 21 28.7957 20.6417 30.5385 20.0175C31.4039 19.7075 32.2064 19.3046 32.8199 18.7851Z" fill="url(#paint5_linear_41743_62783)"/>
<path fill-rule="evenodd" clip-rule="evenodd" d="M33.156 43.6644C32.5702 44.2502 32.5702 45.1999 33.156 45.7857C33.7418 46.3715 34.6915 46.3715 35.2773 45.7857L35.9007 45.1622C35.9204 45.5179 36.0661 45.8679 36.3378 46.1395C36.9236 46.7253 37.8733 46.7253 38.4591 46.1395L40.5804 44.0182C40.8066 43.792 40.9455 43.5115 40.997 43.2187L42.4531 44.6384C43.4034 45.5649 45.0003 44.8916 45.0003 43.5644L45.0003 35.5C45.0003 34.6716 44.3287 34 43.5002 34L35.2292 34.0002C33.8837 34.0002 33.2187 35.6348 34.1821 36.5742L35.6123 37.9686C35.3601 38.033 35.1213 38.1639 34.9239 38.3613L32.8026 40.4826C32.2168 41.0684 32.2168 42.0181 32.8026 42.6039C33.0742 42.8755 33.424 43.0211 33.7794 43.0409L33.156 43.6644Z" fill="#F5F5F5"/>
<path d="M44.0003 35.5C44.0003 35.2239 43.7764 35 43.5002 35L35.2292 35.0001C34.7807 35.0002 34.559 35.545 34.8802 35.8581L43.1512 43.9224C43.468 44.2312 44.0003 44.0068 44.0003 43.5644V35.5Z" fill="url(#paint6_linear_41743_62783)"/>
<path d="M38.1057 41.543C38.301 41.3478 38.301 41.0312 38.1057 40.8359C37.9105 40.6407 37.5939 40.6407 37.3986 40.8359L33.8631 44.3715C33.6678 44.5667 33.6678 44.8833 33.8631 45.0786C34.0584 45.2738 34.3749 45.2738 34.5702 45.0786L38.1057 41.543Z" fill="url(#paint7_linear_41743_62783)"/>
<path d="M33.5097 41.1897L35.631 39.0684C35.8263 38.8731 36.1429 38.8731 36.3382 39.0684C36.5334 39.2636 36.5334 39.5802 36.3382 39.7755L34.2168 41.8968C34.0216 42.092 33.705 42.092 33.5097 41.8968C33.3145 41.7015 33.3145 41.3849 33.5097 41.1897Z" fill="url(#paint8_linear_41743_62783)"/>
<path d="M39.1662 42.604L37.0449 44.7253C36.8496 44.9206 36.8496 45.2372 37.0449 45.4324C37.2401 45.6277 37.5567 45.6277 37.752 45.4324L39.8733 43.3111C40.0686 43.1158 40.0686 42.7993 39.8733 42.604C39.678 42.4087 39.3615 42.4087 39.1662 42.604Z" fill="url(#paint9_linear_41743_62783)"/>
<defs>
<linearGradient id="paint0_linear_41743_62783" x1="15.5556" y1="5" x2="20.3624" y2="43.4547" gradientUnits="userSpaceOnUse">
<stop stop-color="white"/>
<stop offset="1" stop-color="#EBEBEB"/>
</linearGradient>
<radialGradient id="paint1_radial_41743_62783" cx="0" cy="0" r="1" gradientUnits="userSpaceOnUse" gradientTransform="translate(17.1389 14.8958) rotate(56.3099) scale(36.1557 31.2886)">
<stop offset="0.177083" stop-color="white"/>
<stop offset="1" stop-color="#B8B8B8"/>
</radialGradient>
<linearGradient id="paint2_linear_41743_62783" x1="17.2708" y1="5" x2="22.3873" y2="43.3734" gradientUnits="userSpaceOnUse">
<stop stop-color="#BBBBBB"/>
<stop offset="1" stop-color="#888888"/>
</linearGradient>
<linearGradient id="paint3_linear_41743_62783" x1="15" y1="13" x2="36.5643" y2="30.6436" gradientUnits="userSpaceOnUse">
<stop stop-color="#008EE6"/>
<stop offset="1" stop-color="#006094"/>
</linearGradient>
<linearGradient id="paint4_linear_41743_62783" x1="15" y1="13" x2="36.5643" y2="30.6436" gradientUnits="userSpaceOnUse">
<stop stop-color="#008EE6"/>
<stop offset="1" stop-color="#006094"/>
</linearGradient>
<linearGradient id="paint5_linear_41743_62783" x1="15" y1="13" x2="36.5643" y2="30.6436" gradientUnits="userSpaceOnUse">
<stop stop-color="#008EE6"/>
<stop offset="1" stop-color="#006094"/>
</linearGradient>
<linearGradient id="paint6_linear_41743_62783" x1="33.3633" y1="35" x2="43.942" y2="45.6368" gradientUnits="userSpaceOnUse">
<stop stop-color="#008EE6"/>
<stop offset="1" stop-color="#006094"/>
</linearGradient>
<linearGradient id="paint7_linear_41743_62783" x1="33.3633" y1="35" x2="43.942" y2="45.6368" gradientUnits="userSpaceOnUse">
<stop stop-color="#008EE6"/>
<stop offset="1" stop-color="#006094"/>
</linearGradient>
<linearGradient id="paint8_linear_41743_62783" x1="33.3633" y1="35" x2="43.942" y2="45.6368" gradientUnits="userSpaceOnUse">
<stop stop-color="#008EE6"/>
<stop offset="1" stop-color="#006094"/>
</linearGradient>
<linearGradient id="paint9_linear_41743_62783" x1="33.3633" y1="35" x2="43.942" y2="45.6368" gradientUnits="userSpaceOnUse">
<stop stop-color="#008EE6"/>
<stop offset="1" stop-color="#006094"/>
</linearGradient>
</defs>
</svg>
