<svg width="32" height="33" viewBox="0 0 32 33" fill="none" xmlns="http://www.w3.org/2000/svg">
<path d="M5 5.5C5 3.567 6.567 2 8.5 2H23.5C25.433 2 27 3.567 27 5.5V26.5C27 28.433 25.433 30 23.5 30H8.5C6.567 30 5 28.433 5 26.5V5.5Z" fill="url(#paint0_linear_41743_63370)"/>
<path d="M5 5.5C5 3.567 6.567 2 8.5 2H23.5C25.433 2 27 3.567 27 5.5V26.5C27 28.433 25.433 30 23.5 30H8.5C6.567 30 5 28.433 5 26.5V5.5Z" fill="url(#paint1_radial_41743_63370)" fill-opacity="0.2"/>
<path fill-rule="evenodd" clip-rule="evenodd" d="M23.5 3H8.5C7.11929 3 6 4.11929 6 5.5V26.5C6 27.8807 7.11929 29 8.5 29H23.5C24.8807 29 26 27.8807 26 26.5V5.5C26 4.11929 24.8807 3 23.5 3ZM8.5 2C6.567 2 5 3.567 5 5.5V26.5C5 28.433 6.567 30 8.5 30H23.5C25.433 30 27 28.433 27 26.5V5.5C27 3.567 25.433 2 23.5 2H8.5Z" fill="url(#paint2_linear_41743_63370)"/>
<path d="M13.5 12C13.2239 12 13 12.2239 13 12.5C13 12.7761 13.2239 13 13.5 13H18.5C18.7761 13 19 12.7761 19 12.5C19 12.2239 18.7761 12 18.5 12H13.5Z" fill="url(#paint3_linear_41743_63370)"/>
<path d="M13 14.5C13 14.2239 13.2239 14 13.5 14H18.5C18.7761 14 19 14.2239 19 14.5C19 14.7761 18.7761 15 18.5 15H13.5C13.2239 15 13 14.7761 13 14.5Z" fill="url(#paint4_linear_41743_63370)"/>
<path d="M13.5 16C13.2239 16 13 16.2239 13 16.5C13 16.7761 13.2239 17 13.5 17H18.5C18.7761 17 19 16.7761 19 16.5C19 16.2239 18.7761 16 18.5 16H13.5Z" fill="url(#paint5_linear_41743_63370)"/>
<path fill-rule="evenodd" clip-rule="evenodd" d="M13.5 9C12.1193 9 11 10.1193 11 11.5V18H9.5C9.22386 18 9 18.2239 9 18.5V20.5C9 21.8807 10.1193 23 11.5 23H19C20.1046 23 21 22.1046 21 21V16H22.5C22.7761 16 23 15.7761 23 15.5V11C23 9.89543 22.1046 9 21 9H13.5ZM20 21C20 21.5523 19.5523 22 19 22C18.4477 22 18 21.5523 18 21V18.5C18 18.2239 17.7761 18 17.5 18H12V11.5C12 10.6716 12.6716 10 13.5 10H20V21Z" fill="url(#paint6_linear_41743_63370)"/>
<path d="M30.5605 23.44C30.2805 23.16 29.9005 23 29.5005 23H24.5005C24.3105 23 24.1205 23.04 23.9505 23.11L23.8105 23.18L23.6805 23.26C23.5305 23.36 23.4005 23.49 23.2405 23.72L23.2005 23.79L23.1205 23.93C23.0905 24 23.0705 24.06 23.0505 24.13L23.0205 24.25V24.31C22.9905 24.47 23.0005 24.63 23.0205 24.8C23.0805 25.09 23.2205 25.36 23.4305 25.56L23.5305 25.66C23.3805 25.73 23.2505 25.82 23.1305 25.94L22.4205 26.65C22.1405 26.93 21.9805 27.31 21.9805 27.71C21.9805 28.11 22.1405 28.49 22.4205 28.77C22.5405 28.89 22.6905 28.99 22.8405 29.06L22.4205 29.48C22.1405 29.76 21.9805 30.14 21.9805 30.54C21.9805 30.94 22.1405 31.32 22.4205 31.6C22.7005 31.88 23.0805 32.04 23.4805 32.04C23.8805 32.04 24.2605 31.88 24.5405 31.6L24.9605 31.18C25.0305 31.33 25.1305 31.48 25.2505 31.6C25.5305 31.88 25.9105 32.04 26.3105 32.04C26.7105 32.04 27.0905 31.88 27.3705 31.6L28.0805 30.89C28.2005 30.77 28.2805 30.63 28.3505 30.48L28.4305 30.56C28.6405 30.77 28.9105 30.92 29.1905 30.97L29.3905 31H29.4905C29.6905 31 29.8805 30.96 30.0805 30.88C30.1905 30.83 30.2805 30.78 30.3305 30.74L30.4605 30.64L30.5205 30.58L30.6705 30.41L30.7205 30.33C30.8905 30.08 30.9805 29.79 30.9805 29.49V24.5C30.9805 24.1 30.8205 23.72 30.5405 23.44H30.5605Z" fill="#F5F5F5"/>
<path d="M24.5044 24H29.5044C29.637 24 29.7642 24.0527 29.8579 24.1465C29.9517 24.2402 30.0044 24.3674 30.0044 24.5V29.5C30.0044 29.5988 29.9751 29.6954 29.9202 29.7776L29.9041 29.8004C29.8923 29.8159 29.8796 29.8308 29.8662 29.8448C29.8582 29.8532 29.8499 29.8613 29.8413 29.8692C29.8254 29.8837 29.8086 29.8971 29.791 29.9095C29.7615 29.9302 29.7297 29.9477 29.696 29.9617C29.6047 29.9996 29.5044 30.0096 29.4072 29.9904C29.3103 29.9712 29.2214 29.9238 29.1514 29.854L24.1514 24.854C24.0813 24.7841 24.0334 24.695 24.0142 24.598C24.0034 24.5437 24.0017 24.4883 24.009 24.434C24.0117 24.4144 24.0154 24.395 24.0203 24.3758C24.0261 24.3531 24.0334 24.3308 24.0425 24.309C24.0476 24.2966 24.0532 24.2844 24.0593 24.2725C24.064 24.2632 24.0691 24.2541 24.0742 24.2451L24.0837 24.23L24.0984 24.2083C24.1331 24.1599 24.1765 24.1179 24.2266 24.0844C24.2368 24.0775 24.2473 24.071 24.2581 24.0649C24.2678 24.0594 24.2776 24.0543 24.2876 24.0494C24.2979 24.0445 24.3081 24.04 24.3186 24.0358C24.3772 24.0123 24.4404 24 24.5044 24Z" fill="url(#paint7_linear_41743_63370)"/>
<path d="M24.5608 26.6534C24.7559 26.8486 24.7559 27.1652 24.5608 27.3605L23.8535 28.0676C23.6582 28.2628 23.3418 28.2628 23.1465 28.0676C22.9512 27.8723 22.9512 27.5557 23.1465 27.3605L23.8535 26.6534C24.0488 26.4581 24.3655 26.4581 24.5608 26.6534Z" fill="url(#paint8_linear_41743_63370)"/>
<path d="M27.3892 29.4818C27.5845 29.6771 27.5845 29.9937 27.3892 30.1889L26.6819 30.896C26.4868 31.0913 26.1702 31.0913 25.9749 30.896C25.7795 30.7007 25.7795 30.3842 25.9749 30.1889L26.6819 29.4818C26.8772 29.2865 27.1938 29.2865 27.3892 29.4818Z" fill="url(#paint9_linear_41743_63370)"/>
<path d="M25.9749 28.0676C26.1702 28.2628 26.1702 28.5794 25.9749 28.7747L23.8535 30.896C23.6582 31.0913 23.3418 31.0913 23.1465 30.896C22.9512 30.7007 22.9512 30.3842 23.1465 30.1889L25.2678 28.0676C25.4631 27.8723 25.7795 27.8723 25.9749 28.0676Z" fill="url(#paint10_linear_41743_63370)"/>
<defs>
<linearGradient id="paint0_linear_41743_63370" x1="11.1111" y1="2" x2="15.5764" y2="30.0674" gradientUnits="userSpaceOnUse">
<stop stop-color="white"/>
<stop offset="1" stop-color="#EBEBEB"/>
</linearGradient>
<radialGradient id="paint1_radial_41743_63370" cx="0" cy="0" r="1" gradientUnits="userSpaceOnUse" gradientTransform="translate(12.0278 9.29167) rotate(62.354) scale(25.0236 19.2853)">
<stop offset="0.177083" stop-color="white"/>
<stop offset="1" stop-color="#B8B8B8"/>
</radialGradient>
<linearGradient id="paint2_linear_41743_63370" x1="12.1042" y1="2" x2="16.851" y2="29.9723" gradientUnits="userSpaceOnUse">
<stop stop-color="#BBBBBB"/>
<stop offset="1" stop-color="#888888"/>
</linearGradient>
<linearGradient id="paint3_linear_41743_63370" x1="9" y1="9" x2="23" y2="23" gradientUnits="userSpaceOnUse">
<stop stop-color="#4BA446"/>
<stop offset="1" stop-color="#3F7D35"/>
</linearGradient>
<linearGradient id="paint4_linear_41743_63370" x1="9" y1="9" x2="23" y2="23" gradientUnits="userSpaceOnUse">
<stop stop-color="#4BA446"/>
<stop offset="1" stop-color="#3F7D35"/>
</linearGradient>
<linearGradient id="paint5_linear_41743_63370" x1="9" y1="9" x2="23" y2="23" gradientUnits="userSpaceOnUse">
<stop stop-color="#4BA446"/>
<stop offset="1" stop-color="#3F7D35"/>
</linearGradient>
<linearGradient id="paint6_linear_41743_63370" x1="9" y1="9" x2="23" y2="23" gradientUnits="userSpaceOnUse">
<stop stop-color="#4BA446"/>
<stop offset="1" stop-color="#3F7D35"/>
</linearGradient>
<linearGradient id="paint7_linear_41743_63370" x1="23" y1="24" x2="30.0424" y2="31.0043" gradientUnits="userSpaceOnUse">
<stop stop-color="#4BA446"/>
<stop offset="1" stop-color="#3F7D35"/>
</linearGradient>
<linearGradient id="paint8_linear_41743_63370" x1="23" y1="24" x2="30.0424" y2="31.0043" gradientUnits="userSpaceOnUse">
<stop stop-color="#4BA446"/>
<stop offset="1" stop-color="#3F7D35"/>
</linearGradient>
<linearGradient id="paint9_linear_41743_63370" x1="23" y1="24" x2="30.0424" y2="31.0043" gradientUnits="userSpaceOnUse">
<stop stop-color="#4BA446"/>
<stop offset="1" stop-color="#3F7D35"/>
</linearGradient>
<linearGradient id="paint10_linear_41743_63370" x1="23" y1="24" x2="30.0424" y2="31.0043" gradientUnits="userSpaceOnUse">
<stop stop-color="#4BA446"/>
<stop offset="1" stop-color="#3F7D35"/>
</linearGradient>
</defs>
</svg>
