<svg width="48" height="48" viewBox="0 0 48 48" fill="none" xmlns="http://www.w3.org/2000/svg">
<path d="M8 8C8 5.23858 10.2386 3 13 3H35C37.7614 3 40 5.23858 40 8V40C40 42.7614 37.7614 45 35 45H13C10.2386 45 8 42.7614 8 40V8Z" fill="url(#paint0_linear_41743_63354)"/>
<path d="M8 8C8 5.23858 10.2386 3 13 3H35C37.7614 3 40 5.23858 40 8V40C40 42.7614 37.7614 45 35 45H13C10.2386 45 8 42.7614 8 40V8Z" fill="url(#paint1_radial_41743_63354)" fill-opacity="0.2"/>
<path fill-rule="evenodd" clip-rule="evenodd" d="M35 4H13C10.7909 4 9 5.79086 9 8V40C9 42.2091 10.7909 44 13 44H35C37.2091 44 39 42.2091 39 40V8C39 5.79086 37.2091 4 35 4ZM13 3C10.2386 3 8 5.23858 8 8V40C8 42.7614 10.2386 45 13 45H35C37.7614 45 40 42.7614 40 40V8C40 5.23858 37.7614 3 35 3H13Z" fill="url(#paint2_linear_41743_63354)"/>
<path d="M24.8374 34H16C14.8954 34 14 33.1046 14 32V22.8908C14 22.3238 14.2407 21.7834 14.6621 21.4041L22.6628 14.2041C23.4234 13.5196 24.5781 13.5196 25.3387 14.2042L33.338 21.4041C33.7594 21.7834 34 22.3237 34 22.8907V28.0038C33.843 27.9493 33.6746 27.9202 33.5001 27.9202C32.8801 27.9202 32.3401 28.2802 32.1101 28.8502C32.1001 28.8902 32.0501 28.9402 32.0001 28.9802C31.9501 28.9402 31.9101 28.8902 31.8901 28.8502C31.6701 28.3002 31.1201 27.9402 30.5001 27.9402C29.8801 27.9402 29.3301 28.2902 29.1101 28.8402C29.1001 28.8802 29.0501 28.9302 29.0001 28.9702C28.9501 28.9302 28.9101 28.8802 28.8901 28.8402C28.6601 28.2802 28.1301 27.9102 27.4901 27.9102C26.8701 27.9202 26.3301 28.2902 26.1101 28.8702C26.0701 28.9602 26.0501 29.0002 26.0501 29.0002C26.0301 29.0102 26.0001 29.0202 25.9201 29.0402C25.1201 29.2202 24.6101 30.0302 24.7901 30.8302C24.9257 31.4539 25.4291 31.9061 26.0564 31.9871L26.0501 32.0002C26.0301 32.0102 26.0001 32.0202 25.9201 32.0402C25.1201 32.2202 24.6101 33.0302 24.7901 33.8302C24.8027 33.8883 24.8186 33.945 24.8374 34Z" fill="url(#paint3_linear_41743_63354)"/>
<path d="M34.7501 30.9999L34.7407 30.9998C34.9665 30.995 35.1709 30.8364 35.2201 30.6099C35.2801 30.3399 35.1101 30.0699 34.8401 30.0099C34.3701 29.8999 34.1301 29.6999 33.9501 29.2299C33.8801 29.0399 33.7001 28.9099 33.4901 28.9099C33.2901 28.9099 33.1101 29.0299 33.0301 29.2199C32.8801 29.5999 32.4301 29.9999 31.9901 29.9999C31.5501 29.9999 31.1101 29.5899 30.9601 29.2199C30.8001 28.8399 30.1801 28.8399 30.0301 29.2199C29.8801 29.5999 29.4301 29.9999 28.9901 29.9999C28.5501 29.9999 28.1101 29.5899 27.9601 29.2199C27.8801 29.0299 27.7001 28.8899 27.4901 28.9099C27.2901 28.9099 27.1001 29.0399 27.0301 29.2299C26.8501 29.6999 26.6201 29.8999 26.1401 30.0099C25.8701 30.0699 25.7001 30.3399 25.7601 30.6099C25.8201 30.8799 26.0901 31.0399 26.3601 30.9899C26.8601 30.8799 27.2401 30.6699 27.5301 30.3399C27.9001 30.7199 28.3901 30.9999 28.9901 30.9999C29.5901 30.9999 30.1201 30.7099 30.5001 30.3099C30.8701 30.6999 31.4101 30.9999 31.9901 30.9999C32.5701 30.9999 33.0901 30.7199 33.4701 30.3399C33.7601 30.6699 34.1401 30.8799 34.6401 30.9899C34.6711 30.9977 34.7202 30.9994 34.7407 30.9998L34.7301 30.9999H34.7501Z" fill="url(#paint4_linear_41743_63354)"/>
<path fill-rule="evenodd" clip-rule="evenodd" d="M34.6401 33.9899C34.6711 33.9977 34.7202 33.9994 34.7407 33.9998C34.9665 33.995 35.1709 33.8364 35.2201 33.6099C35.2801 33.3399 35.1101 33.0699 34.8401 33.0099C34.3701 32.8999 34.1301 32.6999 33.9501 32.2299C33.8801 32.0399 33.7001 31.9099 33.4901 31.9099C33.2901 31.9099 33.1101 32.0299 33.0301 32.2199C32.8801 32.5999 32.4301 32.9999 31.9901 32.9999C31.5501 32.9999 31.1101 32.5899 30.9601 32.2199C30.8001 31.8399 30.1801 31.8399 30.0301 32.2199C29.8801 32.5999 29.4301 32.9999 28.9901 32.9999C28.5501 32.9999 28.1101 32.5899 27.9601 32.2199C27.8801 32.0299 27.7001 31.8899 27.4901 31.9099C27.2901 31.9099 27.1001 32.0399 27.0301 32.2299C26.8501 32.6999 26.6201 32.8999 26.1401 33.0099C25.8701 33.0699 25.7001 33.3399 25.7601 33.6099C25.8201 33.8799 26.0901 34.0399 26.3601 33.9899C26.8601 33.8799 27.2401 33.6699 27.5301 33.3399C27.9001 33.7199 28.3901 33.9999 28.9901 33.9999C29.5901 33.9999 30.1201 33.7099 30.5001 33.3099C30.8701 33.6999 31.4101 33.9999 31.9901 33.9999C32.5701 33.9999 33.0901 33.7199 33.4701 33.3399C33.7601 33.6699 34.1401 33.8799 34.6401 33.9899ZM34.7407 33.9998C34.7466 33.9999 34.7501 33.9999 34.7501 33.9999H34.7301C34.7336 33.9999 34.7371 33.9999 34.7407 33.9998Z" fill="url(#paint5_linear_41743_63354)"/>
<defs>
<linearGradient id="paint0_linear_41743_63354" x1="16.8889" y1="3" x2="23.7853" y2="45.0352" gradientUnits="userSpaceOnUse">
<stop stop-color="white"/>
<stop offset="1" stop-color="#EBEBEB"/>
</linearGradient>
<radialGradient id="paint1_radial_41743_63354" cx="0" cy="0" r="1" gradientUnits="userSpaceOnUse" gradientTransform="translate(18.2222 13.9375) rotate(63.0723) scale(37.2934 28.2333)">
<stop offset="0.177083" stop-color="white"/>
<stop offset="1" stop-color="#B8B8B8"/>
</radialGradient>
<linearGradient id="paint2_linear_41743_63354" x1="18.3333" y1="3" x2="25.663" y2="44.884" gradientUnits="userSpaceOnUse">
<stop stop-color="#BBBBBB"/>
<stop offset="1" stop-color="#888888"/>
</linearGradient>
<linearGradient id="paint3_linear_41743_63354" x1="14" y1="13.6907" x2="34.2892" y2="34.9019" gradientUnits="userSpaceOnUse">
<stop stop-color="#3477EA"/>
<stop offset="1" stop-color="#1D53A4"/>
</linearGradient>
<linearGradient id="paint4_linear_41743_63354" x1="14" y1="13.6907" x2="34.2892" y2="34.9019" gradientUnits="userSpaceOnUse">
<stop stop-color="#3477EA"/>
<stop offset="1" stop-color="#1D53A4"/>
</linearGradient>
<linearGradient id="paint5_linear_41743_63354" x1="14" y1="13.6907" x2="34.2892" y2="34.9019" gradientUnits="userSpaceOnUse">
<stop stop-color="#3477EA"/>
<stop offset="1" stop-color="#1D53A4"/>
</linearGradient>
</defs>
</svg>
