<svg width="20" height="20" viewBox="0 0 20 20" fill="none" xmlns="http://www.w3.org/2000/svg">
<path d="M2 3.5C2 2.11929 3.11929 1 4.5 1H15.5C16.8807 1 18 2.11929 18 3.5V16.5C18 17.8807 16.8807 19 15.5 19H4.5C3.11929 19 2 17.8807 2 16.5V3.5Z" fill="url(#paint0_linear_41743_63350)"/>
<path d="M2 3.5C2 2.11929 3.11929 1 4.5 1H15.5C16.8807 1 18 2.11929 18 3.5V16.5C18 17.8807 16.8807 19 15.5 19H4.5C3.11929 19 2 17.8807 2 16.5V3.5Z" fill="url(#paint1_radial_41743_63350)" fill-opacity="0.2"/>
<path fill-rule="evenodd" clip-rule="evenodd" d="M15.5 2H4.5C3.67157 2 3 2.67157 3 3.5V16.5C3 17.3284 3.67157 18 4.5 18H15.5C16.3284 18 17 17.3284 17 16.5V3.5C17 2.67157 16.3284 2 15.5 2ZM4.5 1C3.11929 1 2 2.11929 2 3.5V16.5C2 17.8807 3.11929 19 4.5 19H15.5C16.8807 19 18 17.8807 18 16.5V3.5C18 2.11929 16.8807 1 15.5 1H4.5Z" fill="url(#paint2_linear_41743_63350)"/>
<path d="M8.99015 14.6899C8.92617 14.7888 8.87489 14.8927 8.83653 15H6.5C5.67157 15 5 14.3284 5 13.5V9.6681C5 9.24285 5.1805 8.83759 5.4966 8.55312L8.99691 5.40309C9.56738 4.8897 10.4334 4.88973 11.0038 5.40316L14.5035 8.55313C14.8195 8.83759 15 9.24282 15 9.66803V10.0088L14.9801 9.99994C14.8301 9.94994 14.6701 9.91994 14.5001 9.91994C14.3401 9.91994 14.1901 9.93994 14.0401 9.98994L13.9201 10.0399C13.5501 10.1899 13.2601 10.4799 13.1101 10.8499C13.1001 10.8699 13.0601 10.9199 13.0001 10.9799C12.9401 10.9299 12.8901 10.8699 12.8901 10.8499C12.6601 10.2799 12.1101 9.91994 11.5001 9.91994H11.3601C10.7901 9.96994 10.3101 10.3399 10.1001 10.8699C10.0601 10.9499 10.0401 10.9999 10.0401 10.9999C10.0316 11.0084 10.0016 11.0169 9.95008 11.0314L9.92007 11.0399C9.12007 11.2199 8.61007 12.0199 8.79007 12.8299C8.92605 13.4555 9.43187 13.9084 10.0542 13.9801L10.0501 13.9899C10.0417 13.9984 10.0117 14.0069 9.96014 14.0214L9.93015 14.0299C9.54015 14.1199 9.20015 14.3499 8.99015 14.6899Z" fill="url(#paint3_linear_41743_63350)"/>
<path d="M14.3467 10.9354C14.3333 10.9398 14.32 10.9447 14.3069 10.9502C14.1887 10.9998 14.0895 11.0945 14.0373 11.2226C13.966 11.3976 13.817 11.6009 13.6154 11.7583C13.4151 11.9146 13.1969 11.9999 12.9926 11.9999C12.7893 11.9999 12.5759 11.9154 12.3804 11.7605C12.1834 11.6045 12.0361 11.401 11.9634 11.2226C11.8842 11.0283 11.6968 10.9107 11.4991 10.9111C11.4839 10.9112 11.4687 10.9119 11.4534 10.9133C11.271 10.9306 11.1048 11.0479 11.034 11.2304C10.9312 11.4952 10.8161 11.6557 10.6907 11.7634C10.5654 11.871 10.3966 11.9544 10.1404 12.0121C9.87094 12.0727 9.70169 12.3402 9.7623 12.6096C9.82292 12.8791 10.0905 13.0483 10.3599 12.9877C10.7286 12.9047 11.0607 12.7637 11.3421 12.522C11.4092 12.4644 11.4716 12.4027 11.5295 12.3371C11.6014 12.4106 11.6783 12.4801 11.7594 12.5443C12.0853 12.8025 12.5111 12.9999 12.9926 12.9999C13.473 12.9999 13.9017 12.8033 14.2307 12.5466C14.3146 12.4811 14.3943 12.41 14.4687 12.3345C14.5273 12.4011 14.5904 12.4637 14.6583 12.522C14.9397 12.7637 15.2718 12.9047 15.6406 12.9877C15.91 13.0483 16.1776 12.8791 16.2382 12.6096C16.2988 12.3402 16.1295 12.0727 15.8601 12.0121C15.6039 11.9544 15.4351 11.871 15.3098 11.7634C15.1844 11.6557 15.0693 11.4952 14.9665 11.2304C14.9411 11.1648 14.9033 11.1077 14.857 11.0606C14.8106 11.0134 14.7541 10.9748 14.689 10.9482L14.6873 10.9475C14.6264 10.923 14.5634 10.9113 14.5015 10.9111C14.4501 10.911 14.3979 10.9189 14.3467 10.9354Z" fill="url(#paint4_linear_41743_63350)"/>
<path d="M11.3421 15.522C11.4092 15.4644 11.4716 15.4027 11.5295 15.3371C11.6014 15.4106 11.6783 15.4801 11.7594 15.5443C12.0853 15.8025 12.5111 15.9999 12.9926 15.9999C13.473 15.9999 13.9017 15.8033 14.2307 15.5466C14.3146 15.4811 14.3943 15.41 14.4687 15.3346C14.5273 15.4011 14.5904 15.4637 14.6583 15.522C14.9397 15.7637 15.2718 15.9047 15.6406 15.9877C15.91 16.0483 16.1776 15.8791 16.2382 15.6096C16.2988 15.3402 16.1295 15.0727 15.8601 15.0121C15.6039 14.9544 15.4351 14.871 15.3098 14.7634C15.1844 14.6557 15.0693 14.4952 14.9665 14.2304C14.9411 14.1648 14.9033 14.1077 14.857 14.0606C14.8106 14.0134 14.7541 13.9748 14.689 13.9482C14.6276 13.9232 14.564 13.9113 14.5015 13.9111C14.4504 13.911 14.3986 13.9188 14.3477 13.9351C14.2758 13.9582 14.2093 13.9975 14.1541 14.0504C14.1049 14.0975 14.0647 14.1555 14.0373 14.2226C13.966 14.3976 13.817 14.6009 13.6154 14.7583C13.4151 14.9146 13.1969 14.9999 12.9926 14.9999C12.7893 14.9999 12.5759 14.9154 12.3804 14.7605C12.1834 14.6045 12.0361 14.401 11.9634 14.2226C11.8853 14.0308 11.7016 13.9138 11.5068 13.9112C11.4859 13.9109 11.4648 13.9119 11.4437 13.9144C11.2651 13.9348 11.1035 14.0511 11.034 14.2304C10.9312 14.4952 10.8161 14.6557 10.6907 14.7634C10.5654 14.871 10.3966 14.9544 10.1404 15.0121C9.87094 15.0727 9.70169 15.3402 9.7623 15.6096C9.82292 15.8791 10.0905 16.0483 10.3599 15.9877C10.7286 15.9047 11.0607 15.7637 11.3421 15.522Z" fill="url(#paint5_linear_41743_63350)"/>
<defs>
<linearGradient id="paint0_linear_41743_63350" x1="6.44444" y1="1" x2="8.99556" y2="19.1412" gradientUnits="userSpaceOnUse">
<stop stop-color="white"/>
<stop offset="1" stop-color="#EBEBEB"/>
</linearGradient>
<radialGradient id="paint1_radial_41743_63350" cx="0" cy="0" r="1" gradientUnits="userSpaceOnUse" gradientTransform="translate(7.11111 5.6875) rotate(59.3493) scale(16.5642 13.6213)">
<stop offset="0.177083" stop-color="white"/>
<stop offset="1" stop-color="#B8B8B8"/>
</radialGradient>
<linearGradient id="paint2_linear_41743_63350" x1="7.16667" y1="1" x2="9.8806" y2="19.0929" gradientUnits="userSpaceOnUse">
<stop stop-color="#BBBBBB"/>
<stop offset="1" stop-color="#888888"/>
</linearGradient>
<linearGradient id="paint3_linear_41743_63350" x1="5" y1="5.01807" x2="15.9787" y2="16.2653" gradientUnits="userSpaceOnUse">
<stop stop-color="#3477EA"/>
<stop offset="1" stop-color="#1D53A4"/>
</linearGradient>
<linearGradient id="paint4_linear_41743_63350" x1="5" y1="5.01807" x2="15.9787" y2="16.2653" gradientUnits="userSpaceOnUse">
<stop stop-color="#3477EA"/>
<stop offset="1" stop-color="#1D53A4"/>
</linearGradient>
<linearGradient id="paint5_linear_41743_63350" x1="5" y1="5.01807" x2="15.9787" y2="16.2653" gradientUnits="userSpaceOnUse">
<stop stop-color="#3477EA"/>
<stop offset="1" stop-color="#1D53A4"/>
</linearGradient>
</defs>
</svg>
