<svg width="32" height="32" viewBox="0 0 32 32" fill="none" xmlns="http://www.w3.org/2000/svg">
<path d="M3 6.5C3 4.567 4.567 3 6.5 3H25.5C27.433 3 29 4.567 29 6.5V25.5C29 27.433 27.433 29 25.5 29H6.5C4.567 29 3 27.433 3 25.5V6.5Z" fill="url(#paint0_linear_41743_63330)"/>
<path d="M3 6.5C3 4.567 4.567 3 6.5 3H25.5C27.433 3 29 4.567 29 6.5V25.5C29 27.433 27.433 29 25.5 29H6.5C4.567 29 3 27.433 3 25.5V6.5Z" fill="url(#paint1_radial_41743_63330)" fill-opacity="0.2"/>
<path fill-rule="evenodd" clip-rule="evenodd" d="M25.5 4H6.5C5.11929 4 4 5.11929 4 6.5V25.5C4 26.8807 5.11929 28 6.5 28H25.5C26.8807 28 28 26.8807 28 25.5V6.5C28 5.11929 26.8807 4 25.5 4ZM6.5 3C4.567 3 3 4.567 3 6.5V25.5C3 27.433 4.567 29 6.5 29H25.5C27.433 29 29 27.433 29 25.5V6.5C29 4.567 27.433 3 25.5 3H6.5Z" fill="url(#paint2_linear_41743_63330)"/>
<path d="M9 16C9 13.5147 11.0147 11.5 13.5 11.5H14.25C14.6642 11.5 15 11.8358 15 12.25C15 12.6642 14.6642 13 14.25 13H13.5C11.8431 13 10.5 14.3431 10.5 16C10.5 17.6569 11.8431 19 13.5 19H14.25C14.6642 19 15 19.3358 15 19.75C15 20.1642 14.6642 20.5 14.25 20.5H13.5C11.0147 20.5 9 18.4853 9 16Z" fill="url(#paint3_linear_41743_63330)"/>
<path d="M23 16C23 18.4853 20.9853 20.5 18.5 20.5H17.75C17.3358 20.5 17 20.1642 17 19.75C17 19.3358 17.3358 19 17.75 19H18.5C20.1569 19 21.5 17.6569 21.5 16C21.5 14.3431 20.1569 13 18.5 13L17.75 13C17.3358 13 17 12.6642 17 12.25C17 11.8358 17.3358 11.5 17.75 11.5H18.5C20.9853 11.5 23 13.5147 23 16Z" fill="url(#paint4_linear_41743_63330)"/>
<path d="M13.75 15.25C13.3358 15.25 13 15.5858 13 16C13 16.4142 13.3358 16.75 13.75 16.75L18.25 16.75C18.6642 16.75 19 16.4142 19 16C19 15.5858 18.6642 15.25 18.25 15.25L13.75 15.25Z" fill="url(#paint5_linear_41743_63330)"/>
<defs>
<linearGradient id="paint0_linear_41743_63330" x1="10.2222" y1="3" x2="13.5111" y2="29.3111" gradientUnits="userSpaceOnUse">
<stop stop-color="white"/>
<stop offset="1" stop-color="#EBEBEB"/>
</linearGradient>
<radialGradient id="paint1_radial_41743_63330" cx="0" cy="0" r="1" gradientUnits="userSpaceOnUse" gradientTransform="translate(11.3056 9.77083) rotate(56.3099) scale(24.7381 21.408)">
<stop offset="0.177083" stop-color="white"/>
<stop offset="1" stop-color="#B8B8B8"/>
</radialGradient>
<linearGradient id="paint2_linear_41743_63330" x1="11.3958" y1="3" x2="14.8966" y2="29.2555" gradientUnits="userSpaceOnUse">
<stop stop-color="#BBBBBB"/>
<stop offset="1" stop-color="#888888"/>
</linearGradient>
<linearGradient id="paint3_linear_41743_63330" x1="9" y1="11.5" x2="17.1877" y2="24.2365" gradientUnits="userSpaceOnUse">
<stop stop-color="#EB6D00"/>
<stop offset="1" stop-color="#B85500"/>
</linearGradient>
<linearGradient id="paint4_linear_41743_63330" x1="9" y1="11.5" x2="17.1877" y2="24.2365" gradientUnits="userSpaceOnUse">
<stop stop-color="#EB6D00"/>
<stop offset="1" stop-color="#B85500"/>
</linearGradient>
<linearGradient id="paint5_linear_41743_63330" x1="9" y1="11.5" x2="17.1877" y2="24.2365" gradientUnits="userSpaceOnUse">
<stop stop-color="#EB6D00"/>
<stop offset="1" stop-color="#B85500"/>
</linearGradient>
</defs>
</svg>
