<svg width="40" height="40" viewBox="0 0 40 40" fill="none" xmlns="http://www.w3.org/2000/svg">
<path d="M4 8C4 5.79086 5.79086 4 8 4H32C34.2091 4 36 5.79086 36 8V32C36 34.2091 34.2091 36 32 36H8C5.79086 36 4 34.2091 4 32V8Z" fill="url(#paint0_linear_41743_63318)"/>
<path d="M4 8C4 5.79086 5.79086 4 8 4H32C34.2091 4 36 5.79086 36 8V32C36 34.2091 34.2091 36 32 36H8C5.79086 36 4 34.2091 4 32V8Z" fill="url(#paint1_radial_41743_63318)" fill-opacity="0.2"/>
<path fill-rule="evenodd" clip-rule="evenodd" d="M32 5H8C6.34315 5 5 6.34315 5 8V32C5 33.6569 6.34315 35 8 35H32C33.6569 35 35 33.6569 35 32V8C35 6.34315 33.6569 5 32 5ZM8 4C5.79086 4 4 5.79086 4 8V32C4 34.2091 5.79086 36 8 36H32C34.2091 36 36 34.2091 36 32V8C36 5.79086 34.2091 4 32 4H8Z" fill="url(#paint2_linear_41743_63318)"/>
<path fill-rule="evenodd" clip-rule="evenodd" d="M22.4004 12.431C20.9338 11.5061 19.0662 11.5061 17.5996 12.431L13.4019 15.0781C13.24 15.1803 13.0958 15.3036 12.9721 15.4432L12.9688 15.4434V15.4469C12.6507 15.8076 12.4688 16.2763 12.4688 16.7699V18.2409C12.4688 18.3022 12.4798 18.361 12.5 18.4153V22.2014C12.5 23.4574 13.173 24.6171 14.2635 25.2403L19.3779 28.1628C19.5818 28.2793 19.806 28.2882 20 28.219C20.194 28.2882 20.4182 28.2793 20.6221 28.1628L25.7365 25.2403C26.827 24.6171 27.5 23.4574 27.5 22.2014V17.913C27.5202 17.8587 27.5312 17.8 27.5312 17.7386V16.7699C27.5312 16.2763 27.3493 15.8076 27.0312 15.4469V15.4434L27.0279 15.4432C26.9042 15.3036 26.76 15.1803 26.5981 15.0781L22.4004 12.431ZM19.5 21.6834C19.5 20.7862 19.0193 19.9578 18.2403 19.5127L13.5 16.804V22.2014C13.5 23.0986 13.9807 23.9269 14.7597 24.372L19.5 27.0808V21.6834ZM20.5 27.0808L25.2403 24.372C26.0193 23.9269 26.5 23.0986 26.5 22.2014V16.804L21.7597 19.5127C20.9807 19.9578 20.5 20.7862 20.5 21.6834V27.0808Z" fill="url(#paint3_linear_41743_63318)"/>
<defs>
<linearGradient id="paint0_linear_41743_63318" x1="12.8889" y1="4" x2="16.9368" y2="36.3829" gradientUnits="userSpaceOnUse">
<stop stop-color="white"/>
<stop offset="1" stop-color="#EBEBEB"/>
</linearGradient>
<radialGradient id="paint1_radial_41743_63318" cx="0" cy="0" r="1" gradientUnits="userSpaceOnUse" gradientTransform="translate(14.2222 12.3333) rotate(56.3099) scale(30.4469 26.3483)">
<stop offset="0.177083" stop-color="white"/>
<stop offset="1" stop-color="#B8B8B8"/>
</radialGradient>
<linearGradient id="paint2_linear_41743_63318" x1="14.3333" y1="4" x2="18.6419" y2="36.3144" gradientUnits="userSpaceOnUse">
<stop stop-color="#BBBBBB"/>
<stop offset="1" stop-color="#888888"/>
</linearGradient>
<linearGradient id="paint3_linear_41743_63318" x1="12.4687" y1="11.7373" x2="28.9234" y2="26.7353" gradientUnits="userSpaceOnUse">
<stop stop-color="#4BA446"/>
<stop offset="1" stop-color="#3F7D35"/>
</linearGradient>
</defs>
</svg>
