<svg width="24" height="24" viewBox="0 0 24 24" fill="none" xmlns="http://www.w3.org/2000/svg">
<path d="M2 5C2 3.34315 3.34315 2 5 2H19C20.6569 2 22 3.34315 22 5V19C22 20.6569 20.6569 22 19 22H5C3.34315 22 2 20.6569 2 19V5Z" fill="url(#paint0_linear_41743_63302)"/>
<path d="M2 5C2 3.34315 3.34315 2 5 2H19C20.6569 2 22 3.34315 22 5V19C22 20.6569 20.6569 22 19 22H5C3.34315 22 2 20.6569 2 19V5Z" fill="url(#paint1_radial_41743_63302)" fill-opacity="0.2"/>
<path fill-rule="evenodd" clip-rule="evenodd" d="M19 3H5C3.89543 3 3 3.89543 3 5V19C3 20.1046 3.89543 21 5 21H19C20.1046 21 21 20.1046 21 19V5C21 3.89543 20.1046 3 19 3ZM5 2C3.34315 2 2 3.34315 2 5V19C2 20.6569 3.34315 22 5 22H19C20.6569 22 22 20.6569 22 19V5C22 3.34315 20.6569 2 19 2H5Z" fill="url(#paint2_linear_41743_63302)"/>
<path fill-rule="evenodd" clip-rule="evenodd" d="M10.913 17.503C10.9533 17.5221 10.9941 17.5401 11.0352 17.557L11.0563 17.5671C11.135 17.6047 11.215 17.6311 11.2952 17.6472C11.7393 17.7745 12.2102 17.7761 12.6549 17.6522C12.7438 17.6368 12.8329 17.6089 12.9202 17.5671L13.0332 17.513L13.0636 17.4986L16.0486 16.0691C16.7182 15.7484 17.1999 15.1532 17.3851 14.456C17.44 14.2495 17.4688 14.034 17.4688 13.814V9.90431L17.4688 9.89161V9.71573C17.4688 9.15782 17.1591 8.64601 16.6649 8.38707L13.1449 6.54266C12.4207 6.1632 11.5568 6.16182 10.8314 6.53896L7.27681 8.38704C6.78028 8.64519 6.46875 9.15829 6.46875 9.71791V13.8147C6.46875 14.7806 7.02514 15.6601 7.89793 16.0738L10.913 17.503ZM11.4379 16.6411C11.4546 16.6476 11.4714 16.6538 11.4883 16.6597V13.0704C11.4883 12.3006 11.0465 11.5991 10.3522 11.2666L7.50774 9.90431L7.50774 13.814C7.50774 14.3914 7.8391 14.9175 8.35982 15.1669L11.4379 16.6411ZM12.4883 16.6565C12.5287 16.6421 12.5687 16.6258 12.6081 16.6078L15.6167 15.1669C16.0184 14.9745 16.3074 14.6175 16.4186 14.1993C16.4515 14.0754 16.4688 13.9462 16.4688 13.8143V9.90434L13.6244 11.2666C12.9301 11.5991 12.4883 12.3006 12.4883 13.0704V16.6565Z" fill="url(#paint3_linear_41743_63302)"/>
<defs>
<linearGradient id="paint0_linear_41743_63302" x1="7.55556" y1="2" x2="10.0855" y2="22.2393" gradientUnits="userSpaceOnUse">
<stop stop-color="white"/>
<stop offset="1" stop-color="#EBEBEB"/>
</linearGradient>
<radialGradient id="paint1_radial_41743_63302" cx="0" cy="0" r="1" gradientUnits="userSpaceOnUse" gradientTransform="translate(8.38889 7.20833) rotate(56.3099) scale(19.0293 16.4677)">
<stop offset="0.177083" stop-color="white"/>
<stop offset="1" stop-color="#B8B8B8"/>
</radialGradient>
<linearGradient id="paint2_linear_41743_63302" x1="8.45833" y1="2" x2="11.1512" y2="22.1965" gradientUnits="userSpaceOnUse">
<stop stop-color="#BBBBBB"/>
<stop offset="1" stop-color="#888888"/>
</linearGradient>
<linearGradient id="paint3_linear_41743_63302" x1="6.46875" y1="6.25708" x2="17.9448" y2="17.2469" gradientUnits="userSpaceOnUse">
<stop stop-color="#4BA446"/>
<stop offset="1" stop-color="#3F7D35"/>
</linearGradient>
</defs>
</svg>
