<svg width="64" height="64" viewBox="0 0 64 64" fill="none" xmlns="http://www.w3.org/2000/svg">
<path d="M6 13C6 9.13401 9.13401 6 13 6H51C54.866 6 58 9.13401 58 13V51C58 54.866 54.866 58 51 58H13C9.13401 58 6 54.866 6 51V13Z" fill="url(#paint0_linear_41743_63314)"/>
<path d="M6 13C6 9.13401 9.13401 6 13 6H51C54.866 6 58 9.13401 58 13V51C58 54.866 54.866 58 51 58H13C9.13401 58 6 54.866 6 51V13Z" fill="url(#paint1_radial_41743_63314)" fill-opacity="0.2"/>
<path fill-rule="evenodd" clip-rule="evenodd" d="M51 7H13C9.68629 7 7 9.68629 7 13V51C7 54.3137 9.68629 57 13 57H51C54.3137 57 57 54.3137 57 51V13C57 9.68629 54.3137 7 51 7ZM13 6C9.13401 6 6 9.13401 6 13V51C6 54.866 9.13401 58 13 58H51C54.866 58 58 54.866 58 51V13C58 9.13401 54.866 6 51 6H13Z" fill="url(#paint2_linear_41743_63314)"/>
<path fill-rule="evenodd" clip-rule="evenodd" d="M34.3758 20.2743C32.8931 19.4737 31.107 19.4737 29.6244 20.2743L21.5498 24.6343C20.9032 24.9835 20.5001 25.6593 20.5001 26.3942V35.9184C20.5001 37.3821 21.2997 38.729 22.5847 39.43L31.3912 44.2334C31.592 44.3429 31.8105 44.35 32.0001 44.2824C32.1897 44.35 32.4082 44.3429 32.609 44.2334L41.4155 39.43C42.7005 38.729 43.5001 37.3821 43.5001 35.9184V26.3942C43.5001 25.6593 43.097 24.9835 42.4504 24.6343L34.3758 20.2743ZM31.4999 34.5738L31.5001 34.5362C31.4865 33.4529 30.8896 32.4598 29.9368 31.9401L21.5001 27.3384V35.9184C21.5001 37.0162 22.0998 38.0264 23.0636 38.5521L31.4999 43.1536V34.5738ZM32.5003 34.5738V43.1536L40.9366 38.5521C41.9004 38.0264 42.5001 37.0162 42.5001 35.9184V27.3384L34.0633 31.9401C33.1106 32.4598 32.5137 33.4529 32.5001 34.5362L32.5003 34.5738ZM42.4237 26.0108C42.3656 25.9118 42.3039 25.8148 42.2388 25.7201C42.3169 25.8057 42.3794 25.9041 42.4237 26.0108Z" fill="url(#paint3_linear_41743_63314)"/>
<defs>
<linearGradient id="paint0_linear_41743_63314" x1="20.4444" y1="6" x2="27.0222" y2="58.6222" gradientUnits="userSpaceOnUse">
<stop stop-color="white"/>
<stop offset="1" stop-color="#EBEBEB"/>
</linearGradient>
<radialGradient id="paint1_radial_41743_63314" cx="0" cy="0" r="1" gradientUnits="userSpaceOnUse" gradientTransform="translate(22.6111 19.5417) rotate(56.3099) scale(49.4762 42.8159)">
<stop offset="0.177083" stop-color="white"/>
<stop offset="1" stop-color="#B8B8B8"/>
</radialGradient>
<linearGradient id="paint2_linear_41743_63314" x1="22.7917" y1="6" x2="29.7931" y2="58.5109" gradientUnits="userSpaceOnUse">
<stop stop-color="#BBBBBB"/>
<stop offset="1" stop-color="#888888"/>
</linearGradient>
<linearGradient id="paint3_linear_41743_63314" x1="20.5001" y1="19.6738" x2="45.0931" y2="42.6186" gradientUnits="userSpaceOnUse">
<stop stop-color="#4BA446"/>
<stop offset="1" stop-color="#3F7D35"/>
</linearGradient>
</defs>
</svg>
