<svg width="48" height="48" viewBox="0 0 48 48" fill="none" xmlns="http://www.w3.org/2000/svg">
<path d="M5 10C5 7.23858 7.23858 5 10 5H38C40.7614 5 43 7.23858 43 10V38C43 40.7614 40.7614 43 38 43H10C7.23858 43 5 40.7614 5 38V10Z" fill="url(#paint0_linear_41743_63298)"/>
<path d="M5 10C5 7.23858 7.23858 5 10 5H38C40.7614 5 43 7.23858 43 10V38C43 40.7614 40.7614 43 38 43H10C7.23858 43 5 40.7614 5 38V10Z" fill="url(#paint1_radial_41743_63298)" fill-opacity="0.2"/>
<path fill-rule="evenodd" clip-rule="evenodd" d="M38 6H10C7.79086 6 6 7.79086 6 10V38C6 40.2091 7.79086 42 10 42H38C40.2091 42 42 40.2091 42 38V10C42 7.79086 40.2091 6 38 6ZM10 5C7.23858 5 5 7.23858 5 10V38C5 40.7614 7.23858 43 10 43H38C40.7614 43 43 40.7614 43 38V10C43 7.23858 40.7614 5 38 5H10Z" fill="url(#paint2_linear_41743_63298)"/>
<path fill-rule="evenodd" clip-rule="evenodd" d="M21.5006 14.3538C22.9884 13.5327 24.7915 13.5235 26.2877 14.3294L32.4482 17.6477C33.0959 17.9966 33.4998 18.6729 33.4998 19.4085V26.7882C33.4998 28.2259 32.7282 29.553 31.4788 30.2643L24.6208 34.1688C24.4173 34.2847 24.1938 34.2935 24.0002 34.2246C23.8064 34.2939 23.5825 34.2852 23.3787 34.1691L16.5207 30.2646C15.2713 29.5533 14.4998 28.2262 14.4998 26.7885V19.3982C14.4998 18.6698 14.8957 17.9991 15.5334 17.6472L21.5006 14.3538ZM15.4998 26.7885V20.3293L21.9567 23.9165C22.9091 24.4456 23.4998 25.4495 23.4998 26.539V33.0873L17.0155 29.3956C16.0784 28.8621 15.4998 27.8668 15.4998 26.7885ZM24.4998 26.539V33.087L30.9841 29.3953C31.9211 28.8618 32.4998 27.8665 32.4998 26.7882V20.329L26.0428 23.9162C25.0904 24.4453 24.4998 25.4495 24.4998 26.539Z" fill="url(#paint3_linear_41743_63298)"/>
<defs>
<linearGradient id="paint0_linear_41743_63298" x1="15.5556" y1="5" x2="20.3624" y2="43.4547" gradientUnits="userSpaceOnUse">
<stop stop-color="white"/>
<stop offset="1" stop-color="#EBEBEB"/>
</linearGradient>
<radialGradient id="paint1_radial_41743_63298" cx="0" cy="0" r="1" gradientUnits="userSpaceOnUse" gradientTransform="translate(17.1389 14.8958) rotate(56.3099) scale(36.1557 31.2886)">
<stop offset="0.177083" stop-color="white"/>
<stop offset="1" stop-color="#B8B8B8"/>
</radialGradient>
<linearGradient id="paint2_linear_41743_63298" x1="17.2708" y1="5" x2="22.3873" y2="43.3734" gradientUnits="userSpaceOnUse">
<stop stop-color="#BBBBBB"/>
<stop offset="1" stop-color="#888888"/>
</linearGradient>
<linearGradient id="paint3_linear_41743_63298" x1="14.4998" y1="13.7314" x2="34.9748" y2="32.6741" gradientUnits="userSpaceOnUse">
<stop stop-color="#4BA446"/>
<stop offset="1" stop-color="#3F7D35"/>
</linearGradient>
</defs>
</svg>
