<svg width="20" height="20" viewBox="0 0 20 20" fill="none" xmlns="http://www.w3.org/2000/svg">
<path d="M3.04688 3C3.04688 1.89543 3.94231 1 5.04688 1H15.0469C16.1514 1 17.0469 1.89543 17.0469 3V17C17.0469 18.1046 16.1514 19 15.0469 19H5.04687C3.94231 19 3.04688 18.1046 3.04688 17V3Z" fill="url(#paint0_linear_41743_63244)"/>
<path d="M3.04688 3C3.04688 1.89543 3.94231 1 5.04688 1H15.0469C16.1514 1 17.0469 1.89543 17.0469 3V17C17.0469 18.1046 16.1514 19 15.0469 19H5.04687C3.94231 19 3.04688 18.1046 3.04688 17V3Z" fill="url(#paint1_radial_41743_63244)" fill-opacity="0.2"/>
<path fill-rule="evenodd" clip-rule="evenodd" d="M17.0469 3C17.0469 1.89543 16.1514 1 15.0469 1H5.04688C3.94231 1 3.04688 1.89543 3.04688 3V17C3.04688 18.1046 3.94231 19 5.04687 19H15.0469C16.1514 19 17.0469 18.1046 17.0469 17V3ZM5.04688 2H15.0469C15.5992 2 16.0469 2.44772 16.0469 3V13.5C16.0469 14.3284 15.3753 15 14.5469 15H5.04688C4.68259 15 4.34105 15.0974 4.04688 15.2676V3C4.04688 2.44772 4.49459 2 5.04688 2ZM4.04688 17C4.04688 17.5523 4.49459 18 5.04687 18H15.0469C15.5992 18 16.0469 17.5523 16.0469 17V15.5002C15.629 15.814 15.1097 16 14.5469 16H5.04688C4.49459 16 4.04688 16.4477 4.04688 17Z" fill="url(#paint2_linear_41743_63244)"/>
<path d="M11.4852 4.62139C11.5522 4.35349 11.3893 4.08202 11.1214 4.01505C10.8535 3.94807 10.582 4.11095 10.515 4.37885L8.76505 11.3789C8.69807 11.6467 8.86095 11.9182 9.12885 11.9852C9.39675 12.0522 9.66822 11.8893 9.73519 11.6214L11.4852 4.62139Z" fill="url(#paint3_linear_41743_63244)"/>
<path d="M12.1156 5.5527C11.9203 5.74796 11.9203 6.06454 12.1156 6.2598L13.8558 8L12.1156 9.7402C11.9203 9.93546 11.9203 10.252 12.1156 10.4473C12.3109 10.6426 12.6274 10.6426 12.8227 10.4473L14.8457 8.42426C15.0801 8.18995 15.0801 7.81005 14.8457 7.57574L12.8227 5.5527C12.6274 5.35743 12.3109 5.35743 12.1156 5.5527Z" fill="url(#paint4_linear_41743_63244)"/>
<path d="M7.91565 5.58395C8.11091 5.77921 8.11091 6.09579 7.91565 6.29105L6.2067 8L7.91565 9.70895C8.11091 9.90421 8.11091 10.2208 7.91565 10.4161C7.72039 10.6113 7.4038 10.6113 7.20854 10.4161L5.21675 8.42426C4.98244 8.18995 4.98244 7.81005 5.21675 7.57574L7.20854 5.58395C7.4038 5.38868 7.72039 5.38868 7.91565 5.58395Z" fill="url(#paint5_linear_41743_63244)"/>
<defs>
<linearGradient id="paint0_linear_41743_63244" x1="6.93576" y1="1" x2="9.83412" y2="19.0342" gradientUnits="userSpaceOnUse">
<stop stop-color="white"/>
<stop offset="1" stop-color="#EBEBEB"/>
</linearGradient>
<radialGradient id="paint1_radial_41743_63244" cx="0" cy="0" r="1" gradientUnits="userSpaceOnUse" gradientTransform="translate(7.5191 5.6875) rotate(62.5924) scale(16.0517 12.2991)">
<stop offset="0.177083" stop-color="white"/>
<stop offset="1" stop-color="#B8B8B8"/>
</radialGradient>
<linearGradient id="paint2_linear_41743_63244" x1="7.56771" y1="1" x2="10.6486" y2="18.9718" gradientUnits="userSpaceOnUse">
<stop stop-color="#BBBBBB"/>
<stop offset="1" stop-color="#888888"/>
</linearGradient>
<linearGradient id="paint3_linear_41743_63244" x1="5.04102" y1="4" x2="12.8495" y2="13.7413" gradientUnits="userSpaceOnUse">
<stop stop-color="#4BA446"/>
<stop offset="1" stop-color="#3F7D35"/>
</linearGradient>
<linearGradient id="paint4_linear_41743_63244" x1="5.04102" y1="4" x2="12.8495" y2="13.7413" gradientUnits="userSpaceOnUse">
<stop stop-color="#4BA446"/>
<stop offset="1" stop-color="#3F7D35"/>
</linearGradient>
<linearGradient id="paint5_linear_41743_63244" x1="5.04102" y1="4" x2="12.8495" y2="13.7413" gradientUnits="userSpaceOnUse">
<stop stop-color="#4BA446"/>
<stop offset="1" stop-color="#3F7D35"/>
</linearGradient>
</defs>
</svg>
