<svg width="24" height="24" viewBox="0 0 24 24" fill="none" xmlns="http://www.w3.org/2000/svg">
<path fill-rule="evenodd" clip-rule="evenodd" d="M18 1.5H6.5C5.25735 1.5 3.5 2.75735 3.5 4V21C4 22 5.76547 22.5 6.5 22.5H17.5C18.3284 22.5 20.5 20.8284 20.5 20V4C20.5 3.17156 18.8284 1.5 18 1.5Z" fill="url(#paint0_linear_41743_63236)"/>
<path fill-rule="evenodd" clip-rule="evenodd" d="M18 1.5H6.5C5.25735 1.5 3.5 2.75735 3.5 4V21C4 22 5.76547 22.5 6.5 22.5H17.5C18.3284 22.5 20.5 20.8284 20.5 20V4C20.5 3.17156 18.8284 1.5 18 1.5Z" fill="url(#paint1_radial_41743_63236)" fill-opacity="0.2"/>
<path d="M13.6757 5.03197C13.9342 5.12893 14.0653 5.41714 13.9683 5.6757L10.9683 13.6757C10.8713 13.9343 10.5831 14.0653 10.3246 13.9683C10.066 13.8713 9.935 13.5831 10.032 13.3246L13.032 5.32457C13.1289 5.06601 13.4171 4.93501 13.6757 5.03197Z" fill="url(#paint2_linear_41743_63236)"/>
<path d="M15.1464 7.14645C15.3417 6.95118 15.6583 6.95118 15.8535 7.14645L17.7828 9.07574C18.0171 9.31005 18.0171 9.68995 17.7828 9.92426L15.8535 11.8536C15.6583 12.0488 15.3417 12.0488 15.1464 11.8536C14.9512 11.6583 14.9512 11.3417 15.1464 11.1464L16.7929 9.5L15.1464 7.85355C14.9512 7.65829 14.9512 7.34171 15.1464 7.14645Z" fill="url(#paint3_linear_41743_63236)"/>
<path d="M8.10542 7.14645C8.30068 6.95118 8.61727 6.95118 8.81253 7.14645C9.00779 7.34171 9.00779 7.65829 8.81253 7.85355L7.16608 9.5L8.81253 11.1464C9.00779 11.3417 9.00779 11.6583 8.81253 11.8536C8.61727 12.0488 8.30068 12.0488 8.10542 11.8536L6.17613 9.92426C5.94182 9.68995 5.94182 9.31005 6.17613 9.07574L8.10542 7.14645Z" fill="url(#paint4_linear_41743_63236)"/>
<path fill-rule="evenodd" clip-rule="evenodd" d="M17.5 23C19.433 23 21 21.433 21 19.5L21 4.5C21 2.567 19.433 1 17.5 1H6.5C4.567 1 3 2.567 3 4.5V20.125H3.00256C3.06809 21.7239 4.38502 23 6 23H17.5ZM17.5 22C18.8807 22 20 20.8807 20 19.5V19.4495C19.3647 20.0978 18.4793 20.5 17.5 20.5L6.5 20.5C6.22386 20.5 6 20.2761 6 20C6 19.7239 6.22386 19.5 6.5 19.5L17.5 19.5C18.8807 19.5 20 18.3807 20 17V16.9495C19.3647 17.5978 18.4793 18 17.5 18H6C4.89543 18 4 18.8954 4 20C4 21.1046 4.89543 22 6 22H17.5ZM4 17.7639C4.53076 17.2889 5.23165 17 6 17H17.5C18.8807 17 20 15.8807 20 14.5L20 4.5C20 3.11929 18.8807 2 17.5 2L6.5 2C5.11929 2 4 3.11929 4 4.5L4 17.7639Z" fill="url(#paint5_linear_41743_63236)"/>
<defs>
<linearGradient id="paint0_linear_41743_63236" x1="8.22222" y1="1.5" x2="11.4773" y2="22.5807" gradientUnits="userSpaceOnUse">
<stop stop-color="white"/>
<stop offset="1" stop-color="#EBEBEB"/>
</linearGradient>
<radialGradient id="paint1_radial_41743_63236" cx="0" cy="0" r="1" gradientUnits="userSpaceOnUse" gradientTransform="translate(8.93056 6.96875) rotate(61.645) scale(18.8916 14.8045)">
<stop offset="0.177083" stop-color="white"/>
<stop offset="1" stop-color="#B8B8B8"/>
</radialGradient>
<linearGradient id="paint2_linear_41743_63236" x1="6.0004" y1="5" x2="14.6491" y2="16.4911" gradientUnits="userSpaceOnUse">
<stop stop-color="#4BA446"/>
<stop offset="1" stop-color="#3F7D35"/>
</linearGradient>
<linearGradient id="paint3_linear_41743_63236" x1="6.0004" y1="5" x2="14.6491" y2="16.4911" gradientUnits="userSpaceOnUse">
<stop stop-color="#4BA446"/>
<stop offset="1" stop-color="#3F7D35"/>
</linearGradient>
<linearGradient id="paint4_linear_41743_63236" x1="6.0004" y1="5" x2="14.6491" y2="16.4911" gradientUnits="userSpaceOnUse">
<stop stop-color="#4BA446"/>
<stop offset="1" stop-color="#3F7D35"/>
</linearGradient>
<linearGradient id="paint5_linear_41743_63236" x1="8.8125" y1="1" x2="12.4019" y2="23.0262" gradientUnits="userSpaceOnUse">
<stop stop-color="#BBBBBB"/>
<stop offset="1" stop-color="#888888"/>
</linearGradient>
</defs>
</svg>
