<svg width="20" height="20" viewBox="0 0 20 20" fill="none" xmlns="http://www.w3.org/2000/svg">
<path d="M4 5.5C4 4.11929 5.11929 3 6.5 3H15.5C16.8807 3 18 4.11929 18 5.5V14.5C18 16.9853 15.9853 19 13.5 19H6.5C5.11929 19 4 17.8807 4 16.5V5.5Z" fill="url(#paint0_linear_41743_63202)"/>
<path d="M4 5.5C4 4.11929 5.11929 3 6.5 3H15.5C16.8807 3 18 4.11929 18 5.5V14.5C18 16.9853 15.9853 19 13.5 19H6.5C5.11929 19 4 17.8807 4 16.5V5.5Z" fill="url(#paint1_radial_41743_63202)" fill-opacity="0.2"/>
<path fill-rule="evenodd" clip-rule="evenodd" d="M15.5 4H6.5C5.67157 4 5 4.67157 5 5.5V16.5C5 17.3284 5.67157 18 6.5 18H13.5C15.433 18 17 16.433 17 14.5V5.5C17 4.67157 16.3284 4 15.5 4ZM6.5 3C5.11929 3 4 4.11929 4 5.5V16.5C4 17.8807 5.11929 19 6.5 19H13.5C15.9853 19 18 16.9853 18 14.5V5.5C18 4.11929 16.8807 3 15.5 3H6.5Z" fill="url(#paint2_linear_41743_63202)"/>
<path d="M2 3.5C2 2.11929 3.11929 1 4.5 1H13.5C14.8807 1 16 2.11929 16 3.5V14.5C16 15.8807 14.8807 17 13.5 17H4.5C3.11929 17 2 15.8807 2 14.5V3.5Z" fill="url(#paint3_linear_41743_63202)"/>
<path d="M2 3.5C2 2.11929 3.11929 1 4.5 1H13.5C14.8807 1 16 2.11929 16 3.5V14.5C16 15.8807 14.8807 17 13.5 17H4.5C3.11929 17 2 15.8807 2 14.5V3.5Z" fill="url(#paint4_radial_41743_63202)" fill-opacity="0.2"/>
<path fill-rule="evenodd" clip-rule="evenodd" d="M13.5 2H4.5C3.67157 2 3 2.67157 3 3.5V14.5C3 15.3284 3.67157 16 4.5 16H13.5C14.3284 16 15 15.3284 15 14.5V3.5C15 2.67157 14.3284 2 13.5 2ZM4.5 1C3.11929 1 2 2.11929 2 3.5V14.5C2 15.8807 3.11929 17 4.5 17H13.5C14.8807 17 16 15.8807 16 14.5V3.5C16 2.11929 14.8807 1 13.5 1H4.5Z" fill="url(#paint5_linear_41743_63202)"/>
<path d="M9 4.5C9 4.22386 9.22386 4 9.5 4H13.5C13.7761 4 14 4.22386 14 4.5C14 4.77614 13.7761 5 13.5 5H9.5C9.22386 5 9 4.77614 9 4.5Z" fill="url(#paint6_linear_41743_63202)"/>
<path d="M9 7.5C9 7.22386 9.22386 7 9.5 7H13.5C13.7761 7 14 7.22386 14 7.5C14 7.77614 13.7761 8 13.5 8H9.5C9.22386 8 9 7.77614 9 7.5Z" fill="url(#paint7_linear_41743_63202)"/>
<path d="M4.5 10C4.22386 10 4 10.2239 4 10.5C4 10.7761 4.22386 11 4.5 11H13.5C13.7761 11 14 10.7761 14 10.5C14 10.2239 13.7761 10 13.5 10H4.5Z" fill="url(#paint8_linear_41743_63202)"/>
<path d="M4 13.5C4 13.2239 4.22386 13 4.5 13H13.5C13.7761 13 14 13.2239 14 13.5C14 13.7761 13.7761 14 13.5 14H4.5C4.22386 14 4 13.7761 4 13.5Z" fill="url(#paint9_linear_41743_63202)"/>
<path d="M5 4C4.44772 4 4 4.44772 4 5V7C4 7.55228 4.44772 8 5 8H7C7.55228 8 8 7.55228 8 7V5C8 4.44772 7.55228 4 7 4H5Z" fill="url(#paint10_linear_41743_63202)"/>
<defs>
<linearGradient id="paint0_linear_41743_63202" x1="7.88889" y1="3" x2="10.1911" y2="19.1156" gradientUnits="userSpaceOnUse">
<stop stop-color="white"/>
<stop offset="1" stop-color="#EBEBEB"/>
</linearGradient>
<radialGradient id="paint1_radial_41743_63202" cx="0" cy="0" r="1" gradientUnits="userSpaceOnUse" gradientTransform="translate(8.47222 7.16667) rotate(59.7436) scale(14.6642 11.9669)">
<stop offset="0.177083" stop-color="white"/>
<stop offset="1" stop-color="#B8B8B8"/>
</radialGradient>
<linearGradient id="paint2_linear_41743_63202" x1="8.52083" y1="3" x2="10.9698" y2="19.0713" gradientUnits="userSpaceOnUse">
<stop stop-color="#BBBBBB"/>
<stop offset="1" stop-color="#888888"/>
</linearGradient>
<linearGradient id="paint3_linear_41743_63202" x1="5.88889" y1="1" x2="8.19111" y2="17.1156" gradientUnits="userSpaceOnUse">
<stop stop-color="white"/>
<stop offset="1" stop-color="#EBEBEB"/>
</linearGradient>
<radialGradient id="paint4_radial_41743_63202" cx="0" cy="0" r="1" gradientUnits="userSpaceOnUse" gradientTransform="translate(6.47222 5.16667) rotate(59.7436) scale(14.6642 11.9669)">
<stop offset="0.177083" stop-color="white"/>
<stop offset="1" stop-color="#B8B8B8"/>
</radialGradient>
<linearGradient id="paint5_linear_41743_63202" x1="6.52083" y1="1" x2="8.96979" y2="17.0713" gradientUnits="userSpaceOnUse">
<stop stop-color="#BBBBBB"/>
<stop offset="1" stop-color="#888888"/>
</linearGradient>
<linearGradient id="paint6_linear_41743_63202" x1="4" y1="4" x2="14" y2="14" gradientUnits="userSpaceOnUse">
<stop stop-color="#C28400"/>
<stop offset="1" stop-color="#A86500"/>
</linearGradient>
<linearGradient id="paint7_linear_41743_63202" x1="4" y1="4" x2="14" y2="14" gradientUnits="userSpaceOnUse">
<stop stop-color="#C28400"/>
<stop offset="1" stop-color="#A86500"/>
</linearGradient>
<linearGradient id="paint8_linear_41743_63202" x1="4" y1="4" x2="14" y2="14" gradientUnits="userSpaceOnUse">
<stop stop-color="#C28400"/>
<stop offset="1" stop-color="#A86500"/>
</linearGradient>
<linearGradient id="paint9_linear_41743_63202" x1="4" y1="4" x2="14" y2="14" gradientUnits="userSpaceOnUse">
<stop stop-color="#C28400"/>
<stop offset="1" stop-color="#A86500"/>
</linearGradient>
<linearGradient id="paint10_linear_41743_63202" x1="4" y1="4" x2="14" y2="14" gradientUnits="userSpaceOnUse">
<stop stop-color="#C28400"/>
<stop offset="1" stop-color="#A86500"/>
</linearGradient>
</defs>
</svg>
