<svg width="24" height="24" viewBox="0 0 24 24" fill="none" xmlns="http://www.w3.org/2000/svg">
<path d="M7 3.5H19C20.3807 3.5 21.5 4.61929 21.5 6V17.5C21.5 20.2614 19.2614 22.5 16.5 22.5H7C5.61929 22.5 4.5 21.3807 4.5 20V6C4.5 4.61929 5.61929 3.5 7 3.5Z" fill="url(#paint0_linear_41743_63208)"/>
<path d="M7 3.5H19C20.3807 3.5 21.5 4.61929 21.5 6V17.5C21.5 20.2614 19.2614 22.5 16.5 22.5H7C5.61929 22.5 4.5 21.3807 4.5 20V6C4.5 4.61929 5.61929 3.5 7 3.5Z" fill="url(#paint1_radial_41743_63208)" fill-opacity="0.2"/>
<path d="M7 3.5H19C20.3807 3.5 21.5 4.61929 21.5 6V17.5C21.5 20.2614 19.2614 22.5 16.5 22.5H7C5.61929 22.5 4.5 21.3807 4.5 20V6C4.5 4.61929 5.61929 3.5 7 3.5Z" stroke="url(#paint2_linear_41743_63208)"/>
<path d="M5 1.5H17C18.3807 1.5 19.5 2.61929 19.5 4V18C19.5 19.3807 18.3807 20.5 17 20.5H5C3.61929 20.5 2.5 19.3807 2.5 18V4C2.5 2.61929 3.61929 1.5 5 1.5Z" fill="url(#paint3_linear_41743_63208)"/>
<path d="M5 1.5H17C18.3807 1.5 19.5 2.61929 19.5 4V18C19.5 19.3807 18.3807 20.5 17 20.5H5C3.61929 20.5 2.5 19.3807 2.5 18V4C2.5 2.61929 3.61929 1.5 5 1.5Z" fill="url(#paint4_radial_41743_63208)" fill-opacity="0.2"/>
<path d="M5 1.5H17C18.3807 1.5 19.5 2.61929 19.5 4V18C19.5 19.3807 18.3807 20.5 17 20.5H5C3.61929 20.5 2.5 19.3807 2.5 18V4C2.5 2.61929 3.61929 1.5 5 1.5Z" stroke="url(#paint5_linear_41743_63208)"/>
<path d="M6 5C5.44772 5 5 5.44772 5 6V9C5 9.55228 5.44772 10 6 10H9C9.55228 10 10 9.55228 10 9V6C10 5.44772 9.55228 5 9 5H6Z" fill="url(#paint6_linear_41743_63208)"/>
<path d="M12 6.5C12 6.22386 12.2239 6 12.5 6H16.5C16.7761 6 17 6.22386 17 6.5C17 6.77614 16.7761 7 16.5 7H12.5C12.2239 7 12 6.77614 12 6.5Z" fill="url(#paint7_linear_41743_63208)"/>
<path d="M12 9.5C12 9.22386 12.2239 9 12.5 9H16.5C16.7761 9 17 9.22386 17 9.5C17 9.77614 16.7761 10 16.5 10H12.5C12.2239 10 12 9.77614 12 9.5Z" fill="url(#paint8_linear_41743_63208)"/>
<path d="M5.5 12C5.22386 12 5 12.2239 5 12.5C5 12.7761 5.22386 13 5.5 13H16.5C16.7761 13 17 12.7761 17 12.5C17 12.2239 16.7761 12 16.5 12H5.5Z" fill="url(#paint9_linear_41743_63208)"/>
<path d="M5 15.5C5 15.2239 5.22386 15 5.5 15H16.5C16.7761 15 17 15.2239 17 15.5C17 15.7761 16.7761 16 16.5 16H5.5C5.22386 16 5 15.7761 5 15.5Z" fill="url(#paint10_linear_41743_63208)"/>
<defs>
<linearGradient id="paint0_linear_41743_63208" x1="9" y1="3" x2="11.8009" y2="23.1665" gradientUnits="userSpaceOnUse">
<stop stop-color="white"/>
<stop offset="1" stop-color="#EBEBEB"/>
</linearGradient>
<radialGradient id="paint1_radial_41743_63208" cx="0" cy="0" r="1" gradientUnits="userSpaceOnUse" gradientTransform="translate(9.75 8.20833) rotate(59.0362) scale(18.4647 15.2741)">
<stop offset="0.177083" stop-color="white"/>
<stop offset="1" stop-color="#B8B8B8"/>
</radialGradient>
<linearGradient id="paint2_linear_41743_63208" x1="9.8125" y1="3" x2="12.7924" y2="23.1141" gradientUnits="userSpaceOnUse">
<stop stop-color="#BBBBBB"/>
<stop offset="1" stop-color="#888888"/>
</linearGradient>
<linearGradient id="paint3_linear_41743_63208" x1="7" y1="1" x2="9.80091" y2="21.1665" gradientUnits="userSpaceOnUse">
<stop stop-color="white"/>
<stop offset="1" stop-color="#EBEBEB"/>
</linearGradient>
<radialGradient id="paint4_radial_41743_63208" cx="0" cy="0" r="1" gradientUnits="userSpaceOnUse" gradientTransform="translate(7.75 6.20833) rotate(59.0362) scale(18.4647 15.2741)">
<stop offset="0.177083" stop-color="white"/>
<stop offset="1" stop-color="#B8B8B8"/>
</radialGradient>
<linearGradient id="paint5_linear_41743_63208" x1="7.8125" y1="1" x2="10.7924" y2="21.1141" gradientUnits="userSpaceOnUse">
<stop stop-color="#BBBBBB"/>
<stop offset="1" stop-color="#888888"/>
</linearGradient>
<linearGradient id="paint6_linear_41743_63208" x1="5" y1="5" x2="15.9585" y2="16.9547" gradientUnits="userSpaceOnUse">
<stop stop-color="#C28400"/>
<stop offset="1" stop-color="#A86500"/>
</linearGradient>
<linearGradient id="paint7_linear_41743_63208" x1="5" y1="5" x2="15.9585" y2="16.9547" gradientUnits="userSpaceOnUse">
<stop stop-color="#C28400"/>
<stop offset="1" stop-color="#A86500"/>
</linearGradient>
<linearGradient id="paint8_linear_41743_63208" x1="5" y1="5" x2="15.9585" y2="16.9547" gradientUnits="userSpaceOnUse">
<stop stop-color="#C28400"/>
<stop offset="1" stop-color="#A86500"/>
</linearGradient>
<linearGradient id="paint9_linear_41743_63208" x1="5" y1="5" x2="15.9585" y2="16.9547" gradientUnits="userSpaceOnUse">
<stop stop-color="#C28400"/>
<stop offset="1" stop-color="#A86500"/>
</linearGradient>
<linearGradient id="paint10_linear_41743_63208" x1="5" y1="5" x2="15.9585" y2="16.9547" gradientUnits="userSpaceOnUse">
<stop stop-color="#C28400"/>
<stop offset="1" stop-color="#A86500"/>
</linearGradient>
</defs>
</svg>
