<svg width="40" height="40" viewBox="0 0 40 40" fill="none" xmlns="http://www.w3.org/2000/svg">
<path d="M8 9C8 6.79086 9.79086 5 12 5H31C33.2091 5 35 6.79086 35 9V31C35 34.866 31.866 38 28 38H12C9.79086 38 8 36.2091 8 34V9Z" fill="url(#paint0_linear_41743_63230)"/>
<path d="M8 9C8 6.79086 9.79086 5 12 5H31C33.2091 5 35 6.79086 35 9V31C35 34.866 31.866 38 28 38H12C9.79086 38 8 36.2091 8 34V9Z" fill="url(#paint1_radial_41743_63230)" fill-opacity="0.2"/>
<path fill-rule="evenodd" clip-rule="evenodd" d="M31 6H12C10.3431 6 9 7.34315 9 9V34C9 35.6569 10.3431 37 12 37H28C31.3137 37 34 34.3137 34 31V9C34 7.34315 32.6569 6 31 6ZM12 5C9.79086 5 8 6.79086 8 9V34C8 36.2091 9.79086 38 12 38H28C31.866 38 35 34.866 35 31V9C35 6.79086 33.2091 5 31 5H12Z" fill="url(#paint2_linear_41743_63230)"/>
<path d="M5 6C5 3.79086 6.79086 2 9 2H28C30.2091 2 32 3.79086 32 6V31C32 33.2091 30.2091 35 28 35H9C6.79086 35 5 33.2091 5 31V6Z" fill="url(#paint3_linear_41743_63230)"/>
<path d="M5 6C5 3.79086 6.79086 2 9 2H28C30.2091 2 32 3.79086 32 6V31C32 33.2091 30.2091 35 28 35H9C6.79086 35 5 33.2091 5 31V6Z" fill="url(#paint4_radial_41743_63230)" fill-opacity="0.2"/>
<path fill-rule="evenodd" clip-rule="evenodd" d="M28 3H9C7.34315 3 6 4.34315 6 6V31C6 32.6569 7.34315 34 9 34H28C29.6569 34 31 32.6569 31 31V6C31 4.34315 29.6569 3 28 3ZM9 2C6.79086 2 5 3.79086 5 6V31C5 33.2091 6.79086 35 9 35H28C30.2091 35 32 33.2091 32 31V6C32 3.79086 30.2091 2 28 2H9Z" fill="url(#paint5_linear_41743_63230)"/>
<path d="M11.5 9C10.6716 9 10 9.67157 10 10.5V14.5C10 15.3284 10.6716 16 11.5 16H15.5C16.3284 16 17 15.3284 17 14.5V10.5C17 9.67157 16.3284 9 15.5 9H11.5Z" fill="url(#paint6_linear_41743_63230)"/>
<path d="M19.5 11C19.2239 11 19 11.2239 19 11.5C19 11.7761 19.2239 12 19.5 12H26.5C26.7761 12 27 11.7761 27 11.5C27 11.2239 26.7761 11 26.5 11H19.5Z" fill="url(#paint7_linear_41743_63230)"/>
<path d="M19.5 15C19.2239 15 19 15.2239 19 15.5C19 15.7761 19.2239 16 19.5 16H26.5C26.7761 16 27 15.7761 27 15.5C27 15.2239 26.7761 15 26.5 15H19.5Z" fill="url(#paint8_linear_41743_63230)"/>
<path d="M10 19.5C10 19.2239 10.2239 19 10.5 19H26.5C26.7761 19 27 19.2239 27 19.5C27 19.7761 26.7761 20 26.5 20H10.5C10.2239 20 10 19.7761 10 19.5Z" fill="url(#paint9_linear_41743_63230)"/>
<path d="M10.5 23C10.2239 23 10 23.2239 10 23.5C10 23.7761 10.2239 24 10.5 24H26.5C26.7761 24 27 23.7761 27 23.5C27 23.2239 26.7761 23 26.5 23H10.5Z" fill="url(#paint10_linear_41743_63230)"/>
<path d="M10 27.5C10 27.2239 10.2239 27 10.5 27H26.5C26.7761 27 27 27.2239 27 27.5C27 27.7761 26.7761 28 26.5 28H10.5C10.2239 28 10 27.7761 10 27.5Z" fill="url(#paint11_linear_41743_63230)"/>
<defs>
<linearGradient id="paint0_linear_41743_63230" x1="15.5" y1="5" x2="20.5635" y2="38.1431" gradientUnits="userSpaceOnUse">
<stop stop-color="white"/>
<stop offset="1" stop-color="#EBEBEB"/>
</linearGradient>
<radialGradient id="paint1_radial_41743_63230" cx="0" cy="0" r="1" gradientUnits="userSpaceOnUse" gradientTransform="translate(16.625 13.5937) rotate(61.3895) scale(29.7587 23.4563)">
<stop offset="0.177083" stop-color="white"/>
<stop offset="1" stop-color="#B8B8B8"/>
</radialGradient>
<linearGradient id="paint2_linear_41743_63230" x1="16.7188" y1="5" x2="22.1029" y2="38.0392" gradientUnits="userSpaceOnUse">
<stop stop-color="#BBBBBB"/>
<stop offset="1" stop-color="#888888"/>
</linearGradient>
<linearGradient id="paint3_linear_41743_63230" x1="12.5" y1="2" x2="17.5635" y2="35.1431" gradientUnits="userSpaceOnUse">
<stop stop-color="white"/>
<stop offset="1" stop-color="#EBEBEB"/>
</linearGradient>
<radialGradient id="paint4_radial_41743_63230" cx="0" cy="0" r="1" gradientUnits="userSpaceOnUse" gradientTransform="translate(13.625 10.5937) rotate(61.3895) scale(29.7587 23.4563)">
<stop offset="0.177083" stop-color="white"/>
<stop offset="1" stop-color="#B8B8B8"/>
</radialGradient>
<linearGradient id="paint5_linear_41743_63230" x1="13.7188" y1="2" x2="19.1029" y2="35.0392" gradientUnits="userSpaceOnUse">
<stop stop-color="#BBBBBB"/>
<stop offset="1" stop-color="#888888"/>
</linearGradient>
<linearGradient id="paint6_linear_41743_63230" x1="10" y1="9" x2="28.8831" y2="25.8954" gradientUnits="userSpaceOnUse">
<stop stop-color="#C28400"/>
<stop offset="1" stop-color="#A86500"/>
</linearGradient>
<linearGradient id="paint7_linear_41743_63230" x1="10" y1="9" x2="28.8831" y2="25.8954" gradientUnits="userSpaceOnUse">
<stop stop-color="#C28400"/>
<stop offset="1" stop-color="#A86500"/>
</linearGradient>
<linearGradient id="paint8_linear_41743_63230" x1="10" y1="9" x2="28.8831" y2="25.8954" gradientUnits="userSpaceOnUse">
<stop stop-color="#C28400"/>
<stop offset="1" stop-color="#A86500"/>
</linearGradient>
<linearGradient id="paint9_linear_41743_63230" x1="10" y1="9" x2="28.8831" y2="25.8954" gradientUnits="userSpaceOnUse">
<stop stop-color="#C28400"/>
<stop offset="1" stop-color="#A86500"/>
</linearGradient>
<linearGradient id="paint10_linear_41743_63230" x1="10" y1="9" x2="28.8831" y2="25.8954" gradientUnits="userSpaceOnUse">
<stop stop-color="#C28400"/>
<stop offset="1" stop-color="#A86500"/>
</linearGradient>
<linearGradient id="paint11_linear_41743_63230" x1="10" y1="9" x2="28.8831" y2="25.8954" gradientUnits="userSpaceOnUse">
<stop stop-color="#C28400"/>
<stop offset="1" stop-color="#A86500"/>
</linearGradient>
</defs>
</svg>
