<svg width="64" height="64" viewBox="0 0 64 64" fill="none" xmlns="http://www.w3.org/2000/svg">
<path d="M6 13C6 9.13401 9.13401 6 13 6H51C54.866 6 58 9.13401 58 13V51C58 54.866 54.866 58 51 58H13C9.13401 58 6 54.866 6 51V13Z" fill="url(#paint0_linear_41743_63194)"/>
<path d="M6 13C6 9.13401 9.13401 6 13 6H51C54.866 6 58 9.13401 58 13V51C58 54.866 54.866 58 51 58H13C9.13401 58 6 54.866 6 51V13Z" fill="url(#paint1_radial_41743_63194)" fill-opacity="0.2"/>
<path fill-rule="evenodd" clip-rule="evenodd" d="M51 7H13C9.68629 7 7 9.68629 7 13V51C7 54.3137 9.68629 57 13 57H51C54.3137 57 57 54.3137 57 51V13C57 9.68629 54.3137 7 51 7ZM13 6C9.13401 6 6 9.13401 6 13V51C6 54.866 9.13401 58 13 58H51C54.866 58 58 54.866 58 51V13C58 9.13401 54.866 6 51 6H13Z" fill="url(#paint2_linear_41743_63194)"/>
<path fill-rule="evenodd" clip-rule="evenodd" d="M22 41.5V39H42V41.5C42 42.3284 42.6716 43 43.5 43C44.3284 43 45 42.3284 45 41.5V22.5C45 21.6716 44.3284 21 43.5 21C42.6716 21 42 21.6716 42 22.5V25H22V22.5C22 21.6716 21.3284 21 20.5 21C19.6716 21 19 21.6716 19 22.5V41.5C19 42.3284 19.6716 43 20.5 43C21.3284 43 22 42.3284 22 41.5ZM21 41.5V22.5C21 22.2239 20.7761 22 20.5 22C20.2239 22 20 22.2239 20 22.5V41.5C20 41.7761 20.2239 42 20.5 42C20.7761 42 21 41.7761 21 41.5ZM44 22.5V41.5C44 41.7761 43.7761 42 43.5 42C43.2239 42 43 41.7761 43 41.5V22.5C43 22.2239 43.2239 22 43.5 22C43.7761 22 44 22.2239 44 22.5Z" fill="url(#paint3_linear_41743_63194)"/>
<defs>
<linearGradient id="paint0_linear_41743_63194" x1="20.4444" y1="6" x2="27.0222" y2="58.6222" gradientUnits="userSpaceOnUse">
<stop stop-color="white"/>
<stop offset="1" stop-color="#EBEBEB"/>
</linearGradient>
<radialGradient id="paint1_radial_41743_63194" cx="0" cy="0" r="1" gradientUnits="userSpaceOnUse" gradientTransform="translate(22.6111 19.5417) rotate(56.3099) scale(49.4762 42.8159)">
<stop offset="0.177083" stop-color="white"/>
<stop offset="1" stop-color="#B8B8B8"/>
</radialGradient>
<linearGradient id="paint2_linear_41743_63194" x1="22.7917" y1="6" x2="29.7931" y2="58.5109" gradientUnits="userSpaceOnUse">
<stop stop-color="#BBBBBB"/>
<stop offset="1" stop-color="#888888"/>
</linearGradient>
<linearGradient id="paint3_linear_41743_63194" x1="19" y1="21" x2="40.6966" y2="46.6414" gradientUnits="userSpaceOnUse">
<stop stop-color="#4BA446"/>
<stop offset="1" stop-color="#3F7D35"/>
</linearGradient>
</defs>
</svg>
