<svg width="24" height="24" viewBox="0 0 24 24" fill="none" xmlns="http://www.w3.org/2000/svg">
<path d="M2 5C2 3.34315 3.34315 2 5 2H19C20.6569 2 22 3.34315 22 5V19C22 20.6569 20.6569 22 19 22H5C3.34315 22 2 20.6569 2 19V5Z" fill="url(#paint0_linear_41743_63178)"/>
<path d="M2 5C2 3.34315 3.34315 2 5 2H19C20.6569 2 22 3.34315 22 5V19C22 20.6569 20.6569 22 19 22H5C3.34315 22 2 20.6569 2 19V5Z" fill="url(#paint1_radial_41743_63178)" fill-opacity="0.2"/>
<path fill-rule="evenodd" clip-rule="evenodd" d="M19 3H5C3.89543 3 3 3.89543 3 5V19C3 20.1046 3.89543 21 5 21H19C20.1046 21 21 20.1046 21 19V5C21 3.89543 20.1046 3 19 3ZM5 2C3.34315 2 2 3.34315 2 5V19C2 20.6569 3.34315 22 5 22H19C20.6569 22 22 20.6569 22 19V5C22 3.34315 20.6569 2 19 2H5Z" fill="url(#paint2_linear_41743_63178)"/>
<path fill-rule="evenodd" clip-rule="evenodd" d="M7.5 6.75C6.67157 6.75 6 7.42157 6 8.25V16.25C6 17.0784 6.67157 17.75 7.5 17.75C8.32843 17.75 9 17.0784 9 16.25V15H15V16.25C15 17.0784 15.6716 17.75 16.5 17.75C17.3284 17.75 18 17.0784 18 16.25V8.25C18 7.42157 17.3284 6.75 16.5 6.75C15.6716 6.75 15 7.42157 15 8.25V9H9V8.25C9 7.42157 8.32843 6.75 7.5 6.75ZM8 16.25V8.25C8 7.97386 7.77614 7.75 7.5 7.75C7.22386 7.75 7 7.97386 7 8.25V16.25C7 16.5261 7.22386 16.75 7.5 16.75C7.77614 16.75 8 16.5261 8 16.25ZM17 8.25V16.25C17 16.5261 16.7761 16.75 16.5 16.75C16.2239 16.75 16 16.5261 16 16.25V8.25C16 7.97386 16.2239 7.75 16.5 7.75C16.7761 7.75 17 7.97386 17 8.25Z" fill="url(#paint3_linear_41743_63178)"/>
<defs>
<linearGradient id="paint0_linear_41743_63178" x1="7.55556" y1="2" x2="10.0855" y2="22.2393" gradientUnits="userSpaceOnUse">
<stop stop-color="white"/>
<stop offset="1" stop-color="#EBEBEB"/>
</linearGradient>
<radialGradient id="paint1_radial_41743_63178" cx="0" cy="0" r="1" gradientUnits="userSpaceOnUse" gradientTransform="translate(8.38889 7.20833) rotate(56.3099) scale(19.0293 16.4677)">
<stop offset="0.177083" stop-color="white"/>
<stop offset="1" stop-color="#B8B8B8"/>
</radialGradient>
<linearGradient id="paint2_linear_41743_63178" x1="8.45833" y1="2" x2="11.1512" y2="22.1965" gradientUnits="userSpaceOnUse">
<stop stop-color="#BBBBBB"/>
<stop offset="1" stop-color="#888888"/>
</linearGradient>
<linearGradient id="paint3_linear_41743_63178" x1="6" y1="6.75" x2="16.9585" y2="18.7047" gradientUnits="userSpaceOnUse">
<stop stop-color="#4BA446"/>
<stop offset="1" stop-color="#3F7D35"/>
</linearGradient>
</defs>
</svg>
