<svg width="48" height="48" viewBox="0 0 48 48" fill="none" xmlns="http://www.w3.org/2000/svg">
<path d="M5 10C5 7.23858 7.23858 5 10 5H38C40.7614 5 43 7.23858 43 10V38C43 40.7614 40.7614 43 38 43H10C7.23858 43 5 40.7614 5 38V10Z" fill="url(#paint0_linear_41743_63155)"/>
<path d="M5 10C5 7.23858 7.23858 5 10 5H38C40.7614 5 43 7.23858 43 10V38C43 40.7614 40.7614 43 38 43H10C7.23858 43 5 40.7614 5 38V10Z" fill="url(#paint1_radial_41743_63155)" fill-opacity="0.2"/>
<path fill-rule="evenodd" clip-rule="evenodd" d="M38 6H10C7.79086 6 6 7.79086 6 10V38C6 40.2091 7.79086 42 10 42H38C40.2091 42 42 40.2091 42 38V10C42 7.79086 40.2091 6 38 6ZM10 5C7.23858 5 5 7.23858 5 10V38C5 40.7614 7.23858 43 10 43H38C40.7614 43 43 40.7614 43 38V10C43 7.23858 40.7614 5 38 5H10Z" fill="url(#paint2_linear_41743_63155)"/>
<circle cx="24" cy="24" r="12" fill="url(#paint3_linear_41743_63155)"/>
<path d="M27.6988 16.585C27.5485 16.9709 27.1137 17.1619 26.7277 17.0115C24.0376 15.9633 20.867 16.5266 18.6967 18.6968C15.7678 21.6257 15.7678 26.3745 18.6967 29.3034C18.9896 29.5963 18.9896 30.0712 18.6967 30.3641C18.4038 30.657 17.9289 30.657 17.6361 30.3641C14.1213 26.8494 14.1213 21.1509 17.6361 17.6361C20.2422 15.03 24.0477 14.3574 27.2723 15.6138C27.6583 15.7642 27.8492 16.199 27.6988 16.585ZM30.1278 17.7288C29.8551 17.4959 29.4557 17.4887 29.1747 17.7116L28.9101 17.9218C28.7416 18.0559 28.5003 18.248 28.2092 18.4805C27.6269 18.9455 26.8447 19.5723 26.0453 20.2191C25.2464 20.8654 24.4281 21.5336 23.7745 22.0808C23.4481 22.3541 23.1596 22.5999 22.9339 22.7989C22.7241 22.984 22.5275 23.1641 22.4195 23.2906C21.6125 24.2356 21.7244 25.6558 22.6694 26.4628C23.6143 27.2697 25.0346 27.1578 25.8415 26.2129C25.9495 26.0864 26.0966 25.864 26.2466 25.6278C26.4078 25.3738 26.6054 25.0503 26.8242 24.6851C27.2623 23.9539 27.7942 23.0411 28.3074 22.1509C28.8211 21.2601 29.3177 20.3893 29.6858 19.7415C29.8698 19.4175 30.0218 19.1491 30.1279 18.9617L30.2941 18.6675C30.4702 18.3551 30.4005 17.9617 30.1278 17.7288Z" fill="#F5BCD8"/>
<path fill-rule="evenodd" clip-rule="evenodd" d="M33.156 43.6644C32.5702 44.2502 32.5702 45.1999 33.156 45.7857C33.7418 46.3715 34.6915 46.3715 35.2773 45.7857L35.9007 45.1622C35.9204 45.5179 36.0661 45.8679 36.3378 46.1395C36.9236 46.7253 37.8733 46.7253 38.4591 46.1395L40.5804 44.0182C40.8066 43.792 40.9455 43.5115 40.997 43.2187L42.4531 44.6384C43.4034 45.5649 45.0003 44.8916 45.0003 43.5644L45.0003 35.5C45.0003 34.6716 44.3287 34 43.5002 34L35.2292 34.0002C33.8837 34.0002 33.2187 35.6348 34.1821 36.5742L35.6123 37.9686C35.3601 38.033 35.1213 38.1639 34.9239 38.3613L32.8026 40.4826C32.2168 41.0684 32.2168 42.0181 32.8026 42.6039C33.0742 42.8755 33.424 43.0211 33.7794 43.0409L33.156 43.6644Z" fill="#F5F5F5"/>
<path d="M44 35.5C44 35.2238 43.7761 35 43.4999 35L35.2289 35.0001C34.7804 35.0001 34.5587 35.545 34.8798 35.8581L43.1509 43.9223C43.4677 44.2312 44 44.0067 44 43.5643L44 35.5Z" fill="url(#paint4_linear_41743_63155)"/>
<path d="M38.1054 41.543C38.3007 41.3477 38.3007 41.0312 38.1054 40.8359C37.9102 40.6406 37.5936 40.6406 37.3983 40.8359L33.8628 44.3714C33.6675 44.5667 33.6675 44.8833 33.8628 45.0785C34.058 45.2738 34.3746 45.2738 34.5699 45.0785L38.1054 41.543Z" fill="url(#paint5_linear_41743_63155)"/>
<path d="M33.5094 41.1896L35.6307 39.0683C35.826 38.8731 36.1426 38.8731 36.3378 39.0683C36.5331 39.2636 36.5331 39.5802 36.3378 39.7754L34.2165 41.8967C34.0213 42.092 33.7047 42.092 33.5094 41.8967C33.3142 41.7015 33.3142 41.3849 33.5094 41.1896Z" fill="url(#paint6_linear_41743_63155)"/>
<path d="M39.1659 42.604L37.0446 44.7253C36.8493 44.9205 36.8493 45.2371 37.0446 45.4324C37.2398 45.6277 37.5564 45.6277 37.7517 45.4324L39.873 43.3111C40.0683 43.1158 40.0683 42.7992 39.873 42.604C39.6777 42.4087 39.3612 42.4087 39.1659 42.604Z" fill="url(#paint7_linear_41743_63155)"/>
<defs>
<linearGradient id="paint0_linear_41743_63155" x1="15.5556" y1="5" x2="20.3624" y2="43.4547" gradientUnits="userSpaceOnUse">
<stop stop-color="white"/>
<stop offset="1" stop-color="#EBEBEB"/>
</linearGradient>
<radialGradient id="paint1_radial_41743_63155" cx="0" cy="0" r="1" gradientUnits="userSpaceOnUse" gradientTransform="translate(17.1389 14.8958) rotate(56.3099) scale(36.1557 31.2886)">
<stop offset="0.177083" stop-color="white"/>
<stop offset="1" stop-color="#B8B8B8"/>
</radialGradient>
<linearGradient id="paint2_linear_41743_63155" x1="17.2708" y1="5" x2="22.3873" y2="43.3734" gradientUnits="userSpaceOnUse">
<stop stop-color="#BBBBBB"/>
<stop offset="1" stop-color="#888888"/>
</linearGradient>
<linearGradient id="paint3_linear_41743_63155" x1="12" y1="12" x2="36" y2="36" gradientUnits="userSpaceOnUse">
<stop stop-color="#E03F8F"/>
<stop offset="1" stop-color="#BD1E7B"/>
</linearGradient>
<linearGradient id="paint4_linear_41743_63155" x1="33.363" y1="35" x2="43.9417" y2="45.6368" gradientUnits="userSpaceOnUse">
<stop stop-color="#E03F8F"/>
<stop offset="1" stop-color="#BD1E7B"/>
</linearGradient>
<linearGradient id="paint5_linear_41743_63155" x1="33.363" y1="35" x2="43.9417" y2="45.6368" gradientUnits="userSpaceOnUse">
<stop stop-color="#E03F8F"/>
<stop offset="1" stop-color="#BD1E7B"/>
</linearGradient>
<linearGradient id="paint6_linear_41743_63155" x1="33.363" y1="35" x2="43.9417" y2="45.6368" gradientUnits="userSpaceOnUse">
<stop stop-color="#E03F8F"/>
<stop offset="1" stop-color="#BD1E7B"/>
</linearGradient>
<linearGradient id="paint7_linear_41743_63155" x1="33.363" y1="35" x2="43.9417" y2="45.6368" gradientUnits="userSpaceOnUse">
<stop stop-color="#E03F8F"/>
<stop offset="1" stop-color="#BD1E7B"/>
</linearGradient>
</defs>
</svg>
