<svg width="40" height="40" viewBox="0 0 40 40" fill="none" xmlns="http://www.w3.org/2000/svg">
<path d="M4 8C4 5.79086 5.79086 4 8 4H32C34.2091 4 36 5.79086 36 8V32C36 34.2091 34.2091 36 32 36H8C5.79086 36 4 34.2091 4 32V8Z" fill="url(#paint0_linear_41743_63128)"/>
<path d="M4 8C4 5.79086 5.79086 4 8 4H32C34.2091 4 36 5.79086 36 8V32C36 34.2091 34.2091 36 32 36H8C5.79086 36 4 34.2091 4 32V8Z" fill="url(#paint1_radial_41743_63128)" fill-opacity="0.2"/>
<path fill-rule="evenodd" clip-rule="evenodd" d="M32 5H8C6.34315 5 5 6.34315 5 8V32C5 33.6569 6.34315 35 8 35H32C33.6569 35 35 33.6569 35 32V8C35 6.34315 33.6569 5 32 5ZM8 4C5.79086 4 4 5.79086 4 8V32C4 34.2091 5.79086 36 8 36H32C34.2091 36 36 34.2091 36 32V8C36 5.79086 34.2091 4 32 4H8Z" fill="url(#paint2_linear_41743_63128)"/>
<path d="M14.2188 11C14.633 11 14.9688 11.3358 14.9688 11.75L14.9688 28.25C14.9688 28.6642 14.633 29 14.2188 29C13.8045 29 13.4688 28.6642 13.4688 28.25V11.75C13.4688 11.3358 13.8045 11 14.2188 11Z" fill="url(#paint3_linear_41743_63128)"/>
<path d="M19.25 28.25V16.75C19.25 16.3358 19.5858 16 20 16C20.4142 16 20.75 16.3358 20.75 16.75V28.25C20.75 28.6642 20.4142 29 20 29C19.5858 29 19.25 28.6642 19.25 28.25Z" fill="url(#paint4_linear_41743_63128)"/>
<path d="M26.5312 22.75C26.5312 22.3358 26.1955 22 25.7812 22C25.367 22 25.0312 22.3358 25.0312 22.75L25.0312 28.25C25.0312 28.6642 25.367 29 25.7812 29C26.1955 29 26.5312 28.6642 26.5312 28.25L26.5312 22.75Z" fill="url(#paint5_linear_41743_63128)"/>
<defs>
<linearGradient id="paint0_linear_41743_63128" x1="12.8889" y1="4" x2="16.9368" y2="36.3829" gradientUnits="userSpaceOnUse">
<stop stop-color="white"/>
<stop offset="1" stop-color="#EBEBEB"/>
</linearGradient>
<radialGradient id="paint1_radial_41743_63128" cx="0" cy="0" r="1" gradientUnits="userSpaceOnUse" gradientTransform="translate(14.2222 12.3333) rotate(56.3099) scale(30.4469 26.3483)">
<stop offset="0.177083" stop-color="white"/>
<stop offset="1" stop-color="#B8B8B8"/>
</radialGradient>
<linearGradient id="paint2_linear_41743_63128" x1="14.3333" y1="4" x2="18.6419" y2="36.3144" gradientUnits="userSpaceOnUse">
<stop stop-color="#BBBBBB"/>
<stop offset="1" stop-color="#888888"/>
</linearGradient>
<linearGradient id="paint3_linear_41743_63128" x1="13.4687" y1="11" x2="30.5816" y2="23.4187" gradientUnits="userSpaceOnUse">
<stop stop-color="#C28400"/>
<stop offset="1" stop-color="#A86500"/>
</linearGradient>
<linearGradient id="paint4_linear_41743_63128" x1="13.4687" y1="11" x2="30.5816" y2="23.4187" gradientUnits="userSpaceOnUse">
<stop stop-color="#C28400"/>
<stop offset="1" stop-color="#A86500"/>
</linearGradient>
<linearGradient id="paint5_linear_41743_63128" x1="13.4687" y1="11" x2="30.5816" y2="23.4187" gradientUnits="userSpaceOnUse">
<stop stop-color="#C28400"/>
<stop offset="1" stop-color="#A86500"/>
</linearGradient>
</defs>
</svg>
