<svg width="48" height="48" viewBox="0 0 48 48" fill="none" xmlns="http://www.w3.org/2000/svg">
<path d="M5 10C5 7.23858 7.23858 5 10 5H38C40.7614 5 43 7.23858 43 10V38C43 40.7614 40.7614 43 38 43H10C7.23858 43 5 40.7614 5 38V10Z" fill="url(#paint0_linear_41743_63075)"/>
<path d="M5 10C5 7.23858 7.23858 5 10 5H38C40.7614 5 43 7.23858 43 10V38C43 40.7614 40.7614 43 38 43H10C7.23858 43 5 40.7614 5 38V10Z" fill="url(#paint1_radial_41743_63075)" fill-opacity="0.2"/>
<path fill-rule="evenodd" clip-rule="evenodd" d="M38 6H10C7.79086 6 6 7.79086 6 10V38C6 40.2091 7.79086 42 10 42H38C40.2091 42 42 40.2091 42 38V10C42 7.79086 40.2091 6 38 6ZM10 5C7.23858 5 5 7.23858 5 10V38C5 40.7614 7.23858 43 10 43H38C40.7614 43 43 40.7614 43 38V10C43 7.23858 40.7614 5 38 5H10Z" fill="url(#paint2_linear_41743_63075)"/>
<path d="M27.253 14C28.4113 14 29.3652 14.8752 29.4893 16.0004L30.7571 16C31.6753 16 32.4283 16.7071 32.5013 17.6065L32.5071 17.75V20.75C32.5071 22.483 31.1506 23.8992 29.4415 23.9949L29.2312 24.0007C28.5634 26.0909 26.7328 27.6615 24.5001 27.9517L24.4995 29.5H26.253C27.9861 29.5 29.4023 30.8565 29.4979 32.5656L29.503 32.75V33.25C29.503 33.6297 29.2209 33.9435 28.8548 33.9932L28.753 34H18.75C18.3703 34 18.0565 33.7178 18.0068 33.3518L18 33.25V32.75C18 31.017 19.3565 29.6008 21.0656 29.5051L21.25 29.5H22.9995L22.9999 27.9513C20.7686 27.6601 18.9393 26.09 18.2718 24.0007L18.2455 24C16.4506 24 14.9955 22.5449 14.9955 20.75V17.75C14.9955 16.7835 15.779 16 16.7455 16L18.0137 16.0004C18.1378 14.8752 19.0917 14 20.25 14H27.253ZM30.7571 17.5H29.503V22.4829C30.3031 22.3703 30.9295 21.7168 31.0004 20.9041L31.0071 20.75V17.75C31.0071 17.6317 30.9248 17.5325 30.8144 17.5066L30.7571 17.5ZM18 17.5H16.7455C16.6075 17.5 16.4955 17.6119 16.4955 17.75V20.75C16.4955 21.6332 17.1497 22.3635 18 22.4829V17.5Z" fill="url(#paint3_linear_41743_63075)"/>
<defs>
<linearGradient id="paint0_linear_41743_63075" x1="15.5556" y1="5" x2="20.3624" y2="43.4547" gradientUnits="userSpaceOnUse">
<stop stop-color="white"/>
<stop offset="1" stop-color="#EBEBEB"/>
</linearGradient>
<radialGradient id="paint1_radial_41743_63075" cx="0" cy="0" r="1" gradientUnits="userSpaceOnUse" gradientTransform="translate(17.1389 14.8958) rotate(56.3099) scale(36.1557 31.2886)">
<stop offset="0.177083" stop-color="white"/>
<stop offset="1" stop-color="#B8B8B8"/>
</radialGradient>
<linearGradient id="paint2_linear_41743_63075" x1="17.2708" y1="5" x2="22.3873" y2="43.3734" gradientUnits="userSpaceOnUse">
<stop stop-color="#BBBBBB"/>
<stop offset="1" stop-color="#888888"/>
</linearGradient>
<linearGradient id="paint3_linear_41743_63075" x1="14.9955" y1="14" x2="34.8203" y2="31.3581" gradientUnits="userSpaceOnUse">
<stop stop-color="#C28400"/>
<stop offset="1" stop-color="#A86500"/>
</linearGradient>
</defs>
</svg>
