<svg width="20" height="20" viewBox="0 0 20 20" fill="none" xmlns="http://www.w3.org/2000/svg">
<path d="M2 4.5C2 3.11929 3.11929 2 4.5 2H15.5C16.8807 2 18 3.11929 18 4.5V15.5C18 16.8807 16.8807 18 15.5 18H4.5C3.11929 18 2 16.8807 2 15.5V4.5Z" fill="url(#paint0_linear_41743_63092)"/>
<path d="M2 4.5C2 3.11929 3.11929 2 4.5 2H15.5C16.8807 2 18 3.11929 18 4.5V15.5C18 16.8807 16.8807 18 15.5 18H4.5C3.11929 18 2 16.8807 2 15.5V4.5Z" fill="url(#paint1_radial_41743_63092)" fill-opacity="0.2"/>
<path fill-rule="evenodd" clip-rule="evenodd" d="M15.5 3H4.5C3.67157 3 3 3.67157 3 4.5V15.5C3 16.3284 3.67157 17 4.5 17H15.5C16.3284 17 17 16.3284 17 15.5V4.5C17 3.67157 16.3284 3 15.5 3ZM4.5 2C3.11929 2 2 3.11929 2 4.5V15.5C2 16.8807 3.11929 18 4.5 18H15.5C16.8807 18 18 16.8807 18 15.5V4.5C18 3.11929 16.8807 2 15.5 2H4.5Z" fill="url(#paint2_linear_41743_63092)"/>
<path fill-rule="evenodd" clip-rule="evenodd" d="M8.05882 5C7.49379 5 7.03213 5.44259 7.00161 6H6.35714C5.60761 6 5 6.60761 5 7.35714C5 8.81675 6.18325 10 7.64286 10H7.76389C8.20789 10.4961 8.81453 10.8435 9.5 10.9585V12.5H8.6C7.71634 12.5 7 13.2163 7 14.1C7 14.3209 7.17909 14.5 7.4 14.5H12.6C12.8209 14.5 13 14.3209 13 14.1C13 13.2163 12.2837 12.5 11.4 12.5H10.5V10.9585C11.1855 10.8435 11.7921 10.4961 12.2361 10H12.3571C13.8168 10 15 8.81675 15 7.35714C15 6.60761 14.3924 6 13.6429 6H12.9984C12.9679 5.44259 12.5062 5 11.9412 5H8.05882ZM13 7V8C13 8.32208 12.9492 8.63231 12.8553 8.92312C13.5191 8.71215 14 8.09081 14 7.35714C14 7.1599 13.8401 7 13.6429 7H13ZM7.1447 8.92312C7.05076 8.63231 7 8.32208 7 8V7H6.35714C6.1599 7 6 7.1599 6 7.35714C6 8.09081 6.48092 8.71215 7.1447 8.92312Z" fill="url(#paint3_linear_41743_63092)"/>
<defs>
<linearGradient id="paint0_linear_41743_63092" x1="6.44444" y1="2" x2="8.46838" y2="18.1915" gradientUnits="userSpaceOnUse">
<stop stop-color="white"/>
<stop offset="1" stop-color="#EBEBEB"/>
</linearGradient>
<radialGradient id="paint1_radial_41743_63092" cx="0" cy="0" r="1" gradientUnits="userSpaceOnUse" gradientTransform="translate(7.11111 6.16667) rotate(56.3099) scale(15.2234 13.1741)">
<stop offset="0.177083" stop-color="white"/>
<stop offset="1" stop-color="#B8B8B8"/>
</radialGradient>
<linearGradient id="paint2_linear_41743_63092" x1="7.16667" y1="2" x2="9.32096" y2="18.1572" gradientUnits="userSpaceOnUse">
<stop stop-color="#BBBBBB"/>
<stop offset="1" stop-color="#888888"/>
</linearGradient>
<linearGradient id="paint3_linear_41743_63092" x1="5" y1="5" x2="14.4875" y2="14.9869" gradientUnits="userSpaceOnUse">
<stop stop-color="#C28400"/>
<stop offset="1" stop-color="#A86500"/>
</linearGradient>
</defs>
</svg>
