<svg width="40" height="40" viewBox="0 0 40 40" fill="none" xmlns="http://www.w3.org/2000/svg">
<path d="M4 8C4 5.79086 5.79086 4 8 4H32C34.2091 4 36 5.79086 36 8V32C36 34.2091 34.2091 36 32 36H8C5.79086 36 4 34.2091 4 32V8Z" fill="url(#paint0_linear_41743_63069)"/>
<path d="M4 8C4 5.79086 5.79086 4 8 4H32C34.2091 4 36 5.79086 36 8V32C36 34.2091 34.2091 36 32 36H8C5.79086 36 4 34.2091 4 32V8Z" fill="url(#paint1_radial_41743_63069)" fill-opacity="0.2"/>
<path fill-rule="evenodd" clip-rule="evenodd" d="M32 5H8C6.34315 5 5 6.34315 5 8V32C5 33.6569 6.34315 35 8 35H32C33.6569 35 35 33.6569 35 32V8C35 6.34315 33.6569 5 32 5ZM8 4C5.79086 4 4 5.79086 4 8V32C4 34.2091 5.79086 36 8 36H32C34.2091 36 36 34.2091 36 32V8C36 5.79086 34.2091 4 32 4H8Z" fill="url(#paint2_linear_41743_63069)"/>
<path d="M12 18.25C13.1046 18.25 14 17.3546 14 16.25C14 15.1454 13.1046 14.25 12 14.25C10.8954 14.25 10 15.1454 10 16.25C10 17.3546 10.8954 18.25 12 18.25Z" fill="url(#paint3_linear_41743_63069)"/>
<path d="M20 18.25C21.1046 18.25 22 17.3546 22 16.25C22 15.1454 21.1046 14.25 20 14.25C18.8954 14.25 18 15.1454 18 16.25C18 17.3546 18.8954 18.25 20 18.25Z" fill="url(#paint4_linear_41743_63069)"/>
<path d="M30 16.25C30 17.3546 29.1046 18.25 28 18.25C26.8954 18.25 26 17.3546 26 16.25C26 15.1454 26.8954 14.25 28 14.25C29.1046 14.25 30 15.1454 30 16.25Z" fill="url(#paint5_linear_41743_63069)"/>
<path d="M20 26.25C21.1046 26.25 22 25.3546 22 24.25C22 23.1454 21.1046 22.25 20 22.25C18.8954 22.25 18 23.1454 18 24.25C18 25.3546 18.8954 26.25 20 26.25Z" fill="url(#paint6_linear_41743_63069)"/>
<path d="M14 24.25C14 25.3546 13.1046 26.25 12 26.25C10.8954 26.25 10 25.3546 10 24.25C10 23.1454 10.8954 22.25 12 22.25C13.1046 22.25 14 23.1454 14 24.25Z" fill="url(#paint7_linear_41743_63069)"/>
<path d="M36.5 28C36.5 29.6569 35.1569 31 33.5 31C31.8431 31 30.5 29.6569 30.5 28C30.5 26.3431 31.8431 25 33.5 25C35.1569 25 36.5 26.3431 36.5 28Z" fill="url(#paint8_linear_41743_63069)"/>
<path d="M30.4697 32C29.1107 32 28 33.0911 28 34.4492V34.5625C28 35.5681 28.4219 36.573 29.3479 37.3158C30.2661 38.0523 31.6389 38.5 33.5 38.5C35.3615 38.5 36.7343 38.0504 37.6524 37.3131C38.5779 36.5698 39 35.5652 39 34.5625V34.4492C39 33.0911 37.8893 32 36.5303 32H30.4697Z" fill="url(#paint9_linear_41743_63069)"/>
<path fill-rule="evenodd" clip-rule="evenodd" d="M36.1458 31C36.9762 30.2671 37.5 29.1947 37.5 28C37.5 25.7909 35.7091 24 33.5 24C31.2909 24 29.5 25.7909 29.5 28C29.5 29.1947 30.0238 30.2671 30.8542 31H30.4697C28.5691 31 27 32.5282 27 34.4492V34.5625C27 35.8606 27.5512 37.1566 28.7222 38.0958C29.8698 39.0164 31.4883 39.5 33.5 39.5C35.513 39.5 37.1314 39.0141 38.2785 38.0928C39.4481 37.1536 40 35.8584 40 34.5625V34.4492C40 32.5282 38.4309 31 36.5303 31H36.1458ZM33.5 31C35.1569 31 36.5 29.6569 36.5 28C36.5 26.3431 35.1569 25 33.5 25C31.8431 25 30.5 26.3431 30.5 28C30.5 29.6569 31.8431 31 33.5 31ZM30.4697 32C29.1107 32 28 33.0911 28 34.4492V34.5625C28 35.5681 28.4219 36.573 29.3479 37.3158C30.2661 38.0523 31.6389 38.5 33.5 38.5C35.3615 38.5 36.7343 38.0504 37.6524 37.3131C38.5779 36.5698 39 35.5652 39 34.5625V34.4492C39 33.0911 37.8893 32 36.5303 32H30.4697Z" fill="#F5F5F5"/>
<defs>
<linearGradient id="paint0_linear_41743_63069" x1="12.8889" y1="4" x2="16.9368" y2="36.3829" gradientUnits="userSpaceOnUse">
<stop stop-color="white"/>
<stop offset="1" stop-color="#EBEBEB"/>
</linearGradient>
<radialGradient id="paint1_radial_41743_63069" cx="0" cy="0" r="1" gradientUnits="userSpaceOnUse" gradientTransform="translate(14.2222 12.3333) rotate(56.3099) scale(30.4469 26.3483)">
<stop offset="0.177083" stop-color="white"/>
<stop offset="1" stop-color="#B8B8B8"/>
</radialGradient>
<linearGradient id="paint2_linear_41743_63069" x1="14.3333" y1="4" x2="18.6419" y2="36.3144" gradientUnits="userSpaceOnUse">
<stop stop-color="#BBBBBB"/>
<stop offset="1" stop-color="#888888"/>
</linearGradient>
<linearGradient id="paint3_linear_41743_63069" x1="10" y1="14.25" x2="20.5882" y2="31.8971" gradientUnits="userSpaceOnUse">
<stop stop-color="#7751B8"/>
<stop offset="1" stop-color="#5A409C"/>
</linearGradient>
<linearGradient id="paint4_linear_41743_63069" x1="10" y1="14.25" x2="20.5882" y2="31.8971" gradientUnits="userSpaceOnUse">
<stop stop-color="#7751B8"/>
<stop offset="1" stop-color="#5A409C"/>
</linearGradient>
<linearGradient id="paint5_linear_41743_63069" x1="10" y1="14.25" x2="20.5882" y2="31.8971" gradientUnits="userSpaceOnUse">
<stop stop-color="#7751B8"/>
<stop offset="1" stop-color="#5A409C"/>
</linearGradient>
<linearGradient id="paint6_linear_41743_63069" x1="10" y1="14.25" x2="20.5882" y2="31.8971" gradientUnits="userSpaceOnUse">
<stop stop-color="#7751B8"/>
<stop offset="1" stop-color="#5A409C"/>
</linearGradient>
<linearGradient id="paint7_linear_41743_63069" x1="10" y1="14.25" x2="20.5882" y2="31.8971" gradientUnits="userSpaceOnUse">
<stop stop-color="#7751B8"/>
<stop offset="1" stop-color="#5A409C"/>
</linearGradient>
<linearGradient id="paint8_linear_41743_63069" x1="28" y1="25" x2="41.2218" y2="35.7733" gradientUnits="userSpaceOnUse">
<stop stop-color="#7751B8"/>
<stop offset="1" stop-color="#5A409C"/>
</linearGradient>
<linearGradient id="paint9_linear_41743_63069" x1="28" y1="25" x2="41.2218" y2="35.7733" gradientUnits="userSpaceOnUse">
<stop stop-color="#7751B8"/>
<stop offset="1" stop-color="#5A409C"/>
</linearGradient>
</defs>
</svg>
