<svg width="20" height="20" viewBox="0 0 20 20" fill="none" xmlns="http://www.w3.org/2000/svg">
<path d="M2 4.5C2 3.11929 3.11929 2 4.5 2H15.5C16.8807 2 18 3.11929 18 4.5V15.5C18 16.8807 16.8807 18 15.5 18H4.5C3.11929 18 2 16.8807 2 15.5V4.5Z" fill="url(#paint0_linear_41743_63691)"/>
<path d="M2 4.5C2 3.11929 3.11929 2 4.5 2H15.5C16.8807 2 18 3.11929 18 4.5V15.5C18 16.8807 16.8807 18 15.5 18H4.5C3.11929 18 2 16.8807 2 15.5V4.5Z" fill="url(#paint1_radial_41743_63691)" fill-opacity="0.2"/>
<path fill-rule="evenodd" clip-rule="evenodd" d="M15.5 3H4.5C3.67157 3 3 3.67157 3 4.5V15.5C3 16.3284 3.67157 17 4.5 17H15.5C16.3284 17 17 16.3284 17 15.5V4.5C17 3.67157 16.3284 3 15.5 3ZM4.5 2C3.11929 2 2 3.11929 2 4.5V15.5C2 16.8807 3.11929 18 4.5 18H15.5C16.8807 18 18 16.8807 18 15.5V4.5C18 3.11929 16.8807 2 15.5 2H4.5Z" fill="url(#paint2_linear_41743_63691)"/>
<path d="M6.52842 10.0001L5.29 9.2552C5.00734 9.08519 4.91556 8.71747 5.08501 8.43387C5.25446 8.15028 5.62097 8.0582 5.90363 8.22821L7.99581 9.48656C8.38235 9.71905 8.38235 10.2811 7.99581 10.5136L5.90363 11.7719C5.62097 11.9419 5.25446 11.8498 5.08501 11.5662C4.91556 11.2826 5.00734 10.9149 5.29 10.7449L6.52842 10.0001ZM13.4716 10.0001L14.71 10.7449C14.9927 10.9149 15.0844 11.2826 14.915 11.5662C14.7455 11.8498 14.379 11.9419 14.0964 11.7719L12.0042 10.5136C11.6176 10.2811 11.6176 9.71905 12.0042 9.48656L14.0964 8.22821C14.379 8.0582 14.7455 8.15028 14.915 8.43387C15.0844 8.71747 14.9927 9.08519 14.71 9.2552L13.4716 10.0001ZM11.7001 7.04381L12.9644 6.34374C13.2529 6.18395 13.6173 6.28833 13.7781 6.57687C13.939 6.86542 13.8355 7.22887 13.5469 7.38866L11.4111 8.57135C11.0165 8.78986 10.5298 8.50886 10.5217 8.05785L10.478 5.6168C10.4721 5.28701 10.7351 5.01564 11.0654 5.01069C11.3958 5.00574 11.6683 5.26908 11.6742 5.59888L11.7001 7.04381ZM8.29992 7.04381L8.32578 5.59888C8.33168 5.26908 8.60425 5.00574 8.93458 5.01069C9.2649 5.01564 9.5279 5.28701 9.522 5.6168L9.47832 8.05785C9.47025 8.50886 8.98353 8.78986 8.58892 8.57135L6.45306 7.38866C6.1645 7.22887 6.06099 6.86542 6.22186 6.57687C6.38274 6.28833 6.74708 6.18395 7.03565 6.34374L8.29992 7.04381ZM11.7001 12.9563L11.6742 14.4012C11.6683 14.731 11.3958 14.9944 11.0654 14.9894C10.7351 14.9845 10.4721 14.7131 10.478 14.3833L10.5217 11.9423C10.5298 11.4913 11.0165 11.2103 11.4111 11.4288L13.5469 12.6115C13.8355 12.7712 13.939 13.1347 13.7781 13.4232C13.6173 13.7118 13.2529 13.8162 12.9644 13.6564L11.7001 12.9563ZM8.29992 12.9563L7.03565 13.6564C6.74708 13.8162 6.38274 13.7118 6.22186 13.4232C6.06099 13.1347 6.1645 12.7712 6.45306 12.6115L8.58892 11.4288C8.98353 11.2103 9.47025 11.4913 9.47832 11.9423L9.522 14.3833C9.5279 14.7131 9.2649 14.9845 8.93458 14.9894C8.60425 14.9944 8.33168 14.731 8.32578 14.4012L8.29992 12.9563ZM8.85714 9.83034L9.86137 8.8572H10.3284L11.2857 9.83034V10.3126L10.3284 11.2858H9.86137L8.85714 10.3126V9.83034ZM9.67244 9.97047C9.61665 10.0263 9.61665 10.1167 9.67244 10.1725L9.97041 10.4705C10.0262 10.5263 10.1167 10.5263 10.1724 10.4705L10.4704 10.1725C10.5262 10.1167 10.5262 10.0263 10.4704 9.97047L10.1724 9.6725C10.1167 9.61671 10.0262 9.61671 9.97041 9.6725L9.67244 9.97047Z" fill="#21BEF2"/>
<path d="M19 16C19 17.6569 17.6569 19 16 19C14.3431 19 13 17.6569 13 16C13 14.3431 14.3431 13 16 13C17.6569 13 19 14.3431 19 16Z" fill="#B8B8B8"/>
<path fill-rule="evenodd" clip-rule="evenodd" d="M20 16C20 18.2091 18.2091 20 16 20C13.7909 20 12 18.2091 12 16C12 13.7909 13.7909 12 16 12C18.2091 12 20 13.7909 20 16ZM16 19C17.6569 19 19 17.6569 19 16C19 14.3431 17.6569 13 16 13C14.3431 13 13 14.3431 13 16C13 17.6569 14.3431 19 16 19Z" fill="#F5F5F5"/>
<defs>
<linearGradient id="paint0_linear_41743_63691" x1="6.44444" y1="2" x2="8.46838" y2="18.1915" gradientUnits="userSpaceOnUse">
<stop stop-color="white"/>
<stop offset="1" stop-color="#EBEBEB"/>
</linearGradient>
<radialGradient id="paint1_radial_41743_63691" cx="0" cy="0" r="1" gradientUnits="userSpaceOnUse" gradientTransform="translate(7.11111 6.16667) rotate(56.3099) scale(15.2234 13.1741)">
<stop offset="0.177083" stop-color="white"/>
<stop offset="1" stop-color="#B8B8B8"/>
</radialGradient>
<linearGradient id="paint2_linear_41743_63691" x1="7.16667" y1="2" x2="9.32096" y2="18.1572" gradientUnits="userSpaceOnUse">
<stop stop-color="#BBBBBB"/>
<stop offset="1" stop-color="#888888"/>
</linearGradient>
</defs>
</svg>
