<svg width="24" height="24" viewBox="0 0 24 24" fill="none" xmlns="http://www.w3.org/2000/svg">
<path d="M2 5C2 3.34315 3.34315 2 5 2H19C20.6569 2 22 3.34315 22 5V19C22 20.6569 20.6569 22 19 22H5C3.34315 22 2 20.6569 2 19V5Z" fill="url(#paint0_linear_41743_63023)"/>
<path d="M2 5C2 3.34315 3.34315 2 5 2H19C20.6569 2 22 3.34315 22 5V19C22 20.6569 20.6569 22 19 22H5C3.34315 22 2 20.6569 2 19V5Z" fill="url(#paint1_radial_41743_63023)" fill-opacity="0.2"/>
<path fill-rule="evenodd" clip-rule="evenodd" d="M19 3H5C3.89543 3 3 3.89543 3 5V19C3 20.1046 3.89543 21 5 21H19C20.1046 21 21 20.1046 21 19V5C21 3.89543 20.1046 3 19 3ZM5 2C3.34315 2 2 3.34315 2 5V19C2 20.6569 3.34315 22 5 22H19C20.6569 22 22 20.6569 22 19V5C22 3.34315 20.6569 2 19 2H5Z" fill="url(#paint2_linear_41743_63023)"/>
<path d="M12 6C12.4142 6 12.75 6.33579 12.75 6.75V10.701L16.1715 8.72558C16.5302 8.51848 16.9889 8.64138 17.196 9.0001C17.4031 9.35882 17.2802 9.81752 16.9215 10.0246L13.4999 12.0001L16.9215 13.9756C17.2802 14.1827 17.4031 14.6414 17.196 15.0001C16.9889 15.3588 16.5302 15.4817 16.1715 15.2746L12.75 13.2992V17.25C12.75 17.6642 12.4142 18 12 18C11.5858 18 11.25 17.6642 11.25 17.25V13.2991L7.82822 15.2746C7.4695 15.4817 7.01081 15.3588 6.8037 15.0001C6.59659 14.6414 6.7195 14.1827 7.07822 13.9756L10.4999 12.0001L7.07822 10.0246C6.7195 9.81752 6.59659 9.35882 6.8037 9.0001C7.01081 8.64139 7.4695 8.51848 7.82822 8.72559L11.25 10.7011V6.75C11.25 6.33579 11.5858 6 12 6Z" fill="url(#paint3_linear_41743_63023)"/>
<defs>
<linearGradient id="paint0_linear_41743_63023" x1="7.55556" y1="2" x2="10.0855" y2="22.2393" gradientUnits="userSpaceOnUse">
<stop stop-color="white"/>
<stop offset="1" stop-color="#EBEBEB"/>
</linearGradient>
<radialGradient id="paint1_radial_41743_63023" cx="0" cy="0" r="1" gradientUnits="userSpaceOnUse" gradientTransform="translate(8.38889 7.20833) rotate(56.3099) scale(19.0293 16.4677)">
<stop offset="0.177083" stop-color="white"/>
<stop offset="1" stop-color="#B8B8B8"/>
</radialGradient>
<linearGradient id="paint2_linear_41743_63023" x1="8.45833" y1="2" x2="11.1512" y2="22.1965" gradientUnits="userSpaceOnUse">
<stop stop-color="#BBBBBB"/>
<stop offset="1" stop-color="#888888"/>
</linearGradient>
<linearGradient id="paint3_linear_41743_63023" x1="6.70309" y1="6" x2="18.6104" y2="16.5117" gradientUnits="userSpaceOnUse">
<stop stop-color="#4BA446"/>
<stop offset="1" stop-color="#3F7D35"/>
</linearGradient>
</defs>
</svg>
