<svg width="48" height="48" viewBox="0 0 48 48" fill="none" xmlns="http://www.w3.org/2000/svg">
<path d="M5 10C5 7.23858 7.23858 5 10 5H38C40.7614 5 43 7.23858 43 10V38C43 40.7614 40.7614 43 38 43H10C7.23858 43 5 40.7614 5 38V10Z" fill="url(#paint0_linear_41743_62869)"/>
<path d="M5 10C5 7.23858 7.23858 5 10 5H38C40.7614 5 43 7.23858 43 10V38C43 40.7614 40.7614 43 38 43H10C7.23858 43 5 40.7614 5 38V10Z" fill="url(#paint1_radial_41743_62869)" fill-opacity="0.2"/>
<path fill-rule="evenodd" clip-rule="evenodd" d="M38 6H10C7.79086 6 6 7.79086 6 10V38C6 40.2091 7.79086 42 10 42H38C40.2091 42 42 40.2091 42 38V10C42 7.79086 40.2091 6 38 6ZM10 5C7.23858 5 5 7.23858 5 10V38C5 40.7614 7.23858 43 10 43H38C40.7614 43 43 40.7614 43 38V10C43 7.23858 40.7614 5 38 5H10Z" fill="url(#paint2_linear_41743_62869)"/>
<path d="M46.5603 42.4302C46.2803 42.1502 45.9003 41.9902 45.5003 41.9902H43.0003V36.5002C43.0003 35.6702 42.3303 35.0002 41.5003 35.0002C40.6703 35.0002 40.0003 35.6702 40.0003 36.5002V39.1202C40.0003 38.0302 39.5903 37.0102 38.8503 36.2302C38.1003 35.4502 37.0603 35.0002 36.0003 35.0002C34.9403 35.0002 33.8903 35.4502 33.1503 36.2302C33.1103 36.2802 33.0703 36.3302 33.0303 36.3802C32.9303 36.2002 32.8003 36.0302 32.6303 35.9002C31.8703 35.3202 30.9203 34.9902 29.9603 34.9902C29.8403 34.9902 29.7203 34.9902 29.6003 35.0002C29.5303 35.0002 29.4703 35.0002 29.4003 35.0002C29.0703 35.0002 28.7403 35.0502 28.4303 35.1402C27.9903 35.2802 27.5903 35.5002 27.2303 35.7902C26.8803 36.0802 26.5903 36.4402 26.3803 36.8502C26.1703 37.2602 26.0503 37.7002 26.0203 38.1602V38.2602C26.0203 39.2902 26.5503 40.1802 27.5303 40.7802C28.1403 41.1502 28.8103 41.3402 29.2103 41.4502L29.3203 41.4802C29.6103 41.5602 29.9103 41.6402 30.1303 41.7402C30.1303 41.8302 30.1303 41.8902 30.1303 41.9002C30.0803 41.9202 29.9303 41.9802 29.5903 41.9802C29.5903 41.9802 29.4003 41.9902 29.3603 41.9902C29.0303 41.9902 28.7103 41.8802 28.4603 41.6702C28.1903 41.4502 27.8603 41.3302 27.5103 41.3302C27.0603 41.3302 26.6303 41.5302 26.3503 41.8802C26.1003 42.1902 25.9803 42.5802 26.0203 42.9802C26.0603 43.3802 26.2603 43.7402 26.5703 43.9902C27.3603 44.6302 28.3503 44.9802 29.3603 44.9802C29.4803 44.9802 29.5903 44.9802 29.6403 44.9702C30.5103 44.9702 31.2503 44.7602 31.8303 44.3602C32.2403 44.0802 32.5603 43.7202 32.7803 43.2802C32.8903 43.4402 33.0103 43.6002 33.1503 43.7502C33.9003 44.5302 34.9403 44.9802 36.0003 44.9802C36.7703 44.9802 37.5103 44.7602 38.1403 44.3402L38.6003 44.6802C38.8603 44.8702 39.1703 44.9802 39.4903 44.9802C39.8703 44.9802 40.2303 44.8302 40.5003 44.5802C40.7603 44.8102 41.1103 44.9602 41.4803 44.9602H45.4803C46.3103 44.9702 46.9803 44.3002 46.9803 43.4802C46.9803 43.0802 46.8303 42.7002 46.5403 42.4202L46.5603 42.4302Z" fill="#F5F5F5"/>
<path fill-rule="evenodd" clip-rule="evenodd" d="M36 36C35.1963 36 34.4307 36.3355 33.8702 36.924C33.3104 37.5117 33 38.3039 33 39.125V40.875C33 41.6961 33.3104 42.4883 33.8702 43.076C34.4307 43.6645 35.1963 44 36 44C36.7953 44 37.5532 43.6716 38.1121 43.0945L39.2017 43.9018C39.4236 44.0662 39.7367 44.0196 39.9011 43.7977C40.0655 43.5758 40.0189 43.2627 39.797 43.0983L38.6831 42.273C38.8901 41.8419 39 41.3636 39 40.875V39.125C39 38.3039 38.6896 37.5117 38.1298 36.924C37.5693 36.3355 36.8037 36 36 36ZM37.0975 41.0983L37.8578 41.6616C37.9506 41.4144 38 41.1479 38 40.875V39.125C38 38.5538 37.7837 38.0105 37.4057 37.6137C37.0285 37.2176 36.5223 37 36 37C35.4777 37 34.9715 37.2176 34.5943 37.6137C34.2163 38.0105 34 38.5538 34 39.125V40.875C34 41.4462 34.2163 41.9895 34.5943 42.3863C34.9715 42.7824 35.4777 43 36 43C36.4741 43 36.9349 42.8207 37.298 42.4914L36.5022 41.9018C36.2803 41.7374 36.2337 41.4243 36.3981 41.2024C36.5625 40.9805 36.8756 40.9339 37.0975 41.0983Z" fill="url(#paint3_linear_41743_62869)"/>
<path d="M32.0152 36.6986C31.3302 36.172 30.4687 35.929 29.6099 36.018C29.309 35.9917 29.0055 36.0224 28.7156 36.1088C28.4068 36.2009 28.1197 36.3543 27.8718 36.56C27.6239 36.7656 27.4202 37.0193 27.2733 37.3057C27.1263 37.592 27.039 37.9052 27.0168 38.2263L27.0156 38.2435V38.2607C27.0156 39.0866 27.5322 39.6087 28.0476 39.921C28.5379 40.2182 29.1079 40.3781 29.4455 40.4729L29.4777 40.4819L29.5896 40.5131C29.9329 40.6083 30.3098 40.7129 30.6232 40.9032C30.9428 41.0973 31.1371 41.3427 31.1371 41.7405C31.1371 42.2906 30.9414 42.5615 30.7098 42.7188C30.445 42.8988 30.0561 42.9804 29.6131 42.9804H29.5918L29.5706 42.9822C28.9426 43.0357 28.3186 42.8436 27.8312 42.447C27.617 42.2728 27.302 42.3051 27.1278 42.5194C26.9535 42.7336 26.9859 43.0485 27.2001 43.2228C27.8835 43.7787 28.7556 44.0497 29.6341 43.9803C30.1617 43.9779 30.7751 43.8835 31.2718 43.546C31.8084 43.1813 32.1371 42.5823 32.1371 41.7405C32.1371 40.8925 31.6628 40.3646 31.1422 40.0484C30.7011 39.7806 30.1851 39.6392 29.8556 39.5489C29.8173 39.5384 29.7813 39.5285 29.7484 39.5193C29.3941 39.4197 28.9366 39.2905 28.5659 39.0658C28.2103 38.8503 28.022 38.6037 28.0158 38.2774C28.0305 38.0979 28.0805 37.9229 28.1629 37.7623C28.2481 37.5964 28.3662 37.4492 28.5103 37.3296C28.6543 37.2101 28.8214 37.1208 29.0013 37.0671C29.1813 37.0135 29.3704 36.9966 29.5571 37.0177L29.6151 37.0242L29.6731 37.0172C30.2911 36.9425 30.9136 37.113 31.4058 37.4914C31.6247 37.6597 31.9386 37.6186 32.1069 37.3997C32.2752 37.1808 32.2342 36.8668 32.0152 36.6986Z" fill="url(#paint4_linear_41743_62869)"/>
<path d="M42 36.5C42 36.2239 41.7761 36 41.5 36C41.2239 36 41 36.2239 41 36.5V43.4792C41 43.7547 41.223 43.9783 41.4985 43.9791L45.4985 43.9909C45.7747 43.9917 45.9992 43.7685 46 43.4923C46.0008 43.2162 45.7776 42.9917 45.5015 42.9909L42 42.9806V36.5Z" fill="url(#paint5_linear_41743_62869)"/>
<path d="M32.3671 15.1553C32.7454 15.5315 32.9958 15.9791 32.9999 16.4873C33 16.4915 33 16.4958 33 16.5" fill="url(#paint6_linear_41743_62869)"/>
<path d="M32.9999 16.5127C32.9952 17.1033 32.6578 17.612 32.1737 18.022C31.685 18.4358 31.004 18.7885 30.2013 19.076C28.5925 19.6523 26.3999 20 24 20C21.6001 20 19.4075 19.6523 17.7987 19.076C16.996 18.7885 16.315 18.4358 15.8263 18.022C15.3387 17.609 15 17.096 15 16.5C15 16.4837 15.0003 16.4675 15.0008 16.4513C15.0013 16.4338 15.0021 16.4164 15.0033 16.399C15.0035 16.3958 15.0037 16.3925 15.0039 16.3892C15.0429 15.8403 15.3692 15.3652 15.8263 14.978C16.315 14.5642 16.996 14.2115 17.7987 13.924C19.4075 13.3477 21.6001 13 24 13C26.3999 13 28.5925 13.3477 30.2013 13.924C31.004 14.2115 31.685 14.5642 32.1737 14.978C32.2412 15.0352 32.3058 15.0943 32.3671 15.1553" fill="url(#paint7_linear_41743_62869)"/>
<path d="M32.8199 18.7851C32.8804 18.7338 32.9406 18.6801 33 18.6238L33 31.1044H32.9985C32.974 31.7266 32.6563 32.2773 32.1854 32.735C31.6966 33.21 31.015 33.6147 30.2124 33.9441C28.6049 34.6037 26.4159 35 24.0156 35C21.6153 35 19.419 34.6037 17.8041 33.9444C16.9979 33.6153 16.3124 33.2108 15.8208 32.7362C15.351 32.2828 15.0316 31.7371 15.0022 31.1199H15V18.6237C15.0593 18.68 15.1195 18.7338 15.1801 18.7851C15.7936 19.3046 16.5961 19.7075 17.4615 20.0175C19.2043 20.6417 21.5162 21 24 21C26.4838 21 28.7957 20.6417 30.5385 20.0175C31.4039 19.7075 32.2064 19.3046 32.8199 18.7851Z" fill="url(#paint8_linear_41743_62869)"/>
<defs>
<linearGradient id="paint0_linear_41743_62869" x1="15.5556" y1="5" x2="20.3624" y2="43.4547" gradientUnits="userSpaceOnUse">
<stop stop-color="white"/>
<stop offset="1" stop-color="#EBEBEB"/>
</linearGradient>
<radialGradient id="paint1_radial_41743_62869" cx="0" cy="0" r="1" gradientUnits="userSpaceOnUse" gradientTransform="translate(17.1389 14.8958) rotate(56.3099) scale(36.1557 31.2886)">
<stop offset="0.177083" stop-color="white"/>
<stop offset="1" stop-color="#B8B8B8"/>
</radialGradient>
<linearGradient id="paint2_linear_41743_62869" x1="17.2708" y1="5" x2="22.3873" y2="43.3734" gradientUnits="userSpaceOnUse">
<stop stop-color="#BBBBBB"/>
<stop offset="1" stop-color="#888888"/>
</linearGradient>
<linearGradient id="paint3_linear_41743_62869" x1="27.0156" y1="36" x2="32.7413" y2="49.5873" gradientUnits="userSpaceOnUse">
<stop stop-color="#008EE6"/>
<stop offset="1" stop-color="#006094"/>
</linearGradient>
<linearGradient id="paint4_linear_41743_62869" x1="27.0156" y1="36" x2="32.7413" y2="49.5873" gradientUnits="userSpaceOnUse">
<stop stop-color="#008EE6"/>
<stop offset="1" stop-color="#006094"/>
</linearGradient>
<linearGradient id="paint5_linear_41743_62869" x1="27.0156" y1="36" x2="32.7413" y2="49.5873" gradientUnits="userSpaceOnUse">
<stop stop-color="#008EE6"/>
<stop offset="1" stop-color="#006094"/>
</linearGradient>
<linearGradient id="paint6_linear_41743_62869" x1="15" y1="13" x2="36.5643" y2="30.6436" gradientUnits="userSpaceOnUse">
<stop stop-color="#008EE6"/>
<stop offset="1" stop-color="#006094"/>
</linearGradient>
<linearGradient id="paint7_linear_41743_62869" x1="15" y1="13" x2="36.5643" y2="30.6436" gradientUnits="userSpaceOnUse">
<stop stop-color="#008EE6"/>
<stop offset="1" stop-color="#006094"/>
</linearGradient>
<linearGradient id="paint8_linear_41743_62869" x1="15" y1="13" x2="36.5643" y2="30.6436" gradientUnits="userSpaceOnUse">
<stop stop-color="#008EE6"/>
<stop offset="1" stop-color="#006094"/>
</linearGradient>
</defs>
</svg>
