<svg width="40" height="40" viewBox="0 0 40 40" fill="none" xmlns="http://www.w3.org/2000/svg">
<path d="M4 8C4 5.79086 5.79086 4 8 4H32C34.2091 4 36 5.79086 36 8V32C36 34.2091 34.2091 36 32 36H8C5.79086 36 4 34.2091 4 32V8Z" fill="url(#paint0_linear_41743_62909)"/>
<path d="M4 8C4 5.79086 5.79086 4 8 4H32C34.2091 4 36 5.79086 36 8V32C36 34.2091 34.2091 36 32 36H8C5.79086 36 4 34.2091 4 32V8Z" fill="url(#paint1_radial_41743_62909)" fill-opacity="0.2"/>
<path fill-rule="evenodd" clip-rule="evenodd" d="M32 5H8C6.34315 5 5 6.34315 5 8V32C5 33.6569 6.34315 35 8 35H32C33.6569 35 35 33.6569 35 32V8C35 6.34315 33.6569 5 32 5ZM8 4C5.79086 4 4 5.79086 4 8V32C4 34.2091 5.79086 36 8 36H32C34.2091 36 36 34.2091 36 32V8C36 5.79086 34.2091 4 32 4H8Z" fill="url(#paint2_linear_41743_62909)"/>
<path d="M13 15.3539V26.5243H13.0083C13.0557 26.9188 13.3027 27.2615 13.6427 27.5431C14.0228 27.8578 14.5525 28.1261 15.1767 28.3447C16.428 28.7829 18.1334 29.0474 20 29.0474C21.8666 29.0474 23.572 28.7829 24.8233 28.3447C25.4475 28.1261 25.9772 27.8578 26.3573 27.5431C26.6973 27.2615 26.9443 26.9188 26.9917 26.5243H27V15.3539C26.9904 15.3615 26.9808 15.369 26.9712 15.3765C26.4659 15.7694 25.8175 16.0657 25.1357 16.29C23.7588 16.7429 21.9431 17 20 17C18.0569 17 16.2412 16.7429 14.8643 16.29C14.1825 16.0657 13.5341 15.7695 13.0288 15.3765C13.0192 15.369 13.0096 15.3615 13 15.3539Z" fill="url(#paint3_linear_41743_62909)"/>
<path d="M26.9989 13.4531C26.9996 13.4687 27 13.4843 27 13.5C27 13.9257 26.7365 14.2922 26.3573 14.5871C25.9772 14.8827 25.4475 15.1347 24.8233 15.34C23.572 15.7516 21.8666 16 20 16C18.1334 16 16.428 15.7516 15.1767 15.34C14.5525 15.1347 14.0228 14.8827 13.6427 14.5871C13.2635 14.2922 13 13.9257 13 13.5C13 13.4843 13.0004 13.4687 13.0011 13.4531C13.0016 13.4423 13.0022 13.4316 13.0031 13.4209C13.0334 13.0288 13.2872 12.6894 13.6427 12.4129C14.0228 12.1173 14.5525 11.8653 15.1767 11.66C16.428 11.2484 18.1334 11 20 11C21.8666 11 23.572 11.2484 24.8233 11.66C25.4475 11.8653 25.9772 12.1173 26.3573 12.4129C26.7226 12.697 26.9804 13.0473 26.9989 13.4531Z" fill="url(#paint4_linear_41743_62909)"/>
<path d="M38.5603 35.4302C38.2803 35.1502 37.9003 34.9902 37.5003 34.9902H35.0003V29.5002C35.0003 28.6702 34.3303 28.0002 33.5003 28.0002C32.6703 28.0002 32.0003 28.6702 32.0003 29.5002V32.1202C32.0003 31.0302 31.5903 30.0102 30.8503 29.2302C30.1003 28.4502 29.0603 28.0002 28.0003 28.0002C26.9403 28.0002 25.8903 28.4502 25.1503 29.2302C25.1103 29.2802 25.0703 29.3302 25.0303 29.3802C24.9303 29.2002 24.8003 29.0302 24.6303 28.9002C23.8703 28.3202 22.9203 27.9902 21.9603 27.9902C21.8403 27.9902 21.7203 27.9902 21.6003 28.0002C21.5303 28.0002 21.4703 28.0002 21.4003 28.0002C21.0703 28.0002 20.7403 28.0502 20.4303 28.1402C19.9903 28.2802 19.5903 28.5002 19.2303 28.7902C18.8803 29.0802 18.5903 29.4402 18.3803 29.8502C18.1703 30.2602 18.0503 30.7002 18.0203 31.1602V31.2602C18.0203 32.2902 18.5503 33.1802 19.5303 33.7802C20.1403 34.1502 20.8103 34.3402 21.2103 34.4502L21.3203 34.4802C21.6103 34.5602 21.9103 34.6402 22.1303 34.7402C22.1303 34.8302 22.1303 34.8902 22.1303 34.9002C22.0803 34.9202 21.9303 34.9802 21.5903 34.9802C21.5903 34.9802 21.4003 34.9902 21.3603 34.9902C21.0303 34.9902 20.7103 34.8802 20.4603 34.6702C20.1903 34.4502 19.8603 34.3302 19.5103 34.3302C19.0603 34.3302 18.6303 34.5302 18.3503 34.8802C18.1003 35.1902 17.9803 35.5802 18.0203 35.9802C18.0603 36.3802 18.2603 36.7402 18.5703 36.9902C19.3603 37.6302 20.3503 37.9802 21.3603 37.9802C21.4803 37.9802 21.5903 37.9802 21.6403 37.9702C22.5103 37.9702 23.2503 37.7602 23.8303 37.3602C24.2403 37.0802 24.5603 36.7202 24.7803 36.2802C24.8903 36.4402 25.0103 36.6002 25.1503 36.7502C25.9003 37.5302 26.9403 37.9802 28.0003 37.9802C28.7703 37.9802 29.5103 37.7602 30.1403 37.3402L30.6003 37.6802C30.8603 37.8702 31.1703 37.9802 31.4903 37.9802C31.8703 37.9802 32.2303 37.8302 32.5003 37.5802C32.7603 37.8102 33.1103 37.9602 33.4803 37.9602H37.4803C38.3103 37.9702 38.9803 37.3002 38.9803 36.4802C38.9803 36.0802 38.8303 35.7002 38.5403 35.4202L38.5603 35.4302Z" fill="#F5F5F5"/>
<path fill-rule="evenodd" clip-rule="evenodd" d="M28 29C27.1963 29 26.4307 29.3355 25.8702 29.924C25.3104 30.5117 25 31.3039 25 32.125V33.875C25 34.6961 25.3104 35.4883 25.8702 36.076C26.4307 36.6645 27.1963 37 28 37C28.7953 37 29.5532 36.6716 30.1121 36.0945L31.2017 36.9018C31.4236 37.0662 31.7367 37.0196 31.9011 36.7977C32.0655 36.5758 32.0189 36.2627 31.797 36.0983L30.6831 35.273C30.8901 34.8419 31 34.3636 31 33.875V32.125C31 31.3039 30.6896 30.5117 30.1298 29.924C29.5693 29.3355 28.8037 29 28 29ZM29.0975 34.0983L29.8578 34.6616C29.9506 34.4144 30 34.1479 30 33.875V32.125C30 31.5538 29.7837 31.0105 29.4057 30.6137C29.0285 30.2176 28.5223 30 28 30C27.4777 30 26.9715 30.2176 26.5943 30.6137C26.2163 31.0105 26 31.5538 26 32.125V33.875C26 34.4462 26.2163 34.9895 26.5943 35.3863C26.9715 35.7824 27.4777 36 28 36C28.4741 36 28.9349 35.8207 29.298 35.4914L28.5022 34.9018C28.2803 34.7374 28.2337 34.4243 28.3981 34.2024C28.5625 33.9805 28.8756 33.9339 29.0975 34.0983Z" fill="url(#paint5_linear_41743_62909)"/>
<path d="M24.0152 29.6986C23.3302 29.172 22.4687 28.929 21.6099 29.018C21.309 28.9917 21.0055 29.0224 20.7156 29.1088C20.4068 29.2009 20.1197 29.3543 19.8718 29.56C19.6239 29.7656 19.4202 30.0193 19.2733 30.3057C19.1263 30.592 19.039 30.9052 19.0168 31.2263L19.0156 31.2435V31.2607C19.0156 32.0866 19.5322 32.6087 20.0476 32.921C20.5379 33.2182 21.1079 33.3781 21.4455 33.4729L21.4777 33.4819L21.5896 33.5131C21.9329 33.6083 22.3098 33.7129 22.6232 33.9032C22.9428 34.0973 23.1371 34.3427 23.1371 34.7405C23.1371 35.2906 22.9414 35.5615 22.7098 35.7188C22.445 35.8988 22.0561 35.9804 21.6131 35.9804H21.5918L21.5706 35.9822C20.9426 36.0357 20.3186 35.8436 19.8312 35.447C19.617 35.2728 19.302 35.3051 19.1278 35.5194C18.9535 35.7336 18.9859 36.0485 19.2001 36.2228C19.8835 36.7787 20.7556 37.0497 21.6341 36.9803C22.1617 36.9779 22.7751 36.8835 23.2718 36.546C23.8084 36.1813 24.1371 35.5823 24.1371 34.7405C24.1371 33.8925 23.6628 33.3646 23.1422 33.0484C22.7011 32.7806 22.1851 32.6392 21.8556 32.5489C21.8173 32.5384 21.7813 32.5285 21.7484 32.5193C21.3941 32.4197 20.9366 32.2905 20.5659 32.0658C20.2103 31.8503 20.022 31.6037 20.0158 31.2774C20.0305 31.0979 20.0805 30.9229 20.1629 30.7623C20.2481 30.5964 20.3662 30.4492 20.5103 30.3296C20.6543 30.2101 20.8214 30.1208 21.0013 30.0671C21.1813 30.0135 21.3704 29.9966 21.5571 30.0177L21.6151 30.0242L21.6731 30.0172C22.2911 29.9425 22.9136 30.113 23.4058 30.4914C23.6247 30.6597 23.9386 30.6186 24.1069 30.3997C24.2752 30.1808 24.2342 29.8668 24.0152 29.6986Z" fill="url(#paint6_linear_41743_62909)"/>
<path d="M34 29.5C34 29.2239 33.7761 29 33.5 29C33.2239 29 33 29.2239 33 29.5V36.4792C33 36.7547 33.223 36.9783 33.4985 36.9791L37.4985 36.9909C37.7747 36.9917 37.9992 36.7685 38 36.4923C38.0008 36.2162 37.7776 35.9917 37.5015 35.9909L34 35.9806V29.5Z" fill="url(#paint7_linear_41743_62909)"/>
<defs>
<linearGradient id="paint0_linear_41743_62909" x1="12.8889" y1="4" x2="16.9368" y2="36.3829" gradientUnits="userSpaceOnUse">
<stop stop-color="white"/>
<stop offset="1" stop-color="#EBEBEB"/>
</linearGradient>
<radialGradient id="paint1_radial_41743_62909" cx="0" cy="0" r="1" gradientUnits="userSpaceOnUse" gradientTransform="translate(14.2222 12.3333) rotate(56.3099) scale(30.4469 26.3483)">
<stop offset="0.177083" stop-color="white"/>
<stop offset="1" stop-color="#B8B8B8"/>
</radialGradient>
<linearGradient id="paint2_linear_41743_62909" x1="14.3333" y1="4" x2="18.6419" y2="36.3144" gradientUnits="userSpaceOnUse">
<stop stop-color="#BBBBBB"/>
<stop offset="1" stop-color="#888888"/>
</linearGradient>
<linearGradient id="paint3_linear_41743_62909" x1="13" y1="11" x2="30.4807" y2="24.5604" gradientUnits="userSpaceOnUse">
<stop stop-color="#008EE6"/>
<stop offset="1" stop-color="#006094"/>
</linearGradient>
<linearGradient id="paint4_linear_41743_62909" x1="13" y1="11" x2="30.4807" y2="24.5604" gradientUnits="userSpaceOnUse">
<stop stop-color="#008EE6"/>
<stop offset="1" stop-color="#006094"/>
</linearGradient>
<linearGradient id="paint5_linear_41743_62909" x1="19.0156" y1="29" x2="24.7413" y2="42.5873" gradientUnits="userSpaceOnUse">
<stop stop-color="#008EE6"/>
<stop offset="1" stop-color="#006094"/>
</linearGradient>
<linearGradient id="paint6_linear_41743_62909" x1="19.0156" y1="29" x2="24.7413" y2="42.5873" gradientUnits="userSpaceOnUse">
<stop stop-color="#008EE6"/>
<stop offset="1" stop-color="#006094"/>
</linearGradient>
<linearGradient id="paint7_linear_41743_62909" x1="19.0156" y1="29" x2="24.7413" y2="42.5873" gradientUnits="userSpaceOnUse">
<stop stop-color="#008EE6"/>
<stop offset="1" stop-color="#006094"/>
</linearGradient>
</defs>
</svg>
