<svg width="40" height="40" viewBox="0 0 40 40" fill="none" xmlns="http://www.w3.org/2000/svg">
<path d="M4 8C4 5.79086 5.79086 4 8 4H32C34.2091 4 36 5.79086 36 8V32C36 34.2091 34.2091 36 32 36H8C5.79086 36 4 34.2091 4 32V8Z" fill="url(#paint0_linear_41743_63006)"/>
<path d="M4 8C4 5.79086 5.79086 4 8 4H32C34.2091 4 36 5.79086 36 8V32C36 34.2091 34.2091 36 32 36H8C5.79086 36 4 34.2091 4 32V8Z" fill="url(#paint1_radial_41743_63006)" fill-opacity="0.2"/>
<path fill-rule="evenodd" clip-rule="evenodd" d="M32 5H8C6.34315 5 5 6.34315 5 8V32C5 33.6569 6.34315 35 8 35H32C33.6569 35 35 33.6569 35 32V8C35 6.34315 33.6569 5 32 5ZM8 4C5.79086 4 4 5.79086 4 8V32C4 34.2091 5.79086 36 8 36H32C34.2091 36 36 34.2091 36 32V8C36 5.79086 34.2091 4 32 4H8Z" fill="url(#paint2_linear_41743_63006)"/>
<path d="M19 15C19 16.4865 17.9189 17.7205 16.5 17.9585V20H22C22.8284 20 23.5 19.3284 23.5 18.5V17.9585C22.0811 17.7205 21 16.4865 21 15C21 13.3431 22.3431 12 24 12C25.6569 12 27 13.3431 27 15C27 16.4865 25.9189 17.7205 24.5 17.9585V18.5C24.5 19.8807 23.3807 21 22 21H16.5V22.0415C17.9189 22.2795 19 23.5135 19 25C19 26.6569 17.6569 28 16 28C14.3431 28 13 26.6569 13 25C13 23.5135 14.0811 22.2795 15.5 22.0415V17.9585C14.0811 17.7205 13 16.4865 13 15C13 13.3431 14.3431 12 16 12C17.6569 12 19 13.3431 19 15Z" fill="url(#paint3_linear_41743_63006)"/>
<path d="M37.2791 38.9852C36.8452 38.9237 36.4811 38.6822 36.2516 38.347C35.9395 38.8026 35.3866 39.0679 34.8028 38.9852C34.3649 38.9231 33.9981 38.6778 33.769 38.3378C33.4622 38.817 32.8947 39.0998 32.2945 39.0147C31.4742 38.8984 30.9036 38.1393 31.0198 37.319L31.0236 37.2913C30.6287 38.1522 29.7592 38.75 28.7501 38.75C27.3694 38.75 26.2501 37.6307 26.2501 36.25C26.2501 35.2803 26.8022 34.4396 27.6092 34.0249C26.8293 34.0826 26.1273 33.5263 26.0152 32.7406C25.9332 32.1654 26.1891 31.6199 26.6322 31.3051C26.3149 31.0799 26.0849 30.7323 26.0189 30.3177C25.9249 29.7273 26.189 29.1626 26.6508 28.845C26.3239 28.6203 26.0862 28.2672 26.0189 27.8446C25.8886 27.0265 26.4462 26.2577 27.2643 26.1273C27.7911 26.0434 28.3305 26 28.8789 26C34.5107 26 39.0761 30.5654 39.0761 36.1972C39.0761 36.6742 39.0431 37.228 38.9747 37.7105C38.8585 38.5307 38.0993 39.1014 37.2791 38.9852Z" fill="#F5F5F5"/>
<path d="M28.8788 28C28.4361 28 28.0019 28.0351 27.5787 28.1024C27.306 28.1459 27.0497 27.96 27.0063 27.6873C26.9629 27.4146 27.1487 27.1583 27.4214 27.1149C27.8964 27.0392 28.3832 27 28.8788 27C33.9583 27 38.076 31.1177 38.076 36.1972C38.076 36.6349 38.0453 37.1411 37.9845 37.5702C37.9457 37.8436 37.6927 38.0338 37.4193 37.9951C37.1459 37.9563 36.9556 37.7032 36.9944 37.4298C37.0476 37.0543 37.076 36.5956 37.076 36.1972C37.076 31.67 33.406 28 28.8788 28Z" fill="url(#paint4_linear_41743_63006)"/>
<path d="M27.5706 33.0238C27.7529 32.9979 27.9394 32.9844 28.1294 32.9844C30.294 32.9844 32.0488 34.7391 32.0488 36.9037C32.0488 37.0926 32.0355 37.2781 32.0098 37.4594C31.971 37.7328 32.1612 37.9858 32.4347 38.0246C32.7081 38.0634 32.9611 37.8731 32.9999 37.5997C33.0321 37.3721 33.0488 37.1397 33.0488 36.9037C33.0488 34.1869 30.8463 31.9844 28.1294 31.9844C27.8921 31.9844 27.6584 32.0012 27.4295 32.0339C27.1561 32.0728 26.9661 32.326 27.0051 32.5994C27.044 32.8728 27.2973 33.0628 27.5706 33.0238Z" fill="url(#paint5_linear_41743_63006)"/>
<path d="M30.25 36.25C30.25 37.0784 29.5784 37.75 28.75 37.75C27.9216 37.75 27.25 37.0784 27.25 36.25C27.25 35.4216 27.9216 34.75 28.75 34.75C29.5784 34.75 30.25 35.4216 30.25 36.25Z" fill="url(#paint6_linear_41743_63006)"/>
<path d="M27.5787 30.5755C27.8905 30.5258 28.2106 30.5 28.537 30.5C31.8735 30.5 34.5782 33.2047 34.5782 36.5412C34.5782 36.8345 34.5574 37.1527 34.5181 37.4298C34.4793 37.7032 34.6695 37.9563 34.943 37.9951C35.2164 38.0338 35.4694 37.8436 35.5082 37.5702C35.5547 37.2421 35.5782 36.8767 35.5782 36.5412C35.5782 32.6524 32.4258 29.5 28.537 29.5C28.1577 29.5 27.7851 29.53 27.4214 29.588C27.1487 29.6314 26.9629 29.8877 27.0063 30.1604C27.0497 30.4331 27.306 30.6189 27.5787 30.5755Z" fill="url(#paint7_linear_41743_63006)"/>
<defs>
<linearGradient id="paint0_linear_41743_63006" x1="12.8889" y1="4" x2="16.9368" y2="36.3829" gradientUnits="userSpaceOnUse">
<stop stop-color="white"/>
<stop offset="1" stop-color="#EBEBEB"/>
</linearGradient>
<radialGradient id="paint1_radial_41743_63006" cx="0" cy="0" r="1" gradientUnits="userSpaceOnUse" gradientTransform="translate(14.2222 12.3333) rotate(56.3099) scale(30.4469 26.3483)">
<stop offset="0.177083" stop-color="white"/>
<stop offset="1" stop-color="#B8B8B8"/>
</radialGradient>
<linearGradient id="paint2_linear_41743_63006" x1="14.3333" y1="4" x2="18.6419" y2="36.3144" gradientUnits="userSpaceOnUse">
<stop stop-color="#BBBBBB"/>
<stop offset="1" stop-color="#888888"/>
</linearGradient>
<linearGradient id="paint3_linear_41743_63006" x1="13" y1="12" x2="28.8584" y2="25.8761" gradientUnits="userSpaceOnUse">
<stop stop-color="#7751B8"/>
<stop offset="1" stop-color="#5A409C"/>
</linearGradient>
<linearGradient id="paint4_linear_41743_63006" x1="27" y1="27" x2="38.0295" y2="38.0759" gradientUnits="userSpaceOnUse">
<stop stop-color="#7751B8"/>
<stop offset="1" stop-color="#5A409C"/>
</linearGradient>
<linearGradient id="paint5_linear_41743_63006" x1="27" y1="27" x2="38.0295" y2="38.0759" gradientUnits="userSpaceOnUse">
<stop stop-color="#7751B8"/>
<stop offset="1" stop-color="#5A409C"/>
</linearGradient>
<linearGradient id="paint6_linear_41743_63006" x1="27" y1="27" x2="38.0295" y2="38.0759" gradientUnits="userSpaceOnUse">
<stop stop-color="#7751B8"/>
<stop offset="1" stop-color="#5A409C"/>
</linearGradient>
<linearGradient id="paint7_linear_41743_63006" x1="27" y1="27" x2="38.0295" y2="38.0759" gradientUnits="userSpaceOnUse">
<stop stop-color="#7751B8"/>
<stop offset="1" stop-color="#5A409C"/>
</linearGradient>
</defs>
</svg>
