<svg width="20" height="20" viewBox="0 0 20 20" fill="none" xmlns="http://www.w3.org/2000/svg">
<g clip-path="url(#clip0_41743_62959)">
<path d="M2 4.5C2 3.11929 3.11929 2 4.5 2H15.5C16.8807 2 18 3.11929 18 4.5V15.5C18 16.8807 16.8807 18 15.5 18H4.5C3.11929 18 2 16.8807 2 15.5V4.5Z" fill="url(#paint0_linear_41743_62959)"/>
<path d="M2 4.5C2 3.11929 3.11929 2 4.5 2H15.5C16.8807 2 18 3.11929 18 4.5V15.5C18 16.8807 16.8807 18 15.5 18H4.5C3.11929 18 2 16.8807 2 15.5V4.5Z" fill="url(#paint1_radial_41743_62959)" fill-opacity="0.2"/>
<path fill-rule="evenodd" clip-rule="evenodd" d="M15.5 3H4.5C3.67157 3 3 3.67157 3 4.5V15.5C3 16.3284 3.67157 17 4.5 17H15.5C16.3284 17 17 16.3284 17 15.5V4.5C17 3.67157 16.3284 3 15.5 3ZM4.5 2C3.11929 2 2 3.11929 2 4.5V15.5C2 16.8807 3.11929 18 4.5 18H15.5C16.8807 18 18 16.8807 18 15.5V4.5C18 3.11929 16.8807 2 15.5 2H4.5Z" fill="url(#paint2_linear_41743_62959)"/>
<path d="M6 9C6.55228 9 7 8.55228 7 8C7 7.44772 6.55228 7 6 7C5.44772 7 5 7.44772 5 8C5 8.55228 5.44772 9 6 9Z" fill="url(#paint3_linear_41743_62959)"/>
<path d="M10 9C10.5523 9 11 8.55228 11 8C11 7.44772 10.5523 7 10 7C9.44772 7 9 7.44772 9 8C9 8.55228 9.44772 9 10 9Z" fill="url(#paint4_linear_41743_62959)"/>
<path d="M15 8C15 8.55228 14.5523 9 14 9C13.4477 9 13 8.55228 13 8C13 7.44772 13.4477 7 14 7C14.5523 7 15 7.44772 15 8Z" fill="url(#paint5_linear_41743_62959)"/>
<path d="M10 13C10.5523 13 11 12.5523 11 12C11 11.4477 10.5523 11 10 11C9.44772 11 9 11.4477 9 12C9 12.5523 9.44772 13 10 13Z" fill="url(#paint6_linear_41743_62959)"/>
<path d="M7 12C7 12.5523 6.55228 13 6 13C5.44772 13 5 12.5523 5 12C5 11.4477 5.44772 11 6 11C6.55228 11 7 11.4477 7 12Z" fill="url(#paint7_linear_41743_62959)"/>
<path d="M17.8147 19.9625C18.4096 19.8416 18.8956 19.3639 18.9972 18.7292C19.0565 18.3578 19.0604 18.0588 19.0604 17.78C19.0604 14.0297 16.0169 11 12.2804 11C11.9361 11 11.5968 11.0255 11.2633 11.0788C10.5476 11.1934 10.0316 11.7966 10.0015 12.4936L10 12.4932V17.6945C10 18.9679 11.0323 20.0003 12.3058 20.0003H17.5321C17.6344 20.0003 17.7287 19.9869 17.8147 19.9625Z" fill="#F5F5F5"/>
<path d="M12.2801 13C12.035 13 11.8013 13.0182 11.5791 13.0537C11.3064 13.0974 11.0501 12.9117 11.0064 12.639C10.9627 12.3663 11.1485 12.1099 11.4212 12.0663C11.699 12.0218 11.9854 12 12.2801 12C15.4656 12 18.0601 14.5833 18.0601 17.78C18.0601 18.0462 18.056 18.2807 18.0096 18.5712C17.9659 18.8439 17.7095 19.0295 17.4368 18.9859C17.1641 18.9423 16.9783 18.6859 17.022 18.4132C17.0357 18.3269 17.0447 18.2473 17.0503 18.1659C17.056 18.0866 17.0584 18.0055 17.0594 17.9146L17.0601 17.78C17.0601 15.1367 14.9146 13 12.2801 13Z" fill="url(#paint8_linear_41743_62959)"/>
<path d="M12.1202 14.9697C11.9412 14.9697 11.7642 14.9868 11.5982 15.02C11.3274 15.0742 11.064 14.8986 11.0098 14.6278C10.9556 14.357 11.1314 14.0936 11.4021 14.0394C11.636 13.9926 11.879 13.9697 12.1202 13.9697C14.2862 13.9697 16.0401 15.7236 16.0401 17.8897C16.0401 18.1221 16.0169 18.349 15.9839 18.5577C15.941 18.8305 15.6849 19.0167 15.4122 18.9736C15.1395 18.9305 14.9532 18.6745 14.9961 18.4017C15.0015 18.3674 15.0066 18.3329 15.0113 18.2985C15.0166 18.2569 15.0215 18.2154 15.0257 18.1739C15.0289 18.1413 15.0315 18.1089 15.0337 18.0765C15.0379 18.0137 15.0401 17.9514 15.0401 17.8897C15.0401 16.2759 13.7339 14.9697 12.1202 14.9697Z" fill="url(#paint9_linear_41743_62959)"/>
<path d="M13.7999 17.5C13.7999 18.1904 13.2403 18.75 12.5499 18.75C11.8594 18.75 11.2999 18.1904 11.2999 17.5C11.2999 16.8096 11.8594 16.25 12.5499 16.25C13.2403 16.25 13.7999 16.8096 13.7999 17.5Z" fill="url(#paint10_linear_41743_62959)"/>
</g>
<defs>
<linearGradient id="paint0_linear_41743_62959" x1="6.44444" y1="2" x2="8.46838" y2="18.1915" gradientUnits="userSpaceOnUse">
<stop stop-color="white"/>
<stop offset="1" stop-color="#EBEBEB"/>
</linearGradient>
<radialGradient id="paint1_radial_41743_62959" cx="0" cy="0" r="1" gradientUnits="userSpaceOnUse" gradientTransform="translate(7.11111 6.16667) rotate(56.3099) scale(15.2234 13.1741)">
<stop offset="0.177083" stop-color="white"/>
<stop offset="1" stop-color="#B8B8B8"/>
</radialGradient>
<linearGradient id="paint2_linear_41743_62959" x1="7.16667" y1="2" x2="9.32096" y2="18.1572" gradientUnits="userSpaceOnUse">
<stop stop-color="#BBBBBB"/>
<stop offset="1" stop-color="#888888"/>
</linearGradient>
<linearGradient id="paint3_linear_41743_62959" x1="5" y1="7" x2="10.2941" y2="15.8235" gradientUnits="userSpaceOnUse">
<stop stop-color="#7751B8"/>
<stop offset="1" stop-color="#5A409C"/>
</linearGradient>
<linearGradient id="paint4_linear_41743_62959" x1="5" y1="7" x2="10.2941" y2="15.8235" gradientUnits="userSpaceOnUse">
<stop stop-color="#7751B8"/>
<stop offset="1" stop-color="#5A409C"/>
</linearGradient>
<linearGradient id="paint5_linear_41743_62959" x1="5" y1="7" x2="10.2941" y2="15.8235" gradientUnits="userSpaceOnUse">
<stop stop-color="#7751B8"/>
<stop offset="1" stop-color="#5A409C"/>
</linearGradient>
<linearGradient id="paint6_linear_41743_62959" x1="5" y1="7" x2="10.2941" y2="15.8235" gradientUnits="userSpaceOnUse">
<stop stop-color="#7751B8"/>
<stop offset="1" stop-color="#5A409C"/>
</linearGradient>
<linearGradient id="paint7_linear_41743_62959" x1="5" y1="7" x2="10.2941" y2="15.8235" gradientUnits="userSpaceOnUse">
<stop stop-color="#7751B8"/>
<stop offset="1" stop-color="#5A409C"/>
</linearGradient>
<linearGradient id="paint8_linear_41743_62959" x1="11" y1="12" x2="17.9919" y2="19.0598" gradientUnits="userSpaceOnUse">
<stop stop-color="#7751B8"/>
<stop offset="1" stop-color="#5A409C"/>
</linearGradient>
<linearGradient id="paint9_linear_41743_62959" x1="11" y1="12" x2="17.9919" y2="19.0598" gradientUnits="userSpaceOnUse">
<stop stop-color="#7751B8"/>
<stop offset="1" stop-color="#5A409C"/>
</linearGradient>
<linearGradient id="paint10_linear_41743_62959" x1="11" y1="12" x2="17.9919" y2="19.0598" gradientUnits="userSpaceOnUse">
<stop stop-color="#7751B8"/>
<stop offset="1" stop-color="#5A409C"/>
</linearGradient>
<clipPath id="clip0_41743_62959">
<rect width="20" height="20" fill="white"/>
</clipPath>
</defs>
</svg>
