<svg width="32" height="32" viewBox="0 0 32 32" fill="none" xmlns="http://www.w3.org/2000/svg">
<path d="M3 6.5C3 4.567 4.567 3 6.5 3H25.5C27.433 3 29 4.567 29 6.5V25.5C29 27.433 27.433 29 25.5 29H6.5C4.567 29 3 27.433 3 25.5V6.5Z" fill="url(#paint0_linear_41743_62983)"/>
<path d="M3 6.5C3 4.567 4.567 3 6.5 3H25.5C27.433 3 29 4.567 29 6.5V25.5C29 27.433 27.433 29 25.5 29H6.5C4.567 29 3 27.433 3 25.5V6.5Z" fill="url(#paint1_radial_41743_62983)" fill-opacity="0.2"/>
<path fill-rule="evenodd" clip-rule="evenodd" d="M25.5 4H6.5C5.11929 4 4 5.11929 4 6.5V25.5C4 26.8807 5.11929 28 6.5 28H25.5C26.8807 28 28 26.8807 28 25.5V6.5C28 5.11929 26.8807 4 25.5 4ZM6.5 3C4.567 3 3 4.567 3 6.5V25.5C3 27.433 4.567 29 6.5 29H25.5C27.433 29 29 27.433 29 25.5V6.5C29 4.567 27.433 3 25.5 3H6.5Z" fill="url(#paint2_linear_41743_62983)"/>
<path d="M15 11.5C15 12.7095 14.1411 13.7184 13 13.95V16H17.5C18.3284 16 19 15.3284 19 14.5V13.95C17.8589 13.7184 17 12.7095 17 11.5C17 10.1193 18.1193 9 19.5 9C20.8807 9 22 10.1193 22 11.5C22 12.7095 21.1411 13.7184 20 13.95V14.5C20 15.8807 18.8807 17 17.5 17H13V18.05C14.1411 18.2816 15 19.2905 15 20.5C15 21.8807 13.8807 23 12.5 23C11.1193 23 10 21.8807 10 20.5C10 19.8231 10.2691 19.209 10.7061 18.7588V18.7031H10.7618C11.0977 18.3782 11.5243 18.1466 12 18.05V13.95C10.8589 13.7184 10 12.7095 10 11.5C10 10.8231 10.2691 10.209 10.7061 9.7588V9.73633H10.7281C11.1809 9.28151 11.8076 9 12.5 9C13.8807 9 15 10.1193 15 11.5Z" fill="url(#paint3_linear_41743_62983)"/>
<path d="M20 21.75C20 21.7222 20.0011 21.6946 20.0034 21.6674C19.9516 20.8808 20.5219 20.1806 21.3143 20.0816C21.4014 20.0707 21.4913 20.0602 21.5838 20.0505C21.6795 20.0406 21.7777 20.0315 21.878 20.0239C22.0719 20.0093 22.2738 20 22.4803 20C27.1988 20 31.0203 23.8216 31.0203 28.54C31.0203 28.9348 31.0006 29.3148 30.9366 29.7369C30.8339 30.4138 30.2941 30.916 29.6475 31H29.2626C29.2514 30.9986 29.2401 31 29.2288 31H29.1992V31.0039H28.5742V31H22.5C21.1193 31 20 29.8807 20 28.5V21.75Z" fill="#F5F5F5"/>
<path d="M21.5621 22.0466C21.8718 22.0079 22.1791 21.9805 22.4801 21.9805C26.0939 21.9805 29.0201 24.9066 29.0201 28.5205C29.0201 28.8422 29.0042 29.1185 28.9588 29.4178C28.9175 29.6908 29.1052 29.9457 29.3783 29.987C29.6513 30.0284 29.9062 29.8406 29.9475 29.5676C30.0022 29.2069 30.0201 28.8787 30.0201 28.5205C30.0201 24.3543 26.6462 20.9805 22.4801 20.9805C22.121 20.9805 21.7683 21.0131 21.438 21.0543C21.164 21.0886 20.9697 21.3385 21.0039 21.6125C21.0382 21.8865 21.2881 22.0809 21.5621 22.0466Z" fill="url(#paint4_linear_41743_62983)"/>
<path d="M21.5791 24.0537C21.8013 24.0182 22.0348 24 22.2801 24C24.9145 24 27.0601 26.1368 27.0601 28.78C27.0601 29.0148 27.042 29.2483 27.0064 29.471C26.9627 29.7437 27.1484 30.0001 27.4211 30.0437C27.6938 30.0873 27.9502 29.9017 27.9938 29.629C28.0382 29.3517 28.0601 29.0652 28.0601 28.78C28.0601 25.5832 25.4656 23 22.2801 23C21.9854 23 21.6989 23.0218 21.4211 23.0663C21.1484 23.1099 20.9627 23.3663 21.0064 23.639C21.05 23.9117 21.3064 24.0973 21.5791 24.0537Z" fill="url(#paint5_linear_41743_62983)"/>
<path d="M21.5982 26.02C21.7642 25.9868 21.9413 25.9697 22.1201 25.9697C23.734 25.9697 25.0401 27.2759 25.0401 28.8897C25.0401 29.0573 25.0233 29.2305 24.9962 29.4017C24.9531 29.6745 25.1394 29.9305 25.4121 29.9736C25.6849 30.0167 25.9409 29.8305 25.984 29.5577C26.0169 29.349 26.0401 29.1221 26.0401 28.8897C26.0401 26.7236 24.2862 24.9697 22.1201 24.9697C21.8789 24.9697 21.636 24.9926 21.402 25.0394C21.1313 25.0936 20.9557 25.357 21.0098 25.6278C21.064 25.8986 21.3274 26.0742 21.5982 26.02Z" fill="url(#paint6_linear_41743_62983)"/>
<path d="M22.5498 29.75C23.2402 29.75 23.7998 29.1904 23.7998 28.5C23.7998 27.8096 23.2402 27.25 22.5498 27.25C21.8594 27.25 21.2998 27.8096 21.2998 28.5C21.2998 29.1904 21.8594 29.75 22.5498 29.75Z" fill="url(#paint7_linear_41743_62983)"/>
<defs>
<linearGradient id="paint0_linear_41743_62983" x1="10.2222" y1="3" x2="13.5111" y2="29.3111" gradientUnits="userSpaceOnUse">
<stop stop-color="white"/>
<stop offset="1" stop-color="#EBEBEB"/>
</linearGradient>
<radialGradient id="paint1_radial_41743_62983" cx="0" cy="0" r="1" gradientUnits="userSpaceOnUse" gradientTransform="translate(11.3056 9.77083) rotate(56.3099) scale(24.7381 21.408)">
<stop offset="0.177083" stop-color="white"/>
<stop offset="1" stop-color="#B8B8B8"/>
</radialGradient>
<linearGradient id="paint2_linear_41743_62983" x1="11.3958" y1="3" x2="14.8966" y2="29.2555" gradientUnits="userSpaceOnUse">
<stop stop-color="#BBBBBB"/>
<stop offset="1" stop-color="#888888"/>
</linearGradient>
<linearGradient id="paint3_linear_41743_62983" x1="10" y1="9" x2="23.8353" y2="20.8588" gradientUnits="userSpaceOnUse">
<stop stop-color="#7751B8"/>
<stop offset="1" stop-color="#5A409C"/>
</linearGradient>
<linearGradient id="paint4_linear_41743_62983" x1="21" y1="20.9805" x2="30.0695" y2="30.0004" gradientUnits="userSpaceOnUse">
<stop stop-color="#7751B8"/>
<stop offset="1" stop-color="#5A409C"/>
</linearGradient>
<linearGradient id="paint5_linear_41743_62983" x1="21" y1="20.9805" x2="30.0695" y2="30.0004" gradientUnits="userSpaceOnUse">
<stop stop-color="#7751B8"/>
<stop offset="1" stop-color="#5A409C"/>
</linearGradient>
<linearGradient id="paint6_linear_41743_62983" x1="21" y1="20.9805" x2="30.0695" y2="30.0004" gradientUnits="userSpaceOnUse">
<stop stop-color="#7751B8"/>
<stop offset="1" stop-color="#5A409C"/>
</linearGradient>
<linearGradient id="paint7_linear_41743_62983" x1="21" y1="20.9805" x2="30.0695" y2="30.0004" gradientUnits="userSpaceOnUse">
<stop stop-color="#7751B8"/>
<stop offset="1" stop-color="#5A409C"/>
</linearGradient>
</defs>
</svg>
