<svg width="48" height="48" viewBox="0 0 48 48" fill="none" xmlns="http://www.w3.org/2000/svg">
<path d="M5 10C5 7.23858 7.23858 5 10 5H38C40.7614 5 43 7.23858 43 10V38C43 40.7614 40.7614 43 38 43H10C7.23858 43 5 40.7614 5 38V10Z" fill="url(#paint0_linear_41743_62435)"/>
<path d="M5 10C5 7.23858 7.23858 5 10 5H38C40.7614 5 43 7.23858 43 10V38C43 40.7614 40.7614 43 38 43H10C7.23858 43 5 40.7614 5 38V10Z" fill="url(#paint1_radial_41743_62435)" fill-opacity="0.2"/>
<path fill-rule="evenodd" clip-rule="evenodd" d="M38 6H10C7.79086 6 6 7.79086 6 10V38C6 40.2091 7.79086 42 10 42H38C40.2091 42 42 40.2091 42 38V10C42 7.79086 40.2091 6 38 6ZM10 5C7.23858 5 5 7.23858 5 10V38C5 40.7614 7.23858 43 10 43H38C40.7614 43 43 40.7614 43 38V10C43 7.23858 40.7614 5 38 5H10Z" fill="url(#paint2_linear_41743_62435)"/>
<path fill-rule="evenodd" clip-rule="evenodd" d="M15 17.5C15 16.6716 15.6716 16 16.5 16L22.5 16C23.3284 16 24 16.6716 24 17.5V24H30.5C31.3284 24 32 24.6716 32 25.5V31.5C32 32.3284 31.3284 33 30.5 33H16.5C15.6716 33 15 32.3284 15 31.5V17.5ZM16.5 17L22.5 17C22.7761 17 23 17.2239 23 17.5L23 24L16 24L16 17.5C16 17.2239 16.2239 17 16.5 17ZM16 25V31.5C16 31.7761 16.2239 32 16.5 32H23V25H16ZM24 25L24 32H30.5C30.7761 32 31 31.7761 31 31.5V25.5C31 25.2239 30.7761 25 30.5 25L24 25Z" fill="url(#paint3_linear_41743_62435)"/>
<path d="M23.4501 18.83C22.8643 19.4158 22.8643 20.3655 23.4501 20.9513L26.9856 24.4868C27.5714 25.0726 28.5211 25.0726 29.1069 24.4868L32.6425 20.9513C33.2283 20.3655 33.2283 19.4158 32.6425 18.83L29.1069 15.2944C28.5211 14.7086 27.5714 14.7086 26.9856 15.2944L23.4501 18.83Z" fill="url(#paint4_linear_41743_62435)"/>
<defs>
<linearGradient id="paint0_linear_41743_62435" x1="15.5556" y1="5" x2="20.3624" y2="43.4547" gradientUnits="userSpaceOnUse">
<stop stop-color="white"/>
<stop offset="1" stop-color="#EBEBEB"/>
</linearGradient>
<radialGradient id="paint1_radial_41743_62435" cx="0" cy="0" r="1" gradientUnits="userSpaceOnUse" gradientTransform="translate(17.1389 14.8958) rotate(56.3099) scale(36.1557 31.2886)">
<stop offset="0.177083" stop-color="white"/>
<stop offset="1" stop-color="#B8B8B8"/>
</radialGradient>
<linearGradient id="paint2_linear_41743_62435" x1="17.2708" y1="5" x2="22.3873" y2="43.3734" gradientUnits="userSpaceOnUse">
<stop stop-color="#BBBBBB"/>
<stop offset="1" stop-color="#888888"/>
</linearGradient>
<linearGradient id="paint3_linear_41743_62435" x1="15" y1="16" x2="32" y2="33" gradientUnits="userSpaceOnUse">
<stop stop-color="#EB6D00"/>
<stop offset="1" stop-color="#B85500"/>
</linearGradient>
<linearGradient id="paint4_linear_41743_62435" x1="23.0107" y1="14.8551" x2="33.0818" y2="24.9262" gradientUnits="userSpaceOnUse">
<stop stop-color="#EB6D00"/>
<stop offset="1" stop-color="#B85500"/>
</linearGradient>
</defs>
</svg>
