<svg width="32" height="32" viewBox="0 0 32 32" fill="none" xmlns="http://www.w3.org/2000/svg">
<path d="M3 6.5C3 4.567 4.567 3 6.5 3H25.5C27.433 3 29 4.567 29 6.5V25.5C29 27.433 27.433 29 25.5 29H6.5C4.567 29 3 27.433 3 25.5V6.5Z" fill="url(#paint0_linear_41743_62440)"/>
<path d="M3 6.5C3 4.567 4.567 3 6.5 3H25.5C27.433 3 29 4.567 29 6.5V25.5C29 27.433 27.433 29 25.5 29H6.5C4.567 29 3 27.433 3 25.5V6.5Z" fill="url(#paint1_radial_41743_62440)" fill-opacity="0.2"/>
<path fill-rule="evenodd" clip-rule="evenodd" d="M25.5 4H6.5C5.11929 4 4 5.11929 4 6.5V25.5C4 26.8807 5.11929 28 6.5 28H25.5C26.8807 28 28 26.8807 28 25.5V6.5C28 5.11929 26.8807 4 25.5 4ZM6.5 3C4.567 3 3 4.567 3 6.5V25.5C3 27.433 4.567 29 6.5 29H25.5C27.433 29 29 27.433 29 25.5V6.5C29 4.567 27.433 3 25.5 3H6.5Z" fill="url(#paint2_linear_41743_62440)"/>
<path fill-rule="evenodd" clip-rule="evenodd" d="M15.875 16L15.875 12.5C15.875 11.6716 15.2034 11 14.375 11H11.375C10.5466 11 9.875 11.6716 9.875 12.5V20.5C9.875 21.3284 10.5466 22 11.375 22H19.375C20.2034 22 20.875 21.3284 20.875 20.5V17.5C20.875 16.6716 20.2034 16 19.375 16H15.875ZM14.375 12H11.375C11.0989 12 10.875 12.2239 10.875 12.5V16H14.875V12.5C14.875 12.2239 14.6511 12 14.375 12ZM15.875 21H19.375C19.6511 21 19.875 20.7761 19.875 20.5V17.5C19.875 17.2239 19.6511 17 19.375 17H15.875V21ZM14.875 21V17H10.875V20.5C10.875 20.7761 11.0989 21 11.375 21H14.875Z" fill="url(#paint3_linear_41743_62440)"/>
<path d="M17.5645 10.4325C18.1503 9.84675 19.1001 9.84675 19.6858 10.4325L21.4536 12.2003C22.0394 12.7861 22.0394 13.7358 21.4536 14.3216L19.6858 16.0894C19.1001 16.6752 18.1503 16.6752 17.5645 16.0894L15.7968 14.3216C15.211 13.7358 15.211 12.7861 15.7968 12.2003L17.5645 10.4325Z" fill="url(#paint4_linear_41743_62440)"/>
<defs>
<linearGradient id="paint0_linear_41743_62440" x1="10.2222" y1="3" x2="13.5111" y2="29.3111" gradientUnits="userSpaceOnUse">
<stop stop-color="white"/>
<stop offset="1" stop-color="#EBEBEB"/>
</linearGradient>
<radialGradient id="paint1_radial_41743_62440" cx="0" cy="0" r="1" gradientUnits="userSpaceOnUse" gradientTransform="translate(11.3056 9.77083) rotate(56.3099) scale(24.7381 21.408)">
<stop offset="0.177083" stop-color="white"/>
<stop offset="1" stop-color="#B8B8B8"/>
</radialGradient>
<linearGradient id="paint2_linear_41743_62440" x1="11.3958" y1="3" x2="14.8966" y2="29.2555" gradientUnits="userSpaceOnUse">
<stop stop-color="#BBBBBB"/>
<stop offset="1" stop-color="#888888"/>
</linearGradient>
<linearGradient id="paint3_linear_41743_62440" x1="9.875" y1="11" x2="20.875" y2="22" gradientUnits="userSpaceOnUse">
<stop stop-color="#EB6D00"/>
<stop offset="1" stop-color="#B85500"/>
</linearGradient>
<linearGradient id="paint4_linear_41743_62440" x1="15.3574" y1="9.99319" x2="21.893" y2="16.5287" gradientUnits="userSpaceOnUse">
<stop stop-color="#EB6D00"/>
<stop offset="1" stop-color="#B85500"/>
</linearGradient>
</defs>
</svg>
