<svg width="24" height="24" viewBox="0 0 24 24" fill="none" xmlns="http://www.w3.org/2000/svg">
<rect x="2.5" y="2.5" width="19" height="19" rx="2.5" fill="url(#paint0_linear_41743_63629)"/>
<rect x="2.5" y="2.5" width="19" height="19" rx="2.5" fill="url(#paint1_radial_41743_63629)" fill-opacity="0.2"/>
<rect x="2.5" y="2.5" width="19" height="19" rx="2.5" stroke="url(#paint2_linear_41743_63629)"/>
<g clip-path="url(#clip0_41743_63629)">
<path d="M7.29727 9.09552C7.27927 9.09562 7.26142 9.09215 7.24476 9.08531C7.22811 9.07847 7.21298 9.06839 7.20025 9.05566C7.18751 9.04292 7.17743 9.02779 7.17059 9.01114C7.16375 8.99448 7.16028 8.97664 7.16038 8.95863C7.15976 8.54441 6.99494 8.14732 6.70204 7.85442C6.40914 7.56152 6.01205 7.39669 5.59783 7.39608C5.56166 7.39608 5.52695 7.38176 5.50131 7.35626C5.47566 7.33075 5.46114 7.29614 5.46094 7.25996C5.46094 7.22366 5.47536 7.18884 5.50103 7.16317C5.5267 7.1375 5.56152 7.12308 5.59783 7.12308C6.01219 7.12246 6.40939 6.95753 6.70231 6.66446C6.99524 6.37139 7.15997 5.9741 7.16038 5.55974C7.16028 5.54174 7.16375 5.52389 7.17059 5.50724C7.17743 5.49058 7.18751 5.47545 7.20025 5.46272C7.21298 5.44999 7.22811 5.43991 7.24476 5.43306C7.26142 5.42622 7.27927 5.42275 7.29727 5.42285C7.31528 5.42275 7.33312 5.42622 7.34978 5.43306C7.36643 5.43991 7.38156 5.44999 7.3943 5.46272C7.40703 5.47545 7.41711 5.49058 7.42395 5.50724C7.43079 5.52389 7.43426 5.54174 7.43416 5.55974C7.43478 5.97397 7.5996 6.37105 7.8925 6.66395C8.18541 6.95686 8.58249 7.12168 8.99672 7.1223C9.01472 7.1222 9.03257 7.12567 9.04922 7.13251C9.06588 7.13935 9.08101 7.14943 9.09374 7.16216C9.10647 7.17489 9.11655 7.19003 9.12339 7.20668C9.13024 7.22333 9.13371 7.24118 9.1336 7.25919C9.13371 7.27719 9.13024 7.29504 9.12339 7.31169C9.11655 7.32835 9.10647 7.34348 9.09374 7.35621C9.08101 7.36894 9.06588 7.37902 9.04922 7.38587C9.03257 7.39271 9.01472 7.39618 8.99672 7.39608C8.58243 7.39649 8.18522 7.56125 7.89228 7.85419C7.59933 8.14714 7.43457 8.54434 7.43416 8.95863C7.43396 8.99487 7.41947 9.02957 7.39384 9.0552C7.36821 9.08083 7.33351 9.09532 7.29727 9.09552Z" fill="#50E6FF"/>
<path d="M17.1421 18.5773C17.113 18.5773 17.0851 18.5658 17.0645 18.5452C17.044 18.5246 17.0324 18.4967 17.0324 18.4676C17.032 18.1363 16.9002 17.8186 16.6659 17.5843C16.4316 17.35 16.1139 17.2182 15.7825 17.2178C15.7536 17.2178 15.7258 17.2063 15.7052 17.1859C15.6847 17.1655 15.6731 17.1378 15.6729 17.1089C15.6729 17.0798 15.6844 17.0519 15.705 17.0313C15.7255 17.0108 15.7534 16.9992 15.7825 16.9992C16.1139 16.999 16.4317 16.8672 16.6661 16.6329C16.9005 16.3985 17.0322 16.0807 17.0324 15.7493C17.0324 15.7202 17.044 15.6923 17.0645 15.6718C17.0851 15.6512 17.113 15.6396 17.1421 15.6396C17.1712 15.6396 17.1991 15.6512 17.2196 15.6718C17.2402 15.6923 17.2517 15.7202 17.2517 15.7493C17.2519 16.0807 17.3837 16.3985 17.6181 16.6329C17.8524 16.8672 18.1702 16.999 18.5016 16.9992C18.5307 16.9992 18.5586 17.0108 18.5792 17.0313C18.5997 17.0519 18.6113 17.0798 18.6113 17.1089C18.6113 17.138 18.5997 17.1658 18.5792 17.1864C18.5586 17.207 18.5307 17.2185 18.5016 17.2185C18.1703 17.2189 17.8526 17.3508 17.6183 17.5851C17.384 17.8194 17.2522 18.1371 17.2517 18.4684C17.2515 18.4974 17.2399 18.5251 17.2193 18.5455C17.1988 18.5659 17.171 18.5773 17.1421 18.5773Z" fill="#50E6FF"/>
<path d="M16.6425 10.8567C16.8619 11.7749 16.8041 12.7375 16.4763 13.6229C16.1486 14.5082 15.5657 15.2765 14.8013 15.8305C14.0369 16.3846 13.1254 16.6995 12.1821 16.7356C11.2387 16.7716 10.3058 16.527 9.50144 16.0329C8.69705 15.5387 8.05726 14.8171 7.66298 13.9593C7.26869 13.1015 7.13763 12.1461 7.28635 11.2138C7.43507 10.2816 7.85691 9.41435 8.49851 8.72182C9.14011 8.0293 9.97266 7.54258 10.8909 7.32322C12.1222 7.02907 13.4199 7.23609 14.4985 7.89874C15.5771 8.56139 16.3484 9.62539 16.6425 10.8567Z" fill="url(#paint3_radial_41743_63629)"/>
<mask id="mask0_41743_63629" style="mask-type:luminance" maskUnits="userSpaceOnUse" x="7" y="7" width="10" height="10">
<path d="M16.6425 10.8567C16.8619 11.7749 16.8041 12.7375 16.4763 13.6229C16.1486 14.5082 15.5657 15.2765 14.8013 15.8305C14.0369 16.3846 13.1254 16.6995 12.1821 16.7356C11.2387 16.7716 10.3058 16.527 9.50144 16.0329C8.69705 15.5387 8.05726 14.8171 7.66298 13.9593C7.26869 13.1015 7.13763 12.1461 7.28635 11.2138C7.43507 10.2816 7.85691 9.41435 8.49851 8.72182C9.14011 8.0293 9.97266 7.54258 10.8909 7.32322C12.1222 7.02907 13.4199 7.23609 14.4985 7.89874C15.5771 8.56139 16.3484 9.62539 16.6425 10.8567Z" fill="white"/>
</mask>
<g mask="url(#mask0_41743_63629)">
<path d="M9.44007 15.2002C9.60996 15.2047 9.77902 15.1751 9.9373 15.1132C10.0956 15.0513 10.2399 14.9584 10.3617 14.8399C10.4835 14.7214 10.5804 14.5797 10.6467 14.4232C10.7129 14.2667 10.7472 14.0985 10.7474 13.9286C10.7477 13.7587 10.7139 13.5904 10.6482 13.4337C10.5824 13.277 10.486 13.135 10.3645 13.0161C10.243 12.8973 10.099 12.8039 9.94092 12.7415C9.78283 12.6792 9.61386 12.6491 9.44396 12.653C9.44772 12.6168 9.44954 12.5805 9.4494 12.5441C9.44632 12.2042 9.3086 11.8794 9.06644 11.6409C8.82427 11.4024 8.49741 11.2696 8.15751 11.2717H7.2024C7.10896 11.9774 7.17164 12.695 7.386 13.3738C7.60036 14.0527 7.96118 14.6761 8.44296 15.2002H9.44007Z" fill="#F2F2F2"/>
<path d="M16.7014 11.078C16.7014 11.0663 16.7014 11.0547 16.696 11.0438C16.5421 10.2115 16.164 9.43699 15.6024 8.80377C15.5295 8.77426 15.4544 8.75084 15.3776 8.73377C15.1732 8.67546 14.9583 8.66429 14.749 8.70109C14.5397 8.7379 14.3414 8.82172 14.1692 8.94625C13.997 9.07078 13.8552 9.23276 13.7547 9.42C13.6541 9.60725 13.5974 9.81486 13.5887 10.0272C13.5371 10.0213 13.4852 10.0179 13.4332 10.0171C13.1146 10.0171 12.8063 10.1296 12.5626 10.3349C12.319 10.5401 12.1557 10.8249 12.1017 11.1388C12.0476 11.4528 12.1062 11.7757 12.2672 12.0507C12.4281 12.3256 12.6811 12.5348 12.9813 12.6413C13.1153 12.6939 13.2581 12.7203 13.4021 12.7191H14.981C15.6149 12.2392 16.1921 11.6886 16.7014 11.078Z" fill="#F2F2F2"/>
</g>
<path d="M18.3708 7.98045C17.8816 7.16611 16.7375 6.84878 15.1391 7.08678C14.5915 7.16439 14.0503 7.28189 13.5198 7.43834C13.9406 7.58362 14.3403 7.78423 14.7082 8.03489C14.8957 7.99367 15.0839 7.94467 15.2643 7.91745C15.5482 7.87325 15.835 7.85011 16.1222 7.84823C16.4031 7.80774 16.6896 7.83812 16.9557 7.9366C17.2218 8.03509 17.4591 8.19855 17.6459 8.41211C17.9438 8.90834 17.6926 9.75689 16.9568 10.7454C15.9342 12.0182 14.6812 13.0871 13.2631 13.8962C11.8768 14.7614 10.3402 15.3583 8.73334 15.6556C7.5169 15.8376 6.64734 15.6556 6.34945 15.1609C6.05156 14.6662 6.30279 13.8153 7.03856 12.8314C7.12956 12.7093 7.15212 12.6494 7.25556 12.5266C7.20694 12.1049 7.21374 11.6787 7.27579 11.2588C6.94511 11.5902 6.64085 11.947 6.36579 12.3259C5.40212 13.6147 5.14079 14.7736 5.62923 15.5879C5.88726 15.9331 6.23139 16.2045 6.62721 16.375C7.02304 16.5455 7.45668 16.609 7.88479 16.5593C8.2106 16.5576 8.53583 16.5316 8.85779 16.4816C10.573 16.1685 12.2139 15.5352 13.6948 14.6149C15.2072 13.7494 16.5426 12.6063 17.6311 11.2456C18.5979 9.95367 18.8592 8.79556 18.3708 7.98045Z" fill="#50E6FF"/>
</g>
<path d="M23 19.5C23 21.433 21.433 23 19.5 23C17.567 23 16 21.433 16 19.5C16 17.567 17.567 16 19.5 16C21.433 16 23 17.567 23 19.5Z" fill="#B8B8B8"/>
<path fill-rule="evenodd" clip-rule="evenodd" d="M24 19.5C24 21.9853 21.9853 24 19.5 24C17.0147 24 15 21.9853 15 19.5C15 17.0147 17.0147 15 19.5 15C21.9853 15 24 17.0147 24 19.5ZM19.5 23C21.433 23 23 21.433 23 19.5C23 17.567 21.433 16 19.5 16C17.567 16 16 17.567 16 19.5C16 21.433 17.567 23 19.5 23Z" fill="#F5F5F5"/>
<defs>
<linearGradient id="paint0_linear_41743_63629" x1="7.55556" y1="2" x2="10.0855" y2="22.2393" gradientUnits="userSpaceOnUse">
<stop stop-color="white"/>
<stop offset="1" stop-color="#EBEBEB"/>
</linearGradient>
<radialGradient id="paint1_radial_41743_63629" cx="0" cy="0" r="1" gradientUnits="userSpaceOnUse" gradientTransform="translate(8.38889 7.20833) rotate(56.3099) scale(19.0293 16.4677)">
<stop offset="0.177083" stop-color="white"/>
<stop offset="1" stop-color="#B8B8B8"/>
</radialGradient>
<linearGradient id="paint2_linear_41743_63629" x1="8.45833" y1="2" x2="11.1512" y2="22.1965" gradientUnits="userSpaceOnUse">
<stop stop-color="#BBBBBB"/>
<stop offset="1" stop-color="#888888"/>
</linearGradient>
<radialGradient id="paint3_radial_41743_63629" cx="0" cy="0" r="1" gradientUnits="userSpaceOnUse" gradientTransform="translate(11.9633 11.9642) scale(4.7976 4.75592)">
<stop offset="0.183" stop-color="#5EA0EF"/>
<stop offset="1" stop-color="#0078D4"/>
</radialGradient>
<clipPath id="clip0_41743_63629">
<rect width="14" height="14" fill="white" transform="translate(5 5)"/>
</clipPath>
</defs>
</svg>
