<svg width="32" height="32" viewBox="0 0 32 32" fill="none" xmlns="http://www.w3.org/2000/svg">
<rect x="3.5" y="3.5" width="25" height="25" rx="3" fill="url(#paint0_linear_41743_63501)"/>
<rect x="3.5" y="3.5" width="25" height="25" rx="3" fill="url(#paint1_radial_41743_63501)" fill-opacity="0.2"/>
<rect x="3.5" y="3.5" width="25" height="25" rx="3" stroke="url(#paint2_linear_41743_63501)"/>
<path d="M21.047 14.5849C21.0083 13.3392 20.4797 12.1591 19.576 11.3008C18.6723 10.4425 17.4665 9.97547 16.2204 10.001C15.2126 9.98906 14.2261 10.2916 13.3983 10.8665C12.5704 11.4414 11.9424 12.2601 11.6016 13.2086C10.5403 13.3521 9.56561 13.8714 8.85445 14.6721C8.14328 15.4728 7.74276 16.502 7.72559 17.5728C7.75737 18.7773 8.2659 19.9199 9.13951 20.7497C10.0131 21.5796 11.1804 22.0287 12.3849 21.9986H20.4311C21.4278 21.9737 22.3782 21.5724 23.0911 20.8753C23.8041 20.1783 24.2267 19.2371 24.274 18.2412C24.2555 17.3485 23.9212 16.4913 23.3304 15.8218C22.7395 15.1524 21.9305 14.7141 21.047 14.5849Z" fill="url(#paint3_linear_41743_63501)"/>
<path d="M19.5855 18.4922V15.3664H18.7581V19.1633H21.0197V18.4922H19.5855ZM13.0214 16.9569C12.8505 16.8882 12.6921 16.792 12.5525 16.6719C12.5154 16.6326 12.4866 16.5864 12.4677 16.5359C12.4487 16.4854 12.44 16.4316 12.4422 16.3777C12.4395 16.3237 12.4508 16.27 12.475 16.2217C12.4991 16.1734 12.5353 16.1321 12.5801 16.1019C12.6932 16.0238 12.8289 15.9851 12.9662 15.9915C13.2936 15.9768 13.6168 16.0705 13.8855 16.2582V15.4675C13.5918 15.3582 13.2794 15.3082 12.9662 15.3204C12.6055 15.3013 12.2499 15.4122 11.9641 15.633C11.8395 15.729 11.7395 15.8533 11.6724 15.9956C11.6053 16.1378 11.5729 16.294 11.578 16.4512C11.578 16.9201 11.8722 17.2878 12.4973 17.5636C12.7002 17.65 12.8917 17.7612 13.0673 17.8946C13.1104 17.9306 13.145 17.9756 13.1688 18.0265C13.1926 18.0773 13.2051 18.1327 13.2052 18.1888C13.2052 18.2446 13.1918 18.2996 13.1662 18.3491C13.1406 18.3987 13.1036 18.4414 13.0581 18.4738C12.9331 18.5473 12.7892 18.5824 12.6444 18.5749C12.2746 18.5719 11.9185 18.4347 11.6423 18.1888V19.0438C11.946 19.2002 12.2847 19.2762 12.626 19.2644C13.0114 19.2875 13.3934 19.1807 13.7109 18.9611C13.823 18.8548 13.9089 18.7239 13.9615 18.5786C14.0142 18.4334 14.0323 18.2779 14.0143 18.1244C14.0188 17.8891 13.9371 17.6601 13.7844 17.4809C13.5695 17.2548 13.3096 17.0762 13.0214 16.9569ZM17.8388 18.4186C18.0384 18.0988 18.1442 17.7293 18.1442 17.3522C18.1442 16.9751 18.0384 16.6056 17.8388 16.2857C17.6953 15.9986 17.4718 15.7591 17.1952 15.5962C16.915 15.4374 16.598 15.355 16.2759 15.3572C15.9287 15.3496 15.5858 15.4354 15.283 15.6054C14.999 15.7636 14.7662 15.9997 14.6118 16.2857C14.4493 16.6109 14.3673 16.9703 14.3728 17.3338C14.3746 17.6532 14.4501 17.9678 14.5934 18.2532C14.734 18.5369 14.9545 18.7734 15.2278 18.9335C15.5054 19.103 15.8221 19.198 16.1472 19.2093L16.9378 20.1286H18.0502L16.9194 19.1174C17.3002 19.0031 17.6268 18.7549 17.8388 18.4186ZM16.9194 18.1888C16.8357 18.2927 16.729 18.3758 16.6078 18.4316C16.4866 18.4874 16.3541 18.5145 16.2207 18.5106C16.0863 18.5152 15.9527 18.4876 15.8311 18.43C15.7096 18.3724 15.6036 18.2866 15.522 18.1796C15.3279 17.914 15.2335 17.5885 15.2554 17.2603C15.234 16.932 15.3283 16.6067 15.522 16.3409C15.6085 16.2342 15.7179 16.1483 15.8419 16.0894C15.966 16.0306 16.1017 16.0003 16.2391 16.0007C16.3734 15.9949 16.5069 16.023 16.6275 16.0824C16.748 16.1419 16.8516 16.2308 16.9286 16.3409C17.1098 16.6119 17.197 16.9349 17.1768 17.2603C17.209 17.591 17.1173 17.9219 16.9194 18.1888Z" fill="#F2F2F2"/>
<defs>
<linearGradient id="paint0_linear_41743_63501" x1="10.2222" y1="3" x2="13.5111" y2="29.3111" gradientUnits="userSpaceOnUse">
<stop stop-color="white"/>
<stop offset="1" stop-color="#EBEBEB"/>
</linearGradient>
<radialGradient id="paint1_radial_41743_63501" cx="0" cy="0" r="1" gradientUnits="userSpaceOnUse" gradientTransform="translate(11.3056 9.77083) rotate(56.3099) scale(24.7381 21.408)">
<stop offset="0.177083" stop-color="white"/>
<stop offset="1" stop-color="#B8B8B8"/>
</radialGradient>
<linearGradient id="paint2_linear_41743_63501" x1="11.3958" y1="3" x2="14.8966" y2="29.2555" gradientUnits="userSpaceOnUse">
<stop stop-color="#BBBBBB"/>
<stop offset="1" stop-color="#888888"/>
</linearGradient>
<linearGradient id="paint3_linear_41743_63501" x1="16.8346" y1="22.6688" x2="14.6355" y2="10.2023" gradientUnits="userSpaceOnUse">
<stop offset="0.15" stop-color="#0078D4"/>
<stop offset="0.8" stop-color="#5EA0EF"/>
<stop offset="1" stop-color="#83B9F9"/>
</linearGradient>
</defs>
</svg>
