<svg width="40" height="40" viewBox="0 0 40 40" fill="none" xmlns="http://www.w3.org/2000/svg">
<rect x="4.5" y="4.5" width="31" height="31" rx="3.5" fill="url(#paint0_linear_41743_63661)"/>
<rect x="4.5" y="4.5" width="31" height="31" rx="3.5" fill="url(#paint1_radial_41743_63661)" fill-opacity="0.2"/>
<rect x="4.5" y="4.5" width="31" height="31" rx="3.5" stroke="url(#paint2_linear_41743_63661)"/>
<g clip-path="url(#clip0_41743_63661)">
<path d="M13.2825 15.8512C13.2568 15.8513 13.2313 15.8464 13.2075 15.8366C13.1837 15.8268 13.1621 15.8124 13.1439 15.7942C13.1257 15.776 13.1113 15.7544 13.1015 15.7306C13.0918 15.7068 13.0868 15.6813 13.087 15.6556C13.0861 15.0639 12.8506 14.4966 12.4322 14.0782C12.0137 13.6597 11.4465 13.4243 10.8547 13.4234C10.8031 13.4234 10.7535 13.4029 10.7168 13.3665C10.6802 13.3301 10.6595 13.2806 10.6592 13.2289C10.6592 13.1771 10.6798 13.1273 10.7165 13.0907C10.7531 13.054 10.8029 13.0334 10.8547 13.0334C11.4467 13.0325 12.0141 12.7969 12.4326 12.3782C12.851 11.9595 13.0864 11.392 13.087 10.8001C13.0868 10.7743 13.0918 10.7488 13.1015 10.725C13.1113 10.7012 13.1257 10.6796 13.1439 10.6614C13.1621 10.6433 13.1837 10.6289 13.2075 10.6191C13.2313 10.6093 13.2568 10.6043 13.2825 10.6045C13.3082 10.6043 13.3337 10.6093 13.3575 10.6191C13.3813 10.6289 13.4029 10.6433 13.4211 10.6614C13.4393 10.6796 13.4537 10.7012 13.4635 10.725C13.4733 10.7488 13.4782 10.7743 13.4781 10.8001C13.479 11.3918 13.7144 11.9591 14.1328 12.3775C14.5513 12.7959 15.1185 13.0314 15.7103 13.0323C15.736 13.0321 15.7615 13.0371 15.7853 13.0469C15.8091 13.0566 15.8307 13.071 15.8489 13.0892C15.8671 13.1074 15.8815 13.129 15.8913 13.1528C15.901 13.1766 15.906 13.2021 15.9058 13.2278C15.906 13.2536 15.901 13.279 15.8913 13.3028C15.8815 13.3266 15.8671 13.3482 15.8489 13.3664C15.8307 13.3846 15.8091 13.399 15.7853 13.4088C15.7615 13.4186 15.736 13.4235 15.7103 13.4234C15.1184 13.424 14.551 13.6593 14.1325 14.0778C13.714 14.4963 13.4787 15.0638 13.4781 15.6556C13.4778 15.7074 13.4571 15.757 13.4205 15.7936C13.3839 15.8302 13.3343 15.8509 13.2825 15.8512Z" fill="#50E6FF"/>
<path d="M27.346 29.3959C27.3044 29.3959 27.2646 29.3794 27.2352 29.35C27.2058 29.3206 27.1893 29.2808 27.1893 29.2392C27.1887 28.7658 27.0004 28.312 26.6657 27.9773C26.3309 27.6426 25.8771 27.4543 25.4037 27.4537C25.3624 27.4537 25.3227 27.4373 25.2933 27.4082C25.264 27.379 25.2474 27.3395 25.2471 27.2981C25.2471 27.2566 25.2636 27.2167 25.293 27.1873C25.3223 27.1579 25.3622 27.1414 25.4037 27.1414C25.8772 27.1411 26.3312 26.9529 26.666 26.6181C27.0008 26.2833 27.189 25.8294 27.1893 25.3559C27.1893 25.3143 27.2058 25.2745 27.2352 25.2451C27.2646 25.2157 27.3044 25.1992 27.346 25.1992C27.3875 25.1992 27.4274 25.2157 27.4567 25.2451C27.4861 25.2745 27.5026 25.3143 27.5026 25.3559C27.5029 25.8294 27.6911 26.2833 28.0259 26.6181C28.3607 26.9529 28.8147 27.1411 29.2882 27.1414C29.3297 27.1414 29.3696 27.1579 29.399 27.1873C29.4283 27.2167 29.4448 27.2566 29.4448 27.2981C29.4448 27.3397 29.4283 27.3795 29.399 27.4089C29.3696 27.4383 29.3297 27.4548 29.2882 27.4548C28.8148 27.4554 28.361 27.6437 28.0263 27.9784C27.6915 28.3131 27.5032 28.767 27.5026 29.2403C27.5023 29.2817 27.4857 29.3213 27.4563 29.3504C27.427 29.3795 27.3873 29.3959 27.346 29.3959Z" fill="#50E6FF"/>
<path d="M26.6318 18.3663C26.9452 19.678 26.8626 21.0532 26.3944 22.318C25.9262 23.5828 25.0934 24.6803 24.0015 25.4718C22.9095 26.2633 21.6074 26.7132 20.2597 26.7647C18.912 26.8161 17.5794 26.4668 16.4302 25.7608C15.2811 25.0549 14.3671 24.024 13.8039 22.7986C13.2406 21.5732 13.0534 20.2083 13.2658 18.8765C13.4783 17.5447 14.0809 16.3058 14.9975 15.3165C15.914 14.3272 17.1034 13.6319 18.4151 13.3185C20.1741 12.8983 22.028 13.194 23.5689 14.1407C25.1098 15.0873 26.2116 16.6073 26.6318 18.3663Z" fill="url(#paint3_radial_41743_63661)"/>
<mask id="mask0_41743_63661" style="mask-type:luminance" maskUnits="userSpaceOnUse" x="13" y="13" width="14" height="14">
<path d="M26.6318 18.3663C26.9452 19.678 26.8626 21.0532 26.3944 22.318C25.9262 23.5828 25.0934 24.6803 24.0015 25.4718C22.9095 26.2633 21.6074 26.7132 20.2597 26.7647C18.912 26.8161 17.5794 26.4668 16.4302 25.7608C15.2811 25.0549 14.3671 24.024 13.8039 22.7986C13.2406 21.5732 13.0534 20.2083 13.2658 18.8765C13.4783 17.5447 14.0809 16.3058 14.9975 15.3165C15.914 14.3272 17.1034 13.6319 18.4151 13.3185C20.1741 12.8983 22.028 13.194 23.5689 14.1407C25.1098 15.0873 26.2116 16.6073 26.6318 18.3663Z" fill="white"/>
</mask>
<g mask="url(#mask0_41743_63661)">
<path d="M16.3429 24.5714C16.5856 24.5778 16.8271 24.5355 17.0532 24.4471C17.2794 24.3587 17.4855 24.226 17.6595 24.0567C17.8336 23.8874 17.972 23.685 18.0666 23.4615C18.1612 23.2379 18.2102 22.9976 18.2106 22.7548C18.2109 22.5121 18.1627 22.2717 18.0688 22.0478C17.9748 21.8239 17.837 21.6211 17.6635 21.4513C17.49 21.2815 17.2843 21.1481 17.0584 21.059C16.8326 20.9699 16.5912 20.9269 16.3485 20.9326C16.3538 20.8809 16.3564 20.829 16.3562 20.777C16.3518 20.2914 16.1551 19.8274 15.8091 19.4867C15.4632 19.1459 14.9963 18.9563 14.5107 18.9592H13.1462C13.0128 19.9674 13.1023 20.9926 13.4085 21.9623C13.7148 22.9321 14.2302 23.8228 14.9185 24.5714H16.3429Z" fill="#F2F2F2"/>
<path d="M26.7162 18.6829C26.7162 18.6663 26.7162 18.6496 26.7085 18.634C26.4887 17.4451 25.9485 16.3386 25.1462 15.434C25.0422 15.3919 24.9347 15.3584 24.8251 15.334C24.5332 15.2507 24.2261 15.2348 23.9271 15.2874C23.628 15.3399 23.3448 15.4597 23.0988 15.6376C22.8528 15.8155 22.6503 16.0469 22.5067 16.3144C22.363 16.5819 22.282 16.8785 22.2696 17.1818C22.1958 17.1733 22.1216 17.1685 22.0473 17.1674C21.5922 17.1673 21.1518 17.3281 20.8037 17.6213C20.4557 17.9146 20.2224 18.3214 20.1452 18.7699C20.068 19.2184 20.1517 19.6797 20.3816 20.0725C20.6116 20.4652 20.9729 20.7641 21.4018 20.9163C21.5932 20.9913 21.7973 21.029 22.0029 21.0274H24.2585C25.1641 20.3418 25.9887 19.5553 26.7162 18.6829Z" fill="#F2F2F2"/>
</g>
<path d="M29.1011 14.2578C28.4022 13.0944 26.7678 12.6411 24.4845 12.9811C23.7021 13.092 22.929 13.2598 22.1711 13.4833C22.7723 13.6909 23.3433 13.9775 23.8689 14.3356C24.1367 14.2767 24.4056 14.2067 24.6633 14.1678C25.0689 14.1046 25.4785 14.0716 25.8889 14.0689C26.2901 14.0111 26.6994 14.0545 27.0796 14.1951C27.4597 14.3358 27.7987 14.5694 28.0656 14.8744C28.4911 15.5833 28.1322 16.7956 27.0811 18.2078C25.6203 20.026 23.8302 21.553 21.8045 22.7089C19.824 23.9449 17.6289 24.7975 15.3333 25.2222C13.5956 25.4822 12.3533 25.2222 11.9278 24.5156C11.5022 23.8089 11.8611 22.5933 12.9122 21.1878C13.0422 21.0133 13.0744 20.9278 13.2222 20.7522C13.1528 20.1498 13.1625 19.541 13.2511 18.9411C12.7787 19.4146 12.3441 19.9243 11.9511 20.4656C10.5744 22.3067 10.2011 23.9622 10.8989 25.1256C11.2675 25.6187 11.7591 26.0064 12.3246 26.25C12.89 26.4935 13.5095 26.5843 14.1211 26.5133C14.5866 26.5109 15.0512 26.4737 15.5111 26.4022C17.9614 25.955 20.3056 25.0503 22.4211 23.7356C24.5817 22.4991 26.4895 20.8661 28.0445 18.9222C29.4256 17.0767 29.7989 15.4222 29.1011 14.2578Z" fill="#50E6FF"/>
</g>
<path d="M38 33C38 35.7614 35.7614 38 33 38C30.2386 38 28 35.7614 28 33C28 30.2386 30.2386 28 33 28C35.7614 28 38 30.2386 38 33Z" fill="#B8B8B8"/>
<path fill-rule="evenodd" clip-rule="evenodd" d="M39 33C39 36.3137 36.3137 39 33 39C29.6863 39 27 36.3137 27 33C27 29.6863 29.6863 27 33 27C36.3137 27 39 29.6863 39 33ZM33 38C35.7614 38 38 35.7614 38 33C38 30.2386 35.7614 28 33 28C30.2386 28 28 30.2386 28 33C28 35.7614 30.2386 38 33 38Z" fill="#F5F5F5"/>
<defs>
<linearGradient id="paint0_linear_41743_63661" x1="12.8889" y1="4" x2="16.9368" y2="36.3829" gradientUnits="userSpaceOnUse">
<stop stop-color="white"/>
<stop offset="1" stop-color="#EBEBEB"/>
</linearGradient>
<radialGradient id="paint1_radial_41743_63661" cx="0" cy="0" r="1" gradientUnits="userSpaceOnUse" gradientTransform="translate(14.2222 12.3333) rotate(56.3099) scale(30.4469 26.3483)">
<stop offset="0.177083" stop-color="white"/>
<stop offset="1" stop-color="#B8B8B8"/>
</radialGradient>
<linearGradient id="paint2_linear_41743_63661" x1="14.3333" y1="4" x2="18.6419" y2="36.3144" gradientUnits="userSpaceOnUse">
<stop stop-color="#BBBBBB"/>
<stop offset="1" stop-color="#888888"/>
</linearGradient>
<radialGradient id="paint3_radial_41743_63661" cx="0" cy="0" r="1" gradientUnits="userSpaceOnUse" gradientTransform="translate(19.9471 19.9484) scale(6.85372 6.79418)">
<stop offset="0.183" stop-color="#5EA0EF"/>
<stop offset="1" stop-color="#0078D4"/>
</radialGradient>
<clipPath id="clip0_41743_63661">
<rect width="20" height="20" fill="white" transform="translate(10 10)"/>
</clipPath>
</defs>
</svg>
