<svg width="64" height="64" viewBox="0 0 64 64" fill="none" xmlns="http://www.w3.org/2000/svg">
<rect x="6.5" y="6.5" width="51" height="51" rx="6.5" fill="url(#paint0_linear_41743_63521)"/>
<rect x="6.5" y="6.5" width="51" height="51" rx="6.5" fill="url(#paint1_radial_41743_63521)" fill-opacity="0.2"/>
<rect x="6.5" y="6.5" width="51" height="51" rx="6.5" stroke="url(#paint2_linear_41743_63521)"/>
<path d="M32 25.6427C25.9251 25.6427 21 23.9957 21 21.8216V42.1789C21 44.2706 25.8393 45.9671 31.8456 46H32C38.0749 46 43 44.353 43 42.1789V21.8216C43 23.9463 38.0749 25.6427 32 25.6427Z" fill="url(#paint3_linear_41743_63521)"/>
<path d="M43 21.8211C43 23.9458 38.0749 25.6422 32 25.6422C25.9251 25.6422 21 23.9952 21 21.8211C21 19.647 25.9251 18 32 18C38.0749 18 43 19.647 43 21.8211Z" fill="#E8E8E8"/>
<path d="M40.4427 21.4915C40.4427 22.8814 36.6502 24 31.9997 24C27.3492 24 23.5566 22.8814 23.5566 21.4915C23.5566 20.1017 27.3492 19 31.9997 19C36.6502 19 40.4427 20.1186 40.4427 21.4915Z" fill="#50E6FF"/>
<path d="M31.6118 24C28.964 23.9644 26.6275 23.5661 25.1621 22.9667C27.3711 22.2752 29.6819 21.9518 31.9994 22.0102C34.3459 21.938 36.6882 22.2478 38.9323 22.927C38.4695 23.1242 37.9139 23.3006 37.2845 23.4508C37.2213 23.4657 37.1581 23.4804 37.0948 23.4947C35.7981 23.7865 34.2097 23.9694 32.4855 23.9985C32.3236 23.9977 32.1615 23.9949 31.9994 23.9902C31.8702 23.9947 31.741 23.9979 31.6118 24Z" fill="#198AB3"/>
<path d="M38.5 35.953V30.3531H37V37.1553H41.1V35.953H38.5ZM26.6 33.2024C26.2903 33.0794 26.0032 32.9069 25.75 32.6919C25.6828 32.6216 25.6305 32.5388 25.5961 32.4483C25.5618 32.3578 25.5461 32.2614 25.55 32.1648C25.5449 32.0681 25.5653 31.9718 25.6091 31.8852C25.6529 31.7986 25.7187 31.7247 25.8 31.6707C26.005 31.5305 26.251 31.4611 26.5 31.4731C27.0936 31.4467 27.6794 31.6146 28.1667 31.9507V30.5343C27.6342 30.3385 27.0677 30.2489 26.5 30.2707C25.8461 30.2363 25.2015 30.435 24.6834 30.8307C24.4575 31.0028 24.2763 31.2254 24.1546 31.4803C24.0329 31.7351 23.9742 32.0149 23.9834 32.2966C23.9834 33.1366 24.5167 33.7954 25.65 34.2895C26.0181 34.4438 26.3652 34.643 26.6834 34.8824C26.7613 34.947 26.824 35.0277 26.8672 35.1187C26.9104 35.2097 26.9329 35.3089 26.9334 35.4095C26.9334 35.5094 26.9092 35.6079 26.8628 35.6968C26.8164 35.7856 26.7492 35.8622 26.6667 35.92C26.4399 36.0513 26.1792 36.1143 25.9167 36.1012C25.2463 36.0957 24.6008 35.8499 24.1 35.4095V36.9412C24.6504 37.2217 25.2645 37.3578 25.8834 37.3365C26.5819 37.3774 27.2743 37.1861 27.85 36.793C28.0534 36.6026 28.209 36.3681 28.3045 36.1079C28.3999 35.8477 28.4327 35.5691 28.4 35.2942C28.408 34.8725 28.2598 34.4625 27.9834 34.1412C27.5939 33.7359 27.1226 33.4161 26.6 33.2024ZM35.3334 35.8212C35.7117 35.1948 35.9025 34.4752 35.8834 33.746C35.8457 33.1286 35.657 32.5295 35.3334 32.0001C35.0732 31.4858 34.668 31.0568 34.1667 30.7648C33.6587 30.4803 33.0839 30.3326 32.5 30.3366C31.8706 30.3229 31.2489 30.4765 30.7 30.7813C30.1855 31.0651 29.7635 31.4878 29.4834 32.0001C29.1883 32.5825 29.0397 33.2265 29.05 33.8777C29.0535 34.4498 29.1904 35.0134 29.45 35.5248C29.7044 36.0335 30.1042 36.4573 30.6 36.7436C31.1034 37.047 31.6774 37.2171 32.2667 37.2377L33.7 38.8847H35.7167L33.6667 37.073C34.357 36.8683 34.949 36.4237 35.3334 35.8212ZM33.6667 35.4095C33.5149 35.5957 33.3216 35.7446 33.1018 35.8446C32.8821 35.9447 32.6419 35.993 32.4 35.9859C32.1564 35.9937 31.9144 35.944 31.6941 35.8408C31.4738 35.7377 31.2816 35.5842 31.1334 35.393C30.7811 34.9173 30.6099 34.3341 30.65 33.746C30.6113 33.158 30.7823 32.5752 31.1334 32.0989C31.2902 31.9078 31.4884 31.7539 31.7134 31.6485C31.9383 31.543 32.1844 31.4887 32.4334 31.4895C32.6767 31.4792 32.9188 31.5296 33.1373 31.6361C33.3558 31.7426 33.5436 31.9018 33.6834 32.0989C34.0117 32.5845 34.1698 33.1631 34.1334 33.746C34.1915 34.3384 34.0252 34.9311 33.6667 35.4095Z" fill="url(#paint4_radial_41743_63521)"/>
<path d="M61 54C61 57.866 57.866 61 54 61C50.134 61 47 57.866 47 54C47 50.134 50.134 47 54 47C57.866 47 61 50.134 61 54Z" fill="#B8B8B8"/>
<path fill-rule="evenodd" clip-rule="evenodd" d="M62 54C62 58.4183 58.4183 62 54 62C49.5817 62 46 58.4183 46 54C46 49.5817 49.5817 46 54 46C58.4183 46 62 49.5817 62 54ZM54 61C57.866 61 61 57.866 61 54C61 50.134 57.866 47 54 47C50.134 47 47 50.134 47 54C47 57.866 50.134 61 54 61Z" fill="#F5F5F5"/>
<defs>
<linearGradient id="paint0_linear_41743_63521" x1="20.4444" y1="6" x2="27.0222" y2="58.6222" gradientUnits="userSpaceOnUse">
<stop stop-color="white"/>
<stop offset="1" stop-color="#EBEBEB"/>
</linearGradient>
<radialGradient id="paint1_radial_41743_63521" cx="0" cy="0" r="1" gradientUnits="userSpaceOnUse" gradientTransform="translate(22.6111 19.5417) rotate(56.3099) scale(49.4762 42.8159)">
<stop offset="0.177083" stop-color="white"/>
<stop offset="1" stop-color="#B8B8B8"/>
</radialGradient>
<linearGradient id="paint2_linear_41743_63521" x1="22.7917" y1="6" x2="29.7931" y2="58.5109" gradientUnits="userSpaceOnUse">
<stop stop-color="#BBBBBB"/>
<stop offset="1" stop-color="#888888"/>
</linearGradient>
<linearGradient id="paint3_linear_41743_63521" x1="21" y1="33.9108" x2="43" y2="33.9108" gradientUnits="userSpaceOnUse">
<stop stop-color="#005BA1"/>
<stop offset="0.07" stop-color="#0060A9"/>
<stop offset="0.36" stop-color="#0071C8"/>
<stop offset="0.52" stop-color="#0078D4"/>
<stop offset="0.64" stop-color="#0074CD"/>
<stop offset="0.82" stop-color="#006ABB"/>
<stop offset="1" stop-color="#005BA1"/>
</linearGradient>
<radialGradient id="paint4_radial_41743_63521" cx="0" cy="0" r="1" gradientUnits="userSpaceOnUse" gradientTransform="translate(32.6 34.5859) scale(11.7833 11.6445)">
<stop stop-color="#F2F2F2"/>
<stop offset="0.58" stop-color="#EEEEEE"/>
<stop offset="1" stop-color="#E6E6E6"/>
</radialGradient>
</defs>
</svg>
