<svg width="48" height="48" viewBox="0 0 48 48" fill="none" xmlns="http://www.w3.org/2000/svg">
<rect x="5.5" y="5.5" width="37" height="37" rx="4.5" fill="url(#paint0_linear_41743_63496)"/>
<rect x="5.5" y="5.5" width="37" height="37" rx="4.5" fill="url(#paint1_radial_41743_63496)" fill-opacity="0.2"/>
<rect x="5.5" y="5.5" width="37" height="37" rx="4.5" stroke="url(#paint2_linear_41743_63496)"/>
<path d="M31.571 21.8773C31.513 20.0088 30.72 18.2386 29.3645 16.9512C28.0089 15.6638 26.2002 14.9632 24.3311 15.0015C22.8194 14.9835 21.3397 15.4373 20.0979 16.2997C18.8561 17.1621 17.9141 18.3901 17.4029 19.8129C15.8109 20.0282 14.3489 20.807 13.2822 22.0081C12.2154 23.2092 11.6146 24.753 11.5889 26.3592C11.6365 28.1659 12.3993 29.8798 13.7097 31.1246C15.0202 32.3693 16.771 33.043 18.5778 32.9978H30.6471C32.1422 32.9605 33.5678 32.3585 34.6372 31.3129C35.7066 30.2673 36.3405 28.8557 36.4114 27.3617C36.3838 26.0227 35.8823 24.7369 34.996 23.7327C34.1098 22.7286 32.8962 22.0712 31.571 21.8773Z" fill="url(#paint3_linear_41743_63496)"/>
<path d="M29.378 27.7382V23.0495H28.1369V28.7449H31.5293V27.7382H29.378ZM19.5317 25.4352C19.2754 25.3323 19.0378 25.1878 18.8284 25.0077C18.7728 24.9489 18.7296 24.8795 18.7012 24.8037C18.6728 24.728 18.6598 24.6473 18.6629 24.5664C18.659 24.4855 18.6759 24.4049 18.7121 24.3325C18.7484 24.26 18.8027 24.1981 18.8698 24.1527C19.0395 24.0356 19.243 23.9775 19.449 23.9872C19.9401 23.9651 20.4249 24.1057 20.828 24.3871V23.2012C20.3874 23.0372 19.9187 22.9622 19.449 22.9805C18.9079 22.9518 18.3746 23.1182 17.9458 23.4494C17.759 23.5935 17.609 23.7799 17.5083 23.9933C17.4076 24.2066 17.359 24.4409 17.3666 24.6767C17.3666 25.38 17.8079 25.9316 18.7457 26.3454C19.0501 26.4749 19.3372 26.6417 19.6007 26.8418C19.6652 26.8959 19.7172 26.9634 19.7529 27.0396C19.7886 27.1158 19.8073 27.1989 19.8075 27.2831C19.8074 27.3668 19.7874 27.4492 19.749 27.5236C19.7106 27.5979 19.655 27.6621 19.5869 27.7106C19.3993 27.8208 19.1835 27.8735 18.9663 27.8623C18.4116 27.8577 17.8775 27.6519 17.4632 27.2831V28.5656C17.9186 28.8003 18.4267 28.9142 18.9387 28.8966C19.5168 28.9312 20.0897 28.7709 20.566 28.4415C20.7342 28.2821 20.863 28.0857 20.942 27.8679C21.021 27.65 21.0481 27.4167 21.0211 27.1866C21.0279 26.8335 20.9053 26.4901 20.6763 26.2212C20.354 25.882 19.964 25.6142 19.5317 25.4352ZM26.7578 27.6279C27.0573 27.148 27.216 26.5938 27.216 26.0282C27.216 25.4626 27.0573 24.9083 26.7578 24.4285C26.5427 23.9978 26.2074 23.6385 25.7925 23.3942C25.3722 23.156 24.8966 23.0323 24.4135 23.0357C23.8927 23.0244 23.3783 23.1529 22.9241 23.408C22.4982 23.6454 22.149 23.9994 21.9174 24.4285C21.6736 24.9162 21.5506 25.4554 21.5589 26.0006C21.5616 26.4796 21.6748 26.9516 21.8899 27.3796C22.1007 27.8053 22.4315 28.16 22.8414 28.4001C23.2578 28.6544 23.7328 28.7969 24.2204 28.8138L25.4064 30.1929H27.075L25.3788 28.6759C25.95 28.5046 26.4398 28.1323 26.7578 27.6279ZM25.3788 27.2831C25.2532 27.4389 25.0932 27.5636 24.9114 27.6473C24.7296 27.7311 24.5308 27.7716 24.3307 27.7658C24.1291 27.7727 23.9287 27.7313 23.7464 27.6449C23.564 27.5585 23.405 27.4297 23.2827 27.2693C22.9915 26.8709 22.8499 26.3827 22.8828 25.8903C22.8506 25.398 22.9921 24.91 23.2827 24.5112C23.4125 24.3513 23.5765 24.2224 23.7626 24.1341C23.9487 24.0458 24.1523 24.0003 24.3583 24.001C24.5597 23.9922 24.7601 24.0343 24.9409 24.1235C25.1217 24.2127 25.277 24.3461 25.3926 24.5112C25.6644 24.9177 25.7952 25.4022 25.7649 25.8903C25.8132 26.3864 25.6756 26.8827 25.3788 27.2831Z" fill="#F2F2F2"/>
<defs>
<linearGradient id="paint0_linear_41743_63496" x1="15.5556" y1="5" x2="20.3624" y2="43.4547" gradientUnits="userSpaceOnUse">
<stop stop-color="white"/>
<stop offset="1" stop-color="#EBEBEB"/>
</linearGradient>
<radialGradient id="paint1_radial_41743_63496" cx="0" cy="0" r="1" gradientUnits="userSpaceOnUse" gradientTransform="translate(17.1389 14.8958) rotate(56.3099) scale(36.1557 31.2886)">
<stop offset="0.177083" stop-color="white"/>
<stop offset="1" stop-color="#B8B8B8"/>
</radialGradient>
<linearGradient id="paint2_linear_41743_63496" x1="17.2708" y1="5" x2="22.3873" y2="43.3734" gradientUnits="userSpaceOnUse">
<stop stop-color="#BBBBBB"/>
<stop offset="1" stop-color="#888888"/>
</linearGradient>
<linearGradient id="paint3_linear_41743_63496" x1="25.2523" y1="34.0032" x2="21.9537" y2="15.3035" gradientUnits="userSpaceOnUse">
<stop offset="0.15" stop-color="#0078D4"/>
<stop offset="0.8" stop-color="#5EA0EF"/>
<stop offset="1" stop-color="#83B9F9"/>
</linearGradient>
</defs>
</svg>
