<svg width="20" height="20" viewBox="0 0 20 20" fill="none" xmlns="http://www.w3.org/2000/svg">
<rect x="2.5" y="2.5" width="15" height="15" rx="2" fill="url(#paint0_linear_41743_63511)"/>
<rect x="2.5" y="2.5" width="15" height="15" rx="2" fill="url(#paint1_radial_41743_63511)" fill-opacity="0.2"/>
<rect x="2.5" y="2.5" width="15" height="15" rx="2" stroke="url(#paint2_linear_41743_63511)"/>
<path d="M13.3649 9.0566C13.339 8.22613 12.9866 7.43937 12.3842 6.86719C11.7817 6.29502 10.9778 5.98364 10.1471 6.00066C9.47523 5.99269 8.81757 6.19438 8.26567 6.57766C7.71377 6.96093 7.29509 7.50673 7.06789 8.13908C6.36036 8.23474 5.71057 8.5809 5.23646 9.11472C4.76235 9.64855 4.49534 10.3347 4.48389 11.0485C4.50507 11.8515 4.8441 12.6133 5.4265 13.1665C6.0089 13.7197 6.78706 14.0191 7.59008 13.9991H12.9542C13.6187 13.9825 14.2523 13.7149 14.7276 13.2502C15.2029 12.7855 15.4846 12.1581 15.5161 11.4941C15.5039 10.899 15.281 10.3275 14.8871 9.88122C14.4932 9.43493 13.9538 9.14275 13.3649 9.0566Z" fill="url(#paint3_linear_41743_63511)"/>
<path d="M12.3906 11.6614V9.57755H11.839V12.1088H13.3468V11.6614H12.3906ZM8.01451 10.6379C7.9006 10.5921 7.79499 10.5279 7.70193 10.4479C7.67724 10.4217 7.65801 10.3909 7.64538 10.3572C7.63275 10.3235 7.62697 10.2877 7.62838 10.2517C7.62662 10.2158 7.63416 10.18 7.65026 10.1478C7.66636 10.1156 7.69049 10.088 7.72032 10.0679C7.79576 10.0158 7.88619 9.99 7.97774 9.99433C8.19603 9.98452 8.41146 10.047 8.59064 10.1721V9.64497C8.39482 9.57211 8.18651 9.53878 7.97774 9.54691C7.73728 9.53416 7.50024 9.6081 7.30967 9.75529C7.22662 9.81932 7.15997 9.90217 7.11522 9.99701C7.07046 10.0918 7.04888 10.196 7.05225 10.3008C7.05225 10.6134 7.24838 10.8585 7.66516 11.0424C7.80044 11.1 7.92808 11.1741 8.04516 11.263C8.07384 11.2871 8.09693 11.3171 8.11281 11.3509C8.12869 11.3848 8.13698 11.4217 8.13709 11.4592C8.13706 11.4964 8.12814 11.533 8.11108 11.566C8.09403 11.5991 8.06932 11.6276 8.03903 11.6492C7.95567 11.6981 7.85977 11.7216 7.76322 11.7166C7.5167 11.7145 7.2793 11.6231 7.09516 11.4592V12.0292C7.29759 12.1335 7.52338 12.1841 7.75096 12.1763C8.00787 12.1916 8.26252 12.1204 8.47419 11.974C8.54897 11.9032 8.60619 11.8159 8.6413 11.7191C8.67641 11.6222 8.68845 11.5186 8.67645 11.4163C8.67951 11.2593 8.625 11.1067 8.52322 10.9872C8.37996 10.8365 8.20665 10.7175 8.01451 10.6379ZM11.2261 11.6124C11.3592 11.3991 11.4298 11.1528 11.4298 10.9014C11.4298 10.65 11.3592 10.4037 11.2261 10.1905C11.1305 9.99902 10.9815 9.83936 10.7971 9.73078C10.6103 9.62489 10.3989 9.56994 10.1842 9.57142C9.95271 9.56639 9.72413 9.62354 9.52225 9.73691C9.33296 9.84239 9.17773 9.99974 9.07483 10.1905C8.96645 10.4072 8.91179 10.6469 8.91548 10.8892C8.91667 11.1021 8.96701 11.3118 9.06257 11.5021C9.15629 11.6913 9.30329 11.8489 9.48548 11.9556C9.67056 12.0686 9.88166 12.132 10.0984 12.1395L10.6255 12.7524H11.3671L10.6132 12.0782C10.8671 12.0021 11.0848 11.8366 11.2261 11.6124ZM10.6132 11.4592C10.5574 11.5284 10.4863 11.5838 10.4055 11.621C10.3247 11.6583 10.2363 11.6763 10.1474 11.6737C10.0578 11.6768 9.96874 11.6584 9.88769 11.62C9.80665 11.5816 9.73598 11.5243 9.68161 11.453C9.5522 11.276 9.48927 11.059 9.50387 10.8401C9.48958 10.6213 9.55248 10.4044 9.68161 10.2272C9.73929 10.1561 9.81218 10.0988 9.89491 10.0596C9.97764 10.0204 10.0681 10.0001 10.1597 10.0005C10.2492 9.99654 10.3382 10.0153 10.4186 10.0549C10.4989 10.0945 10.568 10.1538 10.6193 10.2272C10.7401 10.4079 10.7983 10.6232 10.7848 10.8401C10.8063 11.0606 10.7451 11.2812 10.6132 11.4592Z" fill="#F2F2F2"/>
<defs>
<linearGradient id="paint0_linear_41743_63511" x1="6.44444" y1="2" x2="8.46838" y2="18.1915" gradientUnits="userSpaceOnUse">
<stop stop-color="white"/>
<stop offset="1" stop-color="#EBEBEB"/>
</linearGradient>
<radialGradient id="paint1_radial_41743_63511" cx="0" cy="0" r="1" gradientUnits="userSpaceOnUse" gradientTransform="translate(7.11111 6.16667) rotate(56.3099) scale(15.2234 13.1741)">
<stop offset="0.177083" stop-color="white"/>
<stop offset="1" stop-color="#B8B8B8"/>
</radialGradient>
<linearGradient id="paint2_linear_41743_63511" x1="7.16667" y1="2" x2="9.32096" y2="18.1572" gradientUnits="userSpaceOnUse">
<stop stop-color="#BBBBBB"/>
<stop offset="1" stop-color="#888888"/>
</linearGradient>
<linearGradient id="paint3_linear_41743_63511" x1="10.5565" y1="14.4459" x2="9.09047" y2="6.13489" gradientUnits="userSpaceOnUse">
<stop offset="0.15" stop-color="#0078D4"/>
<stop offset="0.8" stop-color="#5EA0EF"/>
<stop offset="1" stop-color="#83B9F9"/>
</linearGradient>
</defs>
</svg>
