<svg width="20" height="20" viewBox="0 0 20 20" fill="none" xmlns="http://www.w3.org/2000/svg">
<rect x="2.5" y="2.5" width="15" height="15" rx="2" fill="url(#paint0_linear_41743_63561)"/>
<rect x="2.5" y="2.5" width="15" height="15" rx="2" fill="url(#paint1_radial_41743_63561)" fill-opacity="0.2"/>
<rect x="2.5" y="2.5" width="15" height="15" rx="2" stroke="url(#paint2_linear_41743_63561)"/>
<path d="M9.97656 7.50258C7.62945 7.50258 5.72656 6.85554 5.72656 6.00145V13.9989C5.72656 14.8206 7.5963 15.4871 9.91689 15.5H9.97656C12.3237 15.5 14.2266 14.853 14.2266 13.9989V6.00145C14.2266 6.83613 12.3237 7.50258 9.97656 7.50258Z" fill="url(#paint3_linear_41743_63561)"/>
<path d="M14.2266 6.00113C14.2266 6.83581 12.3237 7.50227 9.97656 7.50227C7.62945 7.50227 5.72656 6.85523 5.72656 6.00113C5.72656 5.14704 7.62945 4.5 9.97656 4.5C12.3237 4.5 14.2266 5.14704 14.2266 6.00113Z" fill="#E8E8E8"/>
<path d="M13.238 5.87861C13.238 6.40918 11.7728 6.83623 9.97596 6.83623C8.17916 6.83623 6.71387 6.40918 6.71387 5.87861C6.71387 5.34804 8.17916 4.92746 9.97596 4.92746C11.7728 4.92746 13.238 5.35451 13.238 5.87861Z" fill="#50E6FF"/>
<path d="M9.97663 6.11784C9.10163 6.09603 8.22927 6.22078 7.39746 6.48666C8.23006 6.7476 9.10268 6.86581 9.97663 6.83606C10.8524 6.86109 11.7257 6.73402 12.5558 6.46078C11.7216 6.20719 10.8499 6.09129 9.97663 6.11784Z" fill="#198AB3"/>
<path d="M12.6 11.6004V9.33371H12V12.087H13.64V11.6004H12.6ZM7.84001 10.487C7.71613 10.4372 7.60127 10.3674 7.50001 10.2804C7.47312 10.2519 7.45219 10.2184 7.43845 10.1818C7.42471 10.1452 7.41844 10.1061 7.42001 10.067C7.41796 10.0279 7.4261 9.98891 7.44363 9.95385C7.46116 9.9188 7.48747 9.88889 7.52001 9.86704C7.602 9.81031 7.70042 9.78219 7.80001 9.78704C8.03745 9.77637 8.27178 9.84433 8.46667 9.98038V9.40704C8.25368 9.32779 8.02709 9.29154 7.80001 9.30038C7.53845 9.28645 7.28059 9.36688 7.07334 9.52704C6.98301 9.59669 6.91051 9.68681 6.86183 9.78996C6.81315 9.89312 6.78968 10.0064 6.79334 10.1204C6.79334 10.4604 7.00667 10.727 7.46001 10.927C7.60724 10.9895 7.7461 11.0701 7.87334 11.167C7.90451 11.1932 7.9296 11.2258 7.94687 11.2627C7.96414 11.2995 7.97317 11.3397 7.97334 11.3804C7.97336 11.4208 7.96368 11.4607 7.94512 11.4967C7.92657 11.5326 7.89967 11.5636 7.86667 11.587C7.77595 11.6402 7.67168 11.6657 7.56667 11.6604C7.29853 11.6582 7.04031 11.5587 6.84001 11.3804V12.0004C7.06017 12.1139 7.30579 12.169 7.55334 12.1604C7.83277 12.1769 8.10971 12.0995 8.34001 11.9404C8.42135 11.8633 8.48359 11.7684 8.52178 11.6631C8.55997 11.5578 8.57306 11.445 8.56001 11.3337C8.56321 11.163 8.50394 10.9971 8.39334 10.867C8.23758 10.703 8.04905 10.5735 7.84001 10.487ZM11.3333 11.547C11.4847 11.2935 11.561 11.0022 11.5533 10.707C11.5383 10.4572 11.4628 10.2147 11.3333 10.0004C11.2293 9.79219 11.0672 9.61855 10.8667 9.50038C10.6635 9.3852 10.4336 9.32543 10.2 9.32704C9.94822 9.32151 9.69957 9.38367 9.48001 9.50704C9.2742 9.62189 9.10538 9.79302 8.99334 10.0004C8.87532 10.2361 8.81586 10.4968 8.82001 10.7604C8.8214 10.9919 8.87615 11.2201 8.98001 11.427C9.08175 11.633 9.24169 11.8045 9.44001 11.9204C9.64137 12.0432 9.87096 12.1121 10.1067 12.1204L10.68 12.787H11.4867L10.6667 12.0537C10.9428 11.9709 11.1796 11.7909 11.3333 11.547ZM10.6667 11.3804C10.606 11.4558 10.5286 11.516 10.4407 11.5565C10.3528 11.597 10.2567 11.6166 10.16 11.6137C10.0626 11.6169 9.96576 11.5967 9.87765 11.555C9.78953 11.5132 9.71264 11.4511 9.65334 11.3737C9.51242 11.1812 9.44396 10.9451 9.46001 10.707C9.44453 10.4691 9.51294 10.2332 9.65334 10.0404C9.71609 9.96303 9.79536 9.90072 9.88535 9.85804C9.97534 9.81535 10.0737 9.79337 10.1733 9.79371C10.2707 9.78951 10.3675 9.80991 10.4549 9.85302C10.5423 9.89613 10.6174 9.96057 10.6733 10.0404C10.8047 10.2369 10.8679 10.4711 10.8533 10.707C10.8766 10.9469 10.8101 11.1868 10.6667 11.3804Z" fill="url(#paint4_radial_41743_63561)"/>
<path d="M19 16C19 17.6569 17.6569 19 16 19C14.3431 19 13 17.6569 13 16C13 14.3431 14.3431 13 16 13C17.6569 13 19 14.3431 19 16Z" fill="#B8B8B8"/>
<path fill-rule="evenodd" clip-rule="evenodd" d="M20 16C20 18.2091 18.2091 20 16 20C13.7909 20 12 18.2091 12 16C12 13.7909 13.7909 12 16 12C18.2091 12 20 13.7909 20 16ZM16 19C17.6569 19 19 17.6569 19 16C19 14.3431 17.6569 13 16 13C14.3431 13 13 14.3431 13 16C13 17.6569 14.3431 19 16 19Z" fill="#F5F5F5"/>
<defs>
<linearGradient id="paint0_linear_41743_63561" x1="6.44444" y1="2" x2="8.46838" y2="18.1915" gradientUnits="userSpaceOnUse">
<stop stop-color="white"/>
<stop offset="1" stop-color="#EBEBEB"/>
</linearGradient>
<radialGradient id="paint1_radial_41743_63561" cx="0" cy="0" r="1" gradientUnits="userSpaceOnUse" gradientTransform="translate(7.11111 6.16667) rotate(56.3099) scale(15.2234 13.1741)">
<stop offset="0.177083" stop-color="white"/>
<stop offset="1" stop-color="#B8B8B8"/>
</radialGradient>
<linearGradient id="paint2_linear_41743_63561" x1="7.16667" y1="2" x2="9.32096" y2="18.1572" gradientUnits="userSpaceOnUse">
<stop stop-color="#BBBBBB"/>
<stop offset="1" stop-color="#888888"/>
</linearGradient>
<linearGradient id="paint3_linear_41743_63561" x1="5.72656" y1="10.7507" x2="14.2266" y2="10.7507" gradientUnits="userSpaceOnUse">
<stop stop-color="#005BA1"/>
<stop offset="0.07" stop-color="#0060A9"/>
<stop offset="0.36" stop-color="#0071C8"/>
<stop offset="0.52" stop-color="#0078D4"/>
<stop offset="0.64" stop-color="#0074CD"/>
<stop offset="0.82" stop-color="#006ABB"/>
<stop offset="1" stop-color="#005BA1"/>
</linearGradient>
<radialGradient id="paint4_radial_41743_63561" cx="0" cy="0" r="1" gradientUnits="userSpaceOnUse" gradientTransform="translate(10.24 11.047) scale(4.71333)">
<stop stop-color="#F2F2F2"/>
<stop offset="0.58" stop-color="#EEEEEE"/>
<stop offset="1" stop-color="#E6E6E6"/>
</radialGradient>
</defs>
</svg>
