<svg width="20" height="20" viewBox="0 0 20 20" fill="none" xmlns="http://www.w3.org/2000/svg">
<rect x="2.5" y="2.5" width="15" height="15" rx="2" fill="url(#paint0_linear_41743_63645)"/>
<rect x="2.5" y="2.5" width="15" height="15" rx="2" fill="url(#paint1_radial_41743_63645)" fill-opacity="0.2"/>
<rect x="2.5" y="2.5" width="15" height="15" rx="2" stroke="url(#paint2_linear_41743_63645)"/>
<g clip-path="url(#clip0_41743_63645)">
<path d="M5.96951 7.51031C5.95407 7.51039 5.93878 7.50742 5.9245 7.50156C5.91023 7.49569 5.89726 7.48705 5.88634 7.47614C5.87543 7.46522 5.86679 7.45225 5.86093 7.43798C5.85506 7.4237 5.85209 7.40841 5.85217 7.39297C5.85165 7.03792 5.71037 6.69757 5.45931 6.44651C5.20825 6.19545 4.86789 6.05417 4.51284 6.05364C4.48184 6.05364 4.45209 6.04137 4.43011 6.01951C4.40812 5.99765 4.39568 5.96798 4.39551 5.93697C4.39551 5.90585 4.40787 5.87601 4.42987 5.85401C4.45188 5.832 4.48172 5.81964 4.51284 5.81964C4.86801 5.81911 5.20847 5.67774 5.45954 5.42654C5.71062 5.17533 5.85182 4.83481 5.85217 4.47964C5.85209 4.46421 5.85506 4.44891 5.86093 4.43463C5.86679 4.42036 5.87543 4.40739 5.88634 4.39648C5.89726 4.38556 5.91023 4.37692 5.9245 4.37106C5.93878 4.36519 5.95407 4.36222 5.96951 4.36231C5.98494 4.36222 6.00024 4.36519 6.01451 4.37106C6.02879 4.37692 6.04176 4.38556 6.05267 4.39648C6.06359 4.40739 6.07222 4.42036 6.07809 4.43463C6.08396 4.44891 6.08693 4.46421 6.08684 4.47964C6.08737 4.83469 6.22865 5.17505 6.47971 5.42611C6.73077 5.67717 7.07112 5.81844 7.42617 5.81897C7.44161 5.81888 7.45691 5.82186 7.47118 5.82772C7.48546 5.83359 7.49843 5.84223 7.50934 5.85314C7.52025 5.86406 7.52889 5.87703 7.53476 5.8913C7.54062 5.90558 7.5436 5.92087 7.54351 5.93631C7.5436 5.95174 7.54062 5.96704 7.53476 5.98131C7.52889 5.99559 7.52025 6.00856 7.50934 6.01947C7.49843 6.03038 7.48546 6.03902 7.47118 6.04489C7.45691 6.05075 7.44161 6.05373 7.42617 6.05364C7.07107 6.05399 6.73061 6.19521 6.47951 6.44631C6.22842 6.69741 6.08719 7.03787 6.08684 7.39297C6.08667 7.42404 6.07425 7.45378 6.05228 7.47575C6.03032 7.49771 6.00057 7.51013 5.96951 7.51031Z" fill="#50E6FF"/>
<path d="M14.4078 15.6371C14.3828 15.6371 14.3589 15.6272 14.3413 15.6096C14.3237 15.592 14.3138 15.5681 14.3138 15.5431C14.3134 15.2591 14.2004 14.9868 13.9996 14.786C13.7988 14.5851 13.5265 14.4722 13.2424 14.4718C13.2176 14.4718 13.1938 14.462 13.1762 14.4445C13.1586 14.427 13.1486 14.4033 13.1484 14.3785C13.1484 14.3535 13.1583 14.3296 13.176 14.312C13.1936 14.2944 13.2175 14.2845 13.2424 14.2845C13.5265 14.2843 13.7989 14.1714 13.9998 13.9705C14.2007 13.7696 14.3136 13.4972 14.3138 13.2131C14.3138 13.1882 14.3237 13.1643 14.3413 13.1467C14.3589 13.129 14.3828 13.1191 14.4078 13.1191C14.4327 13.1191 14.4566 13.129 14.4742 13.1467C14.4919 13.1643 14.5018 13.1882 14.5018 13.2131C14.5019 13.4972 14.6149 13.7696 14.8158 13.9705C15.0166 14.1714 15.289 14.2843 15.5731 14.2845C15.598 14.2845 15.6219 14.2944 15.6396 14.312C15.6572 14.3296 15.6671 14.3535 15.6671 14.3785C15.6671 14.4034 15.6572 14.4273 15.6396 14.4449C15.6219 14.4626 15.598 14.4725 15.5731 14.4725C15.2891 14.4728 15.0168 14.5858 14.8159 14.7866C14.6151 14.9875 14.5021 15.2598 14.5018 15.5438C14.5016 15.5686 14.4916 15.5924 14.474 15.6098C14.4564 15.6273 14.4326 15.6371 14.4078 15.6371Z" fill="#50E6FF"/>
<path d="M13.9789 9.01957C14.1669 9.80661 14.1173 10.6317 13.8364 11.3906C13.5555 12.1495 13.0559 12.808 12.4007 13.2829C11.7455 13.7578 10.9642 14.0277 10.1556 14.0586C9.34701 14.0895 8.54742 13.8799 7.85794 13.4563C7.16846 13.0327 6.62007 12.4142 6.28212 11.679C5.94416 10.9437 5.83182 10.1248 5.95929 9.32572C6.08677 8.52663 6.44834 7.78329 6.99829 7.1897C7.54823 6.59611 8.26184 6.17892 9.04889 5.9909C10.1043 5.73877 11.2166 5.91622 12.1411 6.4842C13.0657 7.05219 13.7267 7.96418 13.9789 9.01957Z" fill="url(#paint3_radial_41743_63645)"/>
<mask id="mask0_41743_63645" style="mask-type:luminance" maskUnits="userSpaceOnUse" x="5" y="5" width="10" height="10">
<path d="M13.9789 9.01957C14.1669 9.80661 14.1173 10.6317 13.8364 11.3906C13.5555 12.1495 13.0559 12.808 12.4007 13.2829C11.7455 13.7578 10.9642 14.0277 10.1556 14.0586C9.34701 14.0895 8.54742 13.8799 7.85794 13.4563C7.16846 13.0327 6.62007 12.4142 6.28212 11.679C5.94416 10.9437 5.83182 10.1248 5.95929 9.32572C6.08677 8.52663 6.44834 7.78329 6.99829 7.1897C7.54823 6.59611 8.26184 6.17892 9.04889 5.9909C10.1043 5.73877 11.2166 5.91622 12.1411 6.4842C13.0657 7.05219 13.7267 7.96418 13.9789 9.01957Z" fill="white"/>
</mask>
<g mask="url(#mask0_41743_63645)">
<path d="M7.80562 12.7432C7.95124 12.747 8.09615 12.7216 8.23182 12.6686C8.36749 12.6155 8.49118 12.5359 8.5956 12.4343C8.70002 12.3328 8.78306 12.2113 8.83984 12.0772C8.89662 11.943 8.92599 11.7989 8.92621 11.6532C8.92643 11.5075 8.89751 11.3633 8.84114 11.229C8.78477 11.0947 8.70209 10.973 8.59798 10.8711C8.49387 10.7692 8.37043 10.6892 8.23492 10.6357C8.09941 10.5823 7.95458 10.5565 7.80895 10.5598C7.81217 10.5288 7.81373 10.4977 7.81362 10.4665C7.81097 10.1752 7.69293 9.89676 7.48536 9.69231C7.27779 9.48787 6.99763 9.37406 6.70628 9.37584H5.88762C5.80753 9.98074 5.86125 10.5958 6.04499 11.1777C6.22873 11.7596 6.538 12.294 6.95095 12.7432H7.80562Z" fill="#F2F2F2"/>
<path d="M14.0296 9.20983C14.0296 9.19983 14.0296 9.18983 14.025 9.1805C13.8931 8.46712 13.569 7.80326 13.0876 7.2605C13.0252 7.2352 12.9607 7.21513 12.895 7.2005C12.7198 7.15052 12.5355 7.14094 12.3561 7.17249C12.1767 7.20403 12.0068 7.27588 11.8592 7.38262C11.7115 7.48936 11.5901 7.6282 11.5039 7.7887C11.4177 7.94919 11.3691 8.12715 11.3616 8.30917C11.3173 8.30405 11.2728 8.30116 11.2283 8.3005C10.9552 8.30048 10.6909 8.39695 10.4821 8.57288C10.2733 8.74881 10.1333 8.99288 10.087 9.26199C10.0406 9.53109 10.0909 9.80791 10.2289 10.0436C10.3668 10.2792 10.5836 10.4585 10.841 10.5498C10.9558 10.5949 11.0782 10.6175 11.2016 10.6165H12.555C13.0984 10.2052 13.5931 9.73323 14.0296 9.20983Z" fill="#F2F2F2"/>
</g>
<path d="M15.4603 6.55473C15.041 5.85673 14.0603 5.58473 12.6903 5.78873C12.2209 5.85525 11.757 5.95596 11.3023 6.09006C11.663 6.21459 12.0056 6.38654 12.321 6.60139C12.4817 6.56606 12.643 6.52406 12.7977 6.50073C13.041 6.46285 13.2868 6.44301 13.533 6.44139C13.7737 6.40669 14.0193 6.43273 14.2474 6.51715C14.4755 6.60156 14.6789 6.74167 14.839 6.92473C15.0943 7.35006 14.879 8.07739 14.2483 8.92473C13.3718 10.0157 12.2978 10.9319 11.0823 11.6254C9.89408 12.367 8.57697 12.8786 7.19966 13.1334C6.15699 13.2894 5.41166 13.1334 5.15632 12.7094C4.90099 12.2854 5.11632 11.5561 5.74699 10.7127C5.82499 10.6081 5.84432 10.5567 5.93299 10.4514C5.89132 10.09 5.89714 9.72464 5.95032 9.36473C5.66689 9.64883 5.4061 9.95465 5.17032 10.2794C4.34432 11.3841 4.12032 12.3774 4.53899 13.0754C4.76016 13.3713 5.05513 13.6039 5.39441 13.75C5.73368 13.8962 6.10538 13.9507 6.47232 13.9081C6.75159 13.9066 7.03037 13.8843 7.30632 13.8414C8.77651 13.5731 10.183 13.0303 11.4523 12.2414C12.7486 11.4995 13.8933 10.5197 14.8263 9.35339C15.655 8.24606 15.879 7.25339 15.4603 6.55473Z" fill="#50E6FF"/>
</g>
<path d="M19 16C19 17.6569 17.6569 19 16 19C14.3431 19 13 17.6569 13 16C13 14.3431 14.3431 13 16 13C17.6569 13 19 14.3431 19 16Z" fill="#B8B8B8"/>
<path fill-rule="evenodd" clip-rule="evenodd" d="M20 16C20 18.2091 18.2091 20 16 20C13.7909 20 12 18.2091 12 16C12 13.7909 13.7909 12 16 12C18.2091 12 20 13.7909 20 16ZM16 19C17.6569 19 19 17.6569 19 16C19 14.3431 17.6569 13 16 13C14.3431 13 13 14.3431 13 16C13 17.6569 14.3431 19 16 19Z" fill="#F5F5F5"/>
<defs>
<linearGradient id="paint0_linear_41743_63645" x1="6.44444" y1="2" x2="8.46838" y2="18.1915" gradientUnits="userSpaceOnUse">
<stop stop-color="white"/>
<stop offset="1" stop-color="#EBEBEB"/>
</linearGradient>
<radialGradient id="paint1_radial_41743_63645" cx="0" cy="0" r="1" gradientUnits="userSpaceOnUse" gradientTransform="translate(7.11111 6.16667) rotate(56.3099) scale(15.2234 13.1741)">
<stop offset="0.177083" stop-color="white"/>
<stop offset="1" stop-color="#B8B8B8"/>
</radialGradient>
<linearGradient id="paint2_linear_41743_63645" x1="7.16667" y1="2" x2="9.32096" y2="18.1572" gradientUnits="userSpaceOnUse">
<stop stop-color="#BBBBBB"/>
<stop offset="1" stop-color="#888888"/>
</linearGradient>
<radialGradient id="paint3_radial_41743_63645" cx="0" cy="0" r="1" gradientUnits="userSpaceOnUse" gradientTransform="translate(9.96808 9.96887) scale(4.11223 4.07651)">
<stop offset="0.183" stop-color="#5EA0EF"/>
<stop offset="1" stop-color="#0078D4"/>
</radialGradient>
<clipPath id="clip0_41743_63645">
<rect width="12" height="12" fill="white" transform="translate(4 4)"/>
</clipPath>
</defs>
</svg>
