<svg width="24" height="24" viewBox="0 0 24 24" fill="none" xmlns="http://www.w3.org/2000/svg">
<rect x="2.5" y="2.5" width="19" height="19" rx="2.5" fill="url(#paint0_linear_41743_62475)"/>
<rect x="2.5" y="2.5" width="19" height="19" rx="2.5" fill="url(#paint1_radial_41743_62475)" fill-opacity="0.2"/>
<rect x="2.5" y="2.5" width="19" height="19" rx="2.5" stroke="url(#paint2_linear_41743_62475)"/>
<circle cx="12" cy="12" r="6" fill="url(#paint3_linear_41743_62475)"/>
<path d="M12 8C9.79386 8 8 9.79386 8 12C8 13.1078 8.44654 14.1051 9.17924 14.8263C9.37603 15.02 9.69261 15.0176 9.88633 14.8208C10.08 14.624 10.0776 14.3074 9.88076 14.1137C9.33346 13.5749 9 12.8322 9 12C9 10.3461 10.3461 9 12 9C12.1399 9 12.2777 9.00878 12.4039 9.02561C12.6776 9.06211 12.9291 8.8698 12.9656 8.59608C13.0021 8.32236 12.8098 8.07088 12.5361 8.03439C12.3623 8.01122 12.1801 8 12 8Z" fill="#F4D58A"/>
<path d="M15.0641 8.86441C14.9277 8.74797 14.728 8.74435 14.5876 8.85578L14.4553 8.9609C14.371 9.02793 14.2504 9.124 14.1048 9.24027C13.8137 9.47276 13.4225 9.78617 13.0228 10.1096C12.6234 10.4327 12.2142 10.7668 11.8875 11.0404C11.7242 11.1771 11.58 11.2999 11.4672 11.3995C11.3622 11.492 11.2639 11.5821 11.2099 11.6453C10.8065 12.1178 10.8624 12.8279 11.3349 13.2314C11.8074 13.6349 12.5175 13.5789 12.921 13.1064C12.975 13.0432 13.0485 12.932 13.1235 12.8139C13.2041 12.6869 13.3029 12.5252 13.4123 12.3426C13.6314 11.977 13.8973 11.5205 14.1539 11.0754C14.4107 10.63 14.659 10.1947 14.8431 9.87074C14.9351 9.70875 15.0111 9.57456 15.0641 9.48085L15.1472 9.33374C15.2353 9.17754 15.2005 8.98086 15.0641 8.86441Z" fill="#F4D58A"/>
<defs>
<linearGradient id="paint0_linear_41743_62475" x1="7.55556" y1="2" x2="10.0855" y2="22.2393" gradientUnits="userSpaceOnUse">
<stop stop-color="white"/>
<stop offset="1" stop-color="#EBEBEB"/>
</linearGradient>
<radialGradient id="paint1_radial_41743_62475" cx="0" cy="0" r="1" gradientUnits="userSpaceOnUse" gradientTransform="translate(8.38889 7.20833) rotate(56.3099) scale(19.0293 16.4677)">
<stop offset="0.177083" stop-color="white"/>
<stop offset="1" stop-color="#B8B8B8"/>
</radialGradient>
<linearGradient id="paint2_linear_41743_62475" x1="8.45833" y1="2" x2="11.1512" y2="22.1965" gradientUnits="userSpaceOnUse">
<stop stop-color="#BBBBBB"/>
<stop offset="1" stop-color="#888888"/>
</linearGradient>
<linearGradient id="paint3_linear_41743_62475" x1="6" y1="6" x2="18" y2="18" gradientUnits="userSpaceOnUse">
<stop stop-color="#C28400"/>
<stop offset="1" stop-color="#A86500"/>
</linearGradient>
</defs>
</svg>
