<svg width="40" height="40" viewBox="0 0 40 40" fill="none" xmlns="http://www.w3.org/2000/svg">
<path d="M4 8C4 5.79086 5.79086 4 8 4H32C34.2091 4 36 5.79086 36 8V32C36 34.2091 34.2091 36 32 36H8C5.79086 36 4 34.2091 4 32V8Z" fill="url(#paint0_linear_41743_62497)"/>
<path d="M4 8C4 5.79086 5.79086 4 8 4H32C34.2091 4 36 5.79086 36 8V32C36 34.2091 34.2091 36 32 36H8C5.79086 36 4 34.2091 4 32V8Z" fill="url(#paint1_radial_41743_62497)" fill-opacity="0.2"/>
<path fill-rule="evenodd" clip-rule="evenodd" d="M32 5H8C6.34315 5 5 6.34315 5 8V32C5 33.6569 6.34315 35 8 35H32C33.6569 35 35 33.6569 35 32V8C35 6.34315 33.6569 5 32 5ZM8 4C5.79086 4 4 5.79086 4 8V32C4 34.2091 5.79086 36 8 36H32C34.2091 36 36 34.2091 36 32V8C36 5.79086 34.2091 4 32 4H8Z" fill="url(#paint2_linear_41743_62497)"/>
<circle cx="20" cy="20" r="10" fill="url(#paint3_linear_41743_62497)"/>
<path fill-rule="evenodd" clip-rule="evenodd" d="M20 14C16.6863 14 14 16.6863 14 20C14 21.2966 14.4107 22.4959 15.1092 23.4766C15.2694 23.7015 15.217 24.0137 14.9921 24.1739C14.7671 24.3341 14.4549 24.2817 14.2947 24.0567C13.4795 22.9122 13 21.5114 13 20C13 16.134 16.134 13 20 13C20.9644 13 21.8844 13.1953 22.7218 13.549C22.9761 13.6564 23.0952 13.9498 22.9878 14.2041C22.8804 14.4585 22.587 14.5776 22.3327 14.4702C21.6162 14.1676 20.8283 14 20 14Z" fill="#F4D58A"/>
<path d="M25.2682 14.7755C25.0279 14.5703 24.6759 14.5639 24.4283 14.7603L24.1951 14.9456C24.0466 15.0637 23.834 15.2331 23.5774 15.438C23.0643 15.8478 22.3749 16.4002 21.6704 16.9702C20.9664 17.5397 20.2452 18.1286 19.6692 18.6108C19.3815 18.8517 19.1272 19.0683 18.9284 19.2437C18.7435 19.4068 18.5702 19.5656 18.475 19.677C17.7639 20.5098 17.8625 21.7614 18.6953 22.4726C19.528 23.1837 20.7797 23.0851 21.4908 22.2523C21.586 22.1409 21.7156 21.9449 21.8478 21.7367C21.9899 21.5129 22.164 21.2278 22.3569 20.906C22.7429 20.2616 23.2116 19.4571 23.664 18.6726C24.1166 17.8876 24.5543 17.1202 24.8787 16.5492C25.0409 16.2637 25.1749 16.0272 25.2683 15.862L25.4148 15.6027C25.57 15.3274 25.5086 14.9808 25.2682 14.7755Z" fill="#F4D58A"/>
<defs>
<linearGradient id="paint0_linear_41743_62497" x1="12.8889" y1="4" x2="16.9368" y2="36.3829" gradientUnits="userSpaceOnUse">
<stop stop-color="white"/>
<stop offset="1" stop-color="#EBEBEB"/>
</linearGradient>
<radialGradient id="paint1_radial_41743_62497" cx="0" cy="0" r="1" gradientUnits="userSpaceOnUse" gradientTransform="translate(14.2222 12.3333) rotate(56.3099) scale(30.4469 26.3483)">
<stop offset="0.177083" stop-color="white"/>
<stop offset="1" stop-color="#B8B8B8"/>
</radialGradient>
<linearGradient id="paint2_linear_41743_62497" x1="14.3333" y1="4" x2="18.6419" y2="36.3144" gradientUnits="userSpaceOnUse">
<stop stop-color="#BBBBBB"/>
<stop offset="1" stop-color="#888888"/>
</linearGradient>
<linearGradient id="paint3_linear_41743_62497" x1="10" y1="10" x2="30" y2="30" gradientUnits="userSpaceOnUse">
<stop stop-color="#C28400"/>
<stop offset="1" stop-color="#A86500"/>
</linearGradient>
</defs>
</svg>
