<svg width="20" height="20" viewBox="0 0 20 20" fill="none" xmlns="http://www.w3.org/2000/svg">
<path d="M2 4.5C2 3.11929 3.11929 2 4.5 2H15.5C16.8807 2 18 3.11929 18 4.5V15.5C18 16.8807 16.8807 18 15.5 18H4.5C3.11929 18 2 16.8807 2 15.5V4.5Z" fill="url(#paint0_linear_41743_62479)"/>
<path d="M2 4.5C2 3.11929 3.11929 2 4.5 2H15.5C16.8807 2 18 3.11929 18 4.5V15.5C18 16.8807 16.8807 18 15.5 18H4.5C3.11929 18 2 16.8807 2 15.5V4.5Z" fill="url(#paint1_radial_41743_62479)" fill-opacity="0.2"/>
<path fill-rule="evenodd" clip-rule="evenodd" d="M15.5 3H4.5C3.67157 3 3 3.67157 3 4.5V15.5C3 16.3284 3.67157 17 4.5 17H15.5C16.3284 17 17 16.3284 17 15.5V4.5C17 3.67157 16.3284 3 15.5 3ZM4.5 2C3.11929 2 2 3.11929 2 4.5V15.5C2 16.8807 3.11929 18 4.5 18H15.5C16.8807 18 18 16.8807 18 15.5V4.5C18 3.11929 16.8807 2 15.5 2H4.5Z" fill="url(#paint2_linear_41743_62479)"/>
<circle cx="10" cy="10" r="5" fill="url(#paint3_linear_41743_62479)"/>
<path fill-rule="evenodd" clip-rule="evenodd" d="M10 7.5C8.61929 7.5 7.5 8.61929 7.5 10C7.5 10.5241 7.66075 11.0092 7.93561 11.4106C8.09164 11.6384 8.03344 11.9496 7.8056 12.1056C7.57777 12.2617 7.26659 12.2035 7.11055 11.9756C6.72537 11.4132 6.5 10.7322 6.5 10C6.5 8.067 8.067 6.5 10 6.5C10.2761 6.5 10.5 6.72386 10.5 7C10.5 7.27614 10.2761 7.5 10 7.5Z" fill="#F4D58A"/>
<path d="M13.0641 6.86441C12.9277 6.74797 12.728 6.74435 12.5876 6.85578L12.4553 6.9609C12.371 7.02793 12.2504 7.124 12.1048 7.24027C11.8137 7.47276 11.4225 7.78617 11.0228 8.10955C10.6234 8.43271 10.2142 8.76681 9.88746 9.0404C9.72424 9.17705 9.57998 9.29994 9.46715 9.39947C9.36223 9.49202 9.26394 9.58207 9.20994 9.6453C8.80646 10.1178 8.8624 10.8279 9.33489 11.2314C9.80738 11.6349 10.5175 11.5789 10.921 11.1064C10.975 11.0432 11.0485 10.932 11.1235 10.8139C11.2041 10.6869 11.3029 10.5252 11.4123 10.3426C11.6314 9.97697 11.8973 9.52052 12.1539 9.07544C12.4107 8.63004 12.659 8.19467 12.8431 7.87074C12.9351 7.70875 13.0111 7.57456 13.0641 7.48085L13.1472 7.33374C13.2353 7.17754 13.2005 6.98086 13.0641 6.86441Z" fill="#F4D58A"/>
<defs>
<linearGradient id="paint0_linear_41743_62479" x1="6.44444" y1="2" x2="8.46838" y2="18.1915" gradientUnits="userSpaceOnUse">
<stop stop-color="white"/>
<stop offset="1" stop-color="#EBEBEB"/>
</linearGradient>
<radialGradient id="paint1_radial_41743_62479" cx="0" cy="0" r="1" gradientUnits="userSpaceOnUse" gradientTransform="translate(7.11111 6.16667) rotate(56.3099) scale(15.2234 13.1741)">
<stop offset="0.177083" stop-color="white"/>
<stop offset="1" stop-color="#B8B8B8"/>
</radialGradient>
<linearGradient id="paint2_linear_41743_62479" x1="7.16667" y1="2" x2="9.32096" y2="18.1572" gradientUnits="userSpaceOnUse">
<stop stop-color="#BBBBBB"/>
<stop offset="1" stop-color="#888888"/>
</linearGradient>
<linearGradient id="paint3_linear_41743_62479" x1="5" y1="5" x2="15" y2="15" gradientUnits="userSpaceOnUse">
<stop stop-color="#C28400"/>
<stop offset="1" stop-color="#A86500"/>
</linearGradient>
</defs>
</svg>
