<svg width="20" height="20" viewBox="0 0 20 20" fill="none" xmlns="http://www.w3.org/2000/svg">
<path d="M2 4.5C2 3.11929 3.11929 2 4.5 2H15.5C16.8807 2 18 3.11929 18 4.5V15.5C18 16.8807 16.8807 18 15.5 18H4.5C3.11929 18 2 16.8807 2 15.5V4.5Z" fill="url(#paint0_linear_41743_62545)"/>
<path d="M2 4.5C2 3.11929 3.11929 2 4.5 2H15.5C16.8807 2 18 3.11929 18 4.5V15.5C18 16.8807 16.8807 18 15.5 18H4.5C3.11929 18 2 16.8807 2 15.5V4.5Z" fill="url(#paint1_radial_41743_62545)" fill-opacity="0.2"/>
<path fill-rule="evenodd" clip-rule="evenodd" d="M15.5 3H4.5C3.67157 3 3 3.67157 3 4.5V15.5C3 16.3284 3.67157 17 4.5 17H15.5C16.3284 17 17 16.3284 17 15.5V4.5C17 3.67157 16.3284 3 15.5 3ZM4.5 2C3.11929 2 2 3.11929 2 4.5V15.5C2 16.8807 3.11929 18 4.5 18H15.5C16.8807 18 18 16.8807 18 15.5V4.5C18 3.11929 16.8807 2 15.5 2H4.5Z" fill="url(#paint2_linear_41743_62545)"/>
<path fill-rule="evenodd" clip-rule="evenodd" d="M7.5 8.93699C8.36261 8.71497 9 7.93192 9 7C9 5.89543 8.10457 5 7 5C5.89543 5 5 5.89543 5 7C5 7.93192 5.63739 8.71497 6.5 8.93699V11.063C5.63739 11.285 5 12.0681 5 13C5 14.1046 5.89543 15 7 15C8.10457 15 9 14.1046 9 13C9 12.0681 8.36261 11.285 7.5 11.063V10.5H11.5C12.4501 10.5 13.2454 9.83754 13.4493 8.94933C14.3375 8.74543 15 7.95008 15 7C15 5.89543 14.1046 5 13 5C11.8954 5 11 5.89543 11 7C11 7.89974 11.5941 8.66071 12.4115 8.912C12.2545 9.25876 11.9054 9.5 11.5 9.5H7.5V8.93699ZM8 7L8 7.00298C7.99995 6.98571 7.99956 6.96853 7.99884 6.95143C7.99961 6.96752 8 6.98372 8 7ZM14 7.00298L14 7C14 6.98372 13.9996 6.96752 13.9988 6.95143C13.9996 6.96853 14 6.98571 14 7.00298Z" fill="url(#paint3_linear_41743_62545)"/>
<defs>
<linearGradient id="paint0_linear_41743_62545" x1="6.44444" y1="2" x2="8.46838" y2="18.1915" gradientUnits="userSpaceOnUse">
<stop stop-color="white"/>
<stop offset="1" stop-color="#EBEBEB"/>
</linearGradient>
<radialGradient id="paint1_radial_41743_62545" cx="0" cy="0" r="1" gradientUnits="userSpaceOnUse" gradientTransform="translate(7.11111 6.16667) rotate(56.3099) scale(15.2234 13.1741)">
<stop offset="0.177083" stop-color="white"/>
<stop offset="1" stop-color="#B8B8B8"/>
</radialGradient>
<linearGradient id="paint2_linear_41743_62545" x1="7.16667" y1="2" x2="9.32096" y2="18.1572" gradientUnits="userSpaceOnUse">
<stop stop-color="#BBBBBB"/>
<stop offset="1" stop-color="#888888"/>
</linearGradient>
<linearGradient id="paint3_linear_41743_62545" x1="5" y1="5" x2="15" y2="15" gradientUnits="userSpaceOnUse">
<stop stop-color="#7751B8"/>
<stop offset="1" stop-color="#5A409C"/>
</linearGradient>
</defs>
</svg>
