<svg width="32" height="32" viewBox="0 0 32 32" fill="none" xmlns="http://www.w3.org/2000/svg">
<path d="M3 6.5C3 4.567 4.567 3 6.5 3H25.5C27.433 3 29 4.567 29 6.5V25.5C29 27.433 27.433 29 25.5 29H6.5C4.567 29 3 27.433 3 25.5V6.5Z" fill="url(#paint0_linear_41743_62607)"/>
<path d="M3 6.5C3 4.567 4.567 3 6.5 3H25.5C27.433 3 29 4.567 29 6.5V25.5C29 27.433 27.433 29 25.5 29H6.5C4.567 29 3 27.433 3 25.5V6.5Z" fill="url(#paint1_radial_41743_62607)" fill-opacity="0.2"/>
<path fill-rule="evenodd" clip-rule="evenodd" d="M25.5 4H6.5C5.11929 4 4 5.11929 4 6.5V25.5C4 26.8807 5.11929 28 6.5 28H25.5C26.8807 28 28 26.8807 28 25.5V6.5C28 5.11929 26.8807 4 25.5 4ZM6.5 3C4.567 3 3 4.567 3 6.5V25.5C3 27.433 4.567 29 6.5 29H25.5C27.433 29 29 27.433 29 25.5V6.5C29 4.567 27.433 3 25.5 3H6.5Z" fill="url(#paint2_linear_41743_62607)"/>
<path d="M9.75 14.5C10.7165 14.5 11.5 13.7165 11.5 12.75C11.5 11.7835 10.7165 11 9.75 11C8.7835 11 8 11.7835 8 12.75C8 13.7165 8.7835 14.5 9.75 14.5Z" fill="url(#paint3_linear_41743_62607)"/>
<path d="M16 14.5C16.9665 14.5 17.75 13.7165 17.75 12.75C17.75 11.7835 16.9665 11 16 11C15.0335 11 14.25 11.7835 14.25 12.75C14.25 13.7165 15.0335 14.5 16 14.5Z" fill="url(#paint4_linear_41743_62607)"/>
<path d="M11.5 19.25C11.5 20.2165 10.7165 21 9.75 21C8.7835 21 8 20.2165 8 19.25C8 18.2835 8.7835 17.5 9.75 17.5C10.7165 17.5 11.5 18.2835 11.5 19.25Z" fill="url(#paint5_linear_41743_62607)"/>
<path d="M16 21C16.9665 21 17.75 20.2165 17.75 19.25C17.75 18.2835 16.9665 17.5 16 17.5C15.0335 17.5 14.25 18.2835 14.25 19.25C14.25 20.2165 15.0335 21 16 21Z" fill="url(#paint6_linear_41743_62607)"/>
<path d="M24 12.75C24 13.7165 23.2165 14.5 22.25 14.5C21.2835 14.5 20.5 13.7165 20.5 12.75C20.5 11.7835 21.2835 11 22.25 11C23.2165 11 24 11.7835 24 12.75Z" fill="url(#paint7_linear_41743_62607)"/>
<defs>
<linearGradient id="paint0_linear_41743_62607" x1="10.2222" y1="3" x2="13.5111" y2="29.3111" gradientUnits="userSpaceOnUse">
<stop stop-color="white"/>
<stop offset="1" stop-color="#EBEBEB"/>
</linearGradient>
<radialGradient id="paint1_radial_41743_62607" cx="0" cy="0" r="1" gradientUnits="userSpaceOnUse" gradientTransform="translate(11.3056 9.77083) rotate(56.3099) scale(24.7381 21.408)">
<stop offset="0.177083" stop-color="white"/>
<stop offset="1" stop-color="#B8B8B8"/>
</radialGradient>
<linearGradient id="paint2_linear_41743_62607" x1="11.3958" y1="3" x2="14.8966" y2="29.2555" gradientUnits="userSpaceOnUse">
<stop stop-color="#BBBBBB"/>
<stop offset="1" stop-color="#888888"/>
</linearGradient>
<linearGradient id="paint3_linear_41743_62607" x1="8" y1="11" x2="16.9888" y2="25.382" gradientUnits="userSpaceOnUse">
<stop stop-color="#7751B8"/>
<stop offset="1" stop-color="#5A409C"/>
</linearGradient>
<linearGradient id="paint4_linear_41743_62607" x1="8" y1="11" x2="16.9888" y2="25.382" gradientUnits="userSpaceOnUse">
<stop stop-color="#7751B8"/>
<stop offset="1" stop-color="#5A409C"/>
</linearGradient>
<linearGradient id="paint5_linear_41743_62607" x1="8" y1="11" x2="16.9888" y2="25.382" gradientUnits="userSpaceOnUse">
<stop stop-color="#7751B8"/>
<stop offset="1" stop-color="#5A409C"/>
</linearGradient>
<linearGradient id="paint6_linear_41743_62607" x1="8" y1="11" x2="16.9888" y2="25.382" gradientUnits="userSpaceOnUse">
<stop stop-color="#7751B8"/>
<stop offset="1" stop-color="#5A409C"/>
</linearGradient>
<linearGradient id="paint7_linear_41743_62607" x1="8" y1="11" x2="16.9888" y2="25.382" gradientUnits="userSpaceOnUse">
<stop stop-color="#7751B8"/>
<stop offset="1" stop-color="#5A409C"/>
</linearGradient>
</defs>
</svg>
