<svg width="24" height="24" viewBox="0 0 24 24" fill="none" xmlns="http://www.w3.org/2000/svg">
<path d="M2 5C2 3.34315 3.34315 2 5 2H19C20.6569 2 22 3.34315 22 5V19C22 20.6569 20.6569 22 19 22H5C3.34315 22 2 20.6569 2 19V5Z" fill="url(#paint0_linear_41743_62564)"/>
<path d="M2 5C2 3.34315 3.34315 2 5 2H19C20.6569 2 22 3.34315 22 5V19C22 20.6569 20.6569 22 19 22H5C3.34315 22 2 20.6569 2 19V5Z" fill="url(#paint1_radial_41743_62564)" fill-opacity="0.2"/>
<path fill-rule="evenodd" clip-rule="evenodd" d="M19 3H5C3.89543 3 3 3.89543 3 5V19C3 20.1046 3.89543 21 5 21H19C20.1046 21 21 20.1046 21 19V5C21 3.89543 20.1046 3 19 3ZM5 2C3.34315 2 2 3.34315 2 5V19C2 20.6569 3.34315 22 5 22H19C20.6569 22 22 20.6569 22 19V5C22 3.34315 20.6569 2 19 2H5Z" fill="url(#paint2_linear_41743_62564)"/>
<path d="M9.5 9.93699C10.3626 9.71497 11 8.93192 11 8C11 6.89543 10.1046 6 9 6C7.89543 6 7 6.89543 7 8C7 8.93192 7.63739 9.71497 8.5 9.93699L8.5 14.063C7.63739 14.285 7 15.0681 7 16C7 17.1046 7.89543 18 9 18C10.1046 18 11 17.1046 11 16C11 15.0681 10.3626 14.285 9.5 14.063V12.5H13C14.3807 12.5 15.5 11.3807 15.5 10V9.92868C16.3467 9.69598 16.9688 8.92063 16.9688 8C16.9688 6.89543 16.0733 6 14.9688 6C13.8642 6 12.9688 6.89543 12.9688 8C12.9688 8.94314 13.6216 9.7338 14.5 9.94476V10C14.5 10.8284 13.8284 11.5 13 11.5H9.5V9.93699Z" fill="url(#paint3_linear_41743_62564)"/>
<defs>
<linearGradient id="paint0_linear_41743_62564" x1="7.55556" y1="2" x2="10.0855" y2="22.2393" gradientUnits="userSpaceOnUse">
<stop stop-color="white"/>
<stop offset="1" stop-color="#EBEBEB"/>
</linearGradient>
<radialGradient id="paint1_radial_41743_62564" cx="0" cy="0" r="1" gradientUnits="userSpaceOnUse" gradientTransform="translate(8.38889 7.20833) rotate(56.3099) scale(19.0293 16.4677)">
<stop offset="0.177083" stop-color="white"/>
<stop offset="1" stop-color="#B8B8B8"/>
</radialGradient>
<linearGradient id="paint2_linear_41743_62564" x1="8.45833" y1="2" x2="11.1512" y2="22.1965" gradientUnits="userSpaceOnUse">
<stop stop-color="#BBBBBB"/>
<stop offset="1" stop-color="#888888"/>
</linearGradient>
<linearGradient id="paint3_linear_41743_62564" x1="7" y1="6" x2="18.7966" y2="15.7997" gradientUnits="userSpaceOnUse">
<stop stop-color="#4BA446"/>
<stop offset="1" stop-color="#3F7D35"/>
</linearGradient>
</defs>
</svg>
