<svg width="32" height="32" viewBox="0 0 32 32" fill="none" xmlns="http://www.w3.org/2000/svg">
<path d="M3 6.5C3 4.567 4.567 3 6.5 3H25.5C27.433 3 29 4.567 29 6.5V25.5C29 27.433 27.433 29 25.5 29H6.5C4.567 29 3 27.433 3 25.5V6.5Z" fill="url(#paint0_linear_41743_62560)"/>
<path d="M3 6.5C3 4.567 4.567 3 6.5 3H25.5C27.433 3 29 4.567 29 6.5V25.5C29 27.433 27.433 29 25.5 29H6.5C4.567 29 3 27.433 3 25.5V6.5Z" fill="url(#paint1_radial_41743_62560)" fill-opacity="0.2"/>
<path fill-rule="evenodd" clip-rule="evenodd" d="M25.5 4H6.5C5.11929 4 4 5.11929 4 6.5V25.5C4 26.8807 5.11929 28 6.5 28H25.5C26.8807 28 28 26.8807 28 25.5V6.5C28 5.11929 26.8807 4 25.5 4ZM6.5 3C4.567 3 3 4.567 3 6.5V25.5C3 27.433 4.567 29 6.5 29H25.5C27.433 29 29 27.433 29 25.5V6.5C29 4.567 27.433 3 25.5 3H6.5Z" fill="url(#paint2_linear_41743_62560)"/>
<path d="M15 11.5C15 12.7095 14.1411 13.7184 13 13.95V16H17.5C18.3284 16 19 15.3284 19 14.5V13.95C17.8589 13.7184 17 12.7095 17 11.5C17 10.1193 18.1193 9 19.5 9C20.8807 9 22 10.1193 22 11.5C22 12.7095 21.1411 13.7184 20 13.95V14.5C20 15.8807 18.8807 17 17.5 17H13V18.05C14.1411 18.2816 15 19.2905 15 20.5C15 21.8807 13.8807 23 12.5 23C11.1193 23 10 21.8807 10 20.5C10 19.8231 10.2691 19.209 10.7061 18.7588V18.7031H10.7618C11.0977 18.3782 11.5243 18.1466 12 18.05V13.95C10.8589 13.7184 10 12.7095 10 11.5C10 10.8231 10.2691 10.209 10.7061 9.7588V9.73633H10.7281C11.1809 9.28151 11.8076 9 12.5 9C13.8807 9 15 10.1193 15 11.5Z" fill="url(#paint3_linear_41743_62560)"/>
<defs>
<linearGradient id="paint0_linear_41743_62560" x1="10.2222" y1="3" x2="13.5111" y2="29.3111" gradientUnits="userSpaceOnUse">
<stop stop-color="white"/>
<stop offset="1" stop-color="#EBEBEB"/>
</linearGradient>
<radialGradient id="paint1_radial_41743_62560" cx="0" cy="0" r="1" gradientUnits="userSpaceOnUse" gradientTransform="translate(11.3056 9.77083) rotate(56.3099) scale(24.7381 21.408)">
<stop offset="0.177083" stop-color="white"/>
<stop offset="1" stop-color="#B8B8B8"/>
</radialGradient>
<linearGradient id="paint2_linear_41743_62560" x1="11.3958" y1="3" x2="14.8966" y2="29.2555" gradientUnits="userSpaceOnUse">
<stop stop-color="#BBBBBB"/>
<stop offset="1" stop-color="#888888"/>
</linearGradient>
<linearGradient id="paint3_linear_41743_62560" x1="10" y1="9" x2="23.8353" y2="20.8588" gradientUnits="userSpaceOnUse">
<stop stop-color="#4BA446"/>
<stop offset="1" stop-color="#3F7D35"/>
</linearGradient>
</defs>
</svg>
