<svg width="20" height="20" viewBox="0 0 20 20" fill="none" xmlns="http://www.w3.org/2000/svg">
<path d="M2 3.5C2 2.11929 3.11929 1 4.5 1H15.5C16.8807 1 18 2.11929 18 3.5V16.5C18 17.8807 16.8807 19 15.5 19H4.5C3.11929 19 2 17.8807 2 16.5V3.5Z" fill="url(#paint0_linear_41743_62513)"/>
<path d="M2 3.5C2 2.11929 3.11929 1 4.5 1H15.5C16.8807 1 18 2.11929 18 3.5V16.5C18 17.8807 16.8807 19 15.5 19H4.5C3.11929 19 2 17.8807 2 16.5V3.5Z" fill="url(#paint1_radial_41743_62513)" fill-opacity="0.2"/>
<path fill-rule="evenodd" clip-rule="evenodd" d="M15.5 2H4.5C3.67157 2 3 2.67157 3 3.5V16.5C3 17.3284 3.67157 18 4.5 18H15.5C16.3284 18 17 17.3284 17 16.5V3.5C17 2.67157 16.3284 2 15.5 2ZM4.5 1C3.11929 1 2 2.11929 2 3.5V16.5C2 17.8807 3.11929 19 4.5 19H15.5C16.8807 19 18 17.8807 18 16.5V3.5C18 2.11929 16.8807 1 15.5 1H4.5Z" fill="url(#paint2_linear_41743_62513)"/>
<path d="M9.57692 15H13.5C14.3284 15 15 14.3284 15 13.5V9.66801C15 9.2428 14.8195 8.83757 14.5035 8.55311L11.0038 5.40314C10.4334 4.88971 9.56738 4.88967 8.99691 5.40306L5.4966 8.5531C5.1805 8.83756 5 9.24283 5 9.66808V13.5C5 14.3284 5.67157 15 6.5 15H10.4231" fill="url(#paint3_linear_41743_62513)"/>
<path d="M7 10.75C7.41421 10.75 7.75 10.4142 7.75 10C7.75 9.58579 7.41421 9.25 7 9.25C6.58579 9.25 6.25 9.58579 6.25 10C6.25 10.4142 6.58579 10.75 7 10.75Z" fill="#B4CDF8"/>
<path d="M10.75 10C10.75 10.4142 10.4142 10.75 10 10.75C9.58579 10.75 9.25 10.4142 9.25 10C9.25 9.58579 9.58579 9.25 10 9.25C10.4142 9.25 10.75 9.58579 10.75 10Z" fill="#B4CDF8"/>
<path d="M13.75 10C13.75 10.4142 13.4142 10.75 13 10.75C12.5858 10.75 12.25 10.4142 12.25 10C12.25 9.58579 12.5858 9.25 13 9.25C13.4142 9.25 13.75 9.58579 13.75 10Z" fill="#B4CDF8"/>
<path d="M10.75 13C10.75 13.4142 10.4142 13.75 10 13.75C9.58579 13.75 9.25 13.4142 9.25 13C9.25 12.5858 9.58579 12.25 10 12.25C10.4142 12.25 10.75 12.5858 10.75 13Z" fill="#B4CDF8"/>
<path d="M13 13.75C13.4142 13.75 13.75 13.4142 13.75 13C13.75 12.5858 13.4142 12.25 13 12.25C12.5858 12.25 12.25 12.5858 12.25 13C12.25 13.4142 12.5858 13.75 13 13.75Z" fill="#B4CDF8"/>
<path d="M7.75 13C7.75 13.4142 7.41421 13.75 7 13.75C6.58579 13.75 6.25 13.4142 6.25 13C6.25 12.5858 6.58579 12.25 7 12.25C7.41421 12.25 7.75 12.5858 7.75 13Z" fill="#B4CDF8"/>
<defs>
<linearGradient id="paint0_linear_41743_62513" x1="6.44444" y1="1" x2="8.99556" y2="19.1412" gradientUnits="userSpaceOnUse">
<stop stop-color="white"/>
<stop offset="1" stop-color="#EBEBEB"/>
</linearGradient>
<radialGradient id="paint1_radial_41743_62513" cx="0" cy="0" r="1" gradientUnits="userSpaceOnUse" gradientTransform="translate(7.11111 5.6875) rotate(59.3493) scale(16.5642 13.6213)">
<stop offset="0.177083" stop-color="white"/>
<stop offset="1" stop-color="#B8B8B8"/>
</radialGradient>
<linearGradient id="paint2_linear_41743_62513" x1="7.16667" y1="1" x2="9.8806" y2="19.0929" gradientUnits="userSpaceOnUse">
<stop stop-color="#BBBBBB"/>
<stop offset="1" stop-color="#888888"/>
</linearGradient>
<linearGradient id="paint3_linear_41743_62513" x1="5" y1="4.5" x2="15.4875" y2="14.4881" gradientUnits="userSpaceOnUse">
<stop stop-color="#3477EA"/>
<stop offset="1" stop-color="#1D53A4"/>
</linearGradient>
</defs>
</svg>
