<svg width="64" height="64" viewBox="0 0 64 64" fill="none" xmlns="http://www.w3.org/2000/svg">
<rect x="6.5" y="6.5" width="51" height="51" rx="6.5" fill="url(#paint0_linear_41743_62572)"/>
<rect x="6.5" y="6.5" width="51" height="51" rx="6.5" fill="url(#paint1_radial_41743_62572)" fill-opacity="0.2"/>
<rect x="6.5" y="6.5" width="51" height="51" rx="6.5" stroke="url(#paint2_linear_41743_62572)"/>
<path d="M26.75 27.9298C28.6006 27.5787 30 25.9528 30 24C30 21.7909 28.2091 20 26 20C23.7909 20 22 21.7909 22 24C22 25.9528 23.3994 27.5788 25.25 27.9298L25.25 36.0702C23.3994 36.4213 22 38.0472 22 40C22 42.2091 23.7909 44 26 44C28.2091 44 30 42.2091 30 40C30 38.0472 28.6006 36.4213 26.75 36.0702L26.75 32.7964L33.9998 32.7964C36.6232 32.7964 38.7498 30.6698 38.7498 28.0464V27.9298C40.6005 27.5789 42 25.9529 42 24C42 21.7909 40.2091 20 38 20C35.7909 20 34 21.7909 34 24C34 25.9527 35.3993 27.5786 37.2498 27.9298V28.0464C37.2498 29.8413 35.7947 31.2964 33.9998 31.2964L26.75 31.2964L26.75 27.9298Z" fill="url(#paint3_linear_41743_62572)"/>
<defs>
<linearGradient id="paint0_linear_41743_62572" x1="20.4444" y1="6" x2="27.0222" y2="58.6222" gradientUnits="userSpaceOnUse">
<stop stop-color="white"/>
<stop offset="1" stop-color="#EBEBEB"/>
</linearGradient>
<radialGradient id="paint1_radial_41743_62572" cx="0" cy="0" r="1" gradientUnits="userSpaceOnUse" gradientTransform="translate(22.6111 19.5417) rotate(56.3099) scale(49.4762 42.8159)">
<stop offset="0.177083" stop-color="white"/>
<stop offset="1" stop-color="#B8B8B8"/>
</radialGradient>
<linearGradient id="paint2_linear_41743_62572" x1="22.7917" y1="6" x2="29.7931" y2="58.5109" gradientUnits="userSpaceOnUse">
<stop stop-color="#BBBBBB"/>
<stop offset="1" stop-color="#888888"/>
</linearGradient>
<linearGradient id="paint3_linear_41743_62572" x1="22" y1="20" x2="45.6066" y2="39.6721" gradientUnits="userSpaceOnUse">
<stop stop-color="#4BA446"/>
<stop offset="1" stop-color="#3F7D35"/>
</linearGradient>
</defs>
</svg>
