<svg width="48" height="48" viewBox="0 0 48 48" fill="none" xmlns="http://www.w3.org/2000/svg">
<path d="M5 10C5 7.23858 7.23858 5 10 5H38C40.7614 5 43 7.23858 43 10V38C43 40.7614 40.7614 43 38 43H10C7.23858 43 5 40.7614 5 38V10Z" fill="url(#paint0_linear_41743_62603)"/>
<path d="M5 10C5 7.23858 7.23858 5 10 5H38C40.7614 5 43 7.23858 43 10V38C43 40.7614 40.7614 43 38 43H10C7.23858 43 5 40.7614 5 38V10Z" fill="url(#paint1_radial_41743_62603)" fill-opacity="0.2"/>
<path fill-rule="evenodd" clip-rule="evenodd" d="M38 6H10C7.79086 6 6 7.79086 6 10V38C6 40.2091 7.79086 42 10 42H38C40.2091 42 42 40.2091 42 38V10C42 7.79086 40.2091 6 38 6ZM10 5C7.23858 5 5 7.23858 5 10V38C5 40.7614 7.23858 43 10 43H38C40.7614 43 43 40.7614 43 38V10C43 7.23858 40.7614 5 38 5H10Z" fill="url(#paint2_linear_41743_62603)"/>
<path d="M14.5 21C15.8807 21 17 19.8807 17 18.5C17 17.1193 15.8807 16 14.5 16C13.1193 16 12 17.1193 12 18.5C12 19.8807 13.1193 21 14.5 21Z" fill="url(#paint3_linear_41743_62603)"/>
<path d="M24 21C25.3807 21 26.5 19.8807 26.5 18.5C26.5 17.1193 25.3807 16 24 16C22.6193 16 21.5 17.1193 21.5 18.5C21.5 19.8807 22.6193 21 24 21Z" fill="url(#paint4_linear_41743_62603)"/>
<path d="M26.5 29.5C26.5 30.8807 25.3807 32 24 32C22.6193 32 21.5 30.8807 21.5 29.5C21.5 28.1193 22.6193 27 24 27C25.3807 27 26.5 28.1193 26.5 29.5Z" fill="url(#paint5_linear_41743_62603)"/>
<path d="M14.5 32C15.8807 32 17 30.8807 17 29.5C17 28.1193 15.8807 27 14.5 27C13.1193 27 12 28.1193 12 29.5C12 30.8807 13.1193 32 14.5 32Z" fill="url(#paint6_linear_41743_62603)"/>
<path d="M36 18.5C36 19.8807 34.8807 21 33.5 21C32.1193 21 31 19.8807 31 18.5C31 17.1193 32.1193 16 33.5 16C34.8807 16 36 17.1193 36 18.5Z" fill="url(#paint7_linear_41743_62603)"/>
<defs>
<linearGradient id="paint0_linear_41743_62603" x1="15.5556" y1="5" x2="20.3624" y2="43.4547" gradientUnits="userSpaceOnUse">
<stop stop-color="white"/>
<stop offset="1" stop-color="#EBEBEB"/>
</linearGradient>
<radialGradient id="paint1_radial_41743_62603" cx="0" cy="0" r="1" gradientUnits="userSpaceOnUse" gradientTransform="translate(17.1389 14.8958) rotate(56.3099) scale(36.1557 31.2886)">
<stop offset="0.177083" stop-color="white"/>
<stop offset="1" stop-color="#B8B8B8"/>
</radialGradient>
<linearGradient id="paint2_linear_41743_62603" x1="17.2708" y1="5" x2="22.3873" y2="43.3734" gradientUnits="userSpaceOnUse">
<stop stop-color="#BBBBBB"/>
<stop offset="1" stop-color="#888888"/>
</linearGradient>
<linearGradient id="paint3_linear_41743_62603" x1="12" y1="16" x2="26.7692" y2="38.1538" gradientUnits="userSpaceOnUse">
<stop stop-color="#7751B8"/>
<stop offset="1" stop-color="#5A409C"/>
</linearGradient>
<linearGradient id="paint4_linear_41743_62603" x1="12" y1="16" x2="26.7692" y2="38.1538" gradientUnits="userSpaceOnUse">
<stop stop-color="#7751B8"/>
<stop offset="1" stop-color="#5A409C"/>
</linearGradient>
<linearGradient id="paint5_linear_41743_62603" x1="12" y1="16" x2="26.7692" y2="38.1538" gradientUnits="userSpaceOnUse">
<stop stop-color="#7751B8"/>
<stop offset="1" stop-color="#5A409C"/>
</linearGradient>
<linearGradient id="paint6_linear_41743_62603" x1="12" y1="16" x2="26.7692" y2="38.1538" gradientUnits="userSpaceOnUse">
<stop stop-color="#7751B8"/>
<stop offset="1" stop-color="#5A409C"/>
</linearGradient>
<linearGradient id="paint7_linear_41743_62603" x1="12" y1="16" x2="26.7692" y2="38.1538" gradientUnits="userSpaceOnUse">
<stop stop-color="#7751B8"/>
<stop offset="1" stop-color="#5A409C"/>
</linearGradient>
</defs>
</svg>
