<svg width="20" height="20" viewBox="0 0 20 20" fill="none" xmlns="http://www.w3.org/2000/svg">
<path d="M2 3.5C2 2.11929 3.11929 1 4.5 1H15.5C16.8807 1 18 2.11929 18 3.5V16.5C18 17.8807 16.8807 19 15.5 19H4.5C3.11929 19 2 17.8807 2 16.5V3.5Z" fill="url(#paint0_linear_41743_62639)"/>
<path d="M2 3.5C2 2.11929 3.11929 1 4.5 1H15.5C16.8807 1 18 2.11929 18 3.5V16.5C18 17.8807 16.8807 19 15.5 19H4.5C3.11929 19 2 17.8807 2 16.5V3.5Z" fill="url(#paint1_radial_41743_62639)" fill-opacity="0.2"/>
<path fill-rule="evenodd" clip-rule="evenodd" d="M15.5 2H4.5C3.67157 2 3 2.67157 3 3.5V16.5C3 17.3284 3.67157 18 4.5 18H15.5C16.3284 18 17 17.3284 17 16.5V3.5C17 2.67157 16.3284 2 15.5 2ZM4.5 1C3.11929 1 2 2.11929 2 3.5V16.5C2 17.8807 3.11929 19 4.5 19H15.5C16.8807 19 18 17.8807 18 16.5V3.5C18 2.11929 16.8807 1 15.5 1H4.5Z" fill="url(#paint2_linear_41743_62639)"/>
<path d="M12.375 5C9.9901 5 8.05088 6.90829 8.001 9.28125C8.001 9.68252 7.67472 10.0078 7.27345 10.0078L5.53126 10.0078C5.25512 10.0078 5.03126 10.2317 5.03126 10.5078C5.03126 10.784 5.25512 11.0078 5.53126 11.0078L7.27345 11.0078C8.19555 11.0078 8.94882 10.285 8.99751 9.375H9.00001C9.00001 7.51104 10.5111 6 12.375 6H13.5C13.7762 6 14 5.77614 14 5.5C14 5.22386 13.7762 5 13.5 5H12.375Z" fill="url(#paint3_linear_41743_62639)"/>
<path d="M8.58597 15.0078C9.03537 15.0078 9.46942 14.942 9.879 14.8196C9.64608 14.5566 9.45214 14.2584 9.30622 13.9338C9.07375 13.9823 8.83284 14.0078 8.58597 14.0078H6.53128C6.25514 14.0078 6.03128 14.2317 6.03128 14.5078C6.03128 14.784 6.25514 15.0078 6.53128 15.0078H8.58597Z" fill="url(#paint4_linear_41743_62639)"/>
<path d="M9.02235 12.8978C9.00759 12.7672 9 12.6345 9 12.5C9 12.2637 9.02341 12.0329 9.06805 11.8097C8.8323 11.9313 8.5648 12 8.28126 12L5.5 12C5.22386 12 5 12.2239 5 12.5C5 12.7761 5.22386 13 5.5 13H8.28126C8.53817 13 8.78676 12.9644 9.02235 12.8978Z" fill="url(#paint5_linear_41743_62639)"/>
<path d="M12.5 8.03125C11.7397 8.03125 11.1114 8.597 11.0133 9.33052C10.6332 9.50912 10.2905 9.7541 10 10.0505L10 9.53125C10 8.15054 11.1193 7.03125 12.5 7.03125H13.6563C13.9324 7.03125 14.1563 7.25511 14.1563 7.53125C14.1563 7.80739 13.9324 8.03125 13.6563 8.03125H12.5Z" fill="url(#paint6_linear_41743_62639)"/>
<path fill-rule="evenodd" clip-rule="evenodd" d="M9.81701 12.2316C10.6399 12.0068 11.1276 11.1614 10.9113 10.3362L10.9043 10.3113C11.0957 10.1721 11.3065 10.0577 11.5312 9.97217C12.1013 10.4583 12.9421 10.4653 13.5208 9.99239C13.7572 10.0888 13.9773 10.2164 14.1749 10.3712C14.0559 11.1085 14.4821 11.8326 15.1876 12.0831C15.2101 12.2246 15.2218 12.3693 15.2218 12.5171C15.2218 12.6112 15.2171 12.7037 15.2078 12.7955L15.1821 12.8025C14.36 13.0273 13.8716 13.8727 14.0878 14.6979L14.0948 14.7236C13.9035 14.8621 13.6927 14.9764 13.4679 15.0619C12.8978 14.5758 12.057 14.5688 11.4791 15.0417C11.2419 14.9453 11.0218 14.8177 10.8242 14.6622C10.9432 13.9256 10.517 13.2023 9.81157 12.9511C9.78901 12.8095 9.77734 12.6648 9.77734 12.5171C9.77734 12.4229 9.78201 12.3304 9.79134 12.2386L9.81701 12.2316ZM11.9162 12.5171C11.9162 12.8391 12.1776 13.1004 12.4996 13.1004C12.8216 13.1004 13.0829 12.8391 13.0829 12.5171C13.0829 12.1951 12.8216 11.9337 12.4996 11.9337C12.1776 11.9337 11.9162 12.1951 11.9162 12.5171Z" fill="url(#paint7_linear_41743_62639)"/>
<defs>
<linearGradient id="paint0_linear_41743_62639" x1="6.44444" y1="1" x2="8.99556" y2="19.1412" gradientUnits="userSpaceOnUse">
<stop stop-color="white"/>
<stop offset="1" stop-color="#EBEBEB"/>
</linearGradient>
<radialGradient id="paint1_radial_41743_62639" cx="0" cy="0" r="1" gradientUnits="userSpaceOnUse" gradientTransform="translate(7.11111 5.6875) rotate(59.3493) scale(16.5642 13.6213)">
<stop offset="0.177083" stop-color="white"/>
<stop offset="1" stop-color="#B8B8B8"/>
</radialGradient>
<linearGradient id="paint2_linear_41743_62639" x1="7.16667" y1="1" x2="9.8806" y2="19.0929" gradientUnits="userSpaceOnUse">
<stop stop-color="#BBBBBB"/>
<stop offset="1" stop-color="#888888"/>
</linearGradient>
<linearGradient id="paint3_linear_41743_62639" x1="5" y1="5" x2="15.0607" y2="15.2205" gradientUnits="userSpaceOnUse">
<stop stop-color="#E03F8F"/>
<stop offset="1" stop-color="#BD1E7B"/>
</linearGradient>
<linearGradient id="paint4_linear_41743_62639" x1="5" y1="5" x2="15.0607" y2="15.2205" gradientUnits="userSpaceOnUse">
<stop stop-color="#E03F8F"/>
<stop offset="1" stop-color="#BD1E7B"/>
</linearGradient>
<linearGradient id="paint5_linear_41743_62639" x1="5" y1="5" x2="15.0607" y2="15.2205" gradientUnits="userSpaceOnUse">
<stop stop-color="#E03F8F"/>
<stop offset="1" stop-color="#BD1E7B"/>
</linearGradient>
<linearGradient id="paint6_linear_41743_62639" x1="5" y1="5" x2="15.0607" y2="15.2205" gradientUnits="userSpaceOnUse">
<stop stop-color="#E03F8F"/>
<stop offset="1" stop-color="#BD1E7B"/>
</linearGradient>
<linearGradient id="paint7_linear_41743_62639" x1="5" y1="5" x2="15.0607" y2="15.2205" gradientUnits="userSpaceOnUse">
<stop stop-color="#E03F8F"/>
<stop offset="1" stop-color="#BD1E7B"/>
</linearGradient>
</defs>
</svg>
