<svg width="40" height="40" viewBox="0 0 40 40" fill="none" xmlns="http://www.w3.org/2000/svg">
<path d="M6 6C6 3.79086 7.79086 2 10 2H30C32.2091 2 34 3.79086 34 6V34C34 36.2091 32.2091 38 30 38H10C7.79086 38 6 36.2091 6 34V6Z" fill="url(#paint0_linear_41743_62647)"/>
<path d="M6 6C6 3.79086 7.79086 2 10 2H30C32.2091 2 34 3.79086 34 6V34C34 36.2091 32.2091 38 30 38H10C7.79086 38 6 36.2091 6 34V6Z" fill="url(#paint1_radial_41743_62647)" fill-opacity="0.2"/>
<path fill-rule="evenodd" clip-rule="evenodd" d="M30 3H10C8.34315 3 7 4.34315 7 6V34C7 35.6569 8.34315 37 10 37H30C31.6569 37 33 35.6569 33 34V6C33 4.34315 31.6569 3 30 3ZM10 2C7.79086 2 6 3.79086 6 6V34C6 36.2091 7.79086 38 10 38H30C32.2091 38 34 36.2091 34 34V6C34 3.79086 32.2091 2 30 2H10Z" fill="url(#paint2_linear_41743_62647)"/>
<path d="M16 18.1562C16 18.1426 16.0005 18.1291 16.0016 18.1157C16.0898 13.6185 19.763 10 24.2812 10H25.5C25.7761 10 26 10.2239 26 10.5C26 10.7761 25.7761 11 25.5 11H24.2812C20.2599 11 17 14.2599 17 18.2812V19C17 21.2091 15.2091 23 13 23H11.5C11.2239 23 11 22.7761 11 22.5C11 22.2239 11.2239 22 11.5 22H13C14.6569 22 16 20.6569 16 19V18.1562Z" fill="url(#paint3_linear_41743_62647)"/>
<path d="M19.5 19C19.5 15.6863 22.1863 13 25.5 13H28.5C28.7761 13 29 13.2239 29 13.5C29 13.7761 28.7761 14 28.5 14H25.5C22.7386 14 20.5 16.2386 20.5 19V19.2312C20.138 19.4199 19.7961 19.6416 19.4781 19.8924C19.4926 19.7279 19.5 19.5614 19.5 19.3931V19Z" fill="url(#paint4_linear_41743_62647)"/>
<path d="M13.8931 25C15.0746 25 16.1708 24.6346 17.0747 24.0105C17.0255 24.3329 17 24.663 17 24.999C17 25.0741 17.0013 25.1489 17.0038 25.2234C16.0768 25.719 15.0178 26 13.8931 26H11.5C11.2239 26 11 25.7761 11 25.5C11 25.2239 11.2239 25 11.5 25H13.8931Z" fill="url(#paint5_linear_41743_62647)"/>
<path d="M17.5005 27.5046C16.6147 27.8252 15.659 28 14.6626 28L14.5 28C14.2239 28 14 28.2239 14 28.5C14 28.7761 14.2239 29 14.5 29L14.6626 29C15.8235 29 16.9349 28.7881 17.9603 28.401C17.7849 28.116 17.6309 27.8164 17.5005 27.5046Z" fill="url(#paint6_linear_41743_62647)"/>
<path d="M26.5 17C25.4612 17 24.5703 17.6336 24.1928 18.5355C23.9652 18.5114 23.734 18.499 23.5 18.499C23.38 18.499 23.2608 18.5023 23.1424 18.5087C23.5698 17.0585 24.9113 16 26.5 16L28.5 16C28.7761 16 29 16.2239 29 16.5C29 16.7761 28.7761 17 28.5 17L26.5 17Z" fill="url(#paint7_linear_41743_62647)"/>
<path fill-rule="evenodd" clip-rule="evenodd" d="M20.2782 21.4746C20.593 22.5649 19.9386 23.6983 18.837 23.9709L18.2528 24.1154C18.2079 24.4031 18.1846 24.6983 18.1846 24.9991C18.1846 25.3138 18.2101 25.6223 18.2592 25.9225L18.7986 26.0524C19.9111 26.3203 20.5725 27.4653 20.2486 28.5629L20.0623 29.1941C20.5014 29.5798 21.0019 29.893 21.5464 30.1157L22.0397 29.597C22.8283 28.7677 24.1506 28.768 24.9388 29.5975L25.4375 30.1223C25.9811 29.902 26.4811 29.5918 26.9204 29.2094L26.7223 28.5235C26.4076 27.4332 27.062 26.2998 28.1635 26.0272L28.7472 25.8828C28.7922 25.5951 28.8155 25.2999 28.8155 24.9991C28.8155 24.6843 28.7899 24.3758 28.7409 24.0755L28.2019 23.9457C27.0894 23.6778 26.4281 22.5327 26.7519 21.4352L26.9381 20.8043C26.499 20.4186 25.9985 20.1054 25.4539 19.8826L24.9608 20.4011C24.1722 21.2303 22.85 21.2301 22.0617 20.4006L21.5629 19.8757C21.0193 20.0959 20.5194 20.4061 20.0801 20.7885L20.2782 21.4746ZM23.5 26.4991C24.3007 26.4991 24.9497 25.8275 24.9497 24.9991C24.9497 24.1707 24.3007 23.4991 23.5 23.4991C22.6994 23.4991 22.0504 24.1707 22.0504 24.9991C22.0504 25.8275 22.6994 26.4991 23.5 26.4991Z" fill="url(#paint8_linear_41743_62647)"/>
<defs>
<linearGradient id="paint0_linear_41743_62647" x1="13.7778" y1="2" x2="19.5745" y2="38.0684" gradientUnits="userSpaceOnUse">
<stop stop-color="white"/>
<stop offset="1" stop-color="#EBEBEB"/>
</linearGradient>
<radialGradient id="paint1_radial_41743_62647" cx="0" cy="0" r="1" gradientUnits="userSpaceOnUse" gradientTransform="translate(14.9444 11.375) rotate(62.5924) scale(32.1035 24.5982)">
<stop offset="0.177083" stop-color="white"/>
<stop offset="1" stop-color="#B8B8B8"/>
</radialGradient>
<linearGradient id="paint2_linear_41743_62647" x1="15.0417" y1="2" x2="21.2034" y2="37.9437" gradientUnits="userSpaceOnUse">
<stop stop-color="#BBBBBB"/>
<stop offset="1" stop-color="#888888"/>
</linearGradient>
<linearGradient id="paint3_linear_41743_62647" x1="11" y1="10" x2="30.9979" y2="27.8888" gradientUnits="userSpaceOnUse">
<stop stop-color="#E03F8F"/>
<stop offset="1" stop-color="#BD1E7B"/>
</linearGradient>
<linearGradient id="paint4_linear_41743_62647" x1="11" y1="10" x2="30.9979" y2="27.8888" gradientUnits="userSpaceOnUse">
<stop stop-color="#E03F8F"/>
<stop offset="1" stop-color="#BD1E7B"/>
</linearGradient>
<linearGradient id="paint5_linear_41743_62647" x1="11" y1="10" x2="30.9979" y2="27.8888" gradientUnits="userSpaceOnUse">
<stop stop-color="#E03F8F"/>
<stop offset="1" stop-color="#BD1E7B"/>
</linearGradient>
<linearGradient id="paint6_linear_41743_62647" x1="11" y1="10" x2="30.9979" y2="27.8888" gradientUnits="userSpaceOnUse">
<stop stop-color="#E03F8F"/>
<stop offset="1" stop-color="#BD1E7B"/>
</linearGradient>
<linearGradient id="paint7_linear_41743_62647" x1="11" y1="10" x2="30.9979" y2="27.8888" gradientUnits="userSpaceOnUse">
<stop stop-color="#E03F8F"/>
<stop offset="1" stop-color="#BD1E7B"/>
</linearGradient>
<linearGradient id="paint8_linear_41743_62647" x1="11" y1="10" x2="30.9979" y2="27.8888" gradientUnits="userSpaceOnUse">
<stop stop-color="#E03F8F"/>
<stop offset="1" stop-color="#BD1E7B"/>
</linearGradient>
</defs>
</svg>
