<svg width="24" height="24" viewBox="0 0 24 24" fill="none" xmlns="http://www.w3.org/2000/svg">
<path d="M2 5C2 3.34315 3.34315 2 5 2H19C20.6569 2 22 3.34315 22 5V19C22 20.6569 20.6569 22 19 22H5C3.34315 22 2 20.6569 2 19V5Z" fill="url(#paint0_linear_41743_62655)"/>
<path d="M2 5C2 3.34315 3.34315 2 5 2H19C20.6569 2 22 3.34315 22 5V19C22 20.6569 20.6569 22 19 22H5C3.34315 22 2 20.6569 2 19V5Z" fill="url(#paint1_radial_41743_62655)" fill-opacity="0.2"/>
<path fill-rule="evenodd" clip-rule="evenodd" d="M19 3H5C3.89543 3 3 3.89543 3 5V19C3 20.1046 3.89543 21 5 21H19C20.1046 21 21 20.1046 21 19V5C21 3.89543 20.1046 3 19 3ZM5 2C3.34315 2 2 3.34315 2 5V19C2 20.6569 3.34315 22 5 22H19C20.6569 22 22 20.6569 22 19V5C22 3.34315 20.6569 2 19 2H5Z" fill="url(#paint2_linear_41743_62655)"/>
<path fill-rule="evenodd" clip-rule="evenodd" d="M10.0005 7H9.50046C9.22432 7 9.00046 6.77614 9.00046 6.5C9.00046 6.22386 9.22432 6 9.50046 6H14.5005C14.7766 6 15.0005 6.22386 15.0005 6.5C15.0005 6.77614 14.7766 7 14.5005 7H14.0005V10.6889C14.0005 11.1316 14.118 11.5663 14.341 11.9486L16.5551 15.7441C17.1384 16.7441 16.4171 17.9999 15.2594 17.9999H8.74152C7.58383 17.9999 6.86252 16.7441 7.44585 15.7441L9.65991 11.9486C9.88295 11.5663 10.0005 11.1316 10.0005 10.6889V7ZM14.38 14H9.62098L8.30963 16.248C8.11519 16.5813 8.35562 16.9999 8.74152 16.9999H15.2594C15.6453 16.9999 15.8858 16.5813 15.6913 16.248L14.38 14Z" fill="url(#paint3_linear_41743_62655)"/>
<defs>
<linearGradient id="paint0_linear_41743_62655" x1="7.55556" y1="2" x2="10.0855" y2="22.2393" gradientUnits="userSpaceOnUse">
<stop stop-color="white"/>
<stop offset="1" stop-color="#EBEBEB"/>
</linearGradient>
<radialGradient id="paint1_radial_41743_62655" cx="0" cy="0" r="1" gradientUnits="userSpaceOnUse" gradientTransform="translate(8.38889 7.20833) rotate(56.3099) scale(19.0293 16.4677)">
<stop offset="0.177083" stop-color="white"/>
<stop offset="1" stop-color="#B8B8B8"/>
</radialGradient>
<linearGradient id="paint2_linear_41743_62655" x1="8.45833" y1="2" x2="11.1512" y2="22.1965" gradientUnits="userSpaceOnUse">
<stop stop-color="#BBBBBB"/>
<stop offset="1" stop-color="#888888"/>
</linearGradient>
<linearGradient id="paint3_linear_41743_62655" x1="7.23926" y1="6" x2="18.9253" y2="15.2734" gradientUnits="userSpaceOnUse">
<stop stop-color="#4BA446"/>
<stop offset="1" stop-color="#3F7D35"/>
</linearGradient>
</defs>
</svg>
