<svg width="48" height="48" viewBox="0 0 48 48" fill="none" xmlns="http://www.w3.org/2000/svg">
<path d="M5 10C5 7.23858 7.23858 5 10 5H38C40.7614 5 43 7.23858 43 10V38C43 40.7614 40.7614 43 38 43H10C7.23858 43 5 40.7614 5 38V10Z" fill="url(#paint0_linear_41743_62835)"/>
<path d="M5 10C5 7.23858 7.23858 5 10 5H38C40.7614 5 43 7.23858 43 10V38C43 40.7614 40.7614 43 38 43H10C7.23858 43 5 40.7614 5 38V10Z" fill="url(#paint1_radial_41743_62835)" fill-opacity="0.2"/>
<path fill-rule="evenodd" clip-rule="evenodd" d="M38 6H10C7.79086 6 6 7.79086 6 10V38C6 40.2091 7.79086 42 10 42H38C40.2091 42 42 40.2091 42 38V10C42 7.79086 40.2091 6 38 6ZM10 5C7.23858 5 5 7.23858 5 10V38C5 40.7614 7.23858 43 10 43H38C40.7614 43 43 40.7614 43 38V10C43 7.23858 40.7614 5 38 5H10Z" fill="url(#paint2_linear_41743_62835)"/>
<path d="M18.5 33C20.9853 33 23 30.9853 23 28.5V24H25V28.5L25.0001 28.5291C25.0157 31.001 27.0244 33 29.5 33C31.9853 33 34 30.9853 34 28.5V28.0638C34 27.9726 33.9911 27.8817 33.9735 27.7922L32.0208 17.894C31.689 16.2123 30.2142 15 28.5 15C26.567 15 25 16.567 25 18.5V20H23V18.5C23 16.567 21.433 15 19.5 15C17.8824 15 16.4858 16.1328 16.152 17.7156L14.0302 27.7787C14.0101 27.8738 14 27.9708 14 28.068V28.5C14 28.8107 14.0315 29.114 14.0914 29.4069C14.511 31.4575 16.3254 33 18.5 33ZM18.5 31.5C16.8431 31.5 15.5 30.1568 15.5 28.5C15.5 26.8431 16.8431 25.5 18.5 25.5C20.1569 25.5 21.5 26.8431 21.5 28.5C21.5 28.6035 21.4948 28.7059 21.4845 28.8067C21.3309 30.3195 20.0533 31.5 18.5 31.5ZM29.5 25.5C31.1569 25.5 32.5 26.8431 32.5 28.5L32.4999 28.5194C32.4895 30.1673 31.1504 31.5 29.5 31.5C27.8431 31.5 26.5 30.1568 26.5 28.5C26.5 26.8431 27.8431 25.5 29.5 25.5Z" fill="url(#paint3_linear_41743_62835)"/>
<defs>
<linearGradient id="paint0_linear_41743_62835" x1="15.5556" y1="5" x2="20.3624" y2="43.4547" gradientUnits="userSpaceOnUse">
<stop stop-color="white"/>
<stop offset="1" stop-color="#EBEBEB"/>
</linearGradient>
<radialGradient id="paint1_radial_41743_62835" cx="0" cy="0" r="1" gradientUnits="userSpaceOnUse" gradientTransform="translate(17.1389 14.8958) rotate(56.3099) scale(36.1557 31.2886)">
<stop offset="0.177083" stop-color="white"/>
<stop offset="1" stop-color="#B8B8B8"/>
</radialGradient>
<linearGradient id="paint2_linear_41743_62835" x1="17.2708" y1="5" x2="22.3873" y2="43.3734" gradientUnits="userSpaceOnUse">
<stop stop-color="#BBBBBB"/>
<stop offset="1" stop-color="#888888"/>
</linearGradient>
<linearGradient id="paint3_linear_41743_62835" x1="14" y1="15" x2="31.9005" y2="34.8895" gradientUnits="userSpaceOnUse">
<stop stop-color="#C28400"/>
<stop offset="1" stop-color="#A86500"/>
</linearGradient>
</defs>
</svg>
