<svg width="20" height="20" viewBox="0 0 20 20" fill="none" xmlns="http://www.w3.org/2000/svg">
<path d="M2 4.5C2 3.11929 3.11929 2 4.5 2H15.5C16.8807 2 18 3.11929 18 4.5V15.5C18 16.8807 16.8807 18 15.5 18H4.5C3.11929 18 2 16.8807 2 15.5V4.5Z" fill="url(#paint0_linear_41743_62854)"/>
<path d="M2 4.5C2 3.11929 3.11929 2 4.5 2H15.5C16.8807 2 18 3.11929 18 4.5V15.5C18 16.8807 16.8807 18 15.5 18H4.5C3.11929 18 2 16.8807 2 15.5V4.5Z" fill="url(#paint1_radial_41743_62854)" fill-opacity="0.2"/>
<path fill-rule="evenodd" clip-rule="evenodd" d="M15.5 3H4.5C3.67157 3 3 3.67157 3 4.5V15.5C3 16.3284 3.67157 17 4.5 17H15.5C16.3284 17 17 16.3284 17 15.5V4.5C17 3.67157 16.3284 3 15.5 3ZM4.5 2C3.11929 2 2 3.11929 2 4.5V15.5C2 16.8807 3.11929 18 4.5 18H15.5C16.8807 18 18 16.8807 18 15.5V4.5C18 3.11929 16.8807 2 15.5 2H4.5Z" fill="url(#paint2_linear_41743_62854)"/>
<path fill-rule="evenodd" clip-rule="evenodd" d="M7 14C8.06787 14 8.94027 13.1631 8.99706 12.1094H9.00035V10H10.9996V12.1094H11.0029C11.0597 13.1631 11.9321 14 13 14C14.1046 14 15 13.1046 15 12C15 11.808 14.9729 11.6223 14.9224 11.4466L14.1093 7.36733C14.0011 6.62659 13.3642 6 12.5582 6C11.687 6 10.9996 6.70739 10.9996 7.5676V8H9.00035V7.5676C9.00035 6.70739 8.31304 6 7.44176 6C6.6358 6 5.99891 6.62659 5.89067 7.36733L5.07755 11.4466C5.02705 11.6223 5 11.808 5 12C5 13.1046 5.89543 14 7 14ZM13.9517 11.6922L13.9628 11.7476L13.9676 11.7466C13.9888 11.8275 14 11.9125 14 12C14 12.5523 13.5523 13 13 13C12.4477 13 12 12.5523 12 12C12 11.4477 12.4477 11 13 11C13.4449 11 13.8219 11.2905 13.9517 11.6922ZM6 12C6 11.9125 6.01125 11.8275 6.03238 11.7466L6.03723 11.7476L6.04827 11.6922C6.17809 11.2905 6.55512 11 7 11C7.55228 11 8 11.4477 8 12C8 12.5523 7.55228 13 7 13C6.44772 13 6 12.5523 6 12Z" fill="url(#paint3_linear_41743_62854)"/>
<defs>
<linearGradient id="paint0_linear_41743_62854" x1="6.44444" y1="2" x2="8.46838" y2="18.1915" gradientUnits="userSpaceOnUse">
<stop stop-color="white"/>
<stop offset="1" stop-color="#EBEBEB"/>
</linearGradient>
<radialGradient id="paint1_radial_41743_62854" cx="0" cy="0" r="1" gradientUnits="userSpaceOnUse" gradientTransform="translate(7.11111 6.16667) rotate(56.3099) scale(15.2234 13.1741)">
<stop offset="0.177083" stop-color="white"/>
<stop offset="1" stop-color="#B8B8B8"/>
</radialGradient>
<linearGradient id="paint2_linear_41743_62854" x1="7.16667" y1="2" x2="9.32096" y2="18.1572" gradientUnits="userSpaceOnUse">
<stop stop-color="#BBBBBB"/>
<stop offset="1" stop-color="#888888"/>
</linearGradient>
<linearGradient id="paint3_linear_41743_62854" x1="5" y1="6" x2="12.8049" y2="15.7561" gradientUnits="userSpaceOnUse">
<stop stop-color="#C28400"/>
<stop offset="1" stop-color="#A86500"/>
</linearGradient>
</defs>
</svg>
