<svg width="24" height="24" viewBox="0 0 24 24" fill="none" xmlns="http://www.w3.org/2000/svg">
<path d="M2 5C2 3.34315 3.34315 2 5 2H19C20.6569 2 22 3.34315 22 5V19C22 20.6569 20.6569 22 19 22H5C3.34315 22 2 20.6569 2 19V5Z" fill="url(#paint0_linear_41743_62687)"/>
<path d="M2 5C2 3.34315 3.34315 2 5 2H19C20.6569 2 22 3.34315 22 5V19C22 20.6569 20.6569 22 19 22H5C3.34315 22 2 20.6569 2 19V5Z" fill="url(#paint1_radial_41743_62687)" fill-opacity="0.2"/>
<path fill-rule="evenodd" clip-rule="evenodd" d="M19 3H5C3.89543 3 3 3.89543 3 5V19C3 20.1046 3.89543 21 5 21H19C20.1046 21 21 20.1046 21 19V5C21 3.89543 20.1046 3 19 3ZM5 2C3.34315 2 2 3.34315 2 5V19C2 20.6569 3.34315 22 5 22H19C20.6569 22 22 20.6569 22 19V5C22 3.34315 20.6569 2 19 2H5Z" fill="url(#paint2_linear_41743_62687)"/>
<path d="M9.5 9.93699C10.3626 9.71497 11 8.93192 11 8C11 6.89543 10.1046 6 9 6C7.89543 6 7 6.89543 7 8C7 8.93192 7.63739 9.71497 8.5 9.93699L8.5 14.063C7.63739 14.285 7 15.0681 7 16C7 17.1046 7.89543 18 9 18C10.1046 18 11 17.1046 11 16C11 15.0681 10.3626 14.285 9.5 14.063V12.5H13C14.3807 12.5 15.5 11.3807 15.5 10V9.92868C16.3467 9.69598 16.9688 8.92063 16.9688 8C16.9688 6.89543 16.0733 6 14.9688 6C13.8642 6 12.9688 6.89543 12.9688 8C12.9688 8.94314 13.6216 9.7338 14.5 9.94476V10C14.5 10.8284 13.8284 11.5 13 11.5H9.5V9.93699Z" fill="url(#paint3_linear_41743_62687)"/>
<path d="M14.5 15C12.0147 15 10 17.0147 10 19.5C10 21.9853 12.0147 24 14.5 24H19.5C21.9853 24 24 21.9853 24 19.5C24 17.0147 21.9853 15 19.5 15H14.5Z" fill="#F5F5F5"/>
<path d="M11 19.5C11 17.567 12.567 16 14.5 16H15.5C15.7761 16 16 16.2239 16 16.5C16 16.7761 15.7761 17 15.5 17L14.5 17C13.1193 17 12 18.1193 12 19.5C12 20.8807 13.1193 22 14.5 22H15.5C15.7761 22 16 22.2239 16 22.5C16 22.7761 15.7761 23 15.5 23H14.5C12.567 23 11 21.433 11 19.5Z" fill="url(#paint4_linear_41743_62687)"/>
<path d="M19.5 23C21.433 23 23 21.433 23 19.5C23 17.567 21.433 16 19.5 16H18.4375V16.0039C18.1909 16.0346 18 16.245 18 16.5C18 16.755 18.1909 16.9654 18.4375 16.9961V17H19.5C20.8807 17 22 18.1193 22 19.5C22 20.8807 20.8807 22 19.5 22H18.5C18.2239 22 18 22.2239 18 22.5C18 22.7761 18.2239 23 18.5 23H19.5Z" fill="url(#paint5_linear_41743_62687)"/>
<path d="M14.5 19C14.2239 19 14 19.2239 14 19.5C14 19.7761 14.2239 20 14.5 20L19.5 20C19.7761 20 20 19.7761 20 19.5C20 19.2239 19.7761 19 19.5 19L14.5 19Z" fill="url(#paint6_linear_41743_62687)"/>
<defs>
<linearGradient id="paint0_linear_41743_62687" x1="7.55556" y1="2" x2="10.0855" y2="22.2393" gradientUnits="userSpaceOnUse">
<stop stop-color="white"/>
<stop offset="1" stop-color="#EBEBEB"/>
</linearGradient>
<radialGradient id="paint1_radial_41743_62687" cx="0" cy="0" r="1" gradientUnits="userSpaceOnUse" gradientTransform="translate(8.38889 7.20833) rotate(56.3099) scale(19.0293 16.4677)">
<stop offset="0.177083" stop-color="white"/>
<stop offset="1" stop-color="#B8B8B8"/>
</radialGradient>
<linearGradient id="paint2_linear_41743_62687" x1="8.45833" y1="2" x2="11.1512" y2="22.1965" gradientUnits="userSpaceOnUse">
<stop stop-color="#BBBBBB"/>
<stop offset="1" stop-color="#888888"/>
</linearGradient>
<linearGradient id="paint3_linear_41743_62687" x1="7" y1="6" x2="18.7966" y2="15.7997" gradientUnits="userSpaceOnUse">
<stop stop-color="#7751B8"/>
<stop offset="1" stop-color="#5A409C"/>
</linearGradient>
<linearGradient id="paint4_linear_41743_62687" x1="11" y1="16" x2="17.0933" y2="26.4456" gradientUnits="userSpaceOnUse">
<stop stop-color="#7751B8"/>
<stop offset="1" stop-color="#5A409C"/>
</linearGradient>
<linearGradient id="paint5_linear_41743_62687" x1="11" y1="16" x2="17.0933" y2="26.4456" gradientUnits="userSpaceOnUse">
<stop stop-color="#7751B8"/>
<stop offset="1" stop-color="#5A409C"/>
</linearGradient>
<linearGradient id="paint6_linear_41743_62687" x1="11" y1="16" x2="17.0933" y2="26.4456" gradientUnits="userSpaceOnUse">
<stop stop-color="#7751B8"/>
<stop offset="1" stop-color="#5A409C"/>
</linearGradient>
</defs>
</svg>
