<svg width="40" height="40" viewBox="0 0 40 40" fill="none" xmlns="http://www.w3.org/2000/svg">
<path d="M2 10C2 7.79086 3.79086 6 6 6H34C36.2091 6 38 7.79086 38 10V30C38 32.2091 36.2091 34 34 34H6C3.79086 34 2 32.2091 2 30V10Z" fill="url(#paint0_linear_41743_62741)"/>
<path d="M2 10C2 7.79086 3.79086 6 6 6H34C36.2091 6 38 7.79086 38 10V30C38 32.2091 36.2091 34 34 34H6C3.79086 34 2 32.2091 2 30V10Z" fill="url(#paint1_radial_41743_62741)" fill-opacity="0.2"/>
<path fill-rule="evenodd" clip-rule="evenodd" d="M34 7H6C4.34315 7 3 8.34315 3 10V30C3 31.6569 4.34315 33 6 33H34C35.6569 33 37 31.6569 37 30V10C37 8.34315 35.6569 7 34 7ZM6 6C3.79086 6 2 7.79086 2 10V30C2 32.2091 3.79086 34 6 34H34C36.2091 34 38 32.2091 38 30V10C38 7.79086 36.2091 6 34 6H6Z" fill="url(#paint2_linear_41743_62741)"/>
<path d="M15.499 23.25C16.1894 23.25 16.749 22.6904 16.749 22C16.749 21.3096 16.1894 20.75 15.499 20.75C14.8087 20.75 14.249 21.3096 14.249 22C14.249 22.6904 14.8087 23.25 15.499 23.25Z" fill="url(#paint3_linear_41743_62741)"/>
<path d="M19.999 23.25C20.6894 23.25 21.249 22.6904 21.249 22C21.249 21.3096 20.6894 20.75 19.999 20.75C19.3087 20.75 18.749 21.3096 18.749 22C18.749 22.6904 19.3087 23.25 19.999 23.25Z" fill="url(#paint4_linear_41743_62741)"/>
<path d="M24.499 23.25C25.1894 23.25 25.749 22.6904 25.749 22C25.749 21.3096 25.1894 20.75 24.499 20.75C23.8087 20.75 23.249 21.3096 23.249 22C23.249 22.6904 23.8087 23.25 24.499 23.25Z" fill="url(#paint5_linear_41743_62741)"/>
<path fill-rule="evenodd" clip-rule="evenodd" d="M13.8451 12C13.5616 12 13.2915 12.1203 13.1018 12.331L9.50183 16.331C8.92266 16.9746 9.37936 18 10.2451 18H12V25C12 26.1046 12.8954 27 14 27H26C27.1046 27 28 26.1046 28 25V18H29.7544C30.6202 18 31.0769 16.9746 30.4977 16.331L26.8977 12.331C26.7081 12.1203 26.4379 12 26.1544 12H13.8451ZM27 18H13V25C13 25.5523 13.4477 26 14 26H26C26.5523 26 27 25.5523 27 25V18Z" fill="url(#paint6_linear_41743_62741)"/>
<rect x="24" y="28" width="16" height="10" rx="5" fill="#F5F5F5"/>
<path d="M29 30C27.3431 30 26 31.3431 26 33C26 34.6569 27.3431 36 29 36H30.5C30.7761 36 31 36.2239 31 36.5C31 36.7761 30.7761 37 30.5 37H29C26.7909 37 25 35.2091 25 33C25 30.7909 26.7909 29 29 29H30.5C30.7761 29 31 29.2239 31 29.5C31 29.7761 30.7761 30 30.5 30H29Z" fill="url(#paint7_linear_41743_62741)"/>
<path d="M35 36C36.6569 36 38 34.6569 38 33C38 31.3431 36.6569 30 35 30L33.5 30C33.2239 30 33 29.7761 33 29.5C33 29.2239 33.2239 29 33.5 29H35C37.2091 29 39 30.7909 39 33C39 35.2091 37.2091 37 35 37L33.5 37C33.2239 37 33 36.7761 33 36.5C33 36.2239 33.2239 36 33.5 36H35Z" fill="url(#paint8_linear_41743_62741)"/>
<path d="M29.5 32.5C29.2239 32.5 29 32.7239 29 33C29 33.2761 29.2239 33.5 29.5 33.5L34.5 33.5C34.7761 33.5 35 33.2761 35 33C35 32.7239 34.7761 32.5 34.5 32.5L29.5 32.5Z" fill="url(#paint9_linear_41743_62741)"/>
<defs>
<linearGradient id="paint0_linear_41743_62741" x1="12" y1="6" x2="14.7716" y2="34.5083" gradientUnits="userSpaceOnUse">
<stop stop-color="white"/>
<stop offset="1" stop-color="#EBEBEB"/>
</linearGradient>
<radialGradient id="paint1_radial_41743_62741" cx="0" cy="0" r="1" gradientUnits="userSpaceOnUse" gradientTransform="translate(13.5 13.2917) rotate(49.3987) scale(29.1952 27.0485)">
<stop offset="0.177083" stop-color="white"/>
<stop offset="1" stop-color="#B8B8B8"/>
</radialGradient>
<linearGradient id="paint2_linear_41743_62741" x1="13.625" y1="6" x2="16.5776" y2="34.4716" gradientUnits="userSpaceOnUse">
<stop stop-color="#BBBBBB"/>
<stop offset="1" stop-color="#888888"/>
</linearGradient>
<linearGradient id="paint3_linear_41743_62741" x1="9.24316" y1="12" x2="23.318" y2="32.1864" gradientUnits="userSpaceOnUse">
<stop stop-color="#7751B8"/>
<stop offset="1" stop-color="#5A409C"/>
</linearGradient>
<linearGradient id="paint4_linear_41743_62741" x1="9.24316" y1="12" x2="23.318" y2="32.1864" gradientUnits="userSpaceOnUse">
<stop stop-color="#7751B8"/>
<stop offset="1" stop-color="#5A409C"/>
</linearGradient>
<linearGradient id="paint5_linear_41743_62741" x1="9.24316" y1="12" x2="23.318" y2="32.1864" gradientUnits="userSpaceOnUse">
<stop stop-color="#7751B8"/>
<stop offset="1" stop-color="#5A409C"/>
</linearGradient>
<linearGradient id="paint6_linear_41743_62741" x1="9.24316" y1="12" x2="23.318" y2="32.1864" gradientUnits="userSpaceOnUse">
<stop stop-color="#7751B8"/>
<stop offset="1" stop-color="#5A409C"/>
</linearGradient>
<linearGradient id="paint7_linear_41743_62741" x1="25" y1="29" x2="31.8923" y2="41.0615" gradientUnits="userSpaceOnUse">
<stop stop-color="#7751B8"/>
<stop offset="1" stop-color="#5A409C"/>
</linearGradient>
<linearGradient id="paint8_linear_41743_62741" x1="25" y1="29" x2="31.8923" y2="41.0615" gradientUnits="userSpaceOnUse">
<stop stop-color="#7751B8"/>
<stop offset="1" stop-color="#5A409C"/>
</linearGradient>
<linearGradient id="paint9_linear_41743_62741" x1="25" y1="29" x2="31.8923" y2="41.0615" gradientUnits="userSpaceOnUse">
<stop stop-color="#7751B8"/>
<stop offset="1" stop-color="#5A409C"/>
</linearGradient>
</defs>
</svg>
