<svg width="64" height="64" viewBox="0 0 64 64" fill="none" xmlns="http://www.w3.org/2000/svg">
<path d="M6 13C6 9.13401 9.13401 6 13 6H51C54.866 6 58 9.13401 58 13V51C58 54.866 54.866 58 51 58H13C9.13401 58 6 54.866 6 51V13Z" fill="url(#paint0_linear_41743_62771)"/>
<path d="M6 13C6 9.13401 9.13401 6 13 6H51C54.866 6 58 9.13401 58 13V51C58 54.866 54.866 58 51 58H13C9.13401 58 6 54.866 6 51V13Z" fill="url(#paint1_radial_41743_62771)" fill-opacity="0.2"/>
<path fill-rule="evenodd" clip-rule="evenodd" d="M51 7H13C9.68629 7 7 9.68629 7 13V51C7 54.3137 9.68629 57 13 57H51C54.3137 57 57 54.3137 57 51V13C57 9.68629 54.3137 7 51 7ZM13 6C9.13401 6 6 9.13401 6 13V51C6 54.866 9.13401 58 13 58H51C54.866 58 58 54.866 58 51V13C58 9.13401 54.866 6 51 6H13Z" fill="url(#paint2_linear_41743_62771)"/>
<path d="M18 28C19.6569 28 21 26.6569 21 25C21 23.3431 19.6569 22 18 22C16.3431 22 15 23.3431 15 25C15 26.6569 16.3431 28 18 28Z" fill="url(#paint3_linear_41743_62771)"/>
<path d="M32 28C33.6569 28 35 26.6569 35 25C35 23.3431 33.6569 22 32 22C30.3431 22 29 23.3431 29 25C29 26.6569 30.3431 28 32 28Z" fill="url(#paint4_linear_41743_62771)"/>
<path d="M34.873 39C34.873 40.6569 33.5299 42 31.873 42C30.2162 42 28.873 40.6569 28.873 39C28.873 37.3431 30.2162 36 31.873 36C33.5299 36 34.873 37.3431 34.873 39Z" fill="url(#paint5_linear_41743_62771)"/>
<path d="M18 42C19.6569 42 21 40.6569 21 39C21 37.3431 19.6569 36 18 36C16.3431 36 15 37.3431 15 39C15 40.6569 16.3431 42 18 42Z" fill="url(#paint6_linear_41743_62771)"/>
<path d="M49 25C49 26.6569 47.6569 28 46 28C44.3431 28 43 26.6569 43 25C43 23.3431 44.3431 22 46 22C47.6569 22 49 23.3431 49 25Z" fill="url(#paint7_linear_41743_62771)"/>
<path d="M40 54.5C40 50.3579 43.3579 47 47.5 47H56.5C60.6421 47 64 50.3579 64 54.5V54.5C64 58.6421 60.6421 62 56.5 62H47.5C43.3579 62 40 58.6421 40 54.5V54.5Z" fill="#F5F5F5"/>
<path d="M41 54.5C41 50.9101 43.9101 48 47.5 48H48.5C48.7761 48 49 48.2239 49 48.5C49 48.7761 48.7761 49 48.5 49H47.5C44.4624 49 42 51.4624 42 54.5C42 57.5376 44.4624 60 47.5 60H48.5C48.7761 60 49 60.2239 49 60.5C49 60.7761 48.7761 61 48.5 61H47.5C43.9101 61 41 58.0899 41 54.5Z" fill="url(#paint8_linear_41743_62771)"/>
<path d="M63 54.5C63 58.0899 60.0899 61 56.5 61H55.5C55.2239 61 55 60.7761 55 60.5C55 60.2239 55.2239 60 55.5 60H56.5C59.5376 60 62 57.5376 62 54.5C62 51.4624 59.5376 49 56.5 49H55.5C55.2239 49 55 48.7761 55 48.5C55 48.2239 55.2239 48 55.5 48H56.5C60.0898 48 63 50.9102 63 54.5Z" fill="url(#paint9_linear_41743_62771)"/>
<path d="M47.5 53.979C47.2239 53.979 47 54.2029 47 54.479C47 54.7551 47.2239 54.979 47.5 54.979H57.0938C57.3699 54.979 57.5938 54.7551 57.5938 54.479C57.5938 54.2029 57.3699 53.979 57.0938 53.979H47.5Z" fill="url(#paint10_linear_41743_62771)"/>
<defs>
<linearGradient id="paint0_linear_41743_62771" x1="20.4444" y1="6" x2="27.0222" y2="58.6222" gradientUnits="userSpaceOnUse">
<stop stop-color="white"/>
<stop offset="1" stop-color="#EBEBEB"/>
</linearGradient>
<radialGradient id="paint1_radial_41743_62771" cx="0" cy="0" r="1" gradientUnits="userSpaceOnUse" gradientTransform="translate(22.6111 19.5417) rotate(56.3099) scale(49.4762 42.8159)">
<stop offset="0.177083" stop-color="white"/>
<stop offset="1" stop-color="#B8B8B8"/>
</radialGradient>
<linearGradient id="paint2_linear_41743_62771" x1="22.7917" y1="6" x2="29.7931" y2="58.5109" gradientUnits="userSpaceOnUse">
<stop stop-color="#BBBBBB"/>
<stop offset="1" stop-color="#888888"/>
</linearGradient>
<linearGradient id="paint3_linear_41743_62771" x1="15" y1="22" x2="32.4807" y2="51.7172" gradientUnits="userSpaceOnUse">
<stop stop-color="#7751B8"/>
<stop offset="1" stop-color="#5A409C"/>
</linearGradient>
<linearGradient id="paint4_linear_41743_62771" x1="15" y1="22" x2="32.4807" y2="51.7172" gradientUnits="userSpaceOnUse">
<stop stop-color="#7751B8"/>
<stop offset="1" stop-color="#5A409C"/>
</linearGradient>
<linearGradient id="paint5_linear_41743_62771" x1="15" y1="22" x2="32.4807" y2="51.7172" gradientUnits="userSpaceOnUse">
<stop stop-color="#7751B8"/>
<stop offset="1" stop-color="#5A409C"/>
</linearGradient>
<linearGradient id="paint6_linear_41743_62771" x1="15" y1="22" x2="32.4807" y2="51.7172" gradientUnits="userSpaceOnUse">
<stop stop-color="#7751B8"/>
<stop offset="1" stop-color="#5A409C"/>
</linearGradient>
<linearGradient id="paint7_linear_41743_62771" x1="15" y1="22" x2="32.4807" y2="51.7172" gradientUnits="userSpaceOnUse">
<stop stop-color="#7751B8"/>
<stop offset="1" stop-color="#5A409C"/>
</linearGradient>
<linearGradient id="paint8_linear_41743_62771" x1="41" y1="48" x2="52.3874" y2="67.2711" gradientUnits="userSpaceOnUse">
<stop stop-color="#7751B8"/>
<stop offset="1" stop-color="#5A409C"/>
</linearGradient>
<linearGradient id="paint9_linear_41743_62771" x1="41" y1="48" x2="52.3874" y2="67.2711" gradientUnits="userSpaceOnUse">
<stop stop-color="#7751B8"/>
<stop offset="1" stop-color="#5A409C"/>
</linearGradient>
<linearGradient id="paint10_linear_41743_62771" x1="41" y1="48" x2="52.3874" y2="67.2711" gradientUnits="userSpaceOnUse">
<stop stop-color="#7751B8"/>
<stop offset="1" stop-color="#5A409C"/>
</linearGradient>
</defs>
</svg>
