<svg width="48" height="48" viewBox="0 0 48 48" fill="none" xmlns="http://www.w3.org/2000/svg">
<path d="M5 10C5 7.23858 7.23858 5 10 5H38C40.7614 5 43 7.23858 43 10V38C43 40.7614 40.7614 43 38 43H10C7.23858 43 5 40.7614 5 38V10Z" fill="url(#paint0_linear_41743_62675)"/>
<path d="M5 10C5 7.23858 7.23858 5 10 5H38C40.7614 5 43 7.23858 43 10V38C43 40.7614 40.7614 43 38 43H10C7.23858 43 5 40.7614 5 38V10Z" fill="url(#paint1_radial_41743_62675)" fill-opacity="0.2"/>
<path fill-rule="evenodd" clip-rule="evenodd" d="M38 6H10C7.79086 6 6 7.79086 6 10V38C6 40.2091 7.79086 42 10 42H38C40.2091 42 42 40.2091 42 38V10C42 7.79086 40.2091 6 38 6ZM10 5C7.23858 5 5 7.23858 5 10V38C5 40.7614 7.23858 43 10 43H38C40.7614 43 43 40.7614 43 38V10C43 7.23858 40.7614 5 38 5H10Z" fill="url(#paint2_linear_41743_62675)"/>
<path d="M20.25 20.9195C21.8226 20.5761 23 19.1756 23 17.5C23 15.567 21.433 14 19.5 14C17.567 14 16 15.567 16 17.5C16 19.1756 17.1774 20.5761 18.75 20.9195L18.75 27.0805C17.1774 27.4239 16 28.8244 16 30.5C16 32.433 17.567 34 19.5 34C21.433 34 23 32.433 23 30.5C23 28.8244 21.8226 27.4239 20.25 27.0805L20.25 24.7887H25.5C27.8163 24.7887 29.7453 23.1307 30.1652 20.9369C31.7801 20.6262 33 19.2055 33 17.5C33 15.567 31.433 14 29.5 14C27.567 14 26 15.567 26 17.5C26 19.135 27.1212 20.5082 28.6366 20.8927C28.2616 22.2733 26.9994 23.2887 25.5 23.2887H20.25L20.25 20.9195Z" fill="url(#paint3_linear_41743_62675)"/>
<path d="M25 40.5C25 36.9101 27.9101 34 31.5 34H40.5C44.0899 34 47 36.9101 47 40.5V40.5C47 44.0899 44.0899 47 40.5 47H31.5C27.9101 47 25 44.0899 25 40.5V40.5Z" fill="#F5F5F5"/>
<path d="M26 40.5C26 37.4624 28.4624 35 31.5 35H33.5C33.7761 35 34 35.2239 34 35.5C34 35.7761 33.7761 36 33.5 36H31.5C29.0147 36 27 38.0147 27 40.5C27 42.9853 29.0147 45 31.5 45H33.5C33.7761 45 34 45.2239 34 45.5C34 45.7761 33.7761 46 33.5 46H31.5C28.4624 46 26 43.5376 26 40.5Z" fill="url(#paint4_linear_41743_62675)"/>
<path d="M46 40.5C46 43.5376 43.5376 46 40.5 46H38.5C38.2239 46 38 45.7761 38 45.5C38 45.2239 38.2239 45 38.5 45H40.5C42.9853 45 45 42.9853 45 40.5C45 38.0147 42.9853 36 40.5 36L38.5 36C38.2239 36 38 35.7761 38 35.5C38 35.2239 38.2239 35 38.5 35H40.5C43.5376 35 46 37.4624 46 40.5Z" fill="url(#paint5_linear_41743_62675)"/>
<path d="M32.5 39.979C32.2239 39.979 32 40.2029 32 40.479C32 40.7551 32.2239 40.979 32.5 40.979H40.0938C40.3699 40.979 40.5938 40.7551 40.5938 40.479C40.5938 40.2029 40.3699 39.979 40.0938 39.979H32.5Z" fill="url(#paint6_linear_41743_62675)"/>
<defs>
<linearGradient id="paint0_linear_41743_62675" x1="15.5556" y1="5" x2="20.3624" y2="43.4547" gradientUnits="userSpaceOnUse">
<stop stop-color="white"/>
<stop offset="1" stop-color="#EBEBEB"/>
</linearGradient>
<radialGradient id="paint1_radial_41743_62675" cx="0" cy="0" r="1" gradientUnits="userSpaceOnUse" gradientTransform="translate(17.1389 14.8958) rotate(56.3099) scale(36.1557 31.2886)">
<stop offset="0.177083" stop-color="white"/>
<stop offset="1" stop-color="#B8B8B8"/>
</radialGradient>
<linearGradient id="paint2_linear_41743_62675" x1="17.2708" y1="5" x2="22.3873" y2="43.3734" gradientUnits="userSpaceOnUse">
<stop stop-color="#BBBBBB"/>
<stop offset="1" stop-color="#888888"/>
</linearGradient>
<linearGradient id="paint3_linear_41743_62675" x1="16" y1="14" x2="35.7388" y2="30.7779" gradientUnits="userSpaceOnUse">
<stop stop-color="#7751B8"/>
<stop offset="1" stop-color="#5A409C"/>
</linearGradient>
<linearGradient id="paint4_linear_41743_62675" x1="26" y1="35" x2="35.2898" y2="51.8906" gradientUnits="userSpaceOnUse">
<stop stop-color="#7751B8"/>
<stop offset="1" stop-color="#5A409C"/>
</linearGradient>
<linearGradient id="paint5_linear_41743_62675" x1="26" y1="35" x2="35.2898" y2="51.8906" gradientUnits="userSpaceOnUse">
<stop stop-color="#7751B8"/>
<stop offset="1" stop-color="#5A409C"/>
</linearGradient>
<linearGradient id="paint6_linear_41743_62675" x1="26" y1="35" x2="35.2898" y2="51.8906" gradientUnits="userSpaceOnUse">
<stop stop-color="#7751B8"/>
<stop offset="1" stop-color="#5A409C"/>
</linearGradient>
</defs>
</svg>
