<svg width="48" height="48" viewBox="0 0 48 48" fill="none" xmlns="http://www.w3.org/2000/svg">
<path d="M10 11C10 8.23858 12.2386 6 15 6H36C38.7614 6 41 8.23858 41 11V37C41 41.4183 37.4183 45 33 45H15C12.2386 45 10 42.7614 10 40V11Z" fill="url(#paint0_linear_41743_63418)"/>
<path d="M10 11C10 8.23858 12.2386 6 15 6H36C38.7614 6 41 8.23858 41 11V37C41 41.4183 37.4183 45 33 45H15C12.2386 45 10 42.7614 10 40V11Z" fill="url(#paint1_radial_41743_63418)" fill-opacity="0.2"/>
<path fill-rule="evenodd" clip-rule="evenodd" d="M36 7H15C12.7909 7 11 8.79086 11 11V40C11 42.2091 12.7909 44 15 44H33C36.866 44 40 40.866 40 37V11C40 8.79086 38.2091 7 36 7ZM15 6C12.2386 6 10 8.23858 10 11V40C10 42.7614 12.2386 45 15 45H33C37.4183 45 41 41.4183 41 37V11C41 8.23858 38.7614 6 36 6H15Z" fill="url(#paint2_linear_41743_63418)"/>
<path d="M7 8C7 5.23858 9.23858 3 12 3H33C35.7614 3 38 5.23858 38 8V37C38 39.7614 35.7614 42 33 42H12C9.23858 42 7 39.7614 7 37V8Z" fill="url(#paint3_linear_41743_63418)"/>
<path d="M7 8C7 5.23858 9.23858 3 12 3H33C35.7614 3 38 5.23858 38 8V37C38 39.7614 35.7614 42 33 42H12C9.23858 42 7 39.7614 7 37V8Z" fill="url(#paint4_radial_41743_63418)" fill-opacity="0.2"/>
<path fill-rule="evenodd" clip-rule="evenodd" d="M33 4H12C9.79086 4 8 5.79086 8 8V37C8 39.2091 9.79086 41 12 41H33C35.2091 41 37 39.2091 37 37V8C37 5.79086 35.2091 4 33 4ZM12 3C9.23858 3 7 5.23858 7 8V37C7 39.7614 9.23858 42 12 42H33C35.7614 42 38 39.7614 38 37V8C38 5.23858 35.7614 3 33 3H12Z" fill="url(#paint5_linear_41743_63418)"/>
<path fill-rule="evenodd" clip-rule="evenodd" d="M32.156 44.6644C31.5702 45.2502 31.5702 46.1999 32.156 46.7857C32.7418 47.3715 33.6915 47.3715 34.2773 46.7857L34.9007 46.1622C34.9204 46.5179 35.0661 46.8679 35.3378 47.1395C35.9236 47.7253 36.8733 47.7253 37.4591 47.1395L39.5804 45.0182C39.8066 44.792 39.9455 44.5115 39.997 44.2187L41.4531 45.6384C42.4034 46.5649 44.0003 45.8916 44.0003 44.5644L44.0003 36.5C44.0003 35.6716 43.3287 35 42.5002 35L34.2292 35.0002C32.8837 35.0002 32.2187 36.6348 33.1821 37.5742L34.6123 38.9686C34.3601 39.033 34.1213 39.1639 33.9239 39.3613L31.8026 41.4826C31.2168 42.0684 31.2168 43.0181 31.8026 43.6039C32.0742 43.8755 32.424 44.0211 32.7794 44.0409L32.156 44.6644Z" fill="#F5F5F5"/>
<path d="M43 36.5C43 36.2238 42.7761 36 42.4999 36L34.2289 36.0001C33.7804 36.0001 33.5587 36.545 33.8798 36.8581L42.1509 44.9223C42.4677 45.2312 43 45.0067 43 44.5643L43 36.5Z" fill="url(#paint6_linear_41743_63418)"/>
<path d="M37.1054 42.543C37.3007 42.3477 37.3007 42.0312 37.1054 41.8359C36.9102 41.6406 36.5936 41.6406 36.3983 41.8359L32.8628 45.3714C32.6675 45.5667 32.6675 45.8833 32.8628 46.0785C33.058 46.2738 33.3746 46.2738 33.5699 46.0785L37.1054 42.543Z" fill="url(#paint7_linear_41743_63418)"/>
<path d="M32.5094 42.1896L34.6307 40.0683C34.826 39.8731 35.1426 39.8731 35.3378 40.0683C35.5331 40.2636 35.5331 40.5802 35.3378 40.7754L33.2165 42.8967C33.0213 43.092 32.7047 43.092 32.5094 42.8967C32.3142 42.7015 32.3142 42.3849 32.5094 42.1896Z" fill="url(#paint8_linear_41743_63418)"/>
<path d="M38.1659 43.604L36.0446 45.7253C35.8493 45.9205 35.8493 46.2371 36.0446 46.4324C36.2398 46.6277 36.5564 46.6277 36.7517 46.4324L38.873 44.3111C39.0683 44.1158 39.0683 43.7992 38.873 43.604C38.6777 43.4087 38.3612 43.4087 38.1659 43.604Z" fill="url(#paint9_linear_41743_63418)"/>
<defs>
<linearGradient id="paint0_linear_41743_63418" x1="18.6111" y1="6" x2="24.7624" y2="45.116" gradientUnits="userSpaceOnUse">
<stop stop-color="white"/>
<stop offset="1" stop-color="#EBEBEB"/>
</linearGradient>
<radialGradient id="paint1_radial_41743_63418" cx="0" cy="0" r="1" gradientUnits="userSpaceOnUse" gradientTransform="translate(19.9028 16.1562) rotate(62.0802) scale(34.9421 27.1064)">
<stop offset="0.177083" stop-color="white"/>
<stop offset="1" stop-color="#B8B8B8"/>
</radialGradient>
<linearGradient id="paint2_linear_41743_63418" x1="20.0104" y1="6" x2="26.5501" y2="44.9864" gradientUnits="userSpaceOnUse">
<stop stop-color="#BBBBBB"/>
<stop offset="1" stop-color="#888888"/>
</linearGradient>
<linearGradient id="paint3_linear_41743_63418" x1="15.6111" y1="3" x2="21.7624" y2="42.116" gradientUnits="userSpaceOnUse">
<stop stop-color="white"/>
<stop offset="1" stop-color="#EBEBEB"/>
</linearGradient>
<radialGradient id="paint4_radial_41743_63418" cx="0" cy="0" r="1" gradientUnits="userSpaceOnUse" gradientTransform="translate(16.9028 13.1562) rotate(62.0802) scale(34.9421 27.1064)">
<stop offset="0.177083" stop-color="white"/>
<stop offset="1" stop-color="#B8B8B8"/>
</radialGradient>
<linearGradient id="paint5_linear_41743_63418" x1="17.0104" y1="3" x2="23.5501" y2="41.9864" gradientUnits="userSpaceOnUse">
<stop stop-color="#BBBBBB"/>
<stop offset="1" stop-color="#888888"/>
</linearGradient>
<linearGradient id="paint6_linear_41743_63418" x1="32.363" y1="36" x2="42.9417" y2="46.6368" gradientUnits="userSpaceOnUse">
<stop stop-color="#4BA446"/>
<stop offset="1" stop-color="#3F7D35"/>
</linearGradient>
<linearGradient id="paint7_linear_41743_63418" x1="32.363" y1="36" x2="42.9417" y2="46.6368" gradientUnits="userSpaceOnUse">
<stop stop-color="#4BA446"/>
<stop offset="1" stop-color="#3F7D35"/>
</linearGradient>
<linearGradient id="paint8_linear_41743_63418" x1="32.363" y1="36" x2="42.9417" y2="46.6368" gradientUnits="userSpaceOnUse">
<stop stop-color="#4BA446"/>
<stop offset="1" stop-color="#3F7D35"/>
</linearGradient>
<linearGradient id="paint9_linear_41743_63418" x1="32.363" y1="36" x2="42.9417" y2="46.6368" gradientUnits="userSpaceOnUse">
<stop stop-color="#4BA446"/>
<stop offset="1" stop-color="#3F7D35"/>
</linearGradient>
</defs>
</svg>
