<svg width="40" height="40" viewBox="0 0 40 40" fill="none" xmlns="http://www.w3.org/2000/svg">
<path d="M4 8C4 5.79086 5.79086 4 8 4H32C34.2091 4 36 5.79086 36 8V32C36 34.2091 34.2091 36 32 36H8C5.79086 36 4 34.2091 4 32V8Z" fill="url(#paint0_linear_41743_62823)"/>
<path d="M4 8C4 5.79086 5.79086 4 8 4H32C34.2091 4 36 5.79086 36 8V32C36 34.2091 34.2091 36 32 36H8C5.79086 36 4 34.2091 4 32V8Z" fill="url(#paint1_radial_41743_62823)" fill-opacity="0.2"/>
<path fill-rule="evenodd" clip-rule="evenodd" d="M32 5H8C6.34315 5 5 6.34315 5 8V32C5 33.6569 6.34315 35 8 35H32C33.6569 35 35 33.6569 35 32V8C35 6.34315 33.6569 5 32 5ZM8 4C5.79086 4 4 5.79086 4 8V32C4 34.2091 5.79086 36 8 36H32C34.2091 36 36 34.2091 36 32V8C36 5.79086 34.2091 4 32 4H8Z" fill="url(#paint2_linear_41743_62823)"/>
<path fill-rule="evenodd" clip-rule="evenodd" d="M27.156 36.6644C26.5702 37.2502 26.5702 38.1999 27.156 38.7857C27.7418 39.3715 28.6915 39.3715 29.2773 38.7857L29.9007 38.1622C29.9204 38.5179 30.0661 38.8679 30.3378 39.1395C30.9236 39.7253 31.8733 39.7253 32.4591 39.1395L34.5804 37.0182C34.8066 36.792 34.9455 36.5115 34.997 36.2187L36.4531 37.6384C37.4034 38.5649 39.0003 37.8916 39.0003 36.5644L39.0003 28.5C39.0003 27.6716 38.3287 27 37.5002 27L29.2292 27.0002C27.8837 27.0002 27.2187 28.6348 28.1821 29.5742L29.6123 30.9686C29.3601 31.033 29.1213 31.1639 28.9239 31.3613L26.8026 33.4826C26.2168 34.0684 26.2168 35.0181 26.8026 35.6039C27.0742 35.8755 27.424 36.0211 27.7794 36.0409L27.156 36.6644Z" fill="#F5F5F5"/>
<path d="M38.0003 28.5C38.0003 28.2239 37.7764 28 37.5002 28L29.2292 28.0001C28.7807 28.0002 28.559 28.545 28.8802 28.8581L37.1512 36.9224C37.468 37.2312 38.0003 37.0068 38.0003 36.5644V28.5Z" fill="url(#paint3_linear_41743_62823)"/>
<path d="M32.1057 34.543C32.301 34.3478 32.301 34.0312 32.1057 33.8359C31.9105 33.6407 31.5939 33.6407 31.3986 33.8359L27.8631 37.3715C27.6678 37.5667 27.6678 37.8833 27.8631 38.0786C28.0584 38.2738 28.3749 38.2738 28.5702 38.0786L32.1057 34.543Z" fill="url(#paint4_linear_41743_62823)"/>
<path d="M27.5097 34.1897L29.631 32.0684C29.8263 31.8731 30.1429 31.8731 30.3382 32.0684C30.5334 32.2636 30.5334 32.5802 30.3382 32.7755L28.2168 34.8968C28.0216 35.092 27.705 35.092 27.5097 34.8968C27.3145 34.7015 27.3145 34.3849 27.5097 34.1897Z" fill="url(#paint5_linear_41743_62823)"/>
<path d="M33.1662 35.604L31.0449 37.7253C30.8496 37.9206 30.8496 38.2372 31.0449 38.4324C31.2401 38.6277 31.5567 38.6277 31.752 38.4324L33.8733 36.3111C34.0686 36.1158 34.0686 35.7993 33.8733 35.604C33.678 35.4087 33.3615 35.4087 33.1662 35.604Z" fill="url(#paint6_linear_41743_62823)"/>
<path d="M13 15.3539V26.5243H13.0083C13.0557 26.9188 13.3027 27.2615 13.6427 27.5431C14.0228 27.8578 14.5525 28.1261 15.1767 28.3447C16.428 28.7829 18.1334 29.0474 20 29.0474C21.8666 29.0474 23.572 28.7829 24.8233 28.3447C25.4475 28.1261 25.9772 27.8578 26.3573 27.5431C26.6973 27.2615 26.9443 26.9188 26.9917 26.5243H27V15.3539C26.9904 15.3615 26.9808 15.369 26.9712 15.3765C26.4659 15.7694 25.8175 16.0657 25.1357 16.29C23.7588 16.7429 21.9431 17 20 17C18.0569 17 16.2412 16.7429 14.8643 16.29C14.1825 16.0657 13.5341 15.7695 13.0288 15.3765C13.0192 15.369 13.0096 15.3615 13 15.3539Z" fill="url(#paint7_linear_41743_62823)"/>
<path d="M26.9989 13.4531C26.9996 13.4687 27 13.4843 27 13.5C27 13.9257 26.7365 14.2922 26.3573 14.5871C25.9772 14.8827 25.4475 15.1347 24.8233 15.34C23.572 15.7516 21.8666 16 20 16C18.1334 16 16.428 15.7516 15.1767 15.34C14.5525 15.1347 14.0228 14.8827 13.6427 14.5871C13.2635 14.2922 13 13.9257 13 13.5C13 13.4843 13.0004 13.4687 13.0011 13.4531C13.0016 13.4423 13.0022 13.4316 13.0031 13.4209C13.0334 13.0288 13.2872 12.6894 13.6427 12.4129C14.0228 12.1173 14.5525 11.8653 15.1767 11.66C16.428 11.2484 18.1334 11 20 11C21.8666 11 23.572 11.2484 24.8233 11.66C25.4475 11.8653 25.9772 12.1173 26.3573 12.4129C26.7226 12.697 26.9804 13.0473 26.9989 13.4531Z" fill="url(#paint8_linear_41743_62823)"/>
<defs>
<linearGradient id="paint0_linear_41743_62823" x1="12.8889" y1="4" x2="16.9368" y2="36.3829" gradientUnits="userSpaceOnUse">
<stop stop-color="white"/>
<stop offset="1" stop-color="#EBEBEB"/>
</linearGradient>
<radialGradient id="paint1_radial_41743_62823" cx="0" cy="0" r="1" gradientUnits="userSpaceOnUse" gradientTransform="translate(14.2222 12.3333) rotate(56.3099) scale(30.4469 26.3483)">
<stop offset="0.177083" stop-color="white"/>
<stop offset="1" stop-color="#B8B8B8"/>
</radialGradient>
<linearGradient id="paint2_linear_41743_62823" x1="14.3333" y1="4" x2="18.6419" y2="36.3144" gradientUnits="userSpaceOnUse">
<stop stop-color="#BBBBBB"/>
<stop offset="1" stop-color="#888888"/>
</linearGradient>
<linearGradient id="paint3_linear_41743_62823" x1="27.3633" y1="28" x2="37.942" y2="38.6368" gradientUnits="userSpaceOnUse">
<stop stop-color="#008EE6"/>
<stop offset="1" stop-color="#006094"/>
</linearGradient>
<linearGradient id="paint4_linear_41743_62823" x1="27.3633" y1="28" x2="37.942" y2="38.6368" gradientUnits="userSpaceOnUse">
<stop stop-color="#008EE6"/>
<stop offset="1" stop-color="#006094"/>
</linearGradient>
<linearGradient id="paint5_linear_41743_62823" x1="27.3633" y1="28" x2="37.942" y2="38.6368" gradientUnits="userSpaceOnUse">
<stop stop-color="#008EE6"/>
<stop offset="1" stop-color="#006094"/>
</linearGradient>
<linearGradient id="paint6_linear_41743_62823" x1="27.3633" y1="28" x2="37.942" y2="38.6368" gradientUnits="userSpaceOnUse">
<stop stop-color="#008EE6"/>
<stop offset="1" stop-color="#006094"/>
</linearGradient>
<linearGradient id="paint7_linear_41743_62823" x1="13" y1="11" x2="30.4807" y2="24.5604" gradientUnits="userSpaceOnUse">
<stop stop-color="#008EE6"/>
<stop offset="1" stop-color="#006094"/>
</linearGradient>
<linearGradient id="paint8_linear_41743_62823" x1="13" y1="11" x2="30.4807" y2="24.5604" gradientUnits="userSpaceOnUse">
<stop stop-color="#008EE6"/>
<stop offset="1" stop-color="#006094"/>
</linearGradient>
</defs>
</svg>
