<svg width="24" height="24" viewBox="0 0 24 24" fill="none" xmlns="http://www.w3.org/2000/svg">
<g clip-path="url(#clip0_41743_63388)">
<rect x="3.5" y="1.5" width="17" height="21" rx="2.5" fill="url(#paint0_linear_41743_63388)"/>
<rect x="3.5" y="1.5" width="17" height="21" rx="2.5" fill="url(#paint1_radial_41743_63388)" fill-opacity="0.2"/>
<rect x="3.5" y="1.5" width="17" height="21" rx="2.5" stroke="url(#paint2_linear_41743_63388)"/>
<path fill-rule="evenodd" clip-rule="evenodd" d="M10.5 7C9.67157 7 9 7.67157 9 8.5V14H13H13.5C13.7761 14 14 14.2239 14 14.5V15V16.5C14 16.7761 14.2239 17 14.5 17C14.7761 17 15 16.7761 15 16.5V12V7H10.5ZM15 6H10.5C9.11929 6 8 7.11929 8 8.5V14H6.5C6.22386 14 6 14.2239 6 14.5V15.5C6 16.8807 7.11929 18 8.5 18H13.3447H14H14.4453V17.999C14.4635 17.9997 14.4817 18 14.5 18C15.3284 18 16 17.3284 16 16.5V12H17.5C17.7761 12 18 11.7761 18 11.5V8C18 6.89543 17.1046 6 16 6H15.5H15ZM10 9.5C10 9.22386 10.2239 9 10.5 9H13.5C13.7761 9 14 9.22386 14 9.5C14 9.77614 13.7761 10 13.5 10H10.5C10.2239 10 10 9.77614 10 9.5ZM10.5 11C10.2239 11 10 11.2239 10 11.5C10 11.7761 10.2239 12 10.5 12H13.5C13.7761 12 14 11.7761 14 11.5C14 11.2239 13.7761 11 13.5 11H10.5Z" fill="url(#paint3_linear_41743_63388)"/>
<path d="M23.5605 15.44C23.2805 15.16 22.9005 15 22.5005 15H17.5005C17.3105 15 17.1205 15.04 16.9505 15.11L16.8105 15.18L16.6805 15.26C16.5305 15.36 16.4005 15.49 16.2405 15.72L16.2005 15.79L16.1205 15.93C16.0905 16 16.0705 16.06 16.0505 16.13L16.0205 16.25V16.31C15.9905 16.47 16.0005 16.63 16.0205 16.8C16.0805 17.09 16.2205 17.36 16.4305 17.56L16.5305 17.66C16.3805 17.73 16.2505 17.82 16.1305 17.94L15.4205 18.65C15.1405 18.93 14.9805 19.31 14.9805 19.71C14.9805 20.11 15.1405 20.49 15.4205 20.77C15.5405 20.89 15.6905 20.99 15.8405 21.06L15.4205 21.48C15.1405 21.76 14.9805 22.14 14.9805 22.54C14.9805 22.94 15.1405 23.32 15.4205 23.6C15.7005 23.88 16.0805 24.04 16.4805 24.04C16.8805 24.04 17.2605 23.88 17.5405 23.6L17.9605 23.18C18.0305 23.33 18.1305 23.48 18.2505 23.6C18.5305 23.88 18.9105 24.04 19.3105 24.04C19.7105 24.04 20.0905 23.88 20.3705 23.6L21.0805 22.89C21.2005 22.77 21.2805 22.63 21.3505 22.48L21.4305 22.56C21.6405 22.77 21.9105 22.92 22.1905 22.97L22.3905 23H22.4905C22.6905 23 22.8805 22.96 23.0805 22.88C23.1905 22.83 23.2805 22.78 23.3305 22.74L23.4605 22.64L23.5205 22.58L23.6705 22.41L23.7205 22.33C23.8905 22.08 23.9805 21.79 23.9805 21.49V16.5C23.9805 16.1 23.8205 15.72 23.5405 15.44H23.5605Z" fill="#F5F5F5"/>
<path d="M17.5044 16H22.5044C22.637 16 22.7642 16.0527 22.8579 16.1465C22.9517 16.2402 23.0044 16.3674 23.0044 16.5V21.5C23.0044 21.5988 22.9751 21.6954 22.9202 21.7776L22.9041 21.8004C22.8923 21.8159 22.8796 21.8308 22.8662 21.8448C22.8582 21.8532 22.8499 21.8613 22.8413 21.8692C22.8254 21.8837 22.8086 21.8971 22.791 21.9095C22.7615 21.9302 22.7297 21.9477 22.696 21.9617C22.6047 21.9996 22.5044 22.0096 22.4072 21.9904C22.3103 21.9712 22.2214 21.9238 22.1514 21.854L17.1514 16.854C17.0813 16.7841 17.0334 16.695 17.0142 16.598C17.0034 16.5437 17.0017 16.4883 17.009 16.434C17.0117 16.4144 17.0154 16.395 17.0203 16.3758C17.0261 16.3531 17.0334 16.3308 17.0425 16.309C17.0476 16.2966 17.0532 16.2844 17.0593 16.2725C17.064 16.2632 17.0691 16.2541 17.0742 16.2451L17.0837 16.23L17.0984 16.2083C17.1331 16.1599 17.1765 16.1179 17.2266 16.0844C17.2368 16.0775 17.2473 16.071 17.2581 16.0649C17.2678 16.0594 17.2776 16.0543 17.2876 16.0494C17.2979 16.0445 17.3081 16.04 17.3186 16.0358C17.3772 16.0123 17.4404 16 17.5044 16Z" fill="url(#paint4_linear_41743_63388)"/>
<path d="M17.5608 18.6534C17.7559 18.8486 17.7559 19.1652 17.5608 19.3605L16.8535 20.0676C16.6582 20.2628 16.3418 20.2628 16.1465 20.0676C15.9512 19.8723 15.9512 19.5557 16.1465 19.3605L16.8535 18.6534C17.0488 18.4581 17.3655 18.4581 17.5608 18.6534Z" fill="url(#paint5_linear_41743_63388)"/>
<path d="M20.3892 21.4818C20.5845 21.6771 20.5845 21.9937 20.3892 22.1889L19.6819 22.896C19.4868 23.0913 19.1702 23.0913 18.9749 22.896C18.7795 22.7007 18.7795 22.3842 18.9749 22.1889L19.6819 21.4818C19.8772 21.2865 20.1938 21.2865 20.3892 21.4818Z" fill="url(#paint6_linear_41743_63388)"/>
<path d="M18.9749 20.0676C19.1702 20.2628 19.1702 20.5794 18.9749 20.7747L16.8535 22.896C16.6582 23.0913 16.3418 23.0913 16.1465 22.896C15.9512 22.7007 15.9512 22.3842 16.1465 22.1889L18.2678 20.0676C18.4631 19.8723 18.7795 19.8723 18.9749 20.0676Z" fill="url(#paint7_linear_41743_63388)"/>
</g>
<defs>
<linearGradient id="paint0_linear_41743_63388" x1="8" y1="1" x2="11.3757" y2="23.0954" gradientUnits="userSpaceOnUse">
<stop stop-color="white"/>
<stop offset="1" stop-color="#EBEBEB"/>
</linearGradient>
<radialGradient id="paint1_radial_41743_63388" cx="0" cy="0" r="1" gradientUnits="userSpaceOnUse" gradientTransform="translate(8.75 6.72917) rotate(61.3895) scale(19.8391 15.6375)">
<stop offset="0.177083" stop-color="white"/>
<stop offset="1" stop-color="#B8B8B8"/>
</radialGradient>
<linearGradient id="paint2_linear_41743_63388" x1="8.8125" y1="1" x2="12.4019" y2="23.0262" gradientUnits="userSpaceOnUse">
<stop stop-color="#BBBBBB"/>
<stop offset="1" stop-color="#888888"/>
</linearGradient>
<linearGradient id="paint3_linear_41743_63388" x1="6" y1="6" x2="18" y2="18" gradientUnits="userSpaceOnUse">
<stop stop-color="#4BA446"/>
<stop offset="1" stop-color="#3F7D35"/>
</linearGradient>
<linearGradient id="paint4_linear_41743_63388" x1="16" y1="16" x2="23.0424" y2="23.0043" gradientUnits="userSpaceOnUse">
<stop stop-color="#4BA446"/>
<stop offset="1" stop-color="#3F7D35"/>
</linearGradient>
<linearGradient id="paint5_linear_41743_63388" x1="16" y1="16" x2="23.0424" y2="23.0043" gradientUnits="userSpaceOnUse">
<stop stop-color="#4BA446"/>
<stop offset="1" stop-color="#3F7D35"/>
</linearGradient>
<linearGradient id="paint6_linear_41743_63388" x1="16" y1="16" x2="23.0424" y2="23.0043" gradientUnits="userSpaceOnUse">
<stop stop-color="#4BA446"/>
<stop offset="1" stop-color="#3F7D35"/>
</linearGradient>
<linearGradient id="paint7_linear_41743_63388" x1="16" y1="16" x2="23.0424" y2="23.0043" gradientUnits="userSpaceOnUse">
<stop stop-color="#4BA446"/>
<stop offset="1" stop-color="#3F7D35"/>
</linearGradient>
<clipPath id="clip0_41743_63388">
<rect width="24" height="24" fill="white"/>
</clipPath>
</defs>
</svg>
