<svg width="48" height="48" viewBox="0 0 48 48" fill="none" xmlns="http://www.w3.org/2000/svg">
<path d="M8 8C8 5.23858 10.2386 3 13 3H35C37.7614 3 40 5.23858 40 8V40C40 42.7614 37.7614 45 35 45H13C10.2386 45 8 42.7614 8 40V8Z" fill="url(#paint0_linear_41743_63382)"/>
<path d="M8 8C8 5.23858 10.2386 3 13 3H35C37.7614 3 40 5.23858 40 8V40C40 42.7614 37.7614 45 35 45H13C10.2386 45 8 42.7614 8 40V8Z" fill="url(#paint1_radial_41743_63382)" fill-opacity="0.2"/>
<path fill-rule="evenodd" clip-rule="evenodd" d="M35 4H13C10.7909 4 9 5.79086 9 8V40C9 42.2091 10.7909 44 13 44H35C37.2091 44 39 42.2091 39 40V8C39 5.79086 37.2091 4 35 4ZM13 3C10.2386 3 8 5.23858 8 8V40C8 42.7614 10.2386 45 13 45H35C37.7614 45 40 42.7614 40 40V8C40 5.23858 37.7614 3 35 3H13Z" fill="url(#paint2_linear_41743_63382)"/>
<path d="M20.5 18C20.2239 18 20 18.2239 20 18.5C20 18.7761 20.2239 19 20.5 19H27.5C27.7761 19 28 18.7761 28 18.5C28 18.2239 27.7761 18 27.5 18H20.5Z" fill="url(#paint3_linear_41743_63382)"/>
<path d="M20 21.5C20 21.2239 20.2239 21 20.5 21H27.5C27.7761 21 28 21.2239 28 21.5C28 21.7761 27.7761 22 27.5 22H20.5C20.2239 22 20 21.7761 20 21.5Z" fill="url(#paint4_linear_41743_63382)"/>
<path d="M20.5 24.0312C20.2239 24.0312 20 24.2551 20 24.5312C20 24.8074 20.2239 25.0312 20.5 25.0312H27.5C27.7761 25.0312 28 24.8074 28 24.5312C28 24.2551 27.7761 24.0312 27.5 24.0312H20.5Z" fill="url(#paint5_linear_41743_63382)"/>
<path fill-rule="evenodd" clip-rule="evenodd" d="M17 27V17C17 15.3431 18.3431 14 20 14H31.5C32.8807 14 34 15.1193 34 16.5V23C34 23.5523 33.5523 24 33 24H31V31.5C31 32.8654 29.9054 33.9751 28.5459 33.9996L28.5 34H16.5C15.1193 34 14 32.8807 14 31.5V28C14 27.4477 14.4477 27 15 27H17ZM18 17C18 15.8954 18.8954 15 20 15H30V31.5C30 32.3284 29.3284 33 28.5 33C27.6716 33 27 32.3284 27 31.5V28C27 27.4477 26.5523 27 26 27H18V17Z" fill="url(#paint6_linear_41743_63382)"/>
<path fill-rule="evenodd" clip-rule="evenodd" d="M32.156 44.6644C31.5702 45.2502 31.5702 46.1999 32.156 46.7857C32.7418 47.3715 33.6915 47.3715 34.2773 46.7857L34.9007 46.1622C34.9204 46.5179 35.0661 46.8679 35.3378 47.1395C35.9236 47.7253 36.8733 47.7253 37.4591 47.1395L39.5804 45.0182C39.8066 44.792 39.9455 44.5115 39.997 44.2187L41.4531 45.6384C42.4034 46.5649 44.0003 45.8916 44.0003 44.5644L44.0003 36.5C44.0003 35.6716 43.3287 35 42.5002 35L34.2292 35.0002C32.8837 35.0002 32.2187 36.6348 33.1821 37.5742L34.6123 38.9686C34.3601 39.033 34.1213 39.1639 33.9239 39.3613L31.8026 41.4826C31.2168 42.0684 31.2168 43.0181 31.8026 43.6039C32.0742 43.8755 32.424 44.0211 32.7794 44.0409L32.156 44.6644Z" fill="#F5F5F5"/>
<path d="M43 36.5C43 36.2238 42.7761 36 42.4999 36L34.2289 36.0001C33.7804 36.0001 33.5587 36.545 33.8798 36.8581L42.1509 44.9223C42.4677 45.2312 43 45.0067 43 44.5643L43 36.5Z" fill="url(#paint7_linear_41743_63382)"/>
<path d="M37.1054 42.543C37.3007 42.3477 37.3007 42.0312 37.1054 41.8359C36.9102 41.6406 36.5936 41.6406 36.3983 41.8359L32.8628 45.3714C32.6675 45.5667 32.6675 45.8833 32.8628 46.0785C33.058 46.2738 33.3746 46.2738 33.5699 46.0785L37.1054 42.543Z" fill="url(#paint8_linear_41743_63382)"/>
<path d="M32.5094 42.1896L34.6307 40.0683C34.826 39.8731 35.1426 39.8731 35.3378 40.0683C35.5331 40.2636 35.5331 40.5802 35.3378 40.7754L33.2165 42.8967C33.0213 43.092 32.7047 43.092 32.5094 42.8967C32.3142 42.7015 32.3142 42.3849 32.5094 42.1896Z" fill="url(#paint9_linear_41743_63382)"/>
<path d="M38.1659 43.604L36.0446 45.7253C35.8493 45.9205 35.8493 46.2371 36.0446 46.4324C36.2398 46.6277 36.5564 46.6277 36.7517 46.4324L38.873 44.3111C39.0683 44.1158 39.0683 43.7992 38.873 43.604C38.6777 43.4087 38.3612 43.4087 38.1659 43.604Z" fill="url(#paint10_linear_41743_63382)"/>
<defs>
<linearGradient id="paint0_linear_41743_63382" x1="16.8889" y1="3" x2="23.7853" y2="45.0352" gradientUnits="userSpaceOnUse">
<stop stop-color="white"/>
<stop offset="1" stop-color="#EBEBEB"/>
</linearGradient>
<radialGradient id="paint1_radial_41743_63382" cx="0" cy="0" r="1" gradientUnits="userSpaceOnUse" gradientTransform="translate(18.2222 13.9375) rotate(63.0723) scale(37.2934 28.2333)">
<stop offset="0.177083" stop-color="white"/>
<stop offset="1" stop-color="#B8B8B8"/>
</radialGradient>
<linearGradient id="paint2_linear_41743_63382" x1="18.3333" y1="3" x2="25.663" y2="44.884" gradientUnits="userSpaceOnUse">
<stop stop-color="#BBBBBB"/>
<stop offset="1" stop-color="#888888"/>
</linearGradient>
<linearGradient id="paint3_linear_41743_63382" x1="14" y1="14" x2="34" y2="34" gradientUnits="userSpaceOnUse">
<stop stop-color="#4BA446"/>
<stop offset="1" stop-color="#3F7D35"/>
</linearGradient>
<linearGradient id="paint4_linear_41743_63382" x1="14" y1="14" x2="34" y2="34" gradientUnits="userSpaceOnUse">
<stop stop-color="#4BA446"/>
<stop offset="1" stop-color="#3F7D35"/>
</linearGradient>
<linearGradient id="paint5_linear_41743_63382" x1="14" y1="14" x2="34" y2="34" gradientUnits="userSpaceOnUse">
<stop stop-color="#4BA446"/>
<stop offset="1" stop-color="#3F7D35"/>
</linearGradient>
<linearGradient id="paint6_linear_41743_63382" x1="14" y1="14" x2="34" y2="34" gradientUnits="userSpaceOnUse">
<stop stop-color="#4BA446"/>
<stop offset="1" stop-color="#3F7D35"/>
</linearGradient>
<linearGradient id="paint7_linear_41743_63382" x1="32.363" y1="36" x2="42.9417" y2="46.6368" gradientUnits="userSpaceOnUse">
<stop stop-color="#4BA446"/>
<stop offset="1" stop-color="#3F7D35"/>
</linearGradient>
<linearGradient id="paint8_linear_41743_63382" x1="32.363" y1="36" x2="42.9417" y2="46.6368" gradientUnits="userSpaceOnUse">
<stop stop-color="#4BA446"/>
<stop offset="1" stop-color="#3F7D35"/>
</linearGradient>
<linearGradient id="paint9_linear_41743_63382" x1="32.363" y1="36" x2="42.9417" y2="46.6368" gradientUnits="userSpaceOnUse">
<stop stop-color="#4BA446"/>
<stop offset="1" stop-color="#3F7D35"/>
</linearGradient>
<linearGradient id="paint10_linear_41743_63382" x1="32.363" y1="36" x2="42.9417" y2="46.6368" gradientUnits="userSpaceOnUse">
<stop stop-color="#4BA446"/>
<stop offset="1" stop-color="#3F7D35"/>
</linearGradient>
</defs>
</svg>
