<svg width="32" height="32" viewBox="0 0 32 32" fill="none" xmlns="http://www.w3.org/2000/svg">
<path d="M3 6.5C3 4.567 4.567 3 6.5 3H25.5C27.433 3 29 4.567 29 6.5V25.5C29 27.433 27.433 29 25.5 29H6.5C4.567 29 3 27.433 3 25.5V6.5Z" fill="url(#paint0_linear_41743_62791)"/>
<path d="M3 6.5C3 4.567 4.567 3 6.5 3H25.5C27.433 3 29 4.567 29 6.5V25.5C29 27.433 27.433 29 25.5 29H6.5C4.567 29 3 27.433 3 25.5V6.5Z" fill="url(#paint1_radial_41743_62791)" fill-opacity="0.2"/>
<path fill-rule="evenodd" clip-rule="evenodd" d="M25.5 4H6.5C5.11929 4 4 5.11929 4 6.5V25.5C4 26.8807 5.11929 28 6.5 28H25.5C26.8807 28 28 26.8807 28 25.5V6.5C28 5.11929 26.8807 4 25.5 4ZM6.5 3C4.567 3 3 4.567 3 6.5V25.5C3 27.433 4.567 29 6.5 29H25.5C27.433 29 29 27.433 29 25.5V6.5C29 4.567 27.433 3 25.5 3H6.5Z" fill="url(#paint2_linear_41743_62791)"/>
<path d="M16 14C17.4754 14 18.8571 13.7626 19.9069 13.3427C20.3016 13.1848 20.6777 12.9899 21 12.7508V19.5001C21 20.9251 18.851 22.0001 16 22.0001C13.149 22.0001 11 20.9251 11 19.5001V12.7508C11.3223 12.9899 11.6984 13.1848 12.0931 13.3427C13.1429 13.7626 14.5246 14 16 14Z" fill="url(#paint3_linear_41743_62791)"/>
<path d="M11 11C11 12.1046 13.2386 13 16 13C18.7614 13 21 12.1046 21 11C21 10.9856 20.9996 10.9713 20.9989 10.957C20.9417 9.87231 18.7255 9 16 9C13.9289 9 12.152 9.50368 11.3929 10.2215C11.1531 10.4483 11.0149 10.6966 11.0011 10.957C11.0004 10.9713 11 10.9856 11 11Z" fill="url(#paint4_linear_41743_62791)"/>
<path fill-rule="evenodd" clip-rule="evenodd" d="M21.5183 29.8637C21.5183 30.2615 21.6765 30.6431 21.9578 30.9244C22.239 31.2057 22.6206 31.3637 23.0183 31.3637C23.4163 31.3637 23.7979 31.2057 24.0791 30.9244L24.7026 30.3009C24.7231 30.6682 24.8782 31.0163 25.1396 31.2777C25.4209 31.559 25.8022 31.7171 26.2002 31.7171C26.5981 31.7171 26.9795 31.559 27.2607 31.2777L28.675 29.8635C28.8088 29.7297 28.9148 29.5733 28.989 29.4032L29.4395 29.8536C30.3845 30.7986 32 30.1293 32 28.7929V22.5C32 21.6716 31.3286 21 30.5 21L24.2073 21.0001C22.8708 21.0001 22.2017 22.6158 23.1465 23.5607L23.4785 23.8927C23.3086 23.967 23.1523 24.0729 23.0186 24.2065L21.6045 25.6208C21.323 25.9021 21.165 26.2836 21.165 26.6814C21.165 27.0793 21.323 27.4608 21.6045 27.7421C21.866 28.0037 22.2144 28.1587 22.5818 28.1791L21.9578 28.803C21.6765 29.0844 21.5183 29.4659 21.5183 29.8637Z" fill="#F5F5F5"/>
<path d="M31.0001 22.5C31.0001 22.2239 30.7762 22 30.5001 22L24.2072 22.0001C23.7618 22.0001 23.5387 22.5386 23.8537 22.8536L30.1466 29.1465C30.4615 29.4615 31.0001 29.2384 31.0001 28.7929L31.0001 22.5Z" fill="url(#paint5_linear_41743_62791)"/>
<path d="M24.5793 25.2672C24.5793 25.1346 24.5266 25.0074 24.4328 24.9137C24.339 24.8199 24.2119 24.7672 24.0793 24.7672C23.9466 24.7672 23.8195 24.8199 23.7257 24.9137L22.3115 26.3279C22.2177 26.4216 22.165 26.5488 22.165 26.6814C22.165 26.814 22.2177 26.9412 22.3115 27.035C22.4053 27.1287 22.5324 27.1814 22.665 27.1814C22.7976 27.1814 22.9248 27.1287 23.0186 27.035L24.4328 25.6208C24.5266 25.527 24.5793 25.3998 24.5793 25.2672Z" fill="url(#paint6_linear_41743_62791)"/>
<path d="M26.3468 27.0353C26.3468 26.9027 26.2942 26.7755 26.2004 26.6817C26.1066 26.588 25.9794 26.5353 25.8468 26.5353C25.7142 26.5353 25.587 26.588 25.4933 26.6817L22.6649 29.5102C22.5711 29.6039 22.5184 29.7311 22.5184 29.8637C22.5184 29.9963 22.5711 30.1235 22.6649 30.2173C22.7586 30.311 22.8858 30.3637 23.0184 30.3637C23.151 30.3637 23.2782 30.311 23.372 30.2173L26.2004 27.3888C26.2942 27.2951 26.3468 27.1679 26.3468 27.0353Z" fill="url(#paint7_linear_41743_62791)"/>
<path d="M27.968 29.1564C28.0617 29.0626 28.1144 28.9355 28.1144 28.8029C28.1144 28.6703 28.0617 28.5431 27.968 28.4493C27.8742 28.3555 27.747 28.3029 27.6144 28.3029C27.4818 28.3029 27.3546 28.3555 27.2609 28.4493L25.8466 29.8635C25.7529 29.9573 25.7002 30.0845 25.7002 30.2171C25.7002 30.3497 25.7529 30.4769 25.8466 30.5706C25.9404 30.6644 26.0676 30.7171 26.2002 30.7171C26.3328 30.7171 26.46 30.6644 26.5537 30.5706L27.968 29.1564Z" fill="url(#paint8_linear_41743_62791)"/>
<defs>
<linearGradient id="paint0_linear_41743_62791" x1="10.2222" y1="3" x2="13.5111" y2="29.3111" gradientUnits="userSpaceOnUse">
<stop stop-color="white"/>
<stop offset="1" stop-color="#EBEBEB"/>
</linearGradient>
<radialGradient id="paint1_radial_41743_62791" cx="0" cy="0" r="1" gradientUnits="userSpaceOnUse" gradientTransform="translate(11.3056 9.77083) rotate(56.3099) scale(24.7381 21.408)">
<stop offset="0.177083" stop-color="white"/>
<stop offset="1" stop-color="#B8B8B8"/>
</radialGradient>
<linearGradient id="paint2_linear_41743_62791" x1="11.3958" y1="3" x2="14.8966" y2="29.2555" gradientUnits="userSpaceOnUse">
<stop stop-color="#BBBBBB"/>
<stop offset="1" stop-color="#888888"/>
</linearGradient>
<linearGradient id="paint3_linear_41743_62791" x1="11" y1="9" x2="23.5651" y2="18.6654" gradientUnits="userSpaceOnUse">
<stop stop-color="#008EE6"/>
<stop offset="1" stop-color="#006094"/>
</linearGradient>
<linearGradient id="paint4_linear_41743_62791" x1="11" y1="9" x2="23.5651" y2="18.6654" gradientUnits="userSpaceOnUse">
<stop stop-color="#008EE6"/>
<stop offset="1" stop-color="#006094"/>
</linearGradient>
<linearGradient id="paint5_linear_41743_62791" x1="22.165" y1="22" x2="30.8813" y2="30.8343" gradientUnits="userSpaceOnUse">
<stop stop-color="#008EE6"/>
<stop offset="1" stop-color="#006094"/>
</linearGradient>
<linearGradient id="paint6_linear_41743_62791" x1="22.165" y1="22" x2="30.8813" y2="30.8343" gradientUnits="userSpaceOnUse">
<stop stop-color="#008EE6"/>
<stop offset="1" stop-color="#006094"/>
</linearGradient>
<linearGradient id="paint7_linear_41743_62791" x1="22.165" y1="22" x2="30.8813" y2="30.8343" gradientUnits="userSpaceOnUse">
<stop stop-color="#008EE6"/>
<stop offset="1" stop-color="#006094"/>
</linearGradient>
<linearGradient id="paint8_linear_41743_62791" x1="22.165" y1="22" x2="30.8813" y2="30.8343" gradientUnits="userSpaceOnUse">
<stop stop-color="#008EE6"/>
<stop offset="1" stop-color="#006094"/>
</linearGradient>
</defs>
</svg>
