<svg width="40" height="40" viewBox="0 0 40 40" fill="none" xmlns="http://www.w3.org/2000/svg">
<path d="M6 6C6 3.79086 7.79086 2 10 2H30C32.2091 2 34 3.79086 34 6V34C34 36.2091 32.2091 38 30 38H10C7.79086 38 6 36.2091 6 34V6Z" fill="url(#paint0_linear_41743_63366)"/>
<path d="M6 6C6 3.79086 7.79086 2 10 2H30C32.2091 2 34 3.79086 34 6V34C34 36.2091 32.2091 38 30 38H10C7.79086 38 6 36.2091 6 34V6Z" fill="url(#paint1_radial_41743_63366)" fill-opacity="0.2"/>
<path fill-rule="evenodd" clip-rule="evenodd" d="M30 3H10C8.34315 3 7 4.34315 7 6V34C7 35.6569 8.34315 37 10 37H30C31.6569 37 33 35.6569 33 34V6C33 4.34315 31.6569 3 30 3ZM10 2C7.79086 2 6 3.79086 6 6V34C6 36.2091 7.79086 38 10 38H30C32.2091 38 34 36.2091 34 34V6C34 3.79086 32.2091 2 30 2H10Z" fill="url(#paint2_linear_41743_63366)"/>
<path d="M20.9201 28.1302C20.4386 28.2385 20.0622 28.575 19.878 29.0002H13.5C12.3954 29.0002 11.5 28.1048 11.5 27.0002V19.1731C11.5 18.5875 11.7566 18.0313 12.2022 17.6514L18.7028 12.1072C19.4506 11.4694 20.5509 11.4695 21.2986 12.1073L27.798 17.6514C28.2434 18.0313 28.5 18.5875 28.5 19.173V24.0102C27.88 24.0102 27.3401 24.3702 27.1101 24.9402C27.1001 24.9802 27.0501 25.0302 27.0001 25.0702C26.9501 25.0302 26.9101 24.9802 26.8901 24.9402C26.6701 24.3902 26.1201 24.0302 25.5001 24.0302C24.8801 24.0302 24.3301 24.3802 24.1101 24.9302C24.1001 24.9702 24.0501 25.0202 24.0001 25.0602C23.9501 25.0202 23.9101 24.9702 23.8901 24.9302C23.6601 24.3702 23.1301 24.0002 22.4901 24.0002C21.8701 24.0102 21.3301 24.3802 21.1101 24.9602C21.0701 25.0502 21.0501 25.0902 21.0501 25.0902C21.0301 25.1002 21.0001 25.1102 20.9201 25.1302C20.1201 25.3102 19.6101 26.1202 19.7901 26.9202C19.9257 27.544 20.4291 27.9962 21.0564 28.0772L21.0501 28.0902C21.0301 28.1002 21.0001 28.1102 20.9201 28.1302Z" fill="url(#paint3_linear_41743_63366)"/>
<path d="M29.7501 27.0899L29.7407 27.0898C29.9665 27.085 30.1709 26.9264 30.2201 26.6999C30.2801 26.4299 30.1101 26.1599 29.8401 26.0999C29.3701 25.9899 29.1301 25.7899 28.9501 25.32C28.8801 25.1299 28.7001 24.9999 28.4901 24.9999C28.2901 24.9999 28.1101 25.1199 28.0301 25.3099C27.8801 25.6899 27.4301 26.0899 26.9901 26.0899C26.5501 26.0899 26.1101 25.6799 25.9601 25.3099C25.8001 24.9299 25.1801 24.9299 25.0301 25.3099C24.8801 25.6899 24.4301 26.0899 23.9901 26.0899C23.5501 26.0899 23.1101 25.6799 22.9601 25.3099C22.8801 25.1199 22.7001 24.9799 22.4901 24.9999C22.2901 24.9999 22.1001 25.1299 22.0301 25.32C21.8501 25.7899 21.6201 25.9899 21.1401 26.0999C20.8701 26.1599 20.7001 26.4299 20.7601 26.6999C20.8201 26.9699 21.0901 27.1299 21.3601 27.0799C21.8601 26.9699 22.2401 26.7599 22.5301 26.4299C22.9001 26.8099 23.3901 27.0899 23.9901 27.0899C24.5901 27.0899 25.1201 26.7999 25.5001 26.4C25.8701 26.7899 26.4101 27.0899 26.9901 27.0899C27.5701 27.0899 28.0901 26.8099 28.4701 26.4299C28.7601 26.7599 29.1401 26.9699 29.6401 27.0799C29.6711 27.0877 29.7202 27.0894 29.7407 27.0898L29.7301 27.0899H29.7501Z" fill="url(#paint4_linear_41743_63366)"/>
<path d="M29.7501 30.09L29.7407 30.0898C29.9665 30.085 30.1709 29.9264 30.2201 29.6999C30.2801 29.4299 30.1101 29.16 29.8401 29.0999C29.3701 28.99 29.1301 28.7899 28.9501 28.32C28.8801 28.1299 28.7001 28 28.4901 28C28.2901 28 28.1101 28.1199 28.0301 28.3099C27.8801 28.6899 27.4301 29.09 26.9901 29.09C26.5501 29.09 26.1101 28.6799 25.9601 28.3099C25.8001 27.9299 25.1801 27.9299 25.0301 28.3099C24.8801 28.6899 24.4301 29.09 23.9901 29.09C23.5501 29.09 23.1101 28.6799 22.9601 28.3099C22.8801 28.1199 22.7001 27.9799 22.4901 28C22.2901 28 22.1001 28.1299 22.0301 28.32C21.8501 28.7899 21.6201 28.99 21.1401 29.0999C20.8701 29.16 20.7001 29.4299 20.7601 29.6999C20.8201 29.9699 21.0901 30.1299 21.3601 30.08C21.8601 29.9699 22.2401 29.7599 22.5301 29.4299C22.9001 29.8099 23.3901 30.09 23.9901 30.09C24.5901 30.09 25.1201 29.7999 25.5001 29.4C25.8701 29.7899 26.4101 30.09 26.9901 30.09C27.5701 30.09 28.0901 29.8099 28.4701 29.4299C28.7601 29.7599 29.1401 29.9699 29.6401 30.08C29.6711 30.0877 29.7202 30.0894 29.7407 30.0898L29.7301 30.09H29.7501Z" fill="url(#paint5_linear_41743_63366)"/>
<defs>
<linearGradient id="paint0_linear_41743_63366" x1="13.7778" y1="2" x2="19.5745" y2="38.0684" gradientUnits="userSpaceOnUse">
<stop stop-color="white"/>
<stop offset="1" stop-color="#EBEBEB"/>
</linearGradient>
<radialGradient id="paint1_radial_41743_63366" cx="0" cy="0" r="1" gradientUnits="userSpaceOnUse" gradientTransform="translate(14.9444 11.375) rotate(62.5924) scale(32.1035 24.5982)">
<stop offset="0.177083" stop-color="white"/>
<stop offset="1" stop-color="#B8B8B8"/>
</radialGradient>
<linearGradient id="paint2_linear_41743_63366" x1="15.0417" y1="2" x2="21.2034" y2="37.9437" gradientUnits="userSpaceOnUse">
<stop stop-color="#BBBBBB"/>
<stop offset="1" stop-color="#888888"/>
</linearGradient>
<linearGradient id="paint3_linear_41743_63366" x1="11.5" y1="11.6289" x2="29.9591" y2="30.3591" gradientUnits="userSpaceOnUse">
<stop stop-color="#3477EA"/>
<stop offset="1" stop-color="#1D53A4"/>
</linearGradient>
<linearGradient id="paint4_linear_41743_63366" x1="11.5" y1="11.6289" x2="29.9591" y2="30.3591" gradientUnits="userSpaceOnUse">
<stop stop-color="#3477EA"/>
<stop offset="1" stop-color="#1D53A4"/>
</linearGradient>
<linearGradient id="paint5_linear_41743_63366" x1="11.5" y1="11.6289" x2="29.9591" y2="30.3591" gradientUnits="userSpaceOnUse">
<stop stop-color="#3477EA"/>
<stop offset="1" stop-color="#1D53A4"/>
</linearGradient>
</defs>
</svg>
