<svg width="24" height="24" viewBox="0 0 24 24" fill="none" xmlns="http://www.w3.org/2000/svg">
<path d="M3 4C3 2.34315 4.34315 1 6 1H18C19.6569 1 21 2.34315 21 4V20C21 21.6569 19.6569 23 18 23H6C4.34315 23 3 21.6569 3 20V4Z" fill="url(#paint0_linear_41743_63346)"/>
<path d="M3 4C3 2.34315 4.34315 1 6 1H18C19.6569 1 21 2.34315 21 4V20C21 21.6569 19.6569 23 18 23H6C4.34315 23 3 21.6569 3 20V4Z" fill="url(#paint1_radial_41743_63346)" fill-opacity="0.2"/>
<path fill-rule="evenodd" clip-rule="evenodd" d="M18 2H6C4.89543 2 4 2.89543 4 4V20C4 21.1046 4.89543 22 6 22H18C19.1046 22 20 21.1046 20 20V4C20 2.89543 19.1046 2 18 2ZM6 1C4.34315 1 3 2.34315 3 4V20C3 21.6569 4.34315 23 6 23H18C19.6569 23 21 21.6569 21 20V4C21 2.34315 19.6569 1 18 1H6Z" fill="url(#paint2_linear_41743_63346)"/>
<path d="M10.9901 17.6901C10.9262 17.789 10.8749 17.8929 10.8365 18.0002H8C6.89543 18.0002 6 17.1048 6 16.0002V11.791C6 11.224 6.24067 10.6836 6.66213 10.3043L10.6625 6.70428C11.4231 6.01976 12.5778 6.0198 13.3384 6.70438L17.338 10.3043C17.7594 10.6836 18 11.2239 18 11.7909V14.0406C17.9741 14.0336 17.9601 14.0301 17.9601 14.0301C17.9576 14.0251 17.9538 14.0189 17.9491 14.0111C17.9351 13.9876 17.9126 13.9501 17.8901 13.8901C17.8201 13.7001 17.7101 13.5301 17.5601 13.3701C17.4201 13.2301 17.2501 13.1201 17.0701 13.0401L16.9801 13.0001C16.8301 12.9501 16.6701 12.9201 16.5001 12.9201C16.3401 12.9201 16.1901 12.9401 16.0401 12.9901L15.9201 13.0401C15.5501 13.1901 15.2601 13.4801 15.1101 13.8501C15.1001 13.8701 15.0601 13.9201 15.0001 13.9801C14.9401 13.9301 14.8901 13.8701 14.8901 13.8501C14.6601 13.2801 14.1101 12.9201 13.5001 12.9201H13.3601C12.7901 12.9701 12.3101 13.3401 12.1001 13.8701C12.0601 13.9501 12.0401 14.0001 12.0401 14.0001C12.0316 14.0086 12.0016 14.0171 11.9501 14.0316L11.9201 14.0401C11.1201 14.2201 10.6101 15.0201 10.7901 15.8301C10.926 16.4556 11.4319 16.9086 12.0542 16.9803L12.0501 16.9901C12.0417 16.9986 12.0117 17.007 11.9602 17.0216L11.9301 17.0301C11.5401 17.1201 11.2001 17.3501 10.9901 17.6901Z" fill="url(#paint3_linear_41743_63346)"/>
<path d="M16.3467 13.9354C16.3333 13.9398 16.32 13.9447 16.3069 13.9502C16.1887 13.9998 16.0895 14.0945 16.0373 14.2226C15.966 14.3976 15.817 14.6009 15.6154 14.7583C15.4151 14.9146 15.1969 14.9999 14.9926 14.9999C14.7893 14.9999 14.5759 14.9154 14.3804 14.7605C14.1834 14.6045 14.0361 14.401 13.9634 14.2226C13.8842 14.0283 13.6968 13.9107 13.4991 13.9111C13.4839 13.9112 13.4687 13.9119 13.4534 13.9133C13.271 13.9306 13.1048 14.0479 13.034 14.2304C12.9312 14.4952 12.8161 14.6557 12.6907 14.7634C12.5654 14.871 12.3966 14.9544 12.1404 15.0121C11.8709 15.0727 11.7017 15.3402 11.7623 15.6096C11.8229 15.8791 12.0905 16.0483 12.3599 15.9877C12.7286 15.9047 13.0607 15.7637 13.3421 15.522C13.4092 15.4644 13.4716 15.4027 13.5295 15.3371C13.6014 15.4106 13.6783 15.4801 13.7594 15.5443C14.0853 15.8025 14.5111 15.9999 14.9926 15.9999C15.473 15.9999 15.9017 15.8033 16.2307 15.5466C16.3146 15.4811 16.3943 15.41 16.4687 15.3345C16.5273 15.4011 16.5904 15.4637 16.6583 15.522C16.9397 15.7637 17.2718 15.9047 17.6406 15.9877C17.91 16.0483 18.1776 15.8791 18.2382 15.6096C18.2988 15.3402 18.1295 15.0727 17.8601 15.0121C17.6039 14.9544 17.4351 14.871 17.3098 14.7634C17.1844 14.6557 17.0693 14.4952 16.9665 14.2304C16.9411 14.1648 16.9033 14.1077 16.857 14.0606C16.8106 14.0134 16.7541 13.9748 16.689 13.9482L16.6873 13.9475C16.6264 13.923 16.5634 13.9113 16.5015 13.9111C16.4501 13.911 16.3979 13.9189 16.3467 13.9354Z" fill="url(#paint4_linear_41743_63346)"/>
<path d="M13.3421 18.522C13.4092 18.4644 13.4716 18.4027 13.5295 18.3371C13.6014 18.4106 13.6783 18.4801 13.7594 18.5443C14.0853 18.8025 14.5111 18.9999 14.9926 18.9999C15.473 18.9999 15.9017 18.8033 16.2307 18.5466C16.3146 18.4811 16.3943 18.41 16.4687 18.3346C16.5273 18.4011 16.5904 18.4637 16.6583 18.522C16.9397 18.7637 17.2718 18.9047 17.6406 18.9877C17.91 19.0483 18.1776 18.8791 18.2382 18.6096C18.2988 18.3402 18.1295 18.0727 17.8601 18.0121C17.6039 17.9544 17.4351 17.871 17.3098 17.7634C17.1844 17.6557 17.0693 17.4952 16.9665 17.2304C16.9411 17.1648 16.9033 17.1077 16.857 17.0606C16.8106 17.0134 16.7541 16.9748 16.689 16.9482C16.6276 16.9232 16.564 16.9113 16.5015 16.9111C16.4504 16.911 16.3986 16.9188 16.3477 16.9351C16.2758 16.9582 16.2093 16.9975 16.1541 17.0504C16.1049 17.0975 16.0647 17.1555 16.0373 17.2226C15.966 17.3976 15.817 17.6009 15.6154 17.7583C15.4151 17.9146 15.1969 17.9999 14.9926 17.9999C14.7893 17.9999 14.5759 17.9154 14.3804 17.7605C14.1834 17.6045 14.0361 17.401 13.9634 17.2226C13.8853 17.0308 13.7016 16.9138 13.5068 16.9112C13.4859 16.9109 13.4648 16.9119 13.4437 16.9144C13.2651 16.9348 13.1035 17.0511 13.034 17.2304C12.9312 17.4952 12.8161 17.6557 12.6907 17.7634C12.5654 17.871 12.3966 17.9544 12.1404 18.0121C11.8709 18.0727 11.7017 18.3402 11.7623 18.6096C11.8229 18.8791 12.0905 19.0483 12.3599 18.9877C12.7286 18.9047 13.0607 18.7637 13.3421 18.522Z" fill="url(#paint5_linear_41743_63346)"/>
<defs>
<linearGradient id="paint0_linear_41743_63346" x1="8" y1="1" x2="11.3757" y2="23.0954" gradientUnits="userSpaceOnUse">
<stop stop-color="white"/>
<stop offset="1" stop-color="#EBEBEB"/>
</linearGradient>
<radialGradient id="paint1_radial_41743_63346" cx="0" cy="0" r="1" gradientUnits="userSpaceOnUse" gradientTransform="translate(8.75 6.72917) rotate(61.3895) scale(19.8391 15.6375)">
<stop offset="0.177083" stop-color="white"/>
<stop offset="1" stop-color="#B8B8B8"/>
</radialGradient>
<linearGradient id="paint2_linear_41743_63346" x1="8.8125" y1="1" x2="12.4019" y2="23.0262" gradientUnits="userSpaceOnUse">
<stop stop-color="#BBBBBB"/>
<stop offset="1" stop-color="#888888"/>
</linearGradient>
<linearGradient id="paint3_linear_41743_63346" x1="6" y1="6.19092" x2="18.7964" y2="18.4292" gradientUnits="userSpaceOnUse">
<stop stop-color="#3477EA"/>
<stop offset="1" stop-color="#1D53A4"/>
</linearGradient>
<linearGradient id="paint4_linear_41743_63346" x1="6" y1="6.19092" x2="18.7964" y2="18.4292" gradientUnits="userSpaceOnUse">
<stop stop-color="#3477EA"/>
<stop offset="1" stop-color="#1D53A4"/>
</linearGradient>
<linearGradient id="paint5_linear_41743_63346" x1="6" y1="6.19092" x2="18.7964" y2="18.4292" gradientUnits="userSpaceOnUse">
<stop stop-color="#3477EA"/>
<stop offset="1" stop-color="#1D53A4"/>
</linearGradient>
</defs>
</svg>
