<svg width="32" height="32" viewBox="0 0 32 32" fill="none" xmlns="http://www.w3.org/2000/svg">
<path d="M5 5.5C5 3.567 6.567 2 8.5 2H23.5C25.433 2 27 3.567 27 5.5V26.5C27 28.433 25.433 30 23.5 30H8.5C6.567 30 5 28.433 5 26.5V5.5Z" fill="url(#paint0_linear_41743_63358)"/>
<path d="M5 5.5C5 3.567 6.567 2 8.5 2H23.5C25.433 2 27 3.567 27 5.5V26.5C27 28.433 25.433 30 23.5 30H8.5C6.567 30 5 28.433 5 26.5V5.5Z" fill="url(#paint1_radial_41743_63358)" fill-opacity="0.2"/>
<path fill-rule="evenodd" clip-rule="evenodd" d="M23.5 3H8.5C7.11929 3 6 4.11929 6 5.5V26.5C6 27.8807 7.11929 29 8.5 29H23.5C24.8807 29 26 27.8807 26 26.5V5.5C26 4.11929 24.8807 3 23.5 3ZM8.5 2C6.567 2 5 3.567 5 5.5V26.5C5 28.433 6.567 30 8.5 30H23.5C25.433 30 27 28.433 27 26.5V5.5C27 3.567 25.433 2 23.5 2H8.5Z" fill="url(#paint2_linear_41743_63358)"/>
<path d="M13.9901 22.6901C13.9262 22.7889 13.8749 22.8929 13.8365 23.0002H11C9.89543 23.0002 9 22.1047 9 21.0002V14.6005C9 14.028 9.24538 13.4829 9.67399 13.1033L14.6745 8.67464C15.4315 8.00424 16.5697 8.00429 17.3266 8.67476L22.3261 13.1033C22.7547 13.4829 23 14.0279 23 14.6004V18.009L22.9801 18.0001C22.8301 17.9501 22.6701 17.9201 22.5001 17.9201C22.3401 17.9201 22.1901 17.9401 22.0401 17.9901L21.9201 18.0401C21.5501 18.1901 21.2601 18.4801 21.1101 18.8501C21.1001 18.8701 21.0601 18.9201 21.0001 18.9801C20.9401 18.9301 20.8901 18.8701 20.8901 18.8501C20.6601 18.2801 20.1101 17.9201 19.5001 17.9201H19.3601C18.7935 17.9698 18.3158 18.3357 18.1039 18.8606C18.088 18.8848 18.0514 18.9288 18.0001 18.9801C17.9401 18.9301 17.8901 18.8701 17.8901 18.8501C17.6601 18.2801 17.1101 17.9201 16.5001 17.9201H16.3601C15.7901 17.9701 15.3101 18.3401 15.1001 18.8701C15.0601 18.9501 15.0401 19.0001 15.0401 19.0001C15.0316 19.0086 15.0014 19.0171 14.9501 19.0316L14.9201 19.0401C14.1201 19.2201 13.6101 20.0201 13.7901 20.8301C13.926 21.4556 14.4319 21.9086 15.0542 21.9803L15.0501 21.9901C15.0417 21.9985 15.0116 22.007 14.9602 22.0216L14.9301 22.0301C14.5401 22.1201 14.2001 22.3501 13.9901 22.6901Z" fill="url(#paint3_linear_41743_63358)"/>
<path d="M23.7501 21.0001L23.7407 21C23.9665 20.9952 24.1709 20.8366 24.2201 20.6101C24.2801 20.3401 24.1101 20.0701 23.8401 20.0101C23.3701 19.9001 23.1301 19.7001 22.9501 19.2301C22.8801 19.0401 22.7001 18.9101 22.4901 18.9101C22.2901 18.9101 22.1101 19.0301 22.0301 19.2201C21.8801 19.6001 21.4301 20.0001 20.9901 20.0001C20.5501 20.0001 20.1101 19.5901 19.9601 19.2201C19.8001 18.8401 19.1801 18.8401 19.0301 19.2201C18.8801 19.6001 18.4301 20.0001 17.9901 20.0001C17.5501 20.0001 17.1101 19.5901 16.9601 19.2201C16.8801 19.0301 16.7001 18.8901 16.4901 18.9101C16.2901 18.9101 16.1001 19.0401 16.0301 19.2301C15.8501 19.7001 15.6201 19.9001 15.1401 20.0101C14.8701 20.0701 14.7001 20.3401 14.7601 20.6101C14.8201 20.8801 15.0901 21.0401 15.3601 20.9901C15.8601 20.8801 16.2401 20.6701 16.5301 20.3401C16.9001 20.7201 17.3901 21.0001 17.9901 21.0001C18.5901 21.0001 19.1201 20.7101 19.5001 20.3101C19.8701 20.7001 20.4101 21.0001 20.9901 21.0001C21.5701 21.0001 22.0901 20.7201 22.4701 20.3401C22.7601 20.6701 23.1401 20.8801 23.6401 20.9901C23.6711 20.9979 23.7202 20.9996 23.7407 21L23.7301 21.0001H23.7501Z" fill="url(#paint4_linear_41743_63358)"/>
<path d="M23.7501 24.0001L23.7407 24C23.9665 23.9952 24.1709 23.8366 24.2201 23.6101C24.2801 23.3401 24.1101 23.0701 23.8401 23.0101C23.3701 22.9001 23.1301 22.7001 22.9501 22.2301C22.8801 22.0401 22.7001 21.9101 22.4901 21.9101C22.2901 21.9101 22.1101 22.0301 22.0301 22.2201C21.8801 22.6001 21.4301 23.0001 20.9901 23.0001C20.5501 23.0001 20.1101 22.5901 19.9601 22.2201C19.8001 21.8401 19.1801 21.8401 19.0301 22.2201C18.8801 22.6001 18.4301 23.0001 17.9901 23.0001C17.5501 23.0001 17.1101 22.5901 16.9601 22.2201C16.8801 22.0301 16.7001 21.8901 16.4901 21.9101C16.2901 21.9101 16.1001 22.0401 16.0301 22.2301C15.8501 22.7001 15.6201 22.9001 15.1401 23.0101C14.8701 23.0701 14.7001 23.3401 14.7601 23.6101C14.8201 23.8801 15.0901 24.0401 15.3601 23.9901C15.8601 23.8801 16.2401 23.6701 16.5301 23.3401C16.9001 23.7201 17.3901 24.0001 17.9901 24.0001C18.5901 24.0001 19.1201 23.7101 19.5001 23.3101C19.8701 23.7001 20.4101 24.0001 20.9901 24.0001C21.5701 24.0001 22.0901 23.7201 22.4701 23.3401C22.7601 23.6701 23.1401 23.8801 23.6401 23.9901C23.6711 23.9979 23.7202 23.9996 23.7407 24L23.7301 24.0001H23.7501Z" fill="url(#paint5_linear_41743_63358)"/>
<defs>
<linearGradient id="paint0_linear_41743_63358" x1="11.1111" y1="2" x2="15.5764" y2="30.0674" gradientUnits="userSpaceOnUse">
<stop stop-color="white"/>
<stop offset="1" stop-color="#EBEBEB"/>
</linearGradient>
<radialGradient id="paint1_radial_41743_63358" cx="0" cy="0" r="1" gradientUnits="userSpaceOnUse" gradientTransform="translate(12.0278 9.29167) rotate(62.354) scale(25.0236 19.2853)">
<stop offset="0.177083" stop-color="white"/>
<stop offset="1" stop-color="#B8B8B8"/>
</radialGradient>
<linearGradient id="paint2_linear_41743_63358" x1="12.1042" y1="2" x2="16.851" y2="29.9723" gradientUnits="userSpaceOnUse">
<stop stop-color="#BBBBBB"/>
<stop offset="1" stop-color="#888888"/>
</linearGradient>
<linearGradient id="paint3_linear_41743_63358" x1="9" y1="8.17187" x2="24.8166" y2="23.3928" gradientUnits="userSpaceOnUse">
<stop stop-color="#3477EA"/>
<stop offset="1" stop-color="#1D53A4"/>
</linearGradient>
<linearGradient id="paint4_linear_41743_63358" x1="9" y1="8.17187" x2="24.8166" y2="23.3928" gradientUnits="userSpaceOnUse">
<stop stop-color="#3477EA"/>
<stop offset="1" stop-color="#1D53A4"/>
</linearGradient>
<linearGradient id="paint5_linear_41743_63358" x1="9" y1="8.17187" x2="24.8166" y2="23.3928" gradientUnits="userSpaceOnUse">
<stop stop-color="#3477EA"/>
<stop offset="1" stop-color="#1D53A4"/>
</linearGradient>
</defs>
</svg>
