<svg width="32" height="32" viewBox="0 0 32 32" fill="none" xmlns="http://www.w3.org/2000/svg">
<path d="M3 6.5C3 4.567 4.567 3 6.5 3H25.5C27.433 3 29 4.567 29 6.5V25.5C29 27.433 27.433 29 25.5 29H6.5C4.567 29 3 27.433 3 25.5V6.5Z" fill="url(#paint0_linear_41743_63310)"/>
<path d="M3 6.5C3 4.567 4.567 3 6.5 3H25.5C27.433 3 29 4.567 29 6.5V25.5C29 27.433 27.433 29 25.5 29H6.5C4.567 29 3 27.433 3 25.5V6.5Z" fill="url(#paint1_radial_41743_63310)" fill-opacity="0.2"/>
<path fill-rule="evenodd" clip-rule="evenodd" d="M25.5 4H6.5C5.11929 4 4 5.11929 4 6.5V25.5C4 26.8807 5.11929 28 6.5 28H25.5C26.8807 28 28 26.8807 28 25.5V6.5C28 5.11929 26.8807 4 25.5 4ZM6.5 3C4.567 3 3 4.567 3 6.5V25.5C3 27.433 4.567 29 6.5 29H25.5C27.433 29 29 27.433 29 25.5V6.5C29 4.567 27.433 3 25.5 3H6.5Z" fill="url(#paint2_linear_41743_63310)"/>
<path fill-rule="evenodd" clip-rule="evenodd" d="M17.5249 9.90468C16.5806 9.36511 15.4214 9.36511 14.4772 9.90468L11.0486 11.8639C10.5101 12.1716 10.0876 12.6285 9.82117 13.1653L9.78472 13.2388C9.75267 13.2849 9.72542 13.3358 9.7041 13.3913C9.6989 13.4049 9.69379 13.4185 9.68878 13.4321L9.57812 13.6551L9.61252 13.6685C9.53876 13.9333 9.5 14.2101 9.5 14.4924V18.365C9.5 19.4672 10.0906 20.4849 11.0476 21.0318L14.4862 22.9967L15.4189 23.5014C15.6105 23.6051 15.8183 23.6136 16 23.5522C16.1817 23.6136 16.3895 23.6051 16.5811 23.5014L17.5138 22.9967L20.9524 21.0318C21.9094 20.4849 22.5 19.4672 22.5 18.365V14.4924C22.5 14.2104 22.4613 13.9338 22.3877 13.6692L22.424 13.6551L22.3049 13.4151C22.3019 13.4072 22.2989 13.3993 22.2959 13.3913C22.2763 13.3404 22.2518 13.2934 22.2231 13.2503L22.181 13.1653C21.9145 12.6285 21.492 12.1716 20.9535 11.8639L17.5249 9.90468ZM16.5 17.9645H16.5011C16.5011 16.7528 17.2473 15.6661 18.3783 15.2312L18.3804 15.2304L21.4489 14.0349C21.4825 14.1833 21.5 14.3366 21.5 14.4924V18.365C21.5 19.1084 21.1017 19.7947 20.4563 20.1635L17.0327 22.1198L16.5 22.4082V17.9645ZM10.5513 14.0342L13.6218 15.2304L13.6238 15.2312C14.7233 15.654 15.4592 16.6927 15.4993 17.8635C15.4998 17.8844 15.5 17.9053 15.5 17.9263V22.4082L14.9673 22.1198L11.5437 20.1635C10.8983 19.7947 10.5 19.1084 10.5 18.365V14.4924C10.5 14.3363 10.5176 14.1828 10.5513 14.0342Z" fill="url(#paint3_linear_41743_63310)"/>
<defs>
<linearGradient id="paint0_linear_41743_63310" x1="10.2222" y1="3" x2="13.5111" y2="29.3111" gradientUnits="userSpaceOnUse">
<stop stop-color="white"/>
<stop offset="1" stop-color="#EBEBEB"/>
</linearGradient>
<radialGradient id="paint1_radial_41743_63310" cx="0" cy="0" r="1" gradientUnits="userSpaceOnUse" gradientTransform="translate(11.3056 9.77083) rotate(56.3099) scale(24.7381 21.408)">
<stop offset="0.177083" stop-color="white"/>
<stop offset="1" stop-color="#B8B8B8"/>
</radialGradient>
<linearGradient id="paint2_linear_41743_63310" x1="11.3958" y1="3" x2="14.8966" y2="29.2555" gradientUnits="userSpaceOnUse">
<stop stop-color="#BBBBBB"/>
<stop offset="1" stop-color="#888888"/>
</linearGradient>
<linearGradient id="paint3_linear_41743_63310" x1="9.5" y1="9.5" x2="23.5451" y2="22.4579" gradientUnits="userSpaceOnUse">
<stop stop-color="#4BA446"/>
<stop offset="1" stop-color="#3F7D35"/>
</linearGradient>
</defs>
</svg>
