<svg width="20" height="20" viewBox="0 0 20 20" fill="none" xmlns="http://www.w3.org/2000/svg">
<path d="M2 4.5C2 3.11929 3.11929 2 4.5 2H15.5C16.8807 2 18 3.11929 18 4.5V15.5C18 16.8807 16.8807 18 15.5 18H4.5C3.11929 18 2 16.8807 2 15.5V4.5Z" fill="url(#paint0_linear_41743_63306)"/>
<path d="M2 4.5C2 3.11929 3.11929 2 4.5 2H15.5C16.8807 2 18 3.11929 18 4.5V15.5C18 16.8807 16.8807 18 15.5 18H4.5C3.11929 18 2 16.8807 2 15.5V4.5Z" fill="url(#paint1_radial_41743_63306)" fill-opacity="0.2"/>
<path fill-rule="evenodd" clip-rule="evenodd" d="M15.5 3H4.5C3.67157 3 3 3.67157 3 4.5V15.5C3 16.3284 3.67157 17 4.5 17H15.5C16.3284 17 17 16.3284 17 15.5V4.5C17 3.67157 16.3284 3 15.5 3ZM4.5 2C3.11929 2 2 3.11929 2 4.5V15.5C2 16.8807 3.11929 18 4.5 18H15.5C16.8807 18 18 16.8807 18 15.5V4.5C18 3.11929 16.8807 2 15.5 2H4.5Z" fill="url(#paint2_linear_41743_63306)"/>
<path fill-rule="evenodd" clip-rule="evenodd" d="M8.92475 14.3147C8.96442 14.3335 9.00446 14.3512 9.04483 14.3678L9.06806 14.379C9.14719 14.4168 9.22781 14.4434 9.30843 14.4594C9.75181 14.5861 10.2218 14.5877 10.6657 14.4642C10.755 14.4489 10.8444 14.4209 10.9319 14.379L11.0501 14.3224L11.0754 14.3104L13.0799 13.3504C13.9477 12.9348 14.5 12.0578 14.5 11.0955V8.17111C14.5 7.61321 14.1904 7.1014 13.6962 6.84246L11.1567 5.51183C10.4325 5.13237 9.56855 5.13099 8.84316 5.50813L6.27681 6.84243C5.78028 7.10058 5.46875 7.61367 5.46875 8.1733V11.0949C5.46875 12.0608 6.02514 12.9403 6.89793 13.354L8.92475 14.3147ZM10.0213 9.36631L10 9.37518L9.98041 9.36879C9.987 9.37847 9.99353 9.38819 10 9.39795C10.007 9.38736 10.0141 9.37681 10.0213 9.36631ZM9.44802 13.4522C9.46526 13.4589 9.48259 13.4653 9.5 13.4714V11.0563C9.5 10.2865 9.05818 9.58498 8.36388 9.25246L6.5 8.3598L6.5 11.0955C6.5 11.6729 6.83137 12.199 7.35209 12.4484L9.44802 13.4522ZM10.5 13.4683C10.5418 13.4534 10.5832 13.4365 10.6238 13.4177L12.6479 12.4484C13.1686 12.199 13.5 11.6729 13.5 11.0955V8.3598L11.6361 9.25246C10.9418 9.58498 10.5 10.2865 10.5 11.0563V13.4683Z" fill="url(#paint3_linear_41743_63306)"/>
<defs>
<linearGradient id="paint0_linear_41743_63306" x1="6.44444" y1="2" x2="8.46838" y2="18.1915" gradientUnits="userSpaceOnUse">
<stop stop-color="white"/>
<stop offset="1" stop-color="#EBEBEB"/>
</linearGradient>
<radialGradient id="paint1_radial_41743_63306" cx="0" cy="0" r="1" gradientUnits="userSpaceOnUse" gradientTransform="translate(7.11111 6.16667) rotate(56.3099) scale(15.2234 13.1741)">
<stop offset="0.177083" stop-color="white"/>
<stop offset="1" stop-color="#B8B8B8"/>
</radialGradient>
<linearGradient id="paint2_linear_41743_63306" x1="7.16667" y1="2" x2="9.32096" y2="18.1572" gradientUnits="userSpaceOnUse">
<stop stop-color="#BBBBBB"/>
<stop offset="1" stop-color="#888888"/>
</linearGradient>
<linearGradient id="paint3_linear_41743_63306" x1="5.46875" y1="5.22625" x2="14.7932" y2="14.2527" gradientUnits="userSpaceOnUse">
<stop stop-color="#4BA446"/>
<stop offset="1" stop-color="#3F7D35"/>
</linearGradient>
</defs>
</svg>
