<svg width="24" height="24" viewBox="0 0 24 24" fill="none" xmlns="http://www.w3.org/2000/svg">
<path d="M2 5C2 3.34315 3.34315 2 5 2H19C20.6569 2 22 3.34315 22 5V19C22 20.6569 20.6569 22 19 22H5C3.34315 22 2 20.6569 2 19V5Z" fill="url(#paint0_linear_41743_63272)"/>
<path d="M2 5C2 3.34315 3.34315 2 5 2H19C20.6569 2 22 3.34315 22 5V19C22 20.6569 20.6569 22 19 22H5C3.34315 22 2 20.6569 2 19V5Z" fill="url(#paint1_radial_41743_63272)" fill-opacity="0.2"/>
<path fill-rule="evenodd" clip-rule="evenodd" d="M19 3H5C3.89543 3 3 3.89543 3 5V19C3 20.1046 3.89543 21 5 21H19C20.1046 21 21 20.1046 21 19V5C21 3.89543 20.1046 3 19 3ZM5 2C3.34315 2 2 3.34315 2 5V19C2 20.6569 3.34315 22 5 22H19C20.6569 22 22 20.6569 22 19V5C22 3.34315 20.6569 2 19 2H5Z" fill="url(#paint2_linear_41743_63272)"/>
<path d="M7.25 10.5C7.94036 10.5 8.5 9.94036 8.5 9.25C8.5 8.55964 7.94036 8 7.25 8C6.55964 8 6 8.55964 6 9.25C6 9.94036 6.55964 10.5 7.25 10.5Z" fill="url(#paint3_linear_41743_63272)"/>
<path d="M12 10.5C12.6904 10.5 13.25 9.94036 13.25 9.25C13.25 8.55964 12.6904 8 12 8C11.3096 8 10.75 8.55964 10.75 9.25C10.75 9.94036 11.3096 10.5 12 10.5Z" fill="url(#paint4_linear_41743_63272)"/>
<path d="M13.25 14.75C13.25 15.4404 12.6904 16 12 16C11.3096 16 10.75 15.4404 10.75 14.75C10.75 14.0596 11.3096 13.5 12 13.5C12.6904 13.5 13.25 14.0596 13.25 14.75Z" fill="url(#paint5_linear_41743_63272)"/>
<path d="M7.25 16C7.94036 16 8.5 15.4404 8.5 14.75C8.5 14.0596 7.94036 13.5 7.25 13.5C6.55964 13.5 6 14.0596 6 14.75C6 15.4404 6.55964 16 7.25 16Z" fill="url(#paint6_linear_41743_63272)"/>
<path d="M18 9.25C18 9.94036 17.4404 10.5 16.75 10.5C16.0596 10.5 15.5 9.94036 15.5 9.25C15.5 8.55964 16.0596 8 16.75 8C17.4404 8 18 8.55964 18 9.25Z" fill="url(#paint7_linear_41743_63272)"/>
<path d="M24 18C24 21.3137 21.3137 24 18 24C14.6863 24 12 21.3137 12 18C12 14.6863 14.6863 12 18 12C21.3137 12 24 14.6863 24 18Z" fill="#F5F5F5"/>
<path fill-rule="evenodd" clip-rule="evenodd" d="M21.5355 14.4645C23.4882 16.4171 23.4882 19.5829 21.5355 21.5355C19.5829 23.4882 16.4171 23.4882 14.4645 21.5355C12.5118 19.5829 12.5118 16.4171 14.4645 14.4645C16.4171 12.5118 19.5829 12.5118 21.5355 14.4645ZM21.1604 15.5475C22.3813 17.1166 22.2707 19.3862 20.8284 20.8284C19.3862 22.2707 17.1166 22.3813 15.5475 21.1604L21.1604 15.5475ZM20.4534 14.8402L14.8402 20.4534C13.6186 18.8842 13.7291 16.6141 15.1716 15.1716C16.6141 13.7291 18.8842 13.6186 20.4534 14.8402Z" fill="url(#paint8_linear_41743_63272)"/>
<defs>
<linearGradient id="paint0_linear_41743_63272" x1="7.55556" y1="2" x2="10.0855" y2="22.2393" gradientUnits="userSpaceOnUse">
<stop stop-color="white"/>
<stop offset="1" stop-color="#EBEBEB"/>
</linearGradient>
<radialGradient id="paint1_radial_41743_63272" cx="0" cy="0" r="1" gradientUnits="userSpaceOnUse" gradientTransform="translate(8.38889 7.20833) rotate(56.3099) scale(19.0293 16.4677)">
<stop offset="0.177083" stop-color="white"/>
<stop offset="1" stop-color="#B8B8B8"/>
</radialGradient>
<linearGradient id="paint2_linear_41743_63272" x1="8.45833" y1="2" x2="11.1512" y2="22.1965" gradientUnits="userSpaceOnUse">
<stop stop-color="#BBBBBB"/>
<stop offset="1" stop-color="#888888"/>
</linearGradient>
<linearGradient id="paint3_linear_41743_63272" x1="6" y1="8" x2="13.3846" y2="19.0769" gradientUnits="userSpaceOnUse">
<stop stop-color="#7751B8"/>
<stop offset="1" stop-color="#5A409C"/>
</linearGradient>
<linearGradient id="paint4_linear_41743_63272" x1="6" y1="8" x2="13.3846" y2="19.0769" gradientUnits="userSpaceOnUse">
<stop stop-color="#7751B8"/>
<stop offset="1" stop-color="#5A409C"/>
</linearGradient>
<linearGradient id="paint5_linear_41743_63272" x1="6" y1="8" x2="13.3846" y2="19.0769" gradientUnits="userSpaceOnUse">
<stop stop-color="#7751B8"/>
<stop offset="1" stop-color="#5A409C"/>
</linearGradient>
<linearGradient id="paint6_linear_41743_63272" x1="6" y1="8" x2="13.3846" y2="19.0769" gradientUnits="userSpaceOnUse">
<stop stop-color="#7751B8"/>
<stop offset="1" stop-color="#5A409C"/>
</linearGradient>
<linearGradient id="paint7_linear_41743_63272" x1="6" y1="8" x2="13.3846" y2="19.0769" gradientUnits="userSpaceOnUse">
<stop stop-color="#7751B8"/>
<stop offset="1" stop-color="#5A409C"/>
</linearGradient>
<linearGradient id="paint8_linear_41743_63272" x1="13" y1="13" x2="23" y2="23" gradientUnits="userSpaceOnUse">
<stop stop-color="#7751B8"/>
<stop offset="1" stop-color="#5A409C"/>
</linearGradient>
</defs>
</svg>
