<svg width="48" height="48" viewBox="0 0 48 48" fill="none" xmlns="http://www.w3.org/2000/svg">
<path fill-rule="evenodd" clip-rule="evenodd" d="M12 3.55188H35.9999C37.6567 3.55188 39.3942 4.70718 39.3942 6.41381V31.5711C39.3942 32.6174 38.7411 33.6473 37.8539 34.2877L39 33.8125V42.9375L37.6875 44.4375H11L8.8125 42.9375V37.25L10.7814 35.5061C9.87789 35.9916 9.02873 36.7043 8.4668 37.2949V9.22958C8.4668 6.66966 9.51471 3.55188 12 3.55188Z" fill="url(#paint0_linear_41743_63248)"/>
<path fill-rule="evenodd" clip-rule="evenodd" d="M12 3.55188H35.9999C37.6567 3.55188 39.3942 4.70718 39.3942 6.41381V31.5711C39.3942 32.6174 38.7411 33.6473 37.8539 34.2877L39 33.8125V42.9375L37.6875 44.4375H11L8.8125 42.9375V37.25L10.7814 35.5061C9.87789 35.9916 9.02873 36.7043 8.4668 37.2949V9.22958C8.4668 6.66966 9.51471 3.55188 12 3.55188Z" fill="url(#paint1_radial_41743_63248)" fill-opacity="0.2"/>
<path fill-rule="evenodd" clip-rule="evenodd" d="M8 40C8 42.7614 10.2386 45 13 45H36C38.2091 45 40 43.2091 40 41V7C40 4.79086 38.2091 3 36 3H12C9.79086 3 8 4.79086 8 7V40ZM12 4H36C37.6569 4 39 5.34315 39 7V31C39 32.933 37.433 34.5 35.5 34.5L13.5 34.5C11.6398 34.5 9.99537 35.4234 9 36.8369V7C9 5.34315 10.3431 4 12 4ZM9 40C9 42.2091 10.7909 44 13 44H36C37.6569 44 39 42.6569 39 41V38.8287C38.175 39.8482 36.9136 40.5 35.5 40.5H12.5C12.2239 40.5 12 40.2761 12 40C12 39.7239 12.2239 39.5 12.5 39.5H35.5C37.433 39.5 39 37.933 39 36V33.8287C38.175 34.8482 36.9136 35.5 35.5 35.5L13.5 35.5C11.0147 35.5 9 37.5147 9 40Z" fill="url(#paint2_linear_41743_63248)"/>
<path d="M27.0658 11.0212C27.3303 11.1006 27.4804 11.3793 27.401 11.6438L22.5552 27.7965C22.4759 28.061 22.1971 28.2111 21.9326 28.1317C21.6681 28.0524 21.518 27.7736 21.5974 27.5091L26.4432 11.3565C26.5225 11.092 26.8013 10.9419 27.0658 11.0212Z" fill="url(#paint3_linear_41743_63248)"/>
<path d="M29.8007 14.3769C29.996 14.1817 30.3126 14.1817 30.5079 14.3769L35.2829 19.152C35.5173 19.3863 35.5173 19.7662 35.2829 20.0005L30.5079 24.7756C30.3126 24.9709 29.996 24.9709 29.8007 24.7756C29.6055 24.5804 29.6055 24.2638 29.8007 24.0685L34.293 19.5763L29.8007 15.084C29.6055 14.8888 29.6055 14.5722 29.8007 14.3769Z" fill="url(#paint4_linear_41743_63248)"/>
<path d="M18.4922 14.3769C18.6874 14.1817 19.004 14.1817 19.1993 14.3769C19.3945 14.5722 19.3945 14.8888 19.1993 15.084L14.707 19.5763L19.1993 24.0685C19.3945 24.2638 19.3945 24.5804 19.1993 24.7756C19.004 24.9709 18.6874 24.9709 18.4922 24.7756L13.7171 20.0005C13.4827 19.7662 13.4827 19.3863 13.7171 19.152L18.4922 14.3769Z" fill="url(#paint5_linear_41743_63248)"/>
<defs>
<linearGradient id="paint0_linear_41743_63248" x1="17.0577" y1="3.55188" x2="23.8171" y2="44.4562" gradientUnits="userSpaceOnUse">
<stop stop-color="white"/>
<stop offset="1" stop-color="#EBEBEB"/>
</linearGradient>
<radialGradient id="paint1_radial_41743_63248" cx="0" cy="0" r="1" gradientUnits="userSpaceOnUse" gradientTransform="translate(18.3464 14.1992) rotate(63.2386) scale(36.2506 27.3271)">
<stop offset="0.177083" stop-color="white"/>
<stop offset="1" stop-color="#B8B8B8"/>
</radialGradient>
<linearGradient id="paint2_linear_41743_63248" x1="18.3333" y1="3" x2="25.663" y2="44.884" gradientUnits="userSpaceOnUse">
<stop stop-color="#BBBBBB"/>
<stop offset="1" stop-color="#888888"/>
</linearGradient>
<linearGradient id="paint3_linear_41743_63248" x1="13.5413" y1="11" x2="30.1916" y2="32.2751" gradientUnits="userSpaceOnUse">
<stop stop-color="#4BA446"/>
<stop offset="1" stop-color="#3F7D35"/>
</linearGradient>
<linearGradient id="paint4_linear_41743_63248" x1="13.5413" y1="11" x2="30.1916" y2="32.2751" gradientUnits="userSpaceOnUse">
<stop stop-color="#4BA446"/>
<stop offset="1" stop-color="#3F7D35"/>
</linearGradient>
<linearGradient id="paint5_linear_41743_63248" x1="13.5413" y1="11" x2="30.1916" y2="32.2751" gradientUnits="userSpaceOnUse">
<stop stop-color="#4BA446"/>
<stop offset="1" stop-color="#3F7D35"/>
</linearGradient>
</defs>
</svg>
