<svg width="40" height="40" viewBox="0 0 40 40" fill="none" xmlns="http://www.w3.org/2000/svg">
<path fill-rule="evenodd" clip-rule="evenodd" d="M9.19882 2.67676H30.927C32.427 2.67676 34.0001 3.72271 34.0001 5.26779V28.0438C34.0001 28.9911 33.4088 29.9236 32.6056 30.5033L33.6432 30.0731L33.1876 35.4375L31.0313 37.4375L8.74994 37.0625L7.1563 34.6562L6.31303 33.1852L6.31297 32.2188C5.495 32.6582 6.50879 32.6912 6.00005 33.2259V7.81704C6.00005 5.49943 6.94878 2.67676 9.19882 2.67676Z" fill="url(#paint0_linear_41743_63252)"/>
<path fill-rule="evenodd" clip-rule="evenodd" d="M9.19882 2.67676H30.927C32.427 2.67676 34.0001 3.72271 34.0001 5.26779V28.0438C34.0001 28.9911 33.4088 29.9236 32.6056 30.5033L33.6432 30.0731L33.1876 35.4375L31.0313 37.4375L8.74994 37.0625L7.1563 34.6562L6.31303 33.1852L6.31297 32.2188C5.495 32.6582 6.50879 32.6912 6.00005 33.2259V7.81704C6.00005 5.49943 6.94878 2.67676 9.19882 2.67676Z" fill="url(#paint1_radial_41743_63252)" fill-opacity="0.2"/>
<path fill-rule="evenodd" clip-rule="evenodd" d="M6 33C6 35.7614 8.23858 38 11 38H30C32.2091 38 34 36.2091 34 34V6C34 3.79086 32.2091 2 30 2H10C7.79086 2 6 3.79086 6 6V33ZM10 3H30C31.6569 3 33 4.34315 33 6V24C33 25.933 31.433 27.5 29.5 27.5L11.5 27.5C9.63984 27.5 7.99537 28.4234 7 29.8369V6C7 4.34315 8.34315 3 10 3ZM7 33C7 35.2091 8.79086 37 11 37H30C31.6569 37 33 35.6569 33 34V31.8287C32.175 32.8482 30.9136 33.5 29.5 33.5H12.5C12.2239 33.5 12 33.2761 12 33C12 32.7239 12.2239 32.5 12.5 32.5H29.5C31.433 32.5 33 30.933 33 29V26.8287C32.175 27.8482 30.9136 28.5 29.5 28.5L11.5 28.5C9.01472 28.5 7 30.5147 7 33Z" fill="url(#paint2_linear_41743_63252)"/>
<path d="M22.2027 8.52031C22.4671 8.59979 22.6171 8.87861 22.5376 9.14306L18.6303 22.144C18.5509 22.4085 18.2721 22.5585 18.0076 22.479C17.7431 22.3995 17.5932 22.1207 17.6727 21.8562L21.5799 8.85525C21.6594 8.59079 21.9382 8.44083 22.2027 8.52031Z" fill="url(#paint3_linear_41743_63252)"/>
<path d="M15.8555 11.1464C15.6603 10.9512 15.3437 10.9512 15.1484 11.1464L11.2191 15.0757C10.9848 15.3101 10.9848 15.69 11.2191 15.9243L15.1484 19.8536C15.3437 20.0488 15.6603 20.0488 15.8555 19.8536C16.0508 19.6583 16.0508 19.3417 15.8555 19.1464L12.2091 15.5L15.8555 11.8536C16.0508 11.6583 16.0508 11.3417 15.8555 11.1464Z" fill="url(#paint4_linear_41743_63252)"/>
<path d="M24.8526 19.8536C24.6573 20.0488 24.3407 20.0488 24.1455 19.8536C23.9502 19.6583 23.9502 19.3417 24.1455 19.1464L27.7919 15.5L24.1455 11.8536C23.9502 11.6583 23.9502 11.3417 24.1455 11.1464C24.3407 10.9512 24.6573 10.9512 24.8526 11.1464L28.7819 15.0757C29.0162 15.31 29.0162 15.6899 28.7819 15.9243L24.8526 19.8536Z" fill="url(#paint5_linear_41743_63252)"/>
<defs>
<linearGradient id="paint0_linear_41743_63252" x1="13.7636" y1="2.67676" x2="19.1737" y2="37.5641" gradientUnits="userSpaceOnUse">
<stop stop-color="white"/>
<stop offset="1" stop-color="#EBEBEB"/>
</linearGradient>
<radialGradient id="paint1_radial_41743_63252" cx="0" cy="0" r="1" gradientUnits="userSpaceOnUse" gradientTransform="translate(14.9311 11.729) rotate(61.7473) scale(31.2407 24.4245)">
<stop offset="0.177083" stop-color="white"/>
<stop offset="1" stop-color="#B8B8B8"/>
</radialGradient>
<linearGradient id="paint2_linear_41743_63252" x1="15.0417" y1="2" x2="21.2034" y2="37.9437" gradientUnits="userSpaceOnUse">
<stop stop-color="#BBBBBB"/>
<stop offset="1" stop-color="#888888"/>
</linearGradient>
<linearGradient id="paint3_linear_41743_63252" x1="11.0434" y1="8.49902" x2="24.6299" y2="25.8827" gradientUnits="userSpaceOnUse">
<stop stop-color="#4BA446"/>
<stop offset="1" stop-color="#3F7D35"/>
</linearGradient>
<linearGradient id="paint4_linear_41743_63252" x1="11.0434" y1="8.49902" x2="24.6299" y2="25.8827" gradientUnits="userSpaceOnUse">
<stop stop-color="#4BA446"/>
<stop offset="1" stop-color="#3F7D35"/>
</linearGradient>
<linearGradient id="paint5_linear_41743_63252" x1="11.0434" y1="8.49902" x2="24.6299" y2="25.8827" gradientUnits="userSpaceOnUse">
<stop stop-color="#4BA446"/>
<stop offset="1" stop-color="#3F7D35"/>
</linearGradient>
</defs>
</svg>
