<svg width="32" height="32" viewBox="0 0 32 32" fill="none" xmlns="http://www.w3.org/2000/svg">
<path d="M27 7.5C27 5.567 25.433 4 23.5 4H10.5C8.567 4 7 5.567 7 7.5V26.5C7 28.433 8.567 30 10.5 30H22C24.7614 30 27 27.7614 27 25V7.5Z" fill="url(#paint0_linear_41743_63212)"/>
<path d="M26 7.5C26 6.11929 24.8807 5 23.5 5H10.5C9.11929 5 8 6.11929 8 7.5V26.5C8 27.8807 9.11929 29 10.5 29H21.75C24.0972 29 26 27.0972 26 24.75V7.5Z" fill="url(#paint1_linear_41743_63212)"/>
<path d="M26 7.5C26 6.11929 24.8807 5 23.5 5H10.5C9.11929 5 8 6.11929 8 7.5V26.5C8 27.8807 9.11929 29 10.5 29H21.75C24.0972 29 26 27.0972 26 24.75V7.5Z" fill="url(#paint2_radial_41743_63212)" fill-opacity="0.2"/>
<rect width="20" height="26" rx="3.5" transform="matrix(-1 0 0 1 25 2)" fill="url(#paint3_linear_41743_63212)"/>
<rect width="18" height="24" rx="2.5" transform="matrix(-1 0 0 1 24 3)" fill="url(#paint4_linear_41743_63212)"/>
<rect width="18" height="24" rx="2.5" transform="matrix(-1 0 0 1 24 3)" fill="url(#paint5_radial_41743_63212)" fill-opacity="0.2"/>
<path d="M10 8C9.44772 8 9 8.44772 9 9V12C9 12.5523 9.44772 13 10 13H13C13.5523 13 14 12.5523 14 12V9C14 8.44772 13.5523 8 13 8H10Z" fill="url(#paint6_linear_41743_63212)"/>
<path d="M16.5 9C16.2239 9 16 9.22386 16 9.5C16 9.77614 16.2239 10 16.5 10H20.5C20.7761 10 21 9.77614 21 9.5C21 9.22386 20.7761 9 20.5 9H16.5Z" fill="url(#paint7_linear_41743_63212)"/>
<path d="M16.5 12C16.2239 12 16 12.2239 16 12.5C16 12.7761 16.2239 13 16.5 13H20.5C20.7761 13 21 12.7761 21 12.5C21 12.2239 20.7761 12 20.5 12H16.5Z" fill="url(#paint8_linear_41743_63212)"/>
<path d="M9 15.5C9 15.2239 9.22386 15 9.5 15H20.5C20.7761 15 21 15.2239 21 15.5C21 15.7761 20.7761 16 20.5 16H9.5C9.22386 16 9 15.7761 9 15.5Z" fill="url(#paint9_linear_41743_63212)"/>
<path d="M9.5 18C9.22386 18 9 18.2239 9 18.5C9 18.7761 9.22386 19 9.5 19H20.5C20.7761 19 21 18.7761 21 18.5C21 18.2239 20.7761 18 20.5 18H9.5Z" fill="url(#paint10_linear_41743_63212)"/>
<path d="M9 21.5C9 21.2239 9.22386 21 9.5 21H20.5C20.7761 21 21 21.2239 21 21.5C21 21.7761 20.7761 22 20.5 22H9.5C9.22386 22 9 21.7761 9 21.5Z" fill="url(#paint11_linear_41743_63212)"/>
<defs>
<linearGradient id="paint0_linear_41743_63212" x1="20.5417" y1="4" x2="16.0449" y2="29.9428" gradientUnits="userSpaceOnUse">
<stop stop-color="#BBBBBB"/>
<stop offset="1" stop-color="#888888"/>
</linearGradient>
<linearGradient id="paint1_linear_41743_63212" x1="21" y1="5" x2="17" y2="29" gradientUnits="userSpaceOnUse">
<stop stop-color="white"/>
<stop offset="1" stop-color="#EBEBEB"/>
</linearGradient>
<radialGradient id="paint2_radial_41743_63212" cx="0" cy="0" r="1" gradientUnits="userSpaceOnUse" gradientTransform="translate(20.25 11.25) rotate(116.565) scale(21.2426 15.932)">
<stop offset="0.177083" stop-color="white"/>
<stop offset="1" stop-color="#B8B8B8"/>
</radialGradient>
<linearGradient id="paint3_linear_41743_63212" x1="6.45833" y1="-9.68575e-08" x2="10.9551" y2="25.9428" gradientUnits="userSpaceOnUse">
<stop stop-color="#BBBBBB"/>
<stop offset="1" stop-color="#888888"/>
</linearGradient>
<linearGradient id="paint4_linear_41743_63212" x1="5" y1="-8.9407e-08" x2="9" y2="24" gradientUnits="userSpaceOnUse">
<stop stop-color="white"/>
<stop offset="1" stop-color="#EBEBEB"/>
</linearGradient>
<radialGradient id="paint5_radial_41743_63212" cx="0" cy="0" r="1" gradientUnits="userSpaceOnUse" gradientTransform="translate(5.75 6.25) rotate(63.4349) scale(21.2426 15.932)">
<stop offset="0.177083" stop-color="white"/>
<stop offset="1" stop-color="#B8B8B8"/>
</radialGradient>
<linearGradient id="paint6_linear_41743_63212" x1="9" y1="8" x2="22.8353" y2="19.8588" gradientUnits="userSpaceOnUse">
<stop stop-color="#C28400"/>
<stop offset="1" stop-color="#A86500"/>
</linearGradient>
<linearGradient id="paint7_linear_41743_63212" x1="9" y1="8" x2="22.8353" y2="19.8588" gradientUnits="userSpaceOnUse">
<stop stop-color="#C28400"/>
<stop offset="1" stop-color="#A86500"/>
</linearGradient>
<linearGradient id="paint8_linear_41743_63212" x1="9" y1="8" x2="22.8353" y2="19.8588" gradientUnits="userSpaceOnUse">
<stop stop-color="#C28400"/>
<stop offset="1" stop-color="#A86500"/>
</linearGradient>
<linearGradient id="paint9_linear_41743_63212" x1="9" y1="8" x2="22.8353" y2="19.8588" gradientUnits="userSpaceOnUse">
<stop stop-color="#C28400"/>
<stop offset="1" stop-color="#A86500"/>
</linearGradient>
<linearGradient id="paint10_linear_41743_63212" x1="9" y1="8" x2="22.8353" y2="19.8588" gradientUnits="userSpaceOnUse">
<stop stop-color="#C28400"/>
<stop offset="1" stop-color="#A86500"/>
</linearGradient>
<linearGradient id="paint11_linear_41743_63212" x1="9" y1="8" x2="22.8353" y2="19.8588" gradientUnits="userSpaceOnUse">
<stop stop-color="#C28400"/>
<stop offset="1" stop-color="#A86500"/>
</linearGradient>
</defs>
</svg>
