<svg width="48" height="48" viewBox="0 0 48 48" fill="none" xmlns="http://www.w3.org/2000/svg">
<path d="M5 10C5 7.23858 7.23858 5 10 5H38C40.7614 5 43 7.23858 43 10V38C43 40.7614 40.7614 43 38 43H10C7.23858 43 5 40.7614 5 38V10Z" fill="url(#paint0_linear_41743_63186)"/>
<path d="M5 10C5 7.23858 7.23858 5 10 5H38C40.7614 5 43 7.23858 43 10V38C43 40.7614 40.7614 43 38 43H10C7.23858 43 5 40.7614 5 38V10Z" fill="url(#paint1_radial_41743_63186)" fill-opacity="0.2"/>
<path fill-rule="evenodd" clip-rule="evenodd" d="M38 6H10C7.79086 6 6 7.79086 6 10V38C6 40.2091 7.79086 42 10 42H38C40.2091 42 42 40.2091 42 38V10C42 7.79086 40.2091 6 38 6ZM10 5C7.23858 5 5 7.23858 5 10V38C5 40.7614 7.23858 43 10 43H38C40.7614 43 43 40.7614 43 38V10C43 7.23858 40.7614 5 38 5H10Z" fill="url(#paint2_linear_41743_63186)"/>
<path fill-rule="evenodd" clip-rule="evenodd" d="M15.5 16C14.6716 16 14 16.6716 14 17.5V30.5C14 31.3284 14.6716 32 15.5 32C16.3284 32 17 31.3284 17 30.5V28.5H31V30.5C31 31.3284 31.6716 32 32.5 32C33.3284 32 34 31.3284 34 30.5V17.5C34 16.6716 33.3284 16 32.5 16C31.6716 16 31 16.6716 31 17.5V19.5H17V17.5C17 16.6716 16.3284 16 15.5 16ZM16 30.5V17.5C16 17.2239 15.7761 17 15.5 17C15.2239 17 15 17.2239 15 17.5V30.5C15 30.7761 15.2239 31 15.5 31C15.7761 31 16 30.7761 16 30.5ZM33 17.5V30.5C33 30.7761 32.7761 31 32.5 31C32.2239 31 32 30.7761 32 30.5V17.5C32 17.2239 32.2239 17 32.5 17C32.7761 17 33 17.2239 33 17.5Z" fill="url(#paint3_linear_41743_63186)"/>
<defs>
<linearGradient id="paint0_linear_41743_63186" x1="15.5556" y1="5" x2="20.3624" y2="43.4547" gradientUnits="userSpaceOnUse">
<stop stop-color="white"/>
<stop offset="1" stop-color="#EBEBEB"/>
</linearGradient>
<radialGradient id="paint1_radial_41743_63186" cx="0" cy="0" r="1" gradientUnits="userSpaceOnUse" gradientTransform="translate(17.1389 14.8958) rotate(56.3099) scale(36.1557 31.2886)">
<stop offset="0.177083" stop-color="white"/>
<stop offset="1" stop-color="#B8B8B8"/>
</radialGradient>
<linearGradient id="paint2_linear_41743_63186" x1="17.2708" y1="5" x2="22.3873" y2="43.3734" gradientUnits="userSpaceOnUse">
<stop stop-color="#BBBBBB"/>
<stop offset="1" stop-color="#888888"/>
</linearGradient>
<linearGradient id="paint3_linear_41743_63186" x1="14" y1="16" x2="29.6098" y2="35.5122" gradientUnits="userSpaceOnUse">
<stop stop-color="#4BA446"/>
<stop offset="1" stop-color="#3F7D35"/>
</linearGradient>
</defs>
</svg>
