<svg width="40" height="40" viewBox="0 0 40 40" fill="none" xmlns="http://www.w3.org/2000/svg">
<path d="M4 8C4 5.79086 5.79086 4 8 4H32C34.2091 4 36 5.79086 36 8V32C36 34.2091 34.2091 36 32 36H8C5.79086 36 4 34.2091 4 32V8Z" fill="url(#paint0_linear_41743_63198)"/>
<path d="M4 8C4 5.79086 5.79086 4 8 4H32C34.2091 4 36 5.79086 36 8V32C36 34.2091 34.2091 36 32 36H8C5.79086 36 4 34.2091 4 32V8Z" fill="url(#paint1_radial_41743_63198)" fill-opacity="0.2"/>
<path fill-rule="evenodd" clip-rule="evenodd" d="M32 5H8C6.34315 5 5 6.34315 5 8V32C5 33.6569 6.34315 35 8 35H32C33.6569 35 35 33.6569 35 32V8C35 6.34315 33.6569 5 32 5ZM8 4C5.79086 4 4 5.79086 4 8V32C4 34.2091 5.79086 36 8 36H32C34.2091 36 36 34.2091 36 32V8C36 5.79086 34.2091 4 32 4H8Z" fill="url(#paint2_linear_41743_63198)"/>
<path fill-rule="evenodd" clip-rule="evenodd" d="M12.5 13C11.6716 13 11 13.6716 11 14.5V25.5C11 26.3284 11.6716 27 12.5 27C13.3284 27 14 26.3284 14 25.5V24H26V25.5C26 26.3284 26.6716 27 27.5 27C28.3284 27 29 26.3284 29 25.5V14.5C29 13.6716 28.3284 13 27.5 13C26.6716 13 26 13.6716 26 14.5V16H14V14.5C14 13.6716 13.3284 13 12.5 13ZM13 25.5V14.5C13 14.2239 12.7761 14 12.5 14C12.2239 14 12 14.2239 12 14.5V25.5C12 25.7761 12.2239 26 12.5 26C12.7761 26 13 25.7761 13 25.5ZM28 14.5V25.5C28 25.7761 27.7761 26 27.5 26C27.2239 26 27 25.7761 27 25.5V14.5C27 14.2239 27.2239 14 27.5 14C27.7761 14 28 14.2239 28 14.5Z" fill="url(#paint3_linear_41743_63198)"/>
<defs>
<linearGradient id="paint0_linear_41743_63198" x1="12.8889" y1="4" x2="16.9368" y2="36.3829" gradientUnits="userSpaceOnUse">
<stop stop-color="white"/>
<stop offset="1" stop-color="#EBEBEB"/>
</linearGradient>
<radialGradient id="paint1_radial_41743_63198" cx="0" cy="0" r="1" gradientUnits="userSpaceOnUse" gradientTransform="translate(14.2222 12.3333) rotate(56.3099) scale(30.4469 26.3483)">
<stop offset="0.177083" stop-color="white"/>
<stop offset="1" stop-color="#B8B8B8"/>
</radialGradient>
<linearGradient id="paint2_linear_41743_63198" x1="14.3333" y1="4" x2="18.6419" y2="36.3144" gradientUnits="userSpaceOnUse">
<stop stop-color="#BBBBBB"/>
<stop offset="1" stop-color="#888888"/>
</linearGradient>
<linearGradient id="paint3_linear_41743_63198" x1="11" y1="13" x2="24.5692" y2="30.4462" gradientUnits="userSpaceOnUse">
<stop stop-color="#4BA446"/>
<stop offset="1" stop-color="#3F7D35"/>
</linearGradient>
</defs>
</svg>
