<svg width="32" height="32" viewBox="0 0 32 32" fill="none" xmlns="http://www.w3.org/2000/svg">
<path d="M3 6.5C3 4.567 4.567 3 6.5 3H25.5C27.433 3 29 4.567 29 6.5V25.5C29 27.433 27.433 29 25.5 29H6.5C4.567 29 3 27.433 3 25.5V6.5Z" fill="url(#paint0_linear_41743_63190)"/>
<path d="M3 6.5C3 4.567 4.567 3 6.5 3H25.5C27.433 3 29 4.567 29 6.5V25.5C29 27.433 27.433 29 25.5 29H6.5C4.567 29 3 27.433 3 25.5V6.5Z" fill="url(#paint1_radial_41743_63190)" fill-opacity="0.2"/>
<path fill-rule="evenodd" clip-rule="evenodd" d="M25.5 4H6.5C5.11929 4 4 5.11929 4 6.5V25.5C4 26.8807 5.11929 28 6.5 28H25.5C26.8807 28 28 26.8807 28 25.5V6.5C28 5.11929 26.8807 4 25.5 4ZM6.5 3C4.567 3 3 4.567 3 6.5V25.5C3 27.433 4.567 29 6.5 29H25.5C27.433 29 29 27.433 29 25.5V6.5C29 4.567 27.433 3 25.5 3H6.5Z" fill="url(#paint2_linear_41743_63190)"/>
<path fill-rule="evenodd" clip-rule="evenodd" d="M9.5 9.5C8.67157 9.5 8 10.1716 8 11V21C8 21.8284 8.67157 22.5 9.5 22.5C10.3284 22.5 11 21.8284 11 21V20H21V21C21 21.8284 21.6716 22.5 22.5 22.5C23.3284 22.5 24 21.8284 24 21V11C24 10.1716 23.3284 9.5 22.5 9.5C21.6716 9.5 21 10.1716 21 11V12H11V11C11 10.1716 10.3284 9.5 9.5 9.5ZM10 21V11C10 10.7239 9.77614 10.5 9.5 10.5C9.22386 10.5 9 10.7239 9 11V21C9 21.2761 9.22386 21.5 9.5 21.5C9.77614 21.5 10 21.2761 10 21ZM23 11V21C23 21.2761 22.7761 21.5 22.5 21.5C22.2239 21.5 22 21.2761 22 21V11C22 10.7239 22.2239 10.5 22.5 10.5C22.7761 10.5 23 10.7239 23 11Z" fill="url(#paint3_linear_41743_63190)"/>
<defs>
<linearGradient id="paint0_linear_41743_63190" x1="10.2222" y1="3" x2="13.5111" y2="29.3111" gradientUnits="userSpaceOnUse">
<stop stop-color="white"/>
<stop offset="1" stop-color="#EBEBEB"/>
</linearGradient>
<radialGradient id="paint1_radial_41743_63190" cx="0" cy="0" r="1" gradientUnits="userSpaceOnUse" gradientTransform="translate(11.3056 9.77083) rotate(56.3099) scale(24.7381 21.408)">
<stop offset="0.177083" stop-color="white"/>
<stop offset="1" stop-color="#B8B8B8"/>
</radialGradient>
<linearGradient id="paint2_linear_41743_63190" x1="11.3958" y1="3" x2="14.8966" y2="29.2555" gradientUnits="userSpaceOnUse">
<stop stop-color="#BBBBBB"/>
<stop offset="1" stop-color="#888888"/>
</linearGradient>
<linearGradient id="paint3_linear_41743_63190" x1="8" y1="9.5" x2="20.7247" y2="25.1612" gradientUnits="userSpaceOnUse">
<stop stop-color="#4BA446"/>
<stop offset="1" stop-color="#3F7D35"/>
</linearGradient>
</defs>
</svg>
