<svg width="32" height="32" viewBox="0 0 32 32" fill="none" xmlns="http://www.w3.org/2000/svg">
<path d="M3 6.5C3 4.567 4.567 3 6.5 3H25.5C27.433 3 29 4.567 29 6.5V25.5C29 27.433 27.433 29 25.5 29H6.5C4.567 29 3 27.433 3 25.5V6.5Z" fill="url(#paint0_linear_41743_63132)"/>
<path d="M3 6.5C3 4.567 4.567 3 6.5 3H25.5C27.433 3 29 4.567 29 6.5V25.5C29 27.433 27.433 29 25.5 29H6.5C4.567 29 3 27.433 3 25.5V6.5Z" fill="url(#paint1_radial_41743_63132)" fill-opacity="0.2"/>
<path fill-rule="evenodd" clip-rule="evenodd" d="M25.5 4H6.5C5.11929 4 4 5.11929 4 6.5V25.5C4 26.8807 5.11929 28 6.5 28H25.5C26.8807 28 28 26.8807 28 25.5V6.5C28 5.11929 26.8807 4 25.5 4ZM6.5 3C4.567 3 3 4.567 3 6.5V25.5C3 27.433 4.567 29 6.5 29H25.5C27.433 29 29 27.433 29 25.5V6.5C29 4.567 27.433 3 25.5 3H6.5Z" fill="url(#paint2_linear_41743_63132)"/>
<circle cx="15.9062" cy="16" r="8" fill="url(#paint3_linear_41743_63132)"/>
<path d="M20.0852 11.8192C19.9034 11.664 19.6371 11.6591 19.4498 11.8077L19.2734 11.9479C19.1611 12.0372 19.0002 12.1653 18.8061 12.3204C18.418 12.6304 17.8965 13.0482 17.3635 13.4794C16.831 13.9103 16.2854 14.3558 15.8497 14.7205C15.6321 14.9027 15.4397 15.0666 15.2893 15.1993C15.1494 15.3227 15.0183 15.4428 14.9463 15.5271C14.4083 16.1571 14.4829 17.1039 15.1129 17.6418C15.7429 18.1798 16.6897 18.1052 17.2277 17.4752C17.2997 17.3909 17.3977 17.2427 17.4977 17.0852C17.6052 16.9158 17.7369 16.7002 17.8828 16.4567C18.1749 15.9693 18.5294 15.3607 18.8716 14.7673C19.2141 14.1734 19.5451 13.5929 19.7905 13.161C19.9132 12.945 20.0146 12.7661 20.0852 12.6411L20.1961 12.445C20.3135 12.2367 20.267 11.9745 20.0852 11.8192Z" fill="#F5BCD8"/>
<path d="M12.4645 12.4645C13.9113 11.0177 16.0251 10.6422 17.8185 11.341C18.0758 11.4412 18.3656 11.3139 18.4659 11.0566C18.5661 10.7993 18.4388 10.5094 18.1815 10.4092C16.0318 9.57154 13.4948 10.02 11.7574 11.7575C9.41422 14.1006 9.41422 17.8995 11.7574 20.2427C11.9526 20.438 12.2692 20.438 12.4645 20.2427C12.6597 20.0474 12.6597 19.7308 12.4645 19.5355C10.5118 17.583 10.5118 14.4171 12.4645 12.4645Z" fill="#F5BCD8"/>
<path fill-rule="evenodd" clip-rule="evenodd" d="M21.5183 29.8637C21.5183 30.2615 21.6765 30.6431 21.9578 30.9244C22.239 31.2057 22.6206 31.3637 23.0183 31.3637C23.4163 31.3637 23.7979 31.2057 24.0791 30.9244L24.7026 30.3009C24.7231 30.6682 24.8782 31.0163 25.1396 31.2777C25.4209 31.559 25.8022 31.7171 26.2002 31.7171C26.5981 31.7171 26.9795 31.559 27.2607 31.2777L28.675 29.8635C28.8088 29.7297 28.9148 29.5733 28.989 29.4032L29.4395 29.8536C30.3845 30.7986 32 30.1293 32 28.7929V22.5C32 21.6716 31.3286 21 30.5 21L24.2073 21.0001C22.8708 21.0001 22.2017 22.6158 23.1465 23.5607L23.4785 23.8927C23.3086 23.967 23.1523 24.0729 23.0186 24.2065L21.6045 25.6208C21.323 25.9021 21.165 26.2836 21.165 26.6814C21.165 27.0793 21.323 27.4608 21.6045 27.7421C21.866 28.0037 22.2144 28.1587 22.5818 28.1791L21.9578 28.803C21.6765 29.0844 21.5183 29.4659 21.5183 29.8637Z" fill="#F5F5F5"/>
<path d="M31.0001 22.5C31.0001 22.2239 30.7762 22 30.5001 22L24.2072 22.0001C23.7618 22.0001 23.5387 22.5386 23.8537 22.8536L30.1466 29.1465C30.4615 29.4615 31.0001 29.2384 31.0001 28.7929L31.0001 22.5Z" fill="url(#paint4_linear_41743_63132)"/>
<path d="M24.5793 25.2672C24.5793 25.1346 24.5266 25.0074 24.4328 24.9137C24.339 24.8199 24.2119 24.7672 24.0793 24.7672C23.9466 24.7672 23.8195 24.8199 23.7257 24.9137L22.3115 26.3279C22.2177 26.4216 22.165 26.5488 22.165 26.6814C22.165 26.814 22.2177 26.9412 22.3115 27.035C22.4053 27.1287 22.5324 27.1814 22.665 27.1814C22.7976 27.1814 22.9248 27.1287 23.0186 27.035L24.4328 25.6208C24.5266 25.527 24.5793 25.3998 24.5793 25.2672Z" fill="url(#paint5_linear_41743_63132)"/>
<path d="M26.3468 27.0353C26.3468 26.9027 26.2942 26.7755 26.2004 26.6817C26.1066 26.588 25.9794 26.5353 25.8468 26.5353C25.7142 26.5353 25.587 26.588 25.4933 26.6817L22.6649 29.5102C22.5711 29.6039 22.5184 29.7311 22.5184 29.8637C22.5184 29.9963 22.5711 30.1235 22.6649 30.2173C22.7586 30.311 22.8858 30.3637 23.0184 30.3637C23.151 30.3637 23.2782 30.311 23.372 30.2173L26.2004 27.3888C26.2942 27.2951 26.3468 27.1679 26.3468 27.0353Z" fill="url(#paint6_linear_41743_63132)"/>
<path d="M27.968 29.1564C28.0617 29.0626 28.1144 28.9355 28.1144 28.8029C28.1144 28.6703 28.0617 28.5431 27.968 28.4493C27.8742 28.3555 27.747 28.3029 27.6144 28.3029C27.4818 28.3029 27.3546 28.3555 27.2609 28.4493L25.8466 29.8635C25.7529 29.9573 25.7002 30.0845 25.7002 30.2171C25.7002 30.3497 25.7529 30.4769 25.8466 30.5706C25.9404 30.6644 26.0676 30.7171 26.2002 30.7171C26.3328 30.7171 26.46 30.6644 26.5537 30.5706L27.968 29.1564Z" fill="url(#paint7_linear_41743_63132)"/>
<defs>
<linearGradient id="paint0_linear_41743_63132" x1="10.2222" y1="3" x2="13.5111" y2="29.3111" gradientUnits="userSpaceOnUse">
<stop stop-color="white"/>
<stop offset="1" stop-color="#EBEBEB"/>
</linearGradient>
<radialGradient id="paint1_radial_41743_63132" cx="0" cy="0" r="1" gradientUnits="userSpaceOnUse" gradientTransform="translate(11.3056 9.77083) rotate(56.3099) scale(24.7381 21.408)">
<stop offset="0.177083" stop-color="white"/>
<stop offset="1" stop-color="#B8B8B8"/>
</radialGradient>
<linearGradient id="paint2_linear_41743_63132" x1="11.3958" y1="3" x2="14.8966" y2="29.2555" gradientUnits="userSpaceOnUse">
<stop stop-color="#BBBBBB"/>
<stop offset="1" stop-color="#888888"/>
</linearGradient>
<linearGradient id="paint3_linear_41743_63132" x1="7.90625" y1="8" x2="23.9062" y2="24" gradientUnits="userSpaceOnUse">
<stop stop-color="#E03F8F"/>
<stop offset="1" stop-color="#BD1E7B"/>
</linearGradient>
<linearGradient id="paint4_linear_41743_63132" x1="22.165" y1="22" x2="30.8813" y2="30.8343" gradientUnits="userSpaceOnUse">
<stop stop-color="#E03F8F"/>
<stop offset="1" stop-color="#BD1E7B"/>
</linearGradient>
<linearGradient id="paint5_linear_41743_63132" x1="22.165" y1="22" x2="30.8813" y2="30.8343" gradientUnits="userSpaceOnUse">
<stop stop-color="#E03F8F"/>
<stop offset="1" stop-color="#BD1E7B"/>
</linearGradient>
<linearGradient id="paint6_linear_41743_63132" x1="22.165" y1="22" x2="30.8813" y2="30.8343" gradientUnits="userSpaceOnUse">
<stop stop-color="#E03F8F"/>
<stop offset="1" stop-color="#BD1E7B"/>
</linearGradient>
<linearGradient id="paint7_linear_41743_63132" x1="22.165" y1="22" x2="30.8813" y2="30.8343" gradientUnits="userSpaceOnUse">
<stop stop-color="#E03F8F"/>
<stop offset="1" stop-color="#BD1E7B"/>
</linearGradient>
</defs>
</svg>
