<svg width="40" height="40" viewBox="0 0 40 40" fill="none" xmlns="http://www.w3.org/2000/svg">
<path d="M4 8C4 5.79086 5.79086 4 8 4H32C34.2091 4 36 5.79086 36 8V32C36 34.2091 34.2091 36 32 36H8C5.79086 36 4 34.2091 4 32V8Z" fill="url(#paint0_linear_41743_63170)"/>
<path d="M4 8C4 5.79086 5.79086 4 8 4H32C34.2091 4 36 5.79086 36 8V32C36 34.2091 34.2091 36 32 36H8C5.79086 36 4 34.2091 4 32V8Z" fill="url(#paint1_radial_41743_63170)" fill-opacity="0.2"/>
<path fill-rule="evenodd" clip-rule="evenodd" d="M32 5H8C6.34315 5 5 6.34315 5 8V32C5 33.6569 6.34315 35 8 35H32C33.6569 35 35 33.6569 35 32V8C35 6.34315 33.6569 5 32 5ZM8 4C5.79086 4 4 5.79086 4 8V32C4 34.2091 5.79086 36 8 36H32C34.2091 36 36 34.2091 36 32V8C36 5.79086 34.2091 4 32 4H8Z" fill="url(#paint2_linear_41743_63170)"/>
<circle cx="20" cy="20" r="10" fill="url(#paint3_linear_41743_63170)"/>
<path fill-rule="evenodd" clip-rule="evenodd" d="M20 14C16.6863 14 14 16.6863 14 20C14 21.2966 14.4107 22.4959 15.1092 23.4766C15.2694 23.7015 15.217 24.0137 14.9921 24.1739C14.7671 24.3341 14.4549 24.2817 14.2947 24.0567C13.4795 22.9122 13 21.5114 13 20C13 16.134 16.134 13 20 13C20.9644 13 21.8844 13.1953 22.7218 13.549C22.9761 13.6564 23.0952 13.9498 22.9878 14.2041C22.8804 14.4585 22.587 14.5776 22.3327 14.4702C21.6162 14.1676 20.8283 14 20 14Z" fill="#F5BCD8"/>
<path d="M25.2682 14.7755C25.0279 14.5703 24.6759 14.5639 24.4283 14.7603L24.1951 14.9456C24.0466 15.0637 23.834 15.2331 23.5774 15.438C23.0643 15.8478 22.3749 16.4002 21.6704 16.9702C20.9664 17.5397 20.2452 18.1286 19.6692 18.6108C19.3815 18.8517 19.1272 19.0683 18.9284 19.2437C18.7435 19.4068 18.5702 19.5656 18.475 19.677C17.7639 20.5098 17.8625 21.7614 18.6953 22.4726C19.528 23.1837 20.7797 23.0851 21.4908 22.2523C21.586 22.1409 21.7156 21.9449 21.8478 21.7367C21.9899 21.5129 22.164 21.2278 22.3569 20.906C22.7429 20.2616 23.2116 19.4571 23.664 18.6726C24.1166 17.8876 24.5543 17.1202 24.8787 16.5492C25.0409 16.2637 25.1749 16.0272 25.2683 15.862L25.4148 15.6027C25.57 15.3274 25.5086 14.9808 25.2682 14.7755Z" fill="#F5BCD8"/>
<path fill-rule="evenodd" clip-rule="evenodd" d="M27.156 36.6644C26.5702 37.2502 26.5702 38.1999 27.156 38.7857C27.7418 39.3715 28.6915 39.3715 29.2773 38.7857L29.9007 38.1622C29.9204 38.5179 30.0661 38.8679 30.3378 39.1395C30.9236 39.7253 31.8733 39.7253 32.4591 39.1395L34.5804 37.0182C34.8066 36.792 34.9455 36.5115 34.997 36.2187L36.4531 37.6384C37.4034 38.5649 39.0003 37.8916 39.0003 36.5644L39.0003 28.5C39.0003 27.6716 38.3287 27 37.5002 27L29.2292 27.0002C27.8837 27.0002 27.2187 28.6348 28.1821 29.5742L29.6123 30.9686C29.3601 31.033 29.1213 31.1639 28.9239 31.3613L26.8026 33.4826C26.2168 34.0684 26.2168 35.0181 26.8026 35.6039C27.0742 35.8755 27.424 36.0211 27.7794 36.0409L27.156 36.6644Z" fill="#F5F5F5"/>
<path d="M38 28.5C38 28.2238 37.7761 28 37.4999 28L29.2289 28.0001C28.7804 28.0001 28.5587 28.545 28.8798 28.8581L37.1509 36.9223C37.4677 37.2312 38 37.0067 38 36.5643L38 28.5Z" fill="url(#paint4_linear_41743_63170)"/>
<path d="M32.1054 34.543C32.3007 34.3477 32.3007 34.0312 32.1054 33.8359C31.9102 33.6406 31.5936 33.6406 31.3983 33.8359L27.8628 37.3714C27.6675 37.5667 27.6675 37.8833 27.8628 38.0785C28.058 38.2738 28.3746 38.2738 28.5699 38.0785L32.1054 34.543Z" fill="url(#paint5_linear_41743_63170)"/>
<path d="M27.5094 34.1896L29.6307 32.0683C29.826 31.8731 30.1426 31.8731 30.3378 32.0683C30.5331 32.2636 30.5331 32.5802 30.3378 32.7754L28.2165 34.8967C28.0213 35.092 27.7047 35.092 27.5094 34.8967C27.3142 34.7015 27.3142 34.3849 27.5094 34.1896Z" fill="url(#paint6_linear_41743_63170)"/>
<path d="M33.1659 35.604L31.0446 37.7253C30.8493 37.9205 30.8493 38.2371 31.0446 38.4324C31.2398 38.6277 31.5564 38.6277 31.7517 38.4324L33.873 36.3111C34.0683 36.1158 34.0683 35.7992 33.873 35.604C33.6777 35.4087 33.3612 35.4087 33.1659 35.604Z" fill="url(#paint7_linear_41743_63170)"/>
<defs>
<linearGradient id="paint0_linear_41743_63170" x1="12.8889" y1="4" x2="16.9368" y2="36.3829" gradientUnits="userSpaceOnUse">
<stop stop-color="white"/>
<stop offset="1" stop-color="#EBEBEB"/>
</linearGradient>
<radialGradient id="paint1_radial_41743_63170" cx="0" cy="0" r="1" gradientUnits="userSpaceOnUse" gradientTransform="translate(14.2222 12.3333) rotate(56.3099) scale(30.4469 26.3483)">
<stop offset="0.177083" stop-color="white"/>
<stop offset="1" stop-color="#B8B8B8"/>
</radialGradient>
<linearGradient id="paint2_linear_41743_63170" x1="14.3333" y1="4" x2="18.6419" y2="36.3144" gradientUnits="userSpaceOnUse">
<stop stop-color="#BBBBBB"/>
<stop offset="1" stop-color="#888888"/>
</linearGradient>
<linearGradient id="paint3_linear_41743_63170" x1="10" y1="10" x2="30" y2="30" gradientUnits="userSpaceOnUse">
<stop stop-color="#E03F8F"/>
<stop offset="1" stop-color="#BD1E7B"/>
</linearGradient>
<linearGradient id="paint4_linear_41743_63170" x1="27.363" y1="28" x2="37.9417" y2="38.6368" gradientUnits="userSpaceOnUse">
<stop stop-color="#E03F8F"/>
<stop offset="1" stop-color="#BD1E7B"/>
</linearGradient>
<linearGradient id="paint5_linear_41743_63170" x1="27.363" y1="28" x2="37.9417" y2="38.6368" gradientUnits="userSpaceOnUse">
<stop stop-color="#E03F8F"/>
<stop offset="1" stop-color="#BD1E7B"/>
</linearGradient>
<linearGradient id="paint6_linear_41743_63170" x1="27.363" y1="28" x2="37.9417" y2="38.6368" gradientUnits="userSpaceOnUse">
<stop stop-color="#E03F8F"/>
<stop offset="1" stop-color="#BD1E7B"/>
</linearGradient>
<linearGradient id="paint7_linear_41743_63170" x1="27.363" y1="28" x2="37.9417" y2="38.6368" gradientUnits="userSpaceOnUse">
<stop stop-color="#E03F8F"/>
<stop offset="1" stop-color="#BD1E7B"/>
</linearGradient>
</defs>
</svg>
