<svg width="32" height="32" viewBox="0 0 32 32" fill="none" xmlns="http://www.w3.org/2000/svg">
<path d="M3 6.5C3 4.567 4.567 3 6.5 3H25.5C27.433 3 29 4.567 29 6.5V25.5C29 27.433 27.433 29 25.5 29H6.5C4.567 29 3 27.433 3 25.5V6.5Z" fill="url(#paint0_linear_41743_63079)"/>
<path d="M3 6.5C3 4.567 4.567 3 6.5 3H25.5C27.433 3 29 4.567 29 6.5V25.5C29 27.433 27.433 29 25.5 29H6.5C4.567 29 3 27.433 3 25.5V6.5Z" fill="url(#paint1_radial_41743_63079)" fill-opacity="0.2"/>
<path fill-rule="evenodd" clip-rule="evenodd" d="M25.5 4H6.5C5.11929 4 4 5.11929 4 6.5V25.5C4 26.8807 5.11929 28 6.5 28H25.5C26.8807 28 28 26.8807 28 25.5V6.5C28 5.11929 26.8807 4 25.5 4ZM6.5 3C4.567 3 3 4.567 3 6.5V25.5C3 27.433 4.567 29 6.5 29H25.5C27.433 29 29 27.433 29 25.5V6.5C29 4.567 27.433 3 25.5 3H6.5Z" fill="url(#paint2_linear_41743_63079)"/>
<path d="M12 11L11.4971 11C10.6686 11 9.99707 11.6716 9.99707 12.5V13.5C9.99707 14.7519 10.9191 15.7876 12.1187 15.9711C12.5134 17.5538 13.8508 18.7634 15.5 18.9691V20H14C12.8954 20 12 20.8954 12 22V22.5035C12 22.7796 12.2239 23.0035 12.5 23.0035H19.5C19.7761 23.0035 20 22.7796 20 22.5035V22C20 20.8954 19.1046 20 18 20H16.5V18.9691C18.1492 18.7634 19.4867 17.5537 19.8813 15.971C21.0806 15.787 22 14.751 22 13.5V12.5C22 11.6716 21.3284 11 20.5 11H20C20 9.89543 19.1046 9 18 9H14C12.8954 9 12 9.89543 12 11ZM20 12H20.5C20.7761 12 21 12.2239 21 12.5V13.5C21 14.1527 20.5826 14.7083 20 14.9144V12ZM12 12V14.9148C11.416 14.7089 10.9971 14.1526 10.9971 13.5V12.5C10.9971 12.2239 11.2209 12 11.4971 12H12Z" fill="url(#paint3_linear_41743_63079)"/>
<defs>
<linearGradient id="paint0_linear_41743_63079" x1="10.2222" y1="3" x2="13.5111" y2="29.3111" gradientUnits="userSpaceOnUse">
<stop stop-color="white"/>
<stop offset="1" stop-color="#EBEBEB"/>
</linearGradient>
<radialGradient id="paint1_radial_41743_63079" cx="0" cy="0" r="1" gradientUnits="userSpaceOnUse" gradientTransform="translate(11.3056 9.77083) rotate(56.3099) scale(24.7381 21.408)">
<stop offset="0.177083" stop-color="white"/>
<stop offset="1" stop-color="#B8B8B8"/>
</radialGradient>
<linearGradient id="paint2_linear_41743_63079" x1="11.3958" y1="3" x2="14.8966" y2="29.2555" gradientUnits="userSpaceOnUse">
<stop stop-color="#BBBBBB"/>
<stop offset="1" stop-color="#888888"/>
</linearGradient>
<linearGradient id="paint3_linear_41743_63079" x1="9.99707" y1="9" x2="23.8358" y2="20.8617" gradientUnits="userSpaceOnUse">
<stop stop-color="#C28400"/>
<stop offset="1" stop-color="#A86500"/>
</linearGradient>
</defs>
</svg>
