<svg width="40" height="40" viewBox="0 0 40 40" fill="none" xmlns="http://www.w3.org/2000/svg">
<path d="M4 8C4 5.79086 5.79086 4 8 4H32C34.2091 4 36 5.79086 36 8V32C36 34.2091 34.2091 36 32 36H8C5.79086 36 4 34.2091 4 32V8Z" fill="url(#paint0_linear_41743_63100)"/>
<path d="M4 8C4 5.79086 5.79086 4 8 4H32C34.2091 4 36 5.79086 36 8V32C36 34.2091 34.2091 36 32 36H8C5.79086 36 4 34.2091 4 32V8Z" fill="url(#paint1_radial_41743_63100)" fill-opacity="0.2"/>
<path fill-rule="evenodd" clip-rule="evenodd" d="M32 5H8C6.34315 5 5 6.34315 5 8V32C5 33.6569 6.34315 35 8 35H32C33.6569 35 35 33.6569 35 32V8C35 6.34315 33.6569 5 32 5ZM8 4C5.79086 4 4 5.79086 4 8V32C4 34.2091 5.79086 36 8 36H32C34.2091 36 36 34.2091 36 32V8C36 5.79086 34.2091 4 32 4H8Z" fill="url(#paint2_linear_41743_63100)"/>
<path d="M15.5 14C15.501 12.8963 16.3961 12.0019 17.5 12.0019H22.5C23.6039 12.0019 24.499 12.8963 24.5 14H25.4954C26.3238 14 26.9954 14.6716 26.9954 15.5V17.0046C26.9954 18.5253 25.8622 19.7813 24.3942 19.9743C23.9841 21.8327 22.425 23.2597 20.5 23.4725V24.9683H22.5034C23.608 24.9683 24.5034 25.8638 24.5034 26.9683V27.4683C24.5034 27.7445 24.2796 27.9683 24.0034 27.9683H16.0034C15.7273 27.9683 15.5034 27.7445 15.5034 27.4683V26.9683C15.5034 25.8638 16.3988 24.9683 17.5034 24.9683H19.5V23.4725C17.5741 23.2596 16.0145 21.8314 15.6052 19.9718C14.137 19.7772 12.9954 18.5217 12.9954 16.998V15.5C12.9954 14.6716 13.6669 14 14.4954 14H15.5ZM24.5 18.9368C25.36 18.7149 25.9954 17.934 25.9954 17.0046V15.5C25.9954 15.2239 25.7715 15 25.4954 15H24.5V18.9368ZM15.5 15H14.4954C14.2192 15 13.9954 15.2239 13.9954 15.5V16.998C13.9954 17.9274 14.6359 18.7111 15.5 18.9343V15Z" fill="url(#paint3_linear_41743_63100)"/>
<defs>
<linearGradient id="paint0_linear_41743_63100" x1="12.8889" y1="4" x2="16.9368" y2="36.3829" gradientUnits="userSpaceOnUse">
<stop stop-color="white"/>
<stop offset="1" stop-color="#EBEBEB"/>
</linearGradient>
<radialGradient id="paint1_radial_41743_63100" cx="0" cy="0" r="1" gradientUnits="userSpaceOnUse" gradientTransform="translate(14.2222 12.3333) rotate(56.3099) scale(30.4469 26.3483)">
<stop offset="0.177083" stop-color="white"/>
<stop offset="1" stop-color="#B8B8B8"/>
</radialGradient>
<linearGradient id="paint2_linear_41743_63100" x1="14.3333" y1="4" x2="18.6419" y2="36.3144" gradientUnits="userSpaceOnUse">
<stop stop-color="#BBBBBB"/>
<stop offset="1" stop-color="#888888"/>
</linearGradient>
<linearGradient id="paint3_linear_41743_63100" x1="12.9954" y1="12.0019" x2="28.8249" y2="25.8818" gradientUnits="userSpaceOnUse">
<stop stop-color="#C28400"/>
<stop offset="1" stop-color="#A86500"/>
</linearGradient>
</defs>
</svg>
