<svg width="24" height="24" viewBox="0 0 24 24" fill="none" xmlns="http://www.w3.org/2000/svg">
<path d="M2 5C2 3.34315 3.34315 2 5 2H19C20.6569 2 22 3.34315 22 5V19C22 20.6569 20.6569 22 19 22H5C3.34315 22 2 20.6569 2 19V5Z" fill="url(#paint0_linear_41743_63083)"/>
<path d="M2 5C2 3.34315 3.34315 2 5 2H19C20.6569 2 22 3.34315 22 5V19C22 20.6569 20.6569 22 19 22H5C3.34315 22 2 20.6569 2 19V5Z" fill="url(#paint1_radial_41743_63083)" fill-opacity="0.2"/>
<path fill-rule="evenodd" clip-rule="evenodd" d="M19 3H5C3.89543 3 3 3.89543 3 5V19C3 20.1046 3.89543 21 5 21H19C20.1046 21 21 20.1046 21 19V5C21 3.89543 20.1046 3 19 3ZM5 2C3.34315 2 2 3.34315 2 5V19C2 20.6569 3.34315 22 5 22H19C20.6569 22 22 20.6569 22 19V5C22 3.34315 20.6569 2 19 2H5Z" fill="url(#paint2_linear_41743_63083)"/>
<path fill-rule="evenodd" clip-rule="evenodd" d="M7 9.5C7 10.7664 7.94158 11.8128 9.16284 11.9775C9.51571 13.0019 10.4078 13.7753 11.5 13.9585V14.4062V15V15.5H10.6C9.71634 15.5 9 16.2163 9 17.1C9 17.3209 9.17909 17.5 9.4 17.5H14.6C14.8209 17.5 15 17.3209 15 17.1C15 16.2163 14.2837 15.5 13.4 15.5H12.5V15V14.4062V13.9585C13.5922 13.7753 14.4843 13.0019 14.8372 11.9775C16.0584 11.8128 17 10.7664 17 9.5V8.5C17 7.67157 16.3284 7 15.5 7H14.9482C14.785 6.42287 14.2544 6 13.625 6H10.375C9.74561 6 9.21499 6.42287 9.05176 7H8.5C7.67157 7 7 7.67157 7 8.5V9.5ZM8.5 8H9V10.9146C8.4174 10.7087 8 10.1531 8 9.5V8.5C8 8.22386 8.22386 8 8.5 8ZM15 10.9146C15.5826 10.7087 16 10.1531 16 9.5V8.5C16 8.22386 15.7761 8 15.5 8H15V10.9146Z" fill="url(#paint3_linear_41743_63083)"/>
<defs>
<linearGradient id="paint0_linear_41743_63083" x1="7.55556" y1="2" x2="10.0855" y2="22.2393" gradientUnits="userSpaceOnUse">
<stop stop-color="white"/>
<stop offset="1" stop-color="#EBEBEB"/>
</linearGradient>
<radialGradient id="paint1_radial_41743_63083" cx="0" cy="0" r="1" gradientUnits="userSpaceOnUse" gradientTransform="translate(8.38889 7.20833) rotate(56.3099) scale(19.0293 16.4677)">
<stop offset="0.177083" stop-color="white"/>
<stop offset="1" stop-color="#B8B8B8"/>
</radialGradient>
<linearGradient id="paint2_linear_41743_63083" x1="8.45833" y1="2" x2="11.1512" y2="22.1965" gradientUnits="userSpaceOnUse">
<stop stop-color="#BBBBBB"/>
<stop offset="1" stop-color="#888888"/>
</linearGradient>
<linearGradient id="paint3_linear_41743_63083" x1="7" y1="6" x2="18.3886" y2="15.9031" gradientUnits="userSpaceOnUse">
<stop stop-color="#C28400"/>
<stop offset="1" stop-color="#A86500"/>
</linearGradient>
</defs>
</svg>
