<svg width="24" height="24" viewBox="0 0 24 24" fill="none" xmlns="http://www.w3.org/2000/svg">
<g clip-path="url(#clip0_41743_63051)">
<path d="M2 5C2 3.34315 3.34315 2 5 2H19C20.6569 2 22 3.34315 22 5V19C22 20.6569 20.6569 22 19 22H5C3.34315 22 2 20.6569 2 19V5Z" fill="url(#paint0_linear_41743_63051)"/>
<path d="M2 5C2 3.34315 3.34315 2 5 2H19C20.6569 2 22 3.34315 22 5V19C22 20.6569 20.6569 22 19 22H5C3.34315 22 2 20.6569 2 19V5Z" fill="url(#paint1_radial_41743_63051)" fill-opacity="0.2"/>
<path fill-rule="evenodd" clip-rule="evenodd" d="M19 3H5C3.89543 3 3 3.89543 3 5V19C3 20.1046 3.89543 21 5 21H19C20.1046 21 21 20.1046 21 19V5C21 3.89543 20.1046 3 19 3ZM5 2C3.34315 2 2 3.34315 2 5V19C2 20.6569 3.34315 22 5 22H19C20.6569 22 22 20.6569 22 19V5C22 3.34315 20.6569 2 19 2H5Z" fill="url(#paint2_linear_41743_63051)"/>
<path d="M7.25 10.5C7.94036 10.5 8.5 9.94036 8.5 9.25C8.5 8.55964 7.94036 8 7.25 8C6.55964 8 6 8.55964 6 9.25C6 9.94036 6.55964 10.5 7.25 10.5Z" fill="url(#paint3_linear_41743_63051)"/>
<path d="M12 10.5C12.6904 10.5 13.25 9.94036 13.25 9.25C13.25 8.55964 12.6904 8 12 8C11.3096 8 10.75 8.55964 10.75 9.25C10.75 9.94036 11.3096 10.5 12 10.5Z" fill="url(#paint4_linear_41743_63051)"/>
<path d="M13.25 14.75C13.25 15.4404 12.6904 16 12 16C11.3096 16 10.75 15.4404 10.75 14.75C10.75 14.0596 11.3096 13.5 12 13.5C12.6904 13.5 13.25 14.0596 13.25 14.75Z" fill="url(#paint5_linear_41743_63051)"/>
<path d="M7.25 16C7.94036 16 8.5 15.4404 8.5 14.75C8.5 14.0596 7.94036 13.5 7.25 13.5C6.55964 13.5 6 14.0596 6 14.75C6 15.4404 6.55964 16 7.25 16Z" fill="url(#paint6_linear_41743_63051)"/>
<path d="M18 9.25C18 9.94036 17.4404 10.5 16.75 10.5C16.0596 10.5 15.5 9.94036 15.5 9.25C15.5 8.55964 16.0596 8 16.75 8C17.4404 8 18 8.55964 18 9.25Z" fill="url(#paint7_linear_41743_63051)"/>
<path fill-rule="evenodd" clip-rule="evenodd" d="M17.3199 18.0102C16.8394 17.4782 16.5469 16.7733 16.5469 16C16.5469 14.3431 17.89 13 19.5469 13C21.2037 13 22.5469 14.3431 22.5469 16C22.5469 16.7733 22.2543 17.4782 21.7738 18.0102C23.0482 18.1248 24.0469 19.1958 24.0469 20.5C24.0469 21.4016 23.6784 22.3144 22.875 22.9848C22.083 23.6456 20.9568 24 19.5469 24C18.1379 24 17.0116 23.6473 16.2192 22.9869C15.4149 22.3166 15.0469 21.4032 15.0469 20.5C15.0469 19.1958 16.0456 18.1248 17.3199 18.0102Z" fill="#F5F5F5"/>
<path d="M19.5469 18C20.6514 18 21.5469 17.1046 21.5469 16C21.5469 14.8954 20.6514 14 19.5469 14C18.4423 14 17.5469 14.8954 17.5469 16C17.5469 17.1046 18.4423 18 19.5469 18ZM19.5469 23C22.0469 23 23.0469 21.7452 23.0469 20.5C23.0469 19.6716 22.3753 19 21.5469 19H17.5469C16.7184 19 16.0469 19.6716 16.0469 20.5C16.0469 21.7499 17.0469 23 19.5469 23Z" fill="url(#paint8_linear_41743_63051)"/>
</g>
<defs>
<linearGradient id="paint0_linear_41743_63051" x1="7.55556" y1="2" x2="10.0855" y2="22.2393" gradientUnits="userSpaceOnUse">
<stop stop-color="white"/>
<stop offset="1" stop-color="#EBEBEB"/>
</linearGradient>
<radialGradient id="paint1_radial_41743_63051" cx="0" cy="0" r="1" gradientUnits="userSpaceOnUse" gradientTransform="translate(8.38889 7.20833) rotate(56.3099) scale(19.0293 16.4677)">
<stop offset="0.177083" stop-color="white"/>
<stop offset="1" stop-color="#B8B8B8"/>
</radialGradient>
<linearGradient id="paint2_linear_41743_63051" x1="8.45833" y1="2" x2="11.1512" y2="22.1965" gradientUnits="userSpaceOnUse">
<stop stop-color="#BBBBBB"/>
<stop offset="1" stop-color="#888888"/>
</linearGradient>
<linearGradient id="paint3_linear_41743_63051" x1="6" y1="8" x2="13.3846" y2="19.0769" gradientUnits="userSpaceOnUse">
<stop stop-color="#7751B8"/>
<stop offset="1" stop-color="#5A409C"/>
</linearGradient>
<linearGradient id="paint4_linear_41743_63051" x1="6" y1="8" x2="13.3846" y2="19.0769" gradientUnits="userSpaceOnUse">
<stop stop-color="#7751B8"/>
<stop offset="1" stop-color="#5A409C"/>
</linearGradient>
<linearGradient id="paint5_linear_41743_63051" x1="6" y1="8" x2="13.3846" y2="19.0769" gradientUnits="userSpaceOnUse">
<stop stop-color="#7751B8"/>
<stop offset="1" stop-color="#5A409C"/>
</linearGradient>
<linearGradient id="paint6_linear_41743_63051" x1="6" y1="8" x2="13.3846" y2="19.0769" gradientUnits="userSpaceOnUse">
<stop stop-color="#7751B8"/>
<stop offset="1" stop-color="#5A409C"/>
</linearGradient>
<linearGradient id="paint7_linear_41743_63051" x1="6" y1="8" x2="13.3846" y2="19.0769" gradientUnits="userSpaceOnUse">
<stop stop-color="#7751B8"/>
<stop offset="1" stop-color="#5A409C"/>
</linearGradient>
<linearGradient id="paint8_linear_41743_63051" x1="16.0469" y1="14" x2="24.77" y2="20.7846" gradientUnits="userSpaceOnUse">
<stop stop-color="#7751B8"/>
<stop offset="1" stop-color="#5A409C"/>
</linearGradient>
<clipPath id="clip0_41743_63051">
<rect width="24" height="24" fill="white"/>
</clipPath>
</defs>
</svg>
