<svg width="48" height="48" viewBox="0 0 48 48" fill="none" xmlns="http://www.w3.org/2000/svg">
<path d="M5 10C5 7.23858 7.23858 5 10 5H38C40.7614 5 43 7.23858 43 10V38C43 40.7614 40.7614 43 38 43H10C7.23858 43 5 40.7614 5 38V10Z" fill="url(#paint0_linear_41743_63039)"/>
<path d="M5 10C5 7.23858 7.23858 5 10 5H38C40.7614 5 43 7.23858 43 10V38C43 40.7614 40.7614 43 38 43H10C7.23858 43 5 40.7614 5 38V10Z" fill="url(#paint1_radial_41743_63039)" fill-opacity="0.2"/>
<path fill-rule="evenodd" clip-rule="evenodd" d="M38 6H10C7.79086 6 6 7.79086 6 10V38C6 40.2091 7.79086 42 10 42H38C40.2091 42 42 40.2091 42 38V10C42 7.79086 40.2091 6 38 6ZM10 5C7.23858 5 5 7.23858 5 10V38C5 40.7614 7.23858 43 10 43H38C40.7614 43 43 40.7614 43 38V10C43 7.23858 40.7614 5 38 5H10Z" fill="url(#paint2_linear_41743_63039)"/>
<path d="M14.5 21C15.8807 21 17 19.8807 17 18.5C17 17.1193 15.8807 16 14.5 16C13.1193 16 12 17.1193 12 18.5C12 19.8807 13.1193 21 14.5 21Z" fill="url(#paint3_linear_41743_63039)"/>
<path d="M24 21C25.3807 21 26.5 19.8807 26.5 18.5C26.5 17.1193 25.3807 16 24 16C22.6193 16 21.5 17.1193 21.5 18.5C21.5 19.8807 22.6193 21 24 21Z" fill="url(#paint4_linear_41743_63039)"/>
<path d="M26.5 29.5C26.5 30.8807 25.3807 32 24 32C22.6193 32 21.5 30.8807 21.5 29.5C21.5 28.1193 22.6193 27 24 27C25.3807 27 26.5 28.1193 26.5 29.5Z" fill="url(#paint5_linear_41743_63039)"/>
<path d="M14.5 32C15.8807 32 17 30.8807 17 29.5C17 28.1193 15.8807 27 14.5 27C13.1193 27 12 28.1193 12 29.5C12 30.8807 13.1193 32 14.5 32Z" fill="url(#paint6_linear_41743_63039)"/>
<path d="M36 18.5C36 19.8807 34.8807 21 33.5 21C32.1193 21 31 19.8807 31 18.5C31 17.1193 32.1193 16 33.5 16C34.8807 16 36 17.1193 36 18.5Z" fill="url(#paint7_linear_41743_63039)"/>
<path d="M45.5 35C45.5 36.7415 44.5108 38.2519 43.0636 39H44.5826C46.4808 39 48 40.561 48 42.4375C48 43.7484 47.4367 45.0555 46.2275 46.0119C45.0346 46.9553 43.2913 47.5 41 47.5C38.7095 47.5 36.9662 46.9577 35.773 46.0151C34.5628 45.0592 34 43.7515 34 42.4375C34 40.561 35.5192 39 37.4174 39H38.9364C37.4892 38.2519 36.5 36.7415 36.5 35C36.5 32.5147 38.5147 30.5 41 30.5C43.4853 30.5 45.5 32.5147 45.5 35Z" fill="#F5F5F5"/>
<path d="M41 38.5C42.933 38.5 44.5 36.933 44.5 35C44.5 33.067 42.933 31.5 41 31.5C39.067 31.5 37.5 33.067 37.5 35C37.5 36.933 39.067 38.5 41 38.5ZM41 46.5C45.2857 46.5 47 44.461 47 42.4375C47 41.1024 45.9177 40 44.5826 40H37.4174C36.0823 40 35 41.1024 35 42.4375C35 44.4686 36.7143 46.5 41 46.5Z" fill="url(#paint8_linear_41743_63039)"/>
<defs>
<linearGradient id="paint0_linear_41743_63039" x1="15.5556" y1="5" x2="20.3624" y2="43.4547" gradientUnits="userSpaceOnUse">
<stop stop-color="white"/>
<stop offset="1" stop-color="#EBEBEB"/>
</linearGradient>
<radialGradient id="paint1_radial_41743_63039" cx="0" cy="0" r="1" gradientUnits="userSpaceOnUse" gradientTransform="translate(17.1389 14.8958) rotate(56.3099) scale(36.1557 31.2886)">
<stop offset="0.177083" stop-color="white"/>
<stop offset="1" stop-color="#B8B8B8"/>
</radialGradient>
<linearGradient id="paint2_linear_41743_63039" x1="17.2708" y1="5" x2="22.3873" y2="43.3734" gradientUnits="userSpaceOnUse">
<stop stop-color="#BBBBBB"/>
<stop offset="1" stop-color="#888888"/>
</linearGradient>
<linearGradient id="paint3_linear_41743_63039" x1="12" y1="16" x2="26.7692" y2="38.1538" gradientUnits="userSpaceOnUse">
<stop stop-color="#7751B8"/>
<stop offset="1" stop-color="#5A409C"/>
</linearGradient>
<linearGradient id="paint4_linear_41743_63039" x1="12" y1="16" x2="26.7692" y2="38.1538" gradientUnits="userSpaceOnUse">
<stop stop-color="#7751B8"/>
<stop offset="1" stop-color="#5A409C"/>
</linearGradient>
<linearGradient id="paint5_linear_41743_63039" x1="12" y1="16" x2="26.7692" y2="38.1538" gradientUnits="userSpaceOnUse">
<stop stop-color="#7751B8"/>
<stop offset="1" stop-color="#5A409C"/>
</linearGradient>
<linearGradient id="paint6_linear_41743_63039" x1="12" y1="16" x2="26.7692" y2="38.1538" gradientUnits="userSpaceOnUse">
<stop stop-color="#7751B8"/>
<stop offset="1" stop-color="#5A409C"/>
</linearGradient>
<linearGradient id="paint7_linear_41743_63039" x1="12" y1="16" x2="26.7692" y2="38.1538" gradientUnits="userSpaceOnUse">
<stop stop-color="#7751B8"/>
<stop offset="1" stop-color="#5A409C"/>
</linearGradient>
<linearGradient id="paint8_linear_41743_63039" x1="35" y1="31.5" x2="49.6341" y2="43.2073" gradientUnits="userSpaceOnUse">
<stop stop-color="#7751B8"/>
<stop offset="1" stop-color="#5A409C"/>
</linearGradient>
</defs>
</svg>
