<svg width="64" height="64" viewBox="0 0 64 64" fill="none" xmlns="http://www.w3.org/2000/svg">
<path d="M6 13C6 9.13401 9.13401 6 13 6H51C54.866 6 58 9.13401 58 13V51C58 54.866 54.866 58 51 58H13C9.13401 58 6 54.866 6 51V13Z" fill="url(#paint0_linear_41743_63698)"/>
<path d="M6 13C6 9.13401 9.13401 6 13 6H51C54.866 6 58 9.13401 58 13V51C58 54.866 54.866 58 51 58H13C9.13401 58 6 54.866 6 51V13Z" fill="url(#paint1_radial_41743_63698)" fill-opacity="0.2"/>
<path fill-rule="evenodd" clip-rule="evenodd" d="M51 7H13C9.68629 7 7 9.68629 7 13V51C7 54.3137 9.68629 57 13 57H51C54.3137 57 57 54.3137 57 51V13C57 9.68629 54.3137 7 51 7ZM13 6C9.13401 6 6 9.13401 6 13V51C6 54.866 9.13401 58 13 58H51C54.866 58 58 54.866 58 51V13C58 9.13401 54.866 6 51 6H13Z" fill="url(#paint2_linear_41743_63698)"/>
<path d="M22.2796 32L18.812 29.9144C18.0205 29.4383 17.7636 28.4087 18.238 27.6147C18.7125 26.8206 19.7387 26.5628 20.5302 27.0388L26.3883 30.5622C27.4706 31.2132 27.4706 32.7868 26.3883 33.4378L20.5302 36.9612C19.7387 37.4372 18.7125 37.1794 18.238 36.3853C17.7636 35.5912 18.0205 34.5616 18.812 34.0856L22.2796 32ZM41.7204 32L45.188 34.0856C45.9795 34.5616 46.2364 35.5912 45.762 36.3853C45.2875 37.1794 44.2613 37.4372 43.4698 36.9612L37.6117 33.4378C36.5294 32.7868 36.5294 31.2132 37.6117 30.5622L43.4698 27.0388C44.2613 26.5628 45.2875 26.8206 45.762 27.6147C46.2364 28.4087 45.9795 29.4383 45.188 29.9144L41.7204 32ZM36.7602 23.7225L40.3002 21.7623C41.1082 21.3149 42.1283 21.6071 42.5788 22.4151C43.0292 23.223 42.7394 24.2406 41.9314 24.688L35.951 27.9996C34.8461 28.6114 33.4833 27.8246 33.4607 26.5618L33.3384 19.7269C33.3219 18.8034 34.0583 18.0436 34.9832 18.0297C35.9081 18.0159 36.6713 18.7532 36.6878 19.6767L36.7602 23.7225ZM27.2398 23.7225L27.3122 19.6767C27.3287 18.7532 28.0919 18.0159 29.0168 18.0297C29.9417 18.0436 30.6781 18.8034 30.6616 19.7269L30.5393 26.5618C30.5167 27.8246 29.1539 28.6114 28.049 27.9996L22.0686 24.688C21.2606 24.2406 20.9708 23.223 21.4212 22.4151C21.8717 21.6071 22.8918 21.3149 23.6998 21.7623L27.2398 23.7225ZM36.7602 40.2775L36.6878 44.3233C36.6713 45.2467 35.9081 45.9841 34.9832 45.9702C34.0583 45.9563 33.3219 45.1965 33.3384 44.2731L33.4607 37.4381C33.4833 36.1753 34.8461 35.3885 35.951 36.0004L41.9314 39.3119C42.7394 39.7593 43.0292 40.777 42.5788 41.5849C42.1283 42.3928 41.1082 42.6851 40.3002 42.2377L36.7602 40.2775ZM27.2398 40.2775L23.6998 42.2377C22.8918 42.6851 21.8717 42.3928 21.4212 41.5849C20.9708 40.777 21.2606 39.7593 22.0686 39.3119L28.049 36.0004C29.1539 35.3885 30.5167 36.1753 30.5393 37.4381L30.6616 44.2731C30.6781 45.1965 29.9417 45.9563 29.0168 45.9702C28.0919 45.9841 27.3287 45.2467 27.3122 44.3233L27.2398 40.2775ZM28.8 31.5248L31.6118 28.8H32.9196L35.6 31.5248V32.8752L32.9196 35.6H31.6118L28.8 32.8752V31.5248ZM31.0828 31.9171C30.9266 32.0733 30.9266 32.3266 31.0828 32.4828L31.9172 33.3171C32.0734 33.4733 32.3266 33.4733 32.4828 33.3171L33.3172 32.4828C33.4734 32.3266 33.4734 32.0733 33.3172 31.9171L32.4828 31.0828C32.3266 30.9266 32.0734 30.9266 31.9172 31.0828L31.0828 31.9171Z" fill="#21BEF2"/>
<path d="M61 54C61 57.866 57.866 61 54 61C50.134 61 47 57.866 47 54C47 50.134 50.134 47 54 47C57.866 47 61 50.134 61 54Z" fill="#B8B8B8"/>
<path fill-rule="evenodd" clip-rule="evenodd" d="M62 54C62 58.4183 58.4183 62 54 62C49.5817 62 46 58.4183 46 54C46 49.5817 49.5817 46 54 46C58.4183 46 62 49.5817 62 54ZM54 61C57.866 61 61 57.866 61 54C61 50.134 57.866 47 54 47C50.134 47 47 50.134 47 54C47 57.866 50.134 61 54 61Z" fill="#F5F5F5"/>
<defs>
<linearGradient id="paint0_linear_41743_63698" x1="20.4444" y1="6" x2="27.0222" y2="58.6222" gradientUnits="userSpaceOnUse">
<stop stop-color="white"/>
<stop offset="1" stop-color="#EBEBEB"/>
</linearGradient>
<radialGradient id="paint1_radial_41743_63698" cx="0" cy="0" r="1" gradientUnits="userSpaceOnUse" gradientTransform="translate(22.6111 19.5417) rotate(56.3099) scale(49.4762 42.8159)">
<stop offset="0.177083" stop-color="white"/>
<stop offset="1" stop-color="#B8B8B8"/>
</radialGradient>
<linearGradient id="paint2_linear_41743_63698" x1="22.7917" y1="6" x2="29.7931" y2="58.5109" gradientUnits="userSpaceOnUse">
<stop stop-color="#BBBBBB"/>
<stop offset="1" stop-color="#888888"/>
</linearGradient>
</defs>
</svg>
