<svg width="24" height="24" viewBox="0 0 24 24" fill="none" xmlns="http://www.w3.org/2000/svg">
<path d="M2 5C2 3.34315 3.34315 2 5 2H19C20.6569 2 22 3.34315 22 5V19C22 20.6569 20.6569 22 19 22H5C3.34315 22 2 20.6569 2 19V5Z" fill="url(#paint0_linear_41743_63684)"/>
<path d="M2 5C2 3.34315 3.34315 2 5 2H19C20.6569 2 22 3.34315 22 5V19C22 20.6569 20.6569 22 19 22H5C3.34315 22 2 20.6569 2 19V5Z" fill="url(#paint1_radial_41743_63684)" fill-opacity="0.2"/>
<path fill-rule="evenodd" clip-rule="evenodd" d="M19 3H5C3.89543 3 3 3.89543 3 5V19C3 20.1046 3.89543 21 5 21H19C20.1046 21 21 20.1046 21 19V5C21 3.89543 20.1046 3 19 3ZM5 2C3.34315 2 2 3.34315 2 5V19C2 20.6569 3.34315 22 5 22H19C20.6569 22 22 20.6569 22 19V5C22 3.34315 20.6569 2 19 2H5Z" fill="url(#paint2_linear_41743_63684)"/>
<path d="M7.8341 12.0001L6.348 11.1063C6.0088 10.9023 5.89867 10.461 6.10201 10.1207C6.30535 9.78041 6.74517 9.66991 7.08436 9.87392L9.59497 11.3839C10.0588 11.6629 10.0588 12.3373 9.59497 12.6163L7.08436 14.1264C6.74517 14.3304 6.30535 14.2199 6.10201 13.8796C5.89867 13.5392 6.0088 13.098 6.348 12.894L7.8341 12.0001ZM16.1659 12.0001L17.652 12.894C17.9912 13.098 18.1013 13.5392 17.898 13.8796C17.6946 14.2199 17.2548 14.3304 16.9156 14.1264L14.405 12.6163C13.9412 12.3373 13.9412 11.6629 14.405 11.3839L16.9156 9.87392C17.2548 9.66991 17.6946 9.78041 17.898 10.1207C18.1013 10.461 17.9912 10.9023 17.652 11.1063L16.1659 12.0001ZM14.0401 8.45264L15.5572 7.61256C15.9035 7.42081 16.3407 7.54607 16.5338 7.89232C16.7268 8.23858 16.6026 8.67471 16.2563 8.86646L13.6933 10.2857C13.2198 10.5479 12.6357 10.2107 12.626 9.6695L12.5736 6.74024C12.5665 6.34448 12.8821 6.01884 13.2785 6.0129C13.6749 6.00696 14.002 6.32297 14.0091 6.71873L14.0401 8.45264ZM9.95991 8.45264L9.99094 6.71873C9.99802 6.32297 10.3251 6.00696 10.7215 6.0129C11.1179 6.01884 11.4335 6.34448 11.4264 6.74024L11.374 9.6695C11.3643 10.2107 10.7802 10.5479 10.3067 10.2857L7.74368 8.86646C7.3974 8.67471 7.27318 8.23858 7.46624 7.89232C7.65929 7.54607 8.0965 7.42081 8.44278 7.61256L9.95991 8.45264ZM14.0401 15.5476L14.0091 17.2816C14.002 17.6773 13.6749 17.9933 13.2785 17.9874C12.8821 17.9814 12.5665 17.6558 12.5736 17.26L12.626 14.3308C12.6357 13.7896 13.2198 13.4524 13.6933 13.7146L16.2563 15.1338C16.6026 15.3256 16.7268 15.7617 16.5338 16.108C16.3407 16.4542 15.9035 16.5795 15.5572 16.3877L14.0401 15.5476ZM9.95991 15.5476L8.44278 16.3877C8.0965 16.5795 7.65929 16.4542 7.46624 16.108C7.27318 15.7617 7.3974 15.3256 7.74368 15.1338L10.3067 13.7146C10.7802 13.4524 11.3643 13.7896 11.374 14.3308L11.4264 17.26C11.4335 17.6558 11.1179 17.9814 10.7215 17.9874C10.3251 17.9933 9.99802 17.6773 9.99094 17.2816L9.95991 15.5476ZM10.6286 11.7965L11.8336 10.6287H12.3941L13.5429 11.7965V12.3752L12.3941 13.543H11.8336L10.6286 12.3752V11.7965ZM11.6069 11.9646C11.54 12.0316 11.54 12.1401 11.6069 12.2071L11.9645 12.5646C12.0314 12.6316 12.14 12.6316 12.2069 12.5646L12.5645 12.2071C12.6314 12.1401 12.6314 12.0316 12.5645 11.9646L12.2069 11.6071C12.14 11.5401 12.0314 11.5401 11.9645 11.6071L11.6069 11.9646Z" fill="#21BEF2"/>
<path d="M23 19.5C23 21.433 21.433 23 19.5 23C17.567 23 16 21.433 16 19.5C16 17.567 17.567 16 19.5 16C21.433 16 23 17.567 23 19.5Z" fill="#B8B8B8"/>
<path fill-rule="evenodd" clip-rule="evenodd" d="M24 19.5C24 21.9853 21.9853 24 19.5 24C17.0147 24 15 21.9853 15 19.5C15 17.0147 17.0147 15 19.5 15C21.9853 15 24 17.0147 24 19.5ZM19.5 23C21.433 23 23 21.433 23 19.5C23 17.567 21.433 16 19.5 16C17.567 16 16 17.567 16 19.5C16 21.433 17.567 23 19.5 23Z" fill="#F5F5F5"/>
<defs>
<linearGradient id="paint0_linear_41743_63684" x1="7.55556" y1="2" x2="10.0855" y2="22.2393" gradientUnits="userSpaceOnUse">
<stop stop-color="white"/>
<stop offset="1" stop-color="#EBEBEB"/>
</linearGradient>
<radialGradient id="paint1_radial_41743_63684" cx="0" cy="0" r="1" gradientUnits="userSpaceOnUse" gradientTransform="translate(8.38889 7.20833) rotate(56.3099) scale(19.0293 16.4677)">
<stop offset="0.177083" stop-color="white"/>
<stop offset="1" stop-color="#B8B8B8"/>
</radialGradient>
<linearGradient id="paint2_linear_41743_63684" x1="8.45833" y1="2" x2="11.1512" y2="22.1965" gradientUnits="userSpaceOnUse">
<stop stop-color="#BBBBBB"/>
<stop offset="1" stop-color="#888888"/>
</linearGradient>
</defs>
</svg>
