<svg width="48" height="48" viewBox="0 0 48 48" fill="none" xmlns="http://www.w3.org/2000/svg">
<path d="M5 10C5 7.23858 7.23858 5 10 5H38C40.7614 5 43 7.23858 43 10V38C43 40.7614 40.7614 43 38 43H10C7.23858 43 5 40.7614 5 38V10Z" fill="url(#paint0_linear_41743_63705)"/>
<path d="M5 10C5 7.23858 7.23858 5 10 5H38C40.7614 5 43 7.23858 43 10V38C43 40.7614 40.7614 43 38 43H10C7.23858 43 5 40.7614 5 38V10Z" fill="url(#paint1_radial_41743_63705)" fill-opacity="0.2"/>
<path fill-rule="evenodd" clip-rule="evenodd" d="M38 6H10C7.79086 6 6 7.79086 6 10V38C6 40.2091 7.79086 42 10 42H38C40.2091 42 42 40.2091 42 38V10C42 7.79086 40.2091 6 38 6ZM10 5C7.23858 5 5 7.23858 5 10V38C5 40.7614 7.23858 43 10 43H38C40.7614 43 43 40.7614 43 38V10C43 7.23858 40.7614 5 38 5H10Z" fill="url(#paint2_linear_41743_63705)"/>
<path d="M15.6682 24L12.696 22.2124C12.0176 21.8044 11.7973 20.9218 12.204 20.2412C12.6107 19.5606 13.4903 19.3396 14.1687 19.7476L19.1899 22.7677C20.1176 23.3256 20.1176 24.6745 19.1899 25.2324L14.1687 28.2525C13.4903 28.6605 12.6107 28.4395 12.204 27.7589C11.7973 27.0783 12.0176 26.1957 12.696 25.7877L15.6682 24ZM32.3318 24L35.304 25.7877C35.9824 26.1957 36.2027 27.0783 35.796 27.7589C35.3893 28.4395 34.5097 28.6605 33.8313 28.2525L28.8101 25.2324C27.8824 24.6745 27.8824 23.3256 28.8101 22.7677L33.8313 19.7476C34.5097 19.3396 35.3893 19.5606 35.796 20.2412C36.2027 20.9218 35.9824 21.8044 35.304 22.2124L32.3318 24ZM28.0802 16.905L31.1144 15.2249C31.807 14.8414 32.6814 15.0919 33.0675 15.7844C33.4536 16.4769 33.2052 17.3492 32.5127 17.7327L27.3866 20.5711C26.4395 21.0956 25.2714 20.4212 25.252 19.3388L25.1472 13.4802C25.133 12.6887 25.7642 12.0374 26.557 12.0256C27.3498 12.0137 28.004 12.6457 28.0181 13.4372L28.0802 16.905ZM19.9198 16.905L19.9819 13.4372C19.996 12.6457 20.6502 12.0137 21.443 12.0256C22.2358 12.0374 22.867 12.6887 22.8528 13.4802L22.748 19.3388C22.7286 20.4212 21.5605 21.0956 20.6134 20.5711L15.4874 17.7327C14.7948 17.3492 14.5464 16.4769 14.9325 15.7844C15.3186 15.0919 16.193 14.8414 16.8856 15.2249L19.9198 16.905ZM28.0802 31.095L28.0181 34.5629C28.004 35.3544 27.3498 35.9864 26.557 35.9745C25.7642 35.9627 25.133 35.3114 25.1472 34.5199L25.252 28.6613C25.2714 27.5789 26.4395 26.9045 27.3866 27.4289L32.5127 30.2674C33.2052 30.6509 33.4536 31.5232 33.0675 32.2157C32.6814 32.9082 31.807 33.1587 31.1144 32.7752L28.0802 31.095ZM19.9198 31.095L16.8856 32.7752C16.193 33.1587 15.3186 32.9082 14.9325 32.2157C14.5464 31.5232 14.7948 30.6509 15.4874 30.2674L20.6134 27.4289C21.5605 26.9045 22.7286 27.5789 22.748 28.6613L22.8528 34.5199C22.867 35.3114 22.2358 35.9627 21.443 35.9745C20.6502 35.9864 19.996 35.3544 19.9819 34.5629L19.9198 31.095ZM21.2571 23.5927L23.6673 21.2572H24.7882L27.0857 23.5927V24.7502L24.7882 27.0858H23.6673L21.2571 24.7502V23.5927ZM23.2139 23.929C23.08 24.0629 23.08 24.28 23.2139 24.4139L23.929 25.129C24.0629 25.2629 24.28 25.2629 24.4139 25.129L25.129 24.4139C25.2629 24.28 25.2629 24.0629 25.129 23.929L24.4139 23.2139C24.28 23.08 24.0629 23.08 23.929 23.2139L23.2139 23.929Z" fill="#21BEF2"/>
<path d="M46 40C46 43.3137 43.3137 46 40 46C36.6863 46 34 43.3137 34 40C34 36.6863 36.6863 34 40 34C43.3137 34 46 36.6863 46 40Z" fill="#B8B8B8"/>
<path fill-rule="evenodd" clip-rule="evenodd" d="M47 40C47 43.866 43.866 47 40 47C36.134 47 33 43.866 33 40C33 36.134 36.134 33 40 33C43.866 33 47 36.134 47 40ZM40 46C43.3137 46 46 43.3137 46 40C46 36.6863 43.3137 34 40 34C36.6863 34 34 36.6863 34 40C34 43.3137 36.6863 46 40 46Z" fill="#F5F5F5"/>
<defs>
<linearGradient id="paint0_linear_41743_63705" x1="15.5556" y1="5" x2="20.3624" y2="43.4547" gradientUnits="userSpaceOnUse">
<stop stop-color="white"/>
<stop offset="1" stop-color="#EBEBEB"/>
</linearGradient>
<radialGradient id="paint1_radial_41743_63705" cx="0" cy="0" r="1" gradientUnits="userSpaceOnUse" gradientTransform="translate(17.1389 14.8958) rotate(56.3099) scale(36.1557 31.2886)">
<stop offset="0.177083" stop-color="white"/>
<stop offset="1" stop-color="#B8B8B8"/>
</radialGradient>
<linearGradient id="paint2_linear_41743_63705" x1="17.2708" y1="5" x2="22.3873" y2="43.3734" gradientUnits="userSpaceOnUse">
<stop stop-color="#BBBBBB"/>
<stop offset="1" stop-color="#888888"/>
</linearGradient>
</defs>
</svg>
