<svg width="40" height="40" viewBox="0 0 40 40" fill="none" xmlns="http://www.w3.org/2000/svg">
<path d="M4 8C4 5.79086 5.79086 4 8 4H32C34.2091 4 36 5.79086 36 8V32C36 34.2091 34.2091 36 32 36H8C5.79086 36 4 34.2091 4 32V8Z" fill="url(#paint0_linear_41743_63712)"/>
<path d="M4 8C4 5.79086 5.79086 4 8 4H32C34.2091 4 36 5.79086 36 8V32C36 34.2091 34.2091 36 32 36H8C5.79086 36 4 34.2091 4 32V8Z" fill="url(#paint1_radial_41743_63712)" fill-opacity="0.2"/>
<path fill-rule="evenodd" clip-rule="evenodd" d="M32 5H8C6.34315 5 5 6.34315 5 8V32C5 33.6569 6.34315 35 8 35H32C33.6569 35 35 33.6569 35 32V8C35 6.34315 33.6569 5 32 5ZM8 4C5.79086 4 4 5.79086 4 8V32C4 34.2091 5.79086 36 8 36H32C34.2091 36 36 34.2091 36 32V8C36 5.79086 34.2091 4 32 4H8Z" fill="url(#paint2_linear_41743_63712)"/>
<path d="M13.0568 20L10.58 18.5103C10.0147 18.1703 9.83112 17.4348 10.17 16.8676C10.5089 16.3004 11.2419 16.1163 11.8073 16.4563L15.9916 18.973C16.7647 19.438 16.7647 20.562 15.9916 21.027L11.8073 23.5437C11.2419 23.8837 10.5089 23.6996 10.17 23.1324C9.83112 22.5652 10.0147 21.8297 10.58 21.4897L13.0568 20ZM26.9432 20L29.42 21.4897C29.9853 21.8297 30.1689 22.5652 29.83 23.1324C29.4911 23.6996 28.7581 23.8837 28.1927 23.5437L24.0084 21.027C23.2353 20.562 23.2353 19.438 24.0084 18.973L28.1927 16.4563C28.7581 16.1163 29.4911 16.3004 29.83 16.8676C30.1689 17.4348 29.9853 18.1703 29.42 18.5103L26.9432 20ZM23.4002 14.0875L25.9287 12.6874C26.5058 12.3678 27.2345 12.5765 27.5563 13.1536C27.878 13.7307 27.671 14.4576 27.0939 14.7772L22.8222 17.1426C22.0329 17.5796 21.0595 17.0176 21.0434 16.1156L20.956 11.2335C20.9442 10.5739 21.4702 10.0312 22.1308 10.0213C22.7915 10.0114 23.3366 10.538 23.3484 11.1976L23.4002 14.0875ZM16.5998 14.0875L16.6516 11.1976C16.6634 10.538 17.2085 10.0114 17.8692 10.0213C18.5298 10.0312 19.0558 10.5739 19.044 11.2335L18.9566 16.1156C18.9405 17.0176 17.9671 17.5796 17.1778 17.1426L12.9061 14.7772C12.329 14.4576 12.122 13.7307 12.4437 13.1536C12.7655 12.5765 13.4942 12.3678 14.0713 12.6874L16.5998 14.0875ZM23.4002 25.9125L23.3484 28.8024C23.3366 29.462 22.7915 29.9886 22.1308 29.9787C21.4702 29.9688 20.9442 29.4261 20.956 28.7665L21.0434 23.8844C21.0595 22.9824 22.0329 22.4204 22.8222 22.8574L27.0939 25.2228C27.671 25.5424 27.878 26.2693 27.5563 26.8464C27.2345 27.4235 26.5058 27.6322 25.9287 27.3126L23.4002 25.9125ZM16.5998 25.9125L14.0713 27.3126C13.4942 27.6322 12.7655 27.4235 12.4437 26.8464C12.122 26.2693 12.329 25.5424 12.9061 25.2228L17.1778 22.8574C17.9671 22.4204 18.9405 22.9824 18.9566 23.8844L19.044 28.7665C19.0558 29.4261 18.5298 29.9688 17.8692 29.9787C17.2085 29.9886 16.6634 29.462 16.6516 28.8024L16.5998 25.9125ZM17.7143 19.6606L19.7227 17.7143H20.6568L22.5714 19.6606V20.6251L20.6568 22.5714H19.7227L17.7143 20.6251V19.6606ZM19.3449 19.9408C19.2333 20.0524 19.2333 20.2333 19.3449 20.3449L19.9408 20.9408C20.0524 21.0524 20.2333 21.0524 20.3449 20.9408L20.9408 20.3449C21.0524 20.2333 21.0524 20.0524 20.9408 19.9408L20.3449 19.3449C20.2333 19.2333 20.0524 19.2333 19.9408 19.3449L19.3449 19.9408Z" fill="#21BEF2"/>
<path d="M38 33C38 35.7614 35.7614 38 33 38C30.2386 38 28 35.7614 28 33C28 30.2386 30.2386 28 33 28C35.7614 28 38 30.2386 38 33Z" fill="#B8B8B8"/>
<path fill-rule="evenodd" clip-rule="evenodd" d="M39 33C39 36.3137 36.3137 39 33 39C29.6863 39 27 36.3137 27 33C27 29.6863 29.6863 27 33 27C36.3137 27 39 29.6863 39 33ZM33 38C35.7614 38 38 35.7614 38 33C38 30.2386 35.7614 28 33 28C30.2386 28 28 30.2386 28 33C28 35.7614 30.2386 38 33 38Z" fill="#F5F5F5"/>
<defs>
<linearGradient id="paint0_linear_41743_63712" x1="12.8889" y1="4" x2="16.9368" y2="36.3829" gradientUnits="userSpaceOnUse">
<stop stop-color="white"/>
<stop offset="1" stop-color="#EBEBEB"/>
</linearGradient>
<radialGradient id="paint1_radial_41743_63712" cx="0" cy="0" r="1" gradientUnits="userSpaceOnUse" gradientTransform="translate(14.2222 12.3333) rotate(56.3099) scale(30.4469 26.3483)">
<stop offset="0.177083" stop-color="white"/>
<stop offset="1" stop-color="#B8B8B8"/>
</radialGradient>
<linearGradient id="paint2_linear_41743_63712" x1="14.3333" y1="4" x2="18.6419" y2="36.3144" gradientUnits="userSpaceOnUse">
<stop stop-color="#BBBBBB"/>
<stop offset="1" stop-color="#888888"/>
</linearGradient>
</defs>
</svg>
