<svg width="40" height="40" viewBox="0 0 40 40" fill="none" xmlns="http://www.w3.org/2000/svg">
<path d="M4 8C4 5.79086 5.79086 4 8 4H32C34.2091 4 36 5.79086 36 8V32C36 34.2091 34.2091 36 32 36H8C5.79086 36 4 34.2091 4 32V8Z" fill="url(#paint0_linear_41743_63035)"/>
<path d="M4 8C4 5.79086 5.79086 4 8 4H32C34.2091 4 36 5.79086 36 8V32C36 34.2091 34.2091 36 32 36H8C5.79086 36 4 34.2091 4 32V8Z" fill="url(#paint1_radial_41743_63035)" fill-opacity="0.2"/>
<path fill-rule="evenodd" clip-rule="evenodd" d="M32 5H8C6.34315 5 5 6.34315 5 8V32C5 33.6569 6.34315 35 8 35H32C33.6569 35 35 33.6569 35 32V8C35 6.34315 33.6569 5 32 5ZM8 4C5.79086 4 4 5.79086 4 8V32C4 34.2091 5.79086 36 8 36H32C34.2091 36 36 34.2091 36 32V8C36 5.79086 34.2091 4 32 4H8Z" fill="url(#paint2_linear_41743_63035)"/>
<path d="M20 9.92969C20.4142 9.92969 20.75 10.2655 20.75 10.6797V18.7012L27.6974 14.6901C28.0561 14.483 28.5148 14.6059 28.7219 14.9646C28.929 15.3233 28.8061 15.782 28.4474 15.9891L21.5003 20L28.4474 24.0109C28.8061 24.218 28.929 24.6767 28.7219 25.0354C28.5148 25.3941 28.0561 25.517 27.6974 25.3099L20.75 21.2988V29.3208C20.75 29.735 20.4142 30.0708 20 30.0708C19.5858 30.0708 19.25 29.735 19.25 29.3208V21.2992L12.3037 25.3097C11.945 25.5168 11.4863 25.3939 11.2792 25.0352C11.0721 24.6764 11.195 24.2177 11.5537 24.0106L18.5003 20L11.5537 15.9894C11.195 15.7823 11.0721 15.3236 11.2792 14.9648C11.4863 14.6061 11.945 14.4832 12.3037 14.6903L19.25 18.7008V10.6797C19.25 10.2655 19.5858 9.92969 20 9.92969Z" fill="url(#paint3_linear_41743_63035)"/>
<defs>
<linearGradient id="paint0_linear_41743_63035" x1="12.8889" y1="4" x2="16.9368" y2="36.3829" gradientUnits="userSpaceOnUse">
<stop stop-color="white"/>
<stop offset="1" stop-color="#EBEBEB"/>
</linearGradient>
<radialGradient id="paint1_radial_41743_63035" cx="0" cy="0" r="1" gradientUnits="userSpaceOnUse" gradientTransform="translate(14.2222 12.3333) rotate(56.3099) scale(30.4469 26.3483)">
<stop offset="0.177083" stop-color="white"/>
<stop offset="1" stop-color="#B8B8B8"/>
</radialGradient>
<linearGradient id="paint2_linear_41743_63035" x1="14.3333" y1="4" x2="18.6419" y2="36.3144" gradientUnits="userSpaceOnUse">
<stop stop-color="#BBBBBB"/>
<stop offset="1" stop-color="#888888"/>
</linearGradient>
<linearGradient id="paint3_linear_41743_63035" x1="11.1786" y1="9.92969" x2="31.1445" y2="27.4201" gradientUnits="userSpaceOnUse">
<stop stop-color="#4BA446"/>
<stop offset="1" stop-color="#3F7D35"/>
</linearGradient>
</defs>
</svg>
