<svg width="64" height="64" viewBox="0 0 64 64" fill="none" xmlns="http://www.w3.org/2000/svg">
<path d="M6 13C6 9.13401 9.13401 6 13 6H51C54.866 6 58 9.13401 58 13V51C58 54.866 54.866 58 51 58H13C9.13401 58 6 54.866 6 51V13Z" fill="url(#paint0_linear_41743_63031)"/>
<path d="M6 13C6 9.13401 9.13401 6 13 6H51C54.866 6 58 9.13401 58 13V51C58 54.866 54.866 58 51 58H13C9.13401 58 6 54.866 6 51V13Z" fill="url(#paint1_radial_41743_63031)" fill-opacity="0.2"/>
<path fill-rule="evenodd" clip-rule="evenodd" d="M51 7H13C9.68629 7 7 9.68629 7 13V51C7 54.3137 9.68629 57 13 57H51C54.3137 57 57 54.3137 57 51V13C57 9.68629 54.3137 7 51 7ZM13 6C9.13401 6 6 9.13401 6 13V51C6 54.866 9.13401 58 13 58H51C54.866 58 58 54.866 58 51V13C58 9.13401 54.866 6 51 6H13Z" fill="url(#paint2_linear_41743_63031)"/>
<path d="M32.0049 18C32.4191 18 32.7549 18.3358 32.7549 18.75V30.7007L43.1044 24.7254C43.4631 24.5183 43.9218 24.6412 44.1289 24.9999C44.336 25.3586 44.2131 25.8173 43.8544 26.0244L33.5047 31.9998L43.855 37.9756C44.2138 38.1827 44.3367 38.6414 44.1296 39.0001C43.9225 39.3588 43.4638 39.4817 43.105 39.2746L32.7549 33.299V45.25C32.7549 45.6642 32.4191 46 32.0049 46C31.5907 46 31.2549 45.6642 31.2549 45.25V33.2987L20.9047 39.2744C20.546 39.4815 20.0873 39.3586 19.8802 38.9999C19.6731 38.6412 19.796 38.1825 20.1547 37.9754L30.5047 31.9998L20.1554 26.0246C19.7967 25.8175 19.6737 25.3588 19.8809 25.0001C20.088 24.6414 20.5467 24.5185 20.9054 24.7256L31.2549 30.7009V18.75C31.2549 18.3358 31.5907 18 32.0049 18Z" fill="url(#paint3_linear_41743_63031)"/>
<defs>
<linearGradient id="paint0_linear_41743_63031" x1="20.4444" y1="6" x2="27.0222" y2="58.6222" gradientUnits="userSpaceOnUse">
<stop stop-color="white"/>
<stop offset="1" stop-color="#EBEBEB"/>
</linearGradient>
<radialGradient id="paint1_radial_41743_63031" cx="0" cy="0" r="1" gradientUnits="userSpaceOnUse" gradientTransform="translate(22.6111 19.5417) rotate(56.3099) scale(49.4762 42.8159)">
<stop offset="0.177083" stop-color="white"/>
<stop offset="1" stop-color="#B8B8B8"/>
</radialGradient>
<linearGradient id="paint2_linear_41743_63031" x1="22.7917" y1="6" x2="29.7931" y2="58.5109" gradientUnits="userSpaceOnUse">
<stop stop-color="#BBBBBB"/>
<stop offset="1" stop-color="#888888"/>
</linearGradient>
<linearGradient id="paint3_linear_41743_63031" x1="19.7796" y1="18" x2="47.5243" y2="42.2277" gradientUnits="userSpaceOnUse">
<stop stop-color="#4BA446"/>
<stop offset="1" stop-color="#3F7D35"/>
</linearGradient>
</defs>
</svg>
