<svg width="48" height="48" viewBox="0 0 48 48" fill="none" xmlns="http://www.w3.org/2000/svg">
<path d="M5 10C5 7.23858 7.23858 5 10 5H38C40.7614 5 43 7.23858 43 10V38C43 40.7614 40.7614 43 38 43H10C7.23858 43 5 40.7614 5 38V10Z" fill="url(#paint0_linear_41743_63012)"/>
<path d="M5 10C5 7.23858 7.23858 5 10 5H38C40.7614 5 43 7.23858 43 10V38C43 40.7614 40.7614 43 38 43H10C7.23858 43 5 40.7614 5 38V10Z" fill="url(#paint1_radial_41743_63012)" fill-opacity="0.2"/>
<path fill-rule="evenodd" clip-rule="evenodd" d="M38 6H10C7.79086 6 6 7.79086 6 10V38C6 40.2091 7.79086 42 10 42H38C40.2091 42 42 40.2091 42 38V10C42 7.79086 40.2091 6 38 6ZM10 5C7.23858 5 5 7.23858 5 10V38C5 40.7614 7.23858 43 10 43H38C40.7614 43 43 40.7614 43 38V10C43 7.23858 40.7614 5 38 5H10Z" fill="url(#paint2_linear_41743_63012)"/>
<path d="M24 12C24.4142 12 24.75 12.3358 24.75 12.75V22.7009L33.3675 17.7256C33.7262 17.5185 34.1849 17.6414 34.392 18.0001C34.5991 18.3588 34.4762 18.8175 34.1175 19.0246L25.4997 24.0001L34.1175 28.9756C34.4762 29.1827 34.5991 29.6414 34.392 30.0001C34.1849 30.3588 33.7262 30.4817 33.3675 30.2746L24.75 25.2993V35.25C24.75 35.6642 24.4142 36 24 36C23.5858 36 23.25 35.6642 23.25 35.25V25.299L14.6319 30.2746C14.2732 30.4817 13.8145 30.3588 13.6074 30.0001C13.4003 29.6414 13.5232 29.1827 13.8819 28.9756L22.4997 24.0001L13.8819 19.0246C13.5232 18.8175 13.4003 18.3588 13.6074 18.0001C13.8145 17.6414 14.2732 17.5185 14.6319 17.7256L23.25 22.7012V12.75C23.25 12.3358 23.5858 12 24 12Z" fill="url(#paint3_linear_41743_63012)"/>
<defs>
<linearGradient id="paint0_linear_41743_63012" x1="15.5556" y1="5" x2="20.3624" y2="43.4547" gradientUnits="userSpaceOnUse">
<stop stop-color="white"/>
<stop offset="1" stop-color="#EBEBEB"/>
</linearGradient>
<radialGradient id="paint1_radial_41743_63012" cx="0" cy="0" r="1" gradientUnits="userSpaceOnUse" gradientTransform="translate(17.1389 14.8958) rotate(56.3099) scale(36.1557 31.2886)">
<stop offset="0.177083" stop-color="white"/>
<stop offset="1" stop-color="#B8B8B8"/>
</radialGradient>
<linearGradient id="paint2_linear_41743_63012" x1="17.2708" y1="5" x2="22.3873" y2="43.3734" gradientUnits="userSpaceOnUse">
<stop stop-color="#BBBBBB"/>
<stop offset="1" stop-color="#888888"/>
</linearGradient>
<linearGradient id="paint3_linear_41743_63012" x1="13.5068" y1="12" x2="37.2923" y2="32.7982" gradientUnits="userSpaceOnUse">
<stop stop-color="#4BA446"/>
<stop offset="1" stop-color="#3F7D35"/>
</linearGradient>
</defs>
</svg>
