<svg width="20" height="20" viewBox="0 0 20 20" fill="none" xmlns="http://www.w3.org/2000/svg">
<g clip-path="url(#clip0_41743_62885)">
<path d="M2 4.5C2 3.11929 3.11929 2 4.5 2H15.5C16.8807 2 18 3.11929 18 4.5V15.5C18 16.8807 16.8807 18 15.5 18H4.5C3.11929 18 2 16.8807 2 15.5V4.5Z" fill="url(#paint0_linear_41743_62885)"/>
<path d="M2 4.5C2 3.11929 3.11929 2 4.5 2H15.5C16.8807 2 18 3.11929 18 4.5V15.5C18 16.8807 16.8807 18 15.5 18H4.5C3.11929 18 2 16.8807 2 15.5V4.5Z" fill="url(#paint1_radial_41743_62885)" fill-opacity="0.2"/>
<path fill-rule="evenodd" clip-rule="evenodd" d="M15.5 3H4.5C3.67157 3 3 3.67157 3 4.5V15.5C3 16.3284 3.67157 17 4.5 17H15.5C16.3284 17 17 16.3284 17 15.5V4.5C17 3.67157 16.3284 3 15.5 3ZM4.5 2C3.11929 2 2 3.11929 2 4.5V15.5C2 16.8807 3.11929 18 4.5 18H15.5C16.8807 18 18 16.8807 18 15.5V4.5C18 3.11929 16.8807 2 15.5 2H4.5Z" fill="url(#paint2_linear_41743_62885)"/>
<path d="M10 9C11.1927 9 12.3171 8.82041 13.1796 8.49699C13.4631 8.39066 13.7413 8.26027 13.9918 8.10005L13.9998 12.7501C13.9998 13.5248 13.3848 14.0915 12.6983 14.4348C11.9818 14.793 11.0271 15.0001 9.99978 15.0001C8.97249 15.0001 8.01773 14.793 7.3013 14.4348C6.61477 14.0915 5.99978 13.5248 5.99978 12.7501L5.99182 8.08951C6.24654 8.25456 6.53073 8.38834 6.82046 8.49699C7.68291 8.82041 8.80728 9 10 9Z" fill="url(#paint3_linear_41743_62885)"/>
<path d="M13.9893 6.61064C13.9964 6.57411 14 6.53721 14 6.5C14 5.67157 12.2092 5 10 5C7.79087 5 6.00001 5.67157 6.00001 6.5C6.00001 6.5356 6.00332 6.5709 6.00982 6.60588C6.01026 6.60821 6.0107 6.61053 6.01116 6.61285C6.16503 7.38857 7.89211 8 10 8C12.1099 8 13.8383 7.38741 13.9893 6.61064Z" fill="url(#paint4_linear_41743_62885)"/>
<path d="M18.4996 17.0002H17.9996V14.5002C17.9996 13.6702 17.3296 13.0002 16.4996 13.0002C15.8896 13.0002 15.3696 13.3602 15.1296 13.8902C14.5596 13.3202 13.8096 13.0102 13.0096 13.0102C12.2796 13.0102 11.5896 13.2702 11.0396 13.7502C10.9996 13.7202 10.9696 13.6802 10.9296 13.6502C10.3696 13.2202 9.68961 12.9902 8.99961 12.9902C8.92961 12.9902 8.85961 12.9902 8.78961 12.9902C8.75961 12.9902 8.71961 12.9902 8.68961 12.9902C8.42961 13.0002 8.17961 13.0302 7.93961 13.1002C7.59961 13.2002 7.29961 13.3702 7.02961 13.5902C6.75961 13.8102 6.53961 14.0902 6.37961 14.4002C6.21961 14.7102 6.12961 15.0502 6.09961 15.4002V15.5002C6.09961 16.0502 6.28961 16.5602 6.64961 16.9702C6.56961 17.0302 6.49961 17.1002 6.43961 17.1802C5.91961 17.8202 6.00961 18.7702 6.64961 19.2902C7.20961 19.7502 7.92961 20.0002 8.65961 20.0002C8.73961 20.0002 8.81961 20.0002 8.82961 20.0002C9.44961 20.0002 9.98961 19.8402 10.4396 19.5402C10.6096 19.4202 10.7696 19.2902 10.8996 19.1302C11.4696 19.6902 12.2096 20.0002 13.0096 20.0002C13.4196 20.0002 13.8196 19.9202 14.1896 19.7602C14.4296 19.9202 14.7096 20.0002 15.0096 20.0002C15.2696 20.0002 15.5296 19.9302 15.7596 19.8002C15.9796 19.9302 16.2396 20.0002 16.5096 20.0002H18.5096C19.3396 20.0002 20.0096 19.3302 20.0096 18.5002C20.0096 17.6702 19.3396 17.0002 18.5096 17.0002H18.4996Z" fill="#F5F5F5"/>
<path d="M10.3052 14.4345C9.87514 14.1024 9.33545 13.9468 8.7959 13.9978C8.60338 13.9834 8.40968 14.0044 8.22443 14.0599C8.01992 14.1211 7.82995 14.2232 7.66595 14.3598C7.50195 14.4965 7.36733 14.665 7.2702 14.8551C7.17307 15.0452 7.11544 15.253 7.1008 15.4659L7.09962 15.4831V15.5002C7.09962 16.0783 7.46398 16.436 7.79222 16.6358C8.09852 16.8223 8.44934 16.9211 8.64107 16.975L8.66372 16.9814L8.72579 16.9988C8.92682 17.0551 9.11326 17.1073 9.26562 17.2002C9.40511 17.2853 9.45762 17.3662 9.45762 17.5002C9.45762 17.7553 9.3733 17.8413 9.30599 17.8873C9.20572 17.9557 9.0337 18.0002 8.79962 18.0002H8.77825L8.75695 18.0021C8.45349 18.0281 8.15185 17.9348 7.91602 17.7421C7.70219 17.5673 7.3872 17.599 7.21246 17.8129C7.03772 18.0267 7.06941 18.3417 7.28323 18.5164C7.71485 18.8691 8.26537 19.0421 8.82064 19.0002C9.14103 18.9978 9.53782 18.9398 9.86976 18.7132C10.2419 18.4592 10.4576 18.0452 10.4576 17.5002C10.4576 16.9183 10.1276 16.5547 9.78637 16.3465C9.50612 16.1756 9.18024 16.0863 8.99437 16.0353L8.93553 16.0191C8.72821 15.9605 8.49524 15.8931 8.31228 15.7817C8.14888 15.6822 8.10464 15.5994 8.10004 15.5158C8.10731 15.4441 8.12786 15.3743 8.1607 15.31C8.19639 15.2402 8.24586 15.1783 8.30613 15.1281C8.3664 15.0778 8.43621 15.0403 8.51137 15.0178C8.58652 14.9953 8.66545 14.9883 8.74341 14.9971L8.80167 15.0037L8.85989 14.9966C9.15728 14.9605 9.45693 15.0429 9.69403 15.226C9.9126 15.3948 10.2266 15.3544 10.3954 15.1358C10.5641 14.9173 10.5238 14.6033 10.3052 14.4345Z" fill="url(#paint5_linear_41743_62885)"/>
<path fill-rule="evenodd" clip-rule="evenodd" d="M13 14C12.4696 14 11.9609 14.2107 11.5858 14.5858C11.2107 14.9609 11 15.4696 11 16V17C11 17.5304 11.2107 18.0391 11.5858 18.4142C11.9609 18.7893 12.4696 19 13 19C13.4562 19 13.8963 18.8441 14.2492 18.5619L14.7 18.9C14.9209 19.0657 15.2343 19.0209 15.4 18.8C15.5657 18.5791 15.5209 18.2657 15.3 18.1L14.8492 17.7619C14.9478 17.5225 15 17.2639 15 17V16C15 15.4696 14.7893 14.9609 14.4142 14.5858C14.0391 14.2107 13.5304 14 13 14ZM13.3 16.6L13.9928 17.1196C13.9976 17.0801 14 17.0402 14 17V16C14 15.7348 13.8946 15.4804 13.7071 15.2929C13.5196 15.1054 13.2652 15 13 15C12.7348 15 12.4804 15.1054 12.2929 15.2929C12.1054 15.4804 12 15.7348 12 16V17C12 17.2652 12.1054 17.5196 12.2929 17.7071C12.4804 17.8946 12.7348 18 13 18C13.1364 18 13.2698 17.9722 13.3928 17.9196L12.7 17.4C12.4791 17.2343 12.4343 16.9209 12.6 16.7C12.7657 16.4791 13.0791 16.4343 13.3 16.6Z" fill="url(#paint6_linear_41743_62885)"/>
<path d="M16.9961 14.5C16.9961 14.2239 16.7722 14 16.4961 14C16.22 14 15.9961 14.2239 15.9961 14.5V18.5C15.9961 18.7761 16.22 19 16.4961 19H18.4961C18.7722 19 18.9961 18.7761 18.9961 18.5C18.9961 18.2239 18.7722 18 18.4961 18H16.9961V14.5Z" fill="url(#paint7_linear_41743_62885)"/>
</g>
<defs>
<linearGradient id="paint0_linear_41743_62885" x1="6.44444" y1="2" x2="8.46838" y2="18.1915" gradientUnits="userSpaceOnUse">
<stop stop-color="white"/>
<stop offset="1" stop-color="#EBEBEB"/>
</linearGradient>
<radialGradient id="paint1_radial_41743_62885" cx="0" cy="0" r="1" gradientUnits="userSpaceOnUse" gradientTransform="translate(7.11111 6.16667) rotate(56.3099) scale(15.2234 13.1741)">
<stop offset="0.177083" stop-color="white"/>
<stop offset="1" stop-color="#B8B8B8"/>
</radialGradient>
<linearGradient id="paint2_linear_41743_62885" x1="7.16667" y1="2" x2="9.32096" y2="18.1572" gradientUnits="userSpaceOnUse">
<stop stop-color="#BBBBBB"/>
<stop offset="1" stop-color="#888888"/>
</linearGradient>
<linearGradient id="paint3_linear_41743_62885" x1="5.99182" y1="5" x2="15.7502" y2="12.8146" gradientUnits="userSpaceOnUse">
<stop stop-color="#008EE6"/>
<stop offset="1" stop-color="#006094"/>
</linearGradient>
<linearGradient id="paint4_linear_41743_62885" x1="5.99182" y1="5" x2="15.7502" y2="12.8146" gradientUnits="userSpaceOnUse">
<stop stop-color="#008EE6"/>
<stop offset="1" stop-color="#006094"/>
</linearGradient>
<linearGradient id="paint5_linear_41743_62885" x1="7.09961" y1="13.9883" x2="10.6935" y2="22.5085" gradientUnits="userSpaceOnUse">
<stop stop-color="#008EE6"/>
<stop offset="1" stop-color="#006094"/>
</linearGradient>
<linearGradient id="paint6_linear_41743_62885" x1="7.09961" y1="13.9883" x2="10.6935" y2="22.5085" gradientUnits="userSpaceOnUse">
<stop stop-color="#008EE6"/>
<stop offset="1" stop-color="#006094"/>
</linearGradient>
<linearGradient id="paint7_linear_41743_62885" x1="7.09961" y1="13.9883" x2="10.6935" y2="22.5085" gradientUnits="userSpaceOnUse">
<stop stop-color="#008EE6"/>
<stop offset="1" stop-color="#006094"/>
</linearGradient>
<clipPath id="clip0_41743_62885">
<rect width="20" height="20" fill="white"/>
</clipPath>
</defs>
</svg>
