<svg width="24" height="24" viewBox="0 0 24 24" fill="none" xmlns="http://www.w3.org/2000/svg">
<g clip-path="url(#clip0_41743_62893)">
<path d="M2 5C2 3.34315 3.34315 2 5 2H19C20.6569 2 22 3.34315 22 5V19C22 20.6569 20.6569 22 19 22H5C3.34315 22 2 20.6569 2 19V5Z" fill="url(#paint0_linear_41743_62893)"/>
<path d="M2 5C2 3.34315 3.34315 2 5 2H19C20.6569 2 22 3.34315 22 5V19C22 20.6569 20.6569 22 19 22H5C3.34315 22 2 20.6569 2 19V5Z" fill="url(#paint1_radial_41743_62893)" fill-opacity="0.2"/>
<path fill-rule="evenodd" clip-rule="evenodd" d="M19 3H5C3.89543 3 3 3.89543 3 5V19C3 20.1046 3.89543 21 5 21H19C20.1046 21 21 20.1046 21 19V5C21 3.89543 20.1046 3 19 3ZM5 2C3.34315 2 2 3.34315 2 5V19C2 20.6569 3.34315 22 5 22H19C20.6569 22 22 20.6569 22 19V5C22 3.34315 20.6569 2 19 2H5Z" fill="url(#paint2_linear_41743_62893)"/>
<path d="M12 11C13.1927 11 14.3171 10.8204 15.1795 10.497C15.463 10.3907 15.7411 10.2604 15.9915 10.1003L15.9998 15.7501C15.9998 16.5248 15.3856 17.0915 14.7 17.4348C13.9845 17.793 13.031 18.0001 12.0051 18.0001C10.9792 18.0001 10.0257 17.793 9.31026 17.4348C8.62466 17.0915 8.01049 16.5248 8.01049 15.7501L8.0022 10.0962C8.25425 10.2582 8.53465 10.3898 8.82045 10.497C9.68289 10.8204 10.8073 11 12 11Z" fill="url(#paint3_linear_41743_62893)"/>
<path d="M8.00928 8.60298C8.15038 9.38337 9.88316 10 12 10C14.157 10 15.9153 9.35974 15.997 8.55836C15.999 8.539 16 8.51954 16 8.5C16 7.67191 14.2106 7.00054 12.0027 7C9.79774 7.00054 8.01072 7.67191 8.01072 8.5C8.01072 8.53796 8.01448 8.5756 8.02186 8.61285L8.00928 8.60298Z" fill="url(#paint4_linear_41743_62893)"/>
<path d="M22.4996 21.0002H21.9996V18.5002C21.9996 17.6702 21.3296 17.0002 20.4996 17.0002C19.8896 17.0002 19.3696 17.3602 19.1296 17.8902C18.5596 17.3202 17.8096 17.0102 17.0096 17.0102C16.2796 17.0102 15.5896 17.2702 15.0396 17.7502C14.9996 17.7202 14.9696 17.6802 14.9296 17.6502C14.3696 17.2202 13.6896 16.9902 12.9996 16.9902C12.9296 16.9902 12.8596 16.9902 12.7896 16.9902C12.7596 16.9902 12.7196 16.9902 12.6896 16.9902C12.4296 17.0002 12.1796 17.0302 11.9396 17.1002C11.5996 17.2002 11.2996 17.3702 11.0296 17.5902C10.7596 17.8102 10.5396 18.0902 10.3796 18.4002C10.2196 18.7102 10.1296 19.0502 10.0996 19.4002V19.5002C10.0996 20.0502 10.2896 20.5602 10.6496 20.9702C10.5696 21.0302 10.4996 21.1002 10.4396 21.1802C9.91961 21.8202 10.0096 22.7702 10.6496 23.2902C11.2096 23.7502 11.9296 24.0002 12.6596 24.0002C12.7396 24.0002 12.8196 24.0002 12.8296 24.0002C13.4496 24.0002 13.9896 23.8402 14.4396 23.5402C14.6096 23.4202 14.7696 23.2902 14.8996 23.1302C15.4696 23.6902 16.2096 24.0002 17.0096 24.0002C17.4196 24.0002 17.8196 23.9202 18.1896 23.7602C18.4296 23.9202 18.7096 24.0002 19.0096 24.0002C19.2696 24.0002 19.5296 23.9302 19.7596 23.8002C19.9796 23.9302 20.2396 24.0002 20.5096 24.0002H22.5096C23.3396 24.0002 24.0096 23.3302 24.0096 22.5002C24.0096 21.6702 23.3396 21.0002 22.5096 21.0002H22.4996Z" fill="#F5F5F5"/>
<path d="M14.3052 18.4345C13.8751 18.1024 13.3355 17.9468 12.7959 17.9978C12.6034 17.9834 12.4097 18.0044 12.2244 18.0599C12.0199 18.1211 11.8299 18.2232 11.6659 18.3598C11.5019 18.4965 11.3673 18.665 11.2702 18.8551C11.1731 19.0452 11.1154 19.253 11.1008 19.4659L11.0996 19.4831V19.5002C11.0996 20.0783 11.464 20.436 11.7922 20.6358C12.0985 20.8223 12.4493 20.9211 12.6411 20.975L12.6637 20.9814L12.7258 20.9988C12.9268 21.0551 13.1133 21.1073 13.2656 21.2002C13.4051 21.2853 13.4576 21.3662 13.4576 21.5002C13.4576 21.7553 13.3733 21.8413 13.306 21.8873C13.2057 21.9557 13.0337 22.0002 12.7996 22.0002H12.7782L12.757 22.0021C12.4535 22.0281 12.1519 21.9348 11.916 21.7421C11.7022 21.5673 11.3872 21.599 11.2125 21.8129C11.0377 22.0267 11.0694 22.3417 11.2832 22.5164C11.7149 22.8691 12.2654 23.0421 12.8206 23.0002C13.141 22.9978 13.5378 22.9398 13.8698 22.7132C14.2419 22.4592 14.4576 22.0452 14.4576 21.5002C14.4576 20.9183 14.1276 20.5547 13.7864 20.3465C13.5061 20.1756 13.1802 20.0863 12.9944 20.0353L12.9355 20.0191C12.7282 19.9605 12.4952 19.8931 12.3123 19.7817C12.1489 19.6822 12.1046 19.5994 12.1 19.5158C12.1073 19.4441 12.1279 19.3743 12.1607 19.31C12.1964 19.2402 12.2459 19.1783 12.3061 19.1281C12.3664 19.0778 12.4362 19.0403 12.5114 19.0178C12.5865 18.9953 12.6655 18.9883 12.7434 18.9971L12.8017 19.0037L12.8599 18.9966C13.1573 18.9605 13.4569 19.0429 13.694 19.226C13.9126 19.3948 14.2266 19.3544 14.3954 19.1358C14.5641 18.9173 14.5238 18.6033 14.3052 18.4345Z" fill="url(#paint5_linear_41743_62893)"/>
<path fill-rule="evenodd" clip-rule="evenodd" d="M17 18C16.4696 18 15.9609 18.2107 15.5858 18.5858C15.2107 18.9609 15 19.4696 15 20V21C15 21.5304 15.2107 22.0391 15.5858 22.4142C15.9609 22.7893 16.4696 23 17 23C17.4562 23 17.8963 22.8441 18.2492 22.5619L18.7 22.9C18.9209 23.0657 19.2343 23.0209 19.4 22.8C19.5657 22.5791 19.5209 22.2657 19.3 22.1L18.8492 21.7619C18.9478 21.5225 19 21.2639 19 21V20C19 19.4696 18.7893 18.9609 18.4142 18.5858C18.0391 18.2107 17.5304 18 17 18ZM17.3 20.6L17.9928 21.1196C17.9976 21.0801 18 21.0402 18 21V20C18 19.7348 17.8946 19.4804 17.7071 19.2929C17.5196 19.1054 17.2652 19 17 19C16.7348 19 16.4804 19.1054 16.2929 19.2929C16.1054 19.4804 16 19.7348 16 20V21C16 21.2652 16.1054 21.5196 16.2929 21.7071C16.4804 21.8946 16.7348 22 17 22C17.1364 22 17.2698 21.9722 17.3928 21.9196L16.7 21.4C16.4791 21.2343 16.4343 20.9209 16.6 20.7C16.7657 20.4791 17.0791 20.4343 17.3 20.6Z" fill="url(#paint6_linear_41743_62893)"/>
<path d="M20.9961 18.5C20.9961 18.2239 20.7722 18 20.4961 18C20.22 18 19.9961 18.2239 19.9961 18.5V22.5C19.9961 22.7761 20.22 23 20.4961 23H22.4961C22.7722 23 22.9961 22.7761 22.9961 22.5C22.9961 22.2239 22.7722 22 22.4961 22H20.9961V18.5Z" fill="url(#paint7_linear_41743_62893)"/>
</g>
<defs>
<linearGradient id="paint0_linear_41743_62893" x1="7.55556" y1="2" x2="10.0855" y2="22.2393" gradientUnits="userSpaceOnUse">
<stop stop-color="white"/>
<stop offset="1" stop-color="#EBEBEB"/>
</linearGradient>
<radialGradient id="paint1_radial_41743_62893" cx="0" cy="0" r="1" gradientUnits="userSpaceOnUse" gradientTransform="translate(8.38889 7.20833) rotate(56.3099) scale(19.0293 16.4677)">
<stop offset="0.177083" stop-color="white"/>
<stop offset="1" stop-color="#B8B8B8"/>
</radialGradient>
<linearGradient id="paint2_linear_41743_62893" x1="8.45833" y1="2" x2="11.1512" y2="22.1965" gradientUnits="userSpaceOnUse">
<stop stop-color="#BBBBBB"/>
<stop offset="1" stop-color="#888888"/>
</linearGradient>
<linearGradient id="paint3_linear_41743_62893" x1="8.0022" y1="7" x2="18.4662" y2="14.608" gradientUnits="userSpaceOnUse">
<stop stop-color="#008EE6"/>
<stop offset="1" stop-color="#006094"/>
</linearGradient>
<linearGradient id="paint4_linear_41743_62893" x1="8.0022" y1="7" x2="18.4662" y2="14.608" gradientUnits="userSpaceOnUse">
<stop stop-color="#008EE6"/>
<stop offset="1" stop-color="#006094"/>
</linearGradient>
<linearGradient id="paint5_linear_41743_62893" x1="11.0996" y1="17.9883" x2="14.6935" y2="26.5085" gradientUnits="userSpaceOnUse">
<stop stop-color="#008EE6"/>
<stop offset="1" stop-color="#006094"/>
</linearGradient>
<linearGradient id="paint6_linear_41743_62893" x1="11.0996" y1="17.9883" x2="14.6935" y2="26.5085" gradientUnits="userSpaceOnUse">
<stop stop-color="#008EE6"/>
<stop offset="1" stop-color="#006094"/>
</linearGradient>
<linearGradient id="paint7_linear_41743_62893" x1="11.0996" y1="17.9883" x2="14.6935" y2="26.5085" gradientUnits="userSpaceOnUse">
<stop stop-color="#008EE6"/>
<stop offset="1" stop-color="#006094"/>
</linearGradient>
<clipPath id="clip0_41743_62893">
<rect width="24" height="24" fill="white"/>
</clipPath>
</defs>
</svg>
