<svg width="48" height="48" viewBox="0 0 48 48" fill="none" xmlns="http://www.w3.org/2000/svg">
<path d="M5 10C5 7.23858 7.23858 5 10 5H38C40.7614 5 43 7.23858 43 10V38C43 40.7614 40.7614 43 38 43H10C7.23858 43 5 40.7614 5 38V10Z" fill="url(#paint0_linear_41743_62941)"/>
<path d="M5 10C5 7.23858 7.23858 5 10 5H38C40.7614 5 43 7.23858 43 10V38C43 40.7614 40.7614 43 38 43H10C7.23858 43 5 40.7614 5 38V10Z" fill="url(#paint1_radial_41743_62941)" fill-opacity="0.2"/>
<path fill-rule="evenodd" clip-rule="evenodd" d="M38 6H10C7.79086 6 6 7.79086 6 10V38C6 40.2091 7.79086 42 10 42H38C40.2091 42 42 40.2091 42 38V10C42 7.79086 40.2091 6 38 6ZM10 5C7.23858 5 5 7.23858 5 10V38C5 40.7614 7.23858 43 10 43H38C40.7614 43 43 40.7614 43 38V10C43 7.23858 40.7614 5 38 5H10Z" fill="url(#paint2_linear_41743_62941)"/>
<path d="M14.5 21C15.8807 21 17 19.8807 17 18.5C17 17.1193 15.8807 16 14.5 16C13.1193 16 12 17.1193 12 18.5C12 19.8807 13.1193 21 14.5 21Z" fill="url(#paint3_linear_41743_62941)"/>
<path d="M24 21C25.3807 21 26.5 19.8807 26.5 18.5C26.5 17.1193 25.3807 16 24 16C22.6193 16 21.5 17.1193 21.5 18.5C21.5 19.8807 22.6193 21 24 21Z" fill="url(#paint4_linear_41743_62941)"/>
<path d="M26.5 29.5C26.5 30.8807 25.3807 32 24 32C22.6193 32 21.5 30.8807 21.5 29.5C21.5 28.1193 22.6193 27 24 27C25.3807 27 26.5 28.1193 26.5 29.5Z" fill="url(#paint5_linear_41743_62941)"/>
<path d="M14.5 32C15.8807 32 17 30.8807 17 29.5C17 28.1193 15.8807 27 14.5 27C13.1193 27 12 28.1193 12 29.5C12 30.8807 13.1193 32 14.5 32Z" fill="url(#paint6_linear_41743_62941)"/>
<path d="M36 18.5C36 19.8807 34.8807 21 33.5 21C32.1193 21 31 19.8807 31 18.5C31 17.1193 32.1193 16 33.5 16C34.8807 16 36 17.1193 36 18.5Z" fill="url(#paint7_linear_41743_62941)"/>
<path fill-rule="evenodd" clip-rule="evenodd" d="M45.4616 46C46.2078 46.0132 46.8641 45.4684 46.9716 44.7105C47.0571 44.1073 47.0989 43.4088 47.0989 42.8063C47.0989 35.7336 41.3653 30 34.2926 30C33.6033 30 32.9258 30.0546 32.2643 30.1599C31.5087 30.2803 30.9753 30.9453 31.0009 31.6908L31 31.692V43.5C31 44.8807 32.1193 46 33.5 46H45.4616Z" fill="#F5F5F5"/>
<path d="M32.5787 32.1351C33.1366 32.0462 33.7089 32 34.2924 32C40.2606 32 45.0987 36.8382 45.0987 42.8063C45.0987 43.3301 45.0615 43.9336 44.9912 44.4298C44.9525 44.7032 45.1427 44.9563 45.4161 44.9951C45.6895 45.0338 45.9426 44.8436 45.9813 44.5702C46.0592 44.0204 46.0987 43.3694 46.0987 42.8063C46.0987 36.2859 40.8129 31 34.2924 31C33.656 31 33.0311 31.0504 32.4214 31.1475C32.1487 31.1909 31.9629 31.4472 32.0063 31.7199C32.0497 31.9926 32.306 32.1785 32.5787 32.1351Z" fill="url(#paint8_linear_41743_62941)"/>
<path d="M32.5787 35.1016C32.9985 35.0348 33.4292 35 33.8684 35C38.3594 35 42.0001 38.6407 42.0001 43.1317C42.0001 43.5307 41.9715 44.0603 41.9192 44.4298C41.8804 44.7032 42.0706 44.9563 42.344 44.9951C42.6174 45.0338 42.8705 44.8436 42.9093 44.5702C42.9701 44.1412 43.0001 43.5624 43.0001 43.1317C43.0001 38.0884 38.9117 34 33.8684 34C33.3763 34 32.893 34.039 32.4214 34.1141C32.1487 34.1575 31.9629 34.4138 32.0063 34.6865C32.0497 34.9592 32.306 35.1451 32.5787 35.1016Z" fill="url(#paint9_linear_41743_62941)"/>
<path d="M32.5706 38.041C32.8323 38.0037 33.1001 37.9844 33.3727 37.9844C36.4806 37.9844 39.0001 40.5038 39.0001 43.6118C39.0001 43.8844 38.9807 44.1711 38.9441 44.4298C38.9053 44.7032 39.0955 44.9563 39.3689 44.9951C39.6423 45.0338 39.8954 44.8436 39.9342 44.5702C39.9778 44.262 40.0001 43.9282 40.0001 43.6118C40.0001 39.9516 37.0329 36.9844 33.3727 36.9844C33.0527 36.9844 32.7378 37.0071 32.4295 37.051C32.1561 37.09 31.9661 37.3432 32.0051 37.6166C32.044 37.89 32.2973 38.08 32.5706 38.041Z" fill="url(#paint10_linear_41743_62941)"/>
<path d="M36.6025 42.4888C36.6025 43.6216 35.6841 44.54 34.5513 44.54C33.4185 44.54 32.5 43.6216 32.5 42.4888C32.5 41.3559 33.4185 40.4375 34.5513 40.4375C35.6841 40.4375 36.6025 41.3559 36.6025 42.4888Z" fill="url(#paint11_linear_41743_62941)"/>
<defs>
<linearGradient id="paint0_linear_41743_62941" x1="15.5556" y1="5" x2="20.3624" y2="43.4547" gradientUnits="userSpaceOnUse">
<stop stop-color="white"/>
<stop offset="1" stop-color="#EBEBEB"/>
</linearGradient>
<radialGradient id="paint1_radial_41743_62941" cx="0" cy="0" r="1" gradientUnits="userSpaceOnUse" gradientTransform="translate(17.1389 14.8958) rotate(56.3099) scale(36.1557 31.2886)">
<stop offset="0.177083" stop-color="white"/>
<stop offset="1" stop-color="#B8B8B8"/>
</radialGradient>
<linearGradient id="paint2_linear_41743_62941" x1="17.2708" y1="5" x2="22.3873" y2="43.3734" gradientUnits="userSpaceOnUse">
<stop stop-color="#BBBBBB"/>
<stop offset="1" stop-color="#888888"/>
</linearGradient>
<linearGradient id="paint3_linear_41743_62941" x1="12" y1="16" x2="26.7692" y2="38.1538" gradientUnits="userSpaceOnUse">
<stop stop-color="#7751B8"/>
<stop offset="1" stop-color="#5A409C"/>
</linearGradient>
<linearGradient id="paint4_linear_41743_62941" x1="12" y1="16" x2="26.7692" y2="38.1538" gradientUnits="userSpaceOnUse">
<stop stop-color="#7751B8"/>
<stop offset="1" stop-color="#5A409C"/>
</linearGradient>
<linearGradient id="paint5_linear_41743_62941" x1="12" y1="16" x2="26.7692" y2="38.1538" gradientUnits="userSpaceOnUse">
<stop stop-color="#7751B8"/>
<stop offset="1" stop-color="#5A409C"/>
</linearGradient>
<linearGradient id="paint6_linear_41743_62941" x1="12" y1="16" x2="26.7692" y2="38.1538" gradientUnits="userSpaceOnUse">
<stop stop-color="#7751B8"/>
<stop offset="1" stop-color="#5A409C"/>
</linearGradient>
<linearGradient id="paint7_linear_41743_62941" x1="12" y1="16" x2="26.7692" y2="38.1538" gradientUnits="userSpaceOnUse">
<stop stop-color="#7751B8"/>
<stop offset="1" stop-color="#5A409C"/>
</linearGradient>
<linearGradient id="paint8_linear_41743_62941" x1="32" y1="31" x2="45.9997" y2="45.0984" gradientUnits="userSpaceOnUse">
<stop stop-color="#7751B8"/>
<stop offset="1" stop-color="#5A409C"/>
</linearGradient>
<linearGradient id="paint9_linear_41743_62941" x1="32" y1="31" x2="45.9997" y2="45.0984" gradientUnits="userSpaceOnUse">
<stop stop-color="#7751B8"/>
<stop offset="1" stop-color="#5A409C"/>
</linearGradient>
<linearGradient id="paint10_linear_41743_62941" x1="32" y1="31" x2="45.9997" y2="45.0984" gradientUnits="userSpaceOnUse">
<stop stop-color="#7751B8"/>
<stop offset="1" stop-color="#5A409C"/>
</linearGradient>
<linearGradient id="paint11_linear_41743_62941" x1="32" y1="31" x2="45.9997" y2="45.0984" gradientUnits="userSpaceOnUse">
<stop stop-color="#7751B8"/>
<stop offset="1" stop-color="#5A409C"/>
</linearGradient>
</defs>
</svg>
